<?xml version="1.0" encoding="UTF-8"?>
<!--Generator: Apple Native CoreSVG 129-->
<!DOCTYPE svg
PUBLIC "-//W3C//DTD SVG 1.1//EN"
       "http://www.w3.org/Graphics/SVG/1.1/DTD/svg11.dtd">
<svg version="1.1" xmlns="http://www.w3.org/2000/svg" xmlns:xlink="http://www.w3.org/1999/xlink" width="3300" height="2200">
 <!--glyph: "uni100B49.medium", point size: 100.000000, font version: "Version 16.0d9e1", template writer version: "8"-->
 <g id="Notes">
  <rect height="2200" id="artboard" style="fill:white;opacity:1" width="3300" x="0" y="0"/>
  <line id="" style="fill:none;stroke:black;opacity:1;stroke-width:0.5;" x1="263" x2="3036" y1="292" y2="292"/>
  <text style="stroke:none;fill:black;font-family:-apple-system,&quot;SF Pro Display&quot;,&quot;SF Pro Text&quot;,Helvetica,sans-serif;font-weight:bold;" transform="matrix(1 0 0 1 263 322)">Weight/Scale Variations</text>
  <text style="stroke:none;fill:black;font-family:-apple-system,&quot;SF Pro Display&quot;,&quot;SF Pro Text&quot;,Helvetica,sans-serif;text-anchor:middle;" transform="matrix(1 0 0 1 559.711 322)">Ultralight</text>
  <text style="stroke:none;fill:black;font-family:-apple-system,&quot;SF Pro Display&quot;,&quot;SF Pro Text&quot;,Helvetica,sans-serif;text-anchor:middle;" transform="matrix(1 0 0 1 856.422 322)">Thin</text>
  <text style="stroke:none;fill:black;font-family:-apple-system,&quot;SF Pro Display&quot;,&quot;SF Pro Text&quot;,Helvetica,sans-serif;text-anchor:middle;" transform="matrix(1 0 0 1 1153.13 322)">Light</text>
  <text style="stroke:none;fill:black;font-family:-apple-system,&quot;SF Pro Display&quot;,&quot;SF Pro Text&quot;,Helvetica,sans-serif;text-anchor:middle;" transform="matrix(1 0 0 1 1449.84 322)">Regular</text>
  <text style="stroke:none;fill:black;font-family:-apple-system,&quot;SF Pro Display&quot;,&quot;SF Pro Text&quot;,Helvetica,sans-serif;text-anchor:middle;" transform="matrix(1 0 0 1 1746.56 322)">Medium</text>
  <text style="stroke:none;fill:black;font-family:-apple-system,&quot;SF Pro Display&quot;,&quot;SF Pro Text&quot;,Helvetica,sans-serif;text-anchor:middle;" transform="matrix(1 0 0 1 2043.27 322)">Semibold</text>
  <text style="stroke:none;fill:black;font-family:-apple-system,&quot;SF Pro Display&quot;,&quot;SF Pro Text&quot;,Helvetica,sans-serif;text-anchor:middle;" transform="matrix(1 0 0 1 2339.98 322)">Bold</text>
  <text style="stroke:none;fill:black;font-family:-apple-system,&quot;SF Pro Display&quot;,&quot;SF Pro Text&quot;,Helvetica,sans-serif;text-anchor:middle;" transform="matrix(1 0 0 1 2636.69 322)">Heavy</text>
  <text style="stroke:none;fill:black;font-family:-apple-system,&quot;SF Pro Display&quot;,&quot;SF Pro Text&quot;,Helvetica,sans-serif;text-anchor:middle;" transform="matrix(1 0 0 1 2933.4 322)">Black</text>
  <line id="" style="fill:none;stroke:black;opacity:1;stroke-width:0.5;" x1="263" x2="3036" y1="1903" y2="1903"/>
  <g id="" transform="matrix(1 0 0 1 263 1933)">
   <path d="M 9.24805 0.830078 C 13.5547 0.830078 17.1387 -2.74414 17.1387 -7.05078 C 17.1387 -11.3574 13.5449 -14.9316 9.23828 -14.9316 C 4.94141 -14.9316 1.36719 -11.3574 1.36719 -7.05078 C 1.36719 -2.74414 4.95117 0.830078 9.24805 0.830078 Z M 9.24805 -0.654297 C 5.70312 -0.654297 2.87109 -3.49609 2.87109 -7.05078 C 2.87109 -10.6055 5.69336 -13.4473 9.23828 -13.4473 C 12.793 -13.4473 15.6348 -10.6055 15.6445 -7.05078 C 15.6543 -3.49609 12.8027 -0.654297 9.24805 -0.654297 Z M 9.22852 -3.62305 C 9.69727 -3.62305 9.9707 -3.93555 9.9707 -4.45312 L 9.9707 -6.31836 L 12.002 -6.31836 C 12.5 -6.31836 12.832 -6.57227 12.832 -7.04102 C 12.832 -7.51953 12.5195 -7.7832 12.002 -7.7832 L 9.9707 -7.7832 L 9.9707 -9.81445 C 9.9707 -10.332 9.69727 -10.6543 9.22852 -10.6543 C 8.75977 -10.6543 8.50586 -10.3125 8.50586 -9.81445 L 8.50586 -7.7832 L 6.49414 -7.7832 C 5.97656 -7.7832 5.64453 -7.51953 5.64453 -7.04102 C 5.64453 -6.57227 5.99609 -6.31836 6.49414 -6.31836 L 8.50586 -6.31836 L 8.50586 -4.45312 C 8.50586 -3.95508 8.75977 -3.62305 9.22852 -3.62305 Z"/>
  </g>
  <g id="" transform="matrix(1 0 0 1 281.506 1933)">
   <path d="M 11.709 2.91016 C 17.1582 2.91016 21.6699 -1.61133 21.6699 -7.05078 C 21.6699 -12.5 17.1484 -17.0117 11.6992 -17.0117 C 6.25977 -17.0117 1.74805 -12.5 1.74805 -7.05078 C 1.74805 -1.61133 6.26953 2.91016 11.709 2.91016 Z M 11.709 1.25 C 7.09961 1.25 3.41797 -2.44141 3.41797 -7.05078 C 3.41797 -11.6602 7.08984 -15.3516 11.6992 -15.3516 C 16.3086 -15.3516 20 -11.6602 20.0098 -7.05078 C 20.0195 -2.44141 16.3184 1.25 11.709 1.25 Z M 11.6797 -2.66602 C 12.207 -2.66602 12.5098 -3.01758 12.5098 -3.59375 L 12.5098 -6.23047 L 15.3223 -6.23047 C 15.8691 -6.23047 16.25 -6.51367 16.25 -7.03125 C 16.25 -7.55859 15.8887 -7.86133 15.3223 -7.86133 L 12.5098 -7.86133 L 12.5098 -10.6836 C 12.5098 -11.25 12.207 -11.6113 11.6797 -11.6113 C 11.1621 -11.6113 10.8789 -11.2305 10.8789 -10.6836 L 10.8789 -7.86133 L 8.07617 -7.86133 C 7.50977 -7.86133 7.13867 -7.55859 7.13867 -7.03125 C 7.13867 -6.51367 7.5293 -6.23047 8.07617 -6.23047 L 10.8789 -6.23047 L 10.8789 -3.59375 C 10.8789 -3.03711 11.1621 -2.66602 11.6797 -2.66602 Z"/>
  </g>
  <g id="" transform="matrix(1 0 0 1 304.924 1933)">
   <path d="M 14.9707 5.66406 C 21.9336 5.66406 27.6953 -0.0976562 27.6953 -7.05078 C 27.6953 -14.0137 21.9238 -19.7754 14.9609 -19.7754 C 8.00781 -19.7754 2.25586 -14.0137 2.25586 -7.05078 C 2.25586 -0.0976562 8.01758 5.66406 14.9707 5.66406 Z M 14.9707 3.84766 C 8.93555 3.84766 4.08203 -1.01562 4.08203 -7.05078 C 4.08203 -13.0957 8.92578 -17.9492 14.9609 -17.9492 C 21.0059 -17.9492 25.8594 -13.0957 25.8691 -7.05078 C 25.8789 -1.01562 21.0156 3.84766 14.9707 3.84766 Z M 14.9414 -1.38672 C 15.5176 -1.38672 15.8594 -1.77734 15.8594 -2.38281 L 15.8594 -6.13281 L 19.7754 -6.13281 C 20.3711 -6.13281 20.7812 -6.46484 20.7812 -7.02148 C 20.7812 -7.59766 20.3906 -7.93945 19.7754 -7.93945 L 15.8594 -7.93945 L 15.8594 -11.8652 C 15.8594 -12.4805 15.5176 -12.8711 14.9414 -12.8711 C 14.375 -12.8711 14.0527 -12.4609 14.0527 -11.8652 L 14.0527 -7.93945 L 10.1465 -7.93945 C 9.53125 -7.93945 9.13086 -7.59766 9.13086 -7.02148 C 9.13086 -6.46484 9.55078 -6.13281 10.1465 -6.13281 L 14.0527 -6.13281 L 14.0527 -2.38281 C 14.0527 -1.79688 14.375 -1.38672 14.9414 -1.38672 Z"/>
  </g>
  <text style="stroke:none;fill:black;font-family:-apple-system,&quot;SF Pro Display&quot;,&quot;SF Pro Text&quot;,Helvetica,sans-serif;font-weight:bold;" transform="matrix(1 0 0 1 263 1953)">Design Variations</text>
  <text style="stroke:none;fill:black;font-family:-apple-system,&quot;SF Pro Display&quot;,&quot;SF Pro Text&quot;,Helvetica,sans-serif;" transform="matrix(1 0 0 1 263 1971)">Symbols are supported in up to nine weights and three scales.</text>
  <text style="stroke:none;fill:black;font-family:-apple-system,&quot;SF Pro Display&quot;,&quot;SF Pro Text&quot;,Helvetica,sans-serif;" transform="matrix(1 0 0 1 263 1989)">For optimal layout with text and other symbols, vertically align</text>
  <text style="stroke:none;fill:black;font-family:-apple-system,&quot;SF Pro Display&quot;,&quot;SF Pro Text&quot;,Helvetica,sans-serif;" transform="matrix(1 0 0 1 263 2007)">symbols with the adjacent text.</text>
  <line id="" style="fill:none;stroke:#00AEEF;stroke-width:0.5;opacity:1.0;" x1="776" x2="776" y1="1919" y2="1933"/>
  <g id="" transform="matrix(1 0 0 1 776 1933)">
   <path d="M 3.31055 0.126953 C 3.82812 0.126953 4.08203 -0.0683594 4.26758 -0.605469 L 5.52734 -4.0625 L 11.2891 -4.0625 L 12.5488 -0.605469 C 12.7344 -0.0683594 12.9883 0.126953 13.4961 0.126953 C 14.0137 0.126953 14.3457 -0.185547 14.3457 -0.673828 C 14.3457 -0.839844 14.3164 -0.986328 14.2383 -1.20117 L 9.6582 -13.3887 C 9.43359 -13.9941 9.0332 -14.2871 8.4082 -14.2871 C 7.80273 -14.2871 7.39258 -13.9941 7.17773 -13.3984 L 2.59766 -1.19141 C 2.51953 -0.976562 2.49023 -0.830078 2.49023 -0.664062 C 2.49023 -0.175781 2.80273 0.126953 3.31055 0.126953 Z M 6.00586 -5.53711 L 8.37891 -12.1094 L 8.42773 -12.1094 L 10.8008 -5.53711 Z"/>
  </g>
  <line id="" style="fill:none;stroke:#00AEEF;stroke-width:0.5;opacity:1.0;" x1="792.836" x2="792.836" y1="1919" y2="1933"/>
  <text style="stroke:none;fill:black;font-family:-apple-system,&quot;SF Pro Display&quot;,&quot;SF Pro Text&quot;,Helvetica,sans-serif;font-weight:bold;" transform="matrix(1 0 0 1 776 1953)">Margins</text>
  <text style="stroke:none;fill:black;font-family:-apple-system,&quot;SF Pro Display&quot;,&quot;SF Pro Text&quot;,Helvetica,sans-serif;" transform="matrix(1 0 0 1 776 1971)">Leading and trailing margins on the left and right side of each symbol</text>
  <text style="stroke:none;fill:black;font-family:-apple-system,&quot;SF Pro Display&quot;,&quot;SF Pro Text&quot;,Helvetica,sans-serif;" transform="matrix(1 0 0 1 776 1989)">can be adjusted by modifying the x-location of the margin guidelines.</text>
  <text style="stroke:none;fill:black;font-family:-apple-system,&quot;SF Pro Display&quot;,&quot;SF Pro Text&quot;,Helvetica,sans-serif;" transform="matrix(1 0 0 1 776 2007)">Modifications are automatically applied proportionally to all</text>
  <text style="stroke:none;fill:black;font-family:-apple-system,&quot;SF Pro Display&quot;,&quot;SF Pro Text&quot;,Helvetica,sans-serif;" transform="matrix(1 0 0 1 776 2025)">scales and weights.</text>
  <g id="" transform="matrix(1 0 0 1 1289 1933)">
   <path d="M 2.8418 1.86523 L 4.54102 3.57422 C 5.40039 4.44336 6.38672 4.38477 7.31445 3.35938 L 17.4902 -7.85156 C 17.7539 -7.76367 18.0273 -7.7832 18.3398 -7.8418 L 19.4043 -8.03711 L 20.0684 -7.36328 L 20.0293 -6.80664 C 19.9902 -6.30859 20.1172 -5.92773 20.6055 -5.44922 L 21.3672 -4.70703 C 21.8457 -4.22852 22.4609 -4.19922 22.9297 -4.66797 L 25.8398 -7.58789 C 26.3086 -8.05664 26.2891 -8.65234 25.8105 -9.13086 L 25.0391 -9.89258 C 24.5605 -10.3711 24.1895 -10.5273 23.7109 -10.4883 L 23.1348 -10.4395 L 22.4902 -11.0742 L 22.7344 -12.1973 C 22.8613 -12.7637 22.7051 -13.2031 22.1191 -13.7891 L 19.9219 -15.9766 C 16.582 -19.2969 12.1484 -19.2188 9.25781 -16.3281 C 8.83789 -15.918 8.80859 -15.3418 9.04297 -14.9512 C 9.27734 -14.5898 9.73633 -14.3555 10.3809 -14.5215 C 11.8457 -14.8633 13.3691 -14.9219 14.7949 -13.9844 L 14.209 -12.5293 C 14.0137 -12.0508 13.9844 -11.6504 14.1113 -11.2891 L 3.04688 -0.898438 C 2.06055 0.0195312 1.98242 0.996094 2.8418 1.86523 Z M 10.752 -15.957 C 13.1836 -17.7344 16.4746 -17.4316 18.7012 -15.2051 L 21.1328 -12.793 C 21.3672 -12.5586 21.4062 -12.373 21.3379 -12.0312 L 21.0156 -10.5469 L 22.5195 -9.0625 L 23.5059 -9.12109 C 23.7598 -9.13086 23.8379 -9.11133 24.0332 -8.91602 L 24.6094 -8.33984 L 22.168 -5.89844 L 21.5918 -6.47461 C 21.3965 -6.66992 21.3672 -6.74805 21.377 -7.01172 L 21.4453 -7.98828 L 19.9512 -9.47266 L 18.4277 -9.21875 C 18.1055 -9.15039 17.959 -9.17969 17.7148 -9.41406 L 15.7129 -11.416 C 15.459 -11.6504 15.4297 -11.8164 15.5859 -12.1875 L 16.4648 -14.2773 C 14.9023 -15.7324 12.8711 -16.3574 10.8398 -15.7617 C 10.6836 -15.7227 10.625 -15.8496 10.752 -15.957 Z M 5.27344 2.30469 L 4.10156 1.14258 C 3.63281 0.683594 3.74023 0.341797 4.14062 -0.0195312 L 14.9512 -10.1953 L 16.416 -8.71094 L 6.42578 2.27539 C 6.07422 2.67578 5.74219 2.77344 5.27344 2.30469 Z"/>
  </g>
  <text style="stroke:none;fill:black;font-family:-apple-system,&quot;SF Pro Display&quot;,&quot;SF Pro Text&quot;,Helvetica,sans-serif;font-weight:bold;" transform="matrix(1 0 0 1 1289 1953)">Exporting</text>
  <text style="stroke:none;fill:black;font-family:-apple-system,&quot;SF Pro Display&quot;,&quot;SF Pro Text&quot;,Helvetica,sans-serif;" transform="matrix(1 0 0 1 1289 1971)">Symbols should be outlined when exporting to ensure the</text>
  <text style="stroke:none;fill:black;font-family:-apple-system,&quot;SF Pro Display&quot;,&quot;SF Pro Text&quot;,Helvetica,sans-serif;" transform="matrix(1 0 0 1 1289 1989)">design is preserved when submitting to Xcode.</text>
  <text id="template-version" style="stroke:none;fill:black;font-family:-apple-system,&quot;SF Pro Display&quot;,&quot;SF Pro Text&quot;,Helvetica,sans-serif;text-anchor:end;" transform="matrix(1 0 0 1 3036 1933)">Template v.2.0</text>
  <text style="stroke:none;fill:black;font-family:-apple-system,&quot;SF Pro Display&quot;,&quot;SF Pro Text&quot;,Helvetica,sans-serif;text-anchor:end;" transform="matrix(1 0 0 1 3036 1951)">Requires Xcode 12 or greater</text>
  <text style="stroke:none;fill:black;font-family:-apple-system,&quot;SF Pro Display&quot;,&quot;SF Pro Text&quot;,Helvetica,sans-serif;text-anchor:end;" transform="matrix(1 0 0 1 3036 1969)">Generated from questionmark.square.dashed</text>
  <text style="stroke:none;fill:black;font-family:-apple-system,&quot;SF Pro Display&quot;,&quot;SF Pro Text&quot;,Helvetica,sans-serif;text-anchor:end;" transform="matrix(1 0 0 1 3036 1987)">Typeset at 100 points</text>
  <text style="stroke:none;fill:black;font-family:-apple-system,&quot;SF Pro Display&quot;,&quot;SF Pro Text&quot;,Helvetica,sans-serif;" transform="matrix(1 0 0 1 263 726)">Small</text>
  <text style="stroke:none;fill:black;font-family:-apple-system,&quot;SF Pro Display&quot;,&quot;SF Pro Text&quot;,Helvetica,sans-serif;" transform="matrix(1 0 0 1 263 1156)">Medium</text>
  <text style="stroke:none;fill:black;font-family:-apple-system,&quot;SF Pro Display&quot;,&quot;SF Pro Text&quot;,Helvetica,sans-serif;" transform="matrix(1 0 0 1 263 1586)">Large</text>
 </g>
 <g id="Guides">
  <g id="H-reference" style="fill:#27AAE1;stroke:none;" transform="matrix(1 0 0 1 339 696)">
   <path d="M 0.976562 0 L 3.66211 0 L 12.9883 -24.4629 L 45.7031 -24.4629 L 55.0781 0 L 57.7148 0 L 30.6152 -70.459 L 28.125 -70.459 Z M 29.2969 -67.1387 L 29.3945 -67.1387 L 44.873 -26.709 L 13.8672 -26.709 Z"/>
  </g>
  <line id="Baseline-S" style="fill:none;stroke:#27AAE1;opacity:1;stroke-width:0.5;" x1="263" x2="3036" y1="696" y2="696"/>
  <line id="Capline-S" style="fill:none;stroke:#27AAE1;opacity:1;stroke-width:0.5;" x1="263" x2="3036" y1="625.541" y2="625.541"/>
  <g id="H-reference" style="fill:#27AAE1;stroke:none;" transform="matrix(1 0 0 1 339 1126)">
   <path d="M 0.976562 0 L 3.66211 0 L 12.9883 -24.4629 L 45.7031 -24.4629 L 55.0781 0 L 57.7148 0 L 30.6152 -70.459 L 28.125 -70.459 Z M 29.2969 -67.1387 L 29.3945 -67.1387 L 44.873 -26.709 L 13.8672 -26.709 Z"/>
  </g>
  <line id="Baseline-M" style="fill:none;stroke:#27AAE1;opacity:1;stroke-width:0.5;" x1="263" x2="3036" y1="1126" y2="1126"/>
  <line id="Capline-M" style="fill:none;stroke:#27AAE1;opacity:1;stroke-width:0.5;" x1="263" x2="3036" y1="1055.54" y2="1055.54"/>
  <g id="H-reference" style="fill:#27AAE1;stroke:none;" transform="matrix(1 0 0 1 339 1556)">
   <path d="M 0.976562 0 L 3.66211 0 L 12.9883 -24.4629 L 45.7031 -24.4629 L 55.0781 0 L 57.7148 0 L 30.6152 -70.459 L 28.125 -70.459 Z M 29.2969 -67.1387 L 29.3945 -67.1387 L 44.873 -26.709 L 13.8672 -26.709 Z"/>
  </g>
  <line id="Baseline-L" style="fill:none;stroke:#27AAE1;opacity:1;stroke-width:0.5;" x1="263" x2="3036" y1="1556" y2="1556"/>
  <line id="Capline-L" style="fill:none;stroke:#27AAE1;opacity:1;stroke-width:0.5;" x1="263" x2="3036" y1="1485.54" y2="1485.54"/>
  <line id="left-margin" style="fill:none;stroke:#00AEEF;stroke-width:0.5;opacity:1.0;" x1="1392.45" x2="1392.45" y1="1030.79" y2="1150.12"/>
  <line id="right-margin" style="fill:none;stroke:#00AEEF;stroke-width:0.5;opacity:1.0;" x1="1507.24" x2="1507.24" y1="1030.79" y2="1150.12"/>
 </g>
 <g id="Symbols">
  <g id="Black-L" transform="matrix(1 0 0 1 2855.62 1556)">
   <path d="M 16.0645 -62.5488 L 36.3281 -62.5488 L 36.3281 -70.2148 C 36.3281 -74.7559 38.4766 -76.6602 42.6758 -76.6602 L 50.3418 -76.6602 L 50.3418 -96.875 L 39.9902 -96.875 C 24.7559 -96.875 16.0645 -88.2812 16.0645 -73.0957 Z M 61.7676 -76.6602 L 93.7988 -76.6602 L 93.7988 -96.875 L 61.7676 -96.875 Z M 119.238 -62.5488 L 139.502 -62.5488 L 139.502 -73.0957 C 139.502 -88.2812 130.811 -96.875 115.576 -96.875 L 105.176 -96.875 L 105.176 -76.6602 L 112.842 -76.6602 C 117.09 -76.6602 119.238 -74.7559 119.238 -70.2148 Z M 76.0254 -24.2188 C 80.5664 -24.2188 83.8867 -26.416 84.5703 -29.3457 C 84.6191 -29.541 84.7168 -29.834 84.7656 -29.9805 C 85.498 -32.373 88.3301 -34.2773 91.4062 -36.1816 C 97.998 -40.2832 100.977 -43.75 100.977 -50.4395 C 100.977 -61.1816 90.9668 -68.3105 78.1738 -68.3105 C 67.3828 -68.3105 59.3262 -64.1113 56.5918 -57.9102 C 56.0059 -56.5918 55.7129 -55.3711 55.7129 -53.9551 C 55.7129 -50.1465 58.6426 -46.9727 64.0137 -46.9727 C 68.2129 -46.9727 69.9219 -48.9258 71.582 -50.5371 C 73.6816 -52.4902 75.1465 -53.2715 77.0996 -53.2715 C 79.6387 -53.2715 81.3477 -51.7578 81.3477 -49.3652 C 81.3477 -46.7285 78.7109 -44.8242 73.9746 -41.6016 C 69.6777 -38.623 66.6992 -35.7422 66.6992 -31.4941 L 66.6992 -31.2988 C 66.6992 -26.6602 70.0195 -24.2188 76.0254 -24.2188 Z M 119.238 -19.2383 L 139.502 -19.2383 L 139.502 -51.123 L 119.238 -51.123 Z M 16.0645 -19.2383 L 36.3281 -19.2383 L 36.3281 -51.123 L 16.0645 -51.123 Z M 76.0742 -3.07617 C 81.4941 -3.07617 85.498 -6.20117 85.498 -11.377 C 85.498 -16.4551 81.4941 -19.6777 76.0742 -19.6777 C 70.6055 -19.6777 66.5039 -16.5039 66.5039 -11.377 C 66.5039 -6.25 70.6055 -3.07617 76.0742 -3.07617 Z M 105.176 26.5137 L 115.576 26.5137 C 130.811 26.5137 139.502 17.8711 139.502 2.68555 L 139.502 -7.86133 L 119.238 -7.86133 L 119.238 -0.146484 C 119.238 4.39453 117.09 6.29883 112.842 6.29883 L 105.176 6.29883 Z M 39.9902 26.5137 L 50.3418 26.5137 L 50.3418 6.29883 L 42.6758 6.29883 C 38.4766 6.29883 36.3281 4.39453 36.3281 -0.146484 L 36.3281 -7.86133 L 16.0645 -7.86133 L 16.0645 2.68555 C 16.0645 17.8711 24.7559 26.5137 39.9902 26.5137 Z M 61.7676 26.5137 L 93.7988 26.5137 L 93.7988 6.29883 L 61.7676 6.29883 Z"/>
  </g>
  <g id="Heavy-L" transform="matrix(1 0 0 1 2559.93 1556)">
   <path d="M 16.0645 -61.8164 L 33.5938 -61.8164 L 33.5938 -70.9473 C 33.5938 -76.0742 36.084 -78.3691 40.918 -78.3691 L 50 -78.3691 L 50 -95.8496 L 38.8184 -95.8496 C 24.2188 -95.8496 16.0645 -87.793 16.0645 -73.2422 Z M 60.5469 -78.3691 L 92.9199 -78.3691 L 92.9199 -95.8496 L 60.5469 -95.8496 Z M 119.922 -61.8164 L 137.451 -61.8164 L 137.451 -73.2422 C 137.451 -87.793 129.297 -95.8496 114.697 -95.8496 L 103.467 -95.8496 L 103.467 -78.3691 L 112.549 -78.3691 C 117.383 -78.3691 119.922 -76.0742 119.922 -70.9473 Z M 75.1465 -23.7793 C 79.248 -23.7793 82.1777 -25.8301 82.7148 -28.6133 C 82.7637 -28.8574 82.7637 -29.1504 82.8125 -29.3457 C 83.3984 -32.0312 86.0352 -34.0332 89.4531 -36.2305 C 95.9473 -40.332 99.1699 -43.8477 99.1699 -50.6348 C 99.1699 -61.1328 89.4531 -67.9199 77.1973 -67.9199 C 66.4551 -67.9199 58.6914 -63.4766 56.2012 -57.3242 C 55.7129 -56.1035 55.4688 -54.9316 55.4688 -53.6133 C 55.4688 -50.0977 58.1543 -47.3633 62.6953 -47.3633 C 66.6504 -47.3633 68.0664 -49.2676 69.7266 -50.9766 C 71.7285 -53.4668 73.6328 -54.7363 76.2695 -54.7363 C 79.7363 -54.7363 81.9824 -52.7344 81.9824 -49.707 C 81.9824 -46.6797 79.3457 -44.7266 74.4141 -41.3086 C 69.9707 -38.2812 66.9922 -35.2539 66.9922 -30.6152 L 66.9922 -30.1758 C 66.9922 -25.9766 69.9219 -23.7793 75.1465 -23.7793 Z M 119.922 -19.0918 L 137.451 -19.0918 L 137.451 -51.2695 L 119.922 -51.2695 Z M 16.0645 -19.0918 L 33.5938 -19.0918 L 33.5938 -51.2695 L 16.0645 -51.2695 Z M 75.1465 -3.32031 C 80.0781 -3.32031 83.7891 -6.34766 83.7891 -11.084 C 83.7891 -15.7715 80.0781 -18.7988 75.1465 -18.7988 C 70.166 -18.7988 66.3574 -15.7715 66.3574 -11.084 C 66.3574 -6.39648 70.2148 -3.32031 75.1465 -3.32031 Z M 103.467 25.4883 L 114.697 25.4883 C 129.297 25.4883 137.451 17.4316 137.451 2.88086 L 137.451 -8.54492 L 119.922 -8.54492 L 119.922 0.585938 C 119.922 5.71289 117.383 8.00781 112.549 8.00781 L 103.467 8.00781 Z M 38.8184 25.4883 L 50 25.4883 L 50 8.00781 L 40.918 8.00781 C 36.084 8.00781 33.5938 5.71289 33.5938 0.585938 L 33.5938 -8.54492 L 16.0645 -8.54492 L 16.0645 2.88086 C 16.0645 17.4316 24.2188 25.4883 38.8184 25.4883 Z M 60.5469 25.4883 L 92.9199 25.4883 L 92.9199 8.00781 L 60.5469 8.00781 Z"/>
  </g>
  <g id="Bold-L" transform="matrix(1 0 0 1 2264.37 1556)">
   <path d="M 16.0645 -60.9863 L 30.5176 -60.9863 L 30.5176 -71.7285 C 30.5176 -77.5391 33.4473 -80.2734 38.9648 -80.2734 L 49.6582 -80.2734 L 49.6582 -94.7266 L 37.5 -94.7266 C 23.6328 -94.7266 16.0645 -87.2559 16.0645 -73.3887 Z M 59.2285 -80.2734 L 91.9922 -80.2734 L 91.9922 -94.7266 L 59.2285 -94.7266 Z M 120.703 -60.9863 L 135.156 -60.9863 L 135.156 -73.3887 C 135.156 -87.207 127.637 -94.7266 113.721 -94.7266 L 101.562 -94.7266 L 101.562 -80.2734 L 112.256 -80.2734 C 117.725 -80.2734 120.703 -77.5391 120.703 -71.7285 Z M 74.1699 -23.291 C 77.7832 -23.291 80.2246 -25.2441 80.6152 -27.7832 C 80.6152 -28.0762 80.6641 -28.418 80.6641 -28.6621 C 81.0547 -31.6895 83.4473 -33.7891 87.2559 -36.2793 C 93.7012 -40.3809 97.1191 -43.9453 97.1191 -50.8789 C 97.1191 -61.1328 87.7441 -67.5293 76.123 -67.5293 C 65.4297 -67.5293 57.959 -62.793 55.8594 -56.6895 C 55.4199 -55.5664 55.1758 -54.4434 55.1758 -53.2227 C 55.1758 -50.0977 57.6172 -47.8516 61.2305 -47.8516 C 64.8438 -47.8516 65.9668 -49.6582 67.627 -51.5137 C 69.5312 -54.541 71.9727 -56.2988 75.3906 -56.2988 C 79.7852 -56.2988 82.666 -53.8086 82.666 -50.0977 C 82.666 -46.6309 80.0781 -44.5801 74.8535 -40.9668 C 70.3613 -37.8418 67.334 -34.7168 67.334 -29.6387 L 67.334 -28.9551 C 67.334 -25.2441 69.7754 -23.291 74.1699 -23.291 Z M 120.703 -18.9453 L 135.156 -18.9453 L 135.156 -51.416 L 120.703 -51.416 Z M 16.0645 -18.9453 L 30.5176 -18.9453 L 30.5176 -51.416 L 16.0645 -51.416 Z M 74.1211 -3.56445 C 78.4668 -3.56445 81.9336 -6.49414 81.9336 -10.7422 C 81.9336 -14.9414 78.5156 -17.8711 74.1211 -17.8711 C 69.6777 -17.8711 66.2109 -14.9414 66.2109 -10.7422 C 66.2109 -6.54297 69.7266 -3.56445 74.1211 -3.56445 Z M 101.562 24.3652 L 113.721 24.3652 C 127.637 24.3652 135.156 16.8945 135.156 3.07617 L 135.156 -9.375 L 120.703 -9.375 L 120.703 1.41602 C 120.703 7.17773 117.725 9.91211 112.256 9.91211 L 101.562 9.91211 Z M 37.5 24.3652 L 49.6582 24.3652 L 49.6582 9.91211 L 38.9648 9.91211 C 33.4473 9.91211 30.5176 7.17773 30.5176 1.41602 L 30.5176 -9.375 L 16.0645 -9.375 L 16.0645 3.07617 C 16.0645 16.8945 23.6328 24.3652 37.5 24.3652 Z M 59.2285 24.3652 L 91.9922 24.3652 L 91.9922 9.91211 L 59.2285 9.91211 Z"/>
  </g>
  <g id="Semibold-L" transform="matrix(1 0 0 1 1968.44 1556)">
   <path d="M 16.0645 -60.4492 L 28.418 -60.4492 L 28.418 -72.3145 C 28.418 -78.5156 31.6406 -81.5918 37.5977 -81.5918 L 49.4141 -81.5918 L 49.4141 -93.9453 L 36.6211 -93.9453 C 23.1934 -93.9453 16.0645 -86.8652 16.0645 -73.5352 Z M 58.3496 -81.5918 L 91.3086 -81.5918 L 91.3086 -93.9453 L 58.3496 -93.9453 Z M 121.24 -60.4492 L 133.594 -60.4492 L 133.594 -73.5352 C 133.594 -86.8164 126.465 -93.9453 113.037 -93.9453 L 100.244 -93.9453 L 100.244 -81.5918 L 112.061 -81.5918 C 117.969 -81.5918 121.24 -78.5156 121.24 -72.3145 Z M 73.4863 -22.9492 C 76.7578 -22.9492 78.9062 -24.8047 79.1504 -27.2461 C 79.1504 -27.5391 79.1992 -27.8809 79.1992 -28.1738 C 79.4434 -31.4453 81.6895 -33.5938 85.791 -36.2793 C 92.1387 -40.4297 95.752 -44.043 95.752 -51.0254 C 95.752 -61.1328 86.5723 -67.2363 75.3906 -67.2363 C 64.7461 -67.2363 57.4707 -62.3047 55.5664 -56.25 C 55.1758 -55.1758 54.9805 -54.1016 54.9805 -52.9785 C 54.9805 -50.0977 57.2266 -48.1934 60.2051 -48.1934 C 63.5742 -48.1934 64.5508 -49.9023 66.1621 -51.8555 C 68.0176 -55.2734 70.8008 -57.4219 74.8047 -57.4219 C 79.8828 -57.4219 83.1055 -54.541 83.1055 -50.3418 C 83.1055 -46.582 80.5664 -44.4824 75.1953 -40.7227 C 70.6055 -37.5488 67.5781 -34.375 67.5781 -29.0039 L 67.5781 -28.125 C 67.5781 -24.707 69.6777 -22.9492 73.4863 -22.9492 Z M 121.24 -18.8477 L 133.594 -18.8477 L 133.594 -51.5137 L 121.24 -51.5137 Z M 16.0645 -18.8477 L 28.418 -18.8477 L 28.418 -51.5137 L 16.0645 -51.5137 Z M 73.3887 -3.75977 C 77.3926 -3.75977 80.6152 -6.5918 80.6152 -10.498 C 80.6152 -14.4043 77.4414 -17.2363 73.3887 -17.2363 C 69.3359 -17.2363 66.1133 -14.3555 66.1133 -10.498 C 66.1133 -6.64062 69.3848 -3.75977 73.3887 -3.75977 Z M 100.244 23.584 L 113.037 23.584 C 126.465 23.584 133.594 16.5039 133.594 3.17383 L 133.594 -9.91211 L 121.24 -9.91211 L 121.24 1.95312 C 121.24 8.20312 117.969 11.2793 112.061 11.2793 L 100.244 11.2793 Z M 36.6211 23.584 L 49.4141 23.584 L 49.4141 11.2793 L 37.5977 11.2793 C 31.6406 11.2793 28.418 8.20312 28.418 1.95312 L 28.418 -9.91211 L 16.0645 -9.91211 L 16.0645 3.17383 C 16.0645 16.5527 23.1934 23.584 36.6211 23.584 Z M 58.3496 23.584 L 91.3086 23.584 L 91.3086 11.2793 L 58.3496 11.2793 Z"/>
  </g>
  <g id="Medium-L" transform="matrix(1 0 0 1 1672.31 1556)">
   <path d="M 16.0645 -60.0098 L 26.8066 -60.0098 L 26.8066 -72.7051 C 26.8066 -79.2969 30.2246 -82.6172 36.5723 -82.6172 L 49.2188 -82.6172 L 49.2188 -93.3105 L 35.9375 -93.3105 C 22.9004 -93.3105 16.0645 -86.5723 16.0645 -73.6328 Z M 57.666 -82.6172 L 90.8203 -82.6172 L 90.8203 -93.3105 L 57.666 -93.3105 Z M 121.68 -60.0098 L 132.422 -60.0098 L 132.422 -73.6328 C 132.422 -86.5234 125.586 -93.3105 112.5 -93.3105 L 99.2676 -93.3105 L 99.2676 -82.6172 L 111.865 -82.6172 C 118.115 -82.6172 121.68 -79.2969 121.68 -72.7051 Z M 72.9492 -22.7051 C 75.9766 -22.7051 77.9297 -24.5117 78.0273 -26.8066 C 78.0762 -27.1484 78.0762 -27.4902 78.0762 -27.832 C 78.2227 -31.25 80.3223 -33.4473 84.6191 -36.2793 C 90.918 -40.4297 94.6777 -44.0918 94.6777 -51.123 C 94.6777 -61.084 85.6934 -66.9922 74.8047 -66.9922 C 64.209 -66.9922 57.1289 -61.9141 55.3711 -55.9082 C 55.0293 -54.8828 54.834 -53.8574 54.834 -52.7832 C 54.834 -50.0977 56.9336 -48.4375 59.4238 -48.4375 C 62.6465 -48.4375 63.4277 -50.0977 65.0879 -52.0996 C 66.8457 -55.8105 69.9219 -58.252 74.3164 -58.252 C 79.8828 -58.252 83.4961 -55.127 83.4961 -50.5859 C 83.4961 -46.582 80.9082 -44.3848 75.4395 -40.5762 C 70.8008 -37.3535 67.7246 -34.082 67.7246 -28.5156 L 67.7246 -27.4902 C 67.7246 -24.3164 69.6289 -22.7051 72.9492 -22.7051 Z M 121.68 -18.75 L 132.422 -18.75 L 132.422 -51.5625 L 121.68 -51.5625 Z M 16.0645 -18.75 L 26.8066 -18.75 L 26.8066 -51.5625 L 16.0645 -51.5625 Z M 72.8516 -3.90625 C 76.5625 -3.90625 79.6387 -6.64062 79.6387 -10.3027 C 79.6387 -13.9648 76.6113 -16.6992 72.8516 -16.6992 C 69.0918 -16.6992 66.0645 -13.9648 66.0645 -10.3027 C 66.0645 -6.68945 69.1406 -3.90625 72.8516 -3.90625 Z M 99.2676 22.998 L 112.5 22.998 C 125.586 22.998 132.422 16.2109 132.422 3.27148 L 132.422 -10.3027 L 121.68 -10.3027 L 121.68 2.39258 C 121.68 8.98438 118.115 12.2559 111.865 12.2559 L 99.2676 12.2559 Z M 35.9375 22.998 L 49.2188 22.998 L 49.2188 12.2559 L 36.5723 12.2559 C 30.2246 12.2559 26.8066 8.98438 26.8066 2.39258 L 26.8066 -10.3027 L 16.0645 -10.3027 L 16.0645 3.27148 C 16.0645 16.2598 22.9004 22.998 35.9375 22.998 Z M 57.666 22.998 L 90.8203 22.998 L 90.8203 12.2559 L 57.666 12.2559 Z"/>
  </g>
  <g id="Regular-L" transform="matrix(1 0 0 1 1376.38 1556)">
   <path d="M 16.0645 -59.4727 L 24.707 -59.4727 L 24.707 -73.291 C 24.707 -80.2734 28.418 -83.8867 35.2539 -83.8867 L 48.9746 -83.8867 L 48.9746 -92.5293 L 35.0586 -92.5293 C 22.4609 -92.5293 16.0645 -86.2305 16.0645 -73.7305 Z M 56.7383 -83.8867 L 90.1367 -83.8867 L 90.1367 -92.5293 L 56.7383 -92.5293 Z M 122.217 -59.4727 L 130.859 -59.4727 L 130.859 -73.7305 C 130.859 -86.1816 124.414 -92.5293 111.816 -92.5293 L 97.9492 -92.5293 L 97.9492 -83.8867 L 111.67 -83.8867 C 118.359 -83.8867 122.217 -80.2734 122.217 -73.291 Z M 72.2656 -22.3633 C 75 -22.3633 76.6113 -24.0723 76.6113 -26.2695 L 76.6113 -27.3438 C 76.6113 -31.0059 78.6133 -33.252 83.1543 -36.3281 C 89.3555 -40.4785 93.3105 -44.1406 93.3105 -51.2695 C 93.3105 -61.084 84.5215 -66.6992 74.0723 -66.6992 C 63.5254 -66.6992 56.6406 -61.4258 55.127 -55.4688 C 54.834 -54.4922 54.6387 -53.5156 54.6387 -52.4902 C 54.6387 -50.0977 56.543 -48.7305 58.3984 -48.7305 C 61.4258 -48.7305 62.0117 -50.3906 63.623 -52.4414 C 65.3809 -56.543 68.75 -59.3262 73.7305 -59.3262 C 79.9316 -59.3262 83.9355 -55.8594 83.9355 -50.8301 C 83.9355 -46.5332 81.3965 -44.2871 75.7324 -40.332 C 71.0449 -37.0605 67.9688 -33.7402 67.9688 -27.832 L 67.9688 -26.6602 C 67.9688 -23.8281 69.5312 -22.3633 72.2656 -22.3633 Z M 122.217 -18.6523 L 130.859 -18.6523 L 130.859 -51.6602 L 122.217 -51.6602 Z M 16.0645 -18.6523 L 24.707 -18.6523 L 24.707 -51.6602 L 16.0645 -51.6602 Z M 72.168 -4.05273 C 75.4883 -4.05273 78.3691 -6.73828 78.3691 -10.0586 C 78.3691 -13.4277 75.5371 -16.0645 72.168 -16.0645 C 68.75 -16.0645 65.9668 -13.3789 65.9668 -10.0586 C 65.9668 -6.78711 68.7988 -4.05273 72.168 -4.05273 Z M 97.9492 22.2168 L 111.816 22.2168 C 124.414 22.2168 130.859 15.8691 130.859 3.41797 L 130.859 -10.8398 L 122.217 -10.8398 L 122.217 2.97852 C 122.217 9.96094 118.359 13.5742 111.67 13.5742 L 97.9492 13.5742 Z M 35.0586 22.2168 L 48.9746 22.2168 L 48.9746 13.5742 L 35.2539 13.5742 C 28.418 13.5742 24.707 9.96094 24.707 2.97852 L 24.707 -10.8398 L 16.0645 -10.8398 L 16.0645 3.41797 C 16.0645 15.918 22.4609 22.2168 35.0586 22.2168 Z M 56.7383 22.2168 L 90.1367 22.2168 L 90.1367 13.5742 L 56.7383 13.5742 Z"/>
  </g>
  <g id="Light-L" transform="matrix(1 0 0 1 1080.5 1556)">
   <path d="M 16.0645 -58.7891 L 22.7051 -58.7891 L 22.7051 -73.4863 C 22.7051 -81.1523 26.709 -85.0586 34.1797 -85.0586 L 48.877 -85.0586 L 48.877 -91.6992 L 34.0332 -91.6992 C 22.168 -91.6992 16.0645 -85.6445 16.0645 -73.8281 Z M 55.5664 -85.0586 L 89.6973 -85.0586 L 89.6973 -91.6992 L 55.5664 -91.6992 Z M 122.559 -58.7891 L 129.199 -58.7891 L 129.199 -73.8281 C 129.199 -85.5469 123.047 -91.6992 111.23 -91.6992 L 96.3867 -91.6992 L 96.3867 -85.0586 L 111.035 -85.0586 C 118.359 -85.0586 122.559 -81.1523 122.559 -73.4863 Z M 71.4844 -22.5098 C 73.5352 -22.5098 74.8047 -23.877 74.8047 -25.6348 L 74.8047 -27.1973 C 74.8047 -31.0059 76.709 -33.3496 81.4453 -36.5723 C 87.8418 -40.8691 91.1621 -44.5801 91.1621 -51.123 C 91.1621 -60.0098 83.2031 -65.6738 73.0957 -65.6738 C 62.8906 -65.6738 56.2988 -60.1562 55.0781 -53.9062 C 54.8828 -53.0273 54.7363 -52.1484 54.7363 -51.2207 C 54.7363 -49.3164 56.2012 -48.2422 57.7148 -48.2422 C 60.0098 -48.2422 60.5957 -49.5117 61.6211 -51.2207 C 62.8906 -56.1523 66.7969 -59.8633 72.8027 -59.8633 C 79.6875 -59.8633 84.0332 -56.1035 84.0332 -50.7324 C 84.0332 -46.4355 81.6895 -43.9453 75.7812 -39.8438 C 70.8008 -36.377 68.1641 -33.1055 68.1641 -27.5879 L 68.1641 -25.8789 C 68.1641 -23.7305 69.4336 -22.5098 71.4844 -22.5098 Z M 122.559 -18.2129 L 129.199 -18.2129 L 129.199 -52.0996 L 122.559 -52.0996 Z M 16.0645 -18.2129 L 22.7051 -18.2129 L 22.7051 -52.0996 L 16.0645 -52.0996 Z M 71.3867 -4.93164 C 74.3164 -4.93164 76.7578 -7.32422 76.7578 -10.2051 C 76.7578 -13.1348 74.3652 -15.4785 71.3867 -15.4785 C 68.4082 -15.4785 66.0156 -13.0859 66.0156 -10.2051 C 66.0156 -7.37305 68.457 -4.93164 71.3867 -4.93164 Z M 96.3867 21.4355 L 111.23 21.4355 C 123.047 21.4355 129.199 15.2344 129.199 3.56445 L 129.199 -11.5234 L 122.559 -11.5234 L 122.559 3.22266 C 122.559 10.8398 118.359 14.7949 111.035 14.7949 L 96.3867 14.7949 Z M 34.0332 21.4355 L 48.877 21.4355 L 48.877 14.7949 L 34.1797 14.7949 C 26.709 14.7949 22.7051 10.8398 22.7051 3.22266 L 22.7051 -11.5234 L 16.0645 -11.5234 L 16.0645 3.56445 C 16.0645 15.3809 22.168 21.4355 34.0332 21.4355 Z M 55.5664 21.4355 L 89.6973 21.4355 L 89.6973 14.7949 L 55.5664 14.7949 Z"/>
  </g>
  <g id="Thin-L" transform="matrix(1 0 0 1 784.889 1556)">
   <path d="M 16.0645 -57.8613 L 19.9707 -57.8613 L 19.9707 -73.7793 C 19.9707 -82.2754 24.4141 -86.6699 32.8125 -86.6699 L 48.7305 -86.6699 L 48.7305 -90.5762 L 32.666 -90.5762 C 21.7773 -90.5762 16.0645 -84.8633 16.0645 -73.9746 Z M 53.9551 -86.6699 L 89.0625 -86.6699 L 89.0625 -90.5762 L 53.9551 -90.5762 Z M 123.047 -57.8613 L 127.002 -57.8613 L 127.002 -73.9746 C 127.002 -84.7168 121.24 -90.5762 110.352 -90.5762 L 94.2871 -90.5762 L 94.2871 -86.6699 L 110.205 -86.6699 C 118.359 -86.6699 123.047 -82.2754 123.047 -73.7793 Z M 70.459 -22.7539 C 71.6797 -22.7539 72.4609 -23.584 72.4609 -24.8047 L 72.4609 -26.9531 C 72.4609 -31.0059 74.1699 -33.3984 79.248 -36.8652 C 85.8398 -41.4062 88.3789 -45.1172 88.3789 -50.9277 C 88.3789 -58.6426 81.4453 -64.2578 71.7773 -64.2578 C 62.0605 -64.2578 55.8594 -58.4961 55.0293 -51.9043 C 54.9316 -51.123 54.834 -50.3906 54.834 -49.5605 C 54.834 -48.3398 55.7129 -47.6074 56.7871 -47.6074 C 58.1055 -47.6074 58.7402 -48.3398 58.9844 -49.5605 C 59.668 -55.6152 64.209 -60.5957 71.582 -60.5957 C 79.2969 -60.5957 84.1797 -56.3965 84.1797 -50.6348 C 84.1797 -46.3379 82.0312 -43.5059 75.8301 -39.209 C 70.5078 -35.498 68.457 -32.2754 68.457 -27.2461 L 68.457 -24.8535 C 68.457 -23.584 69.2871 -22.7539 70.459 -22.7539 Z M 123.047 -17.5781 L 127.002 -17.5781 L 127.002 -52.6367 L 123.047 -52.6367 Z M 16.0645 -17.5781 L 19.9707 -17.5781 L 19.9707 -52.6367 L 16.0645 -52.6367 Z M 70.4102 -6.10352 C 72.8027 -6.10352 74.707 -8.10547 74.707 -10.3516 C 74.707 -12.6953 72.8027 -14.6484 70.4102 -14.6484 C 67.9688 -14.6484 66.0645 -12.6953 66.0645 -10.3516 C 66.0645 -8.10547 68.0176 -6.10352 70.4102 -6.10352 Z M 94.2871 20.3613 L 110.352 20.3613 C 121.24 20.3613 127.002 14.4531 127.002 3.75977 L 127.002 -12.3535 L 123.047 -12.3535 L 123.047 3.56445 C 123.047 12.0117 118.359 16.4062 110.205 16.4062 L 94.2871 16.4062 Z M 32.666 20.3613 L 48.7305 20.3613 L 48.7305 16.4062 L 32.8125 16.4062 C 24.4141 16.4062 19.9707 12.0117 19.9707 3.56445 L 19.9707 -12.3535 L 16.0645 -12.3535 L 16.0645 3.75977 C 16.0645 14.6484 21.7773 20.3613 32.666 20.3613 Z M 53.9551 20.3613 L 89.0625 20.3613 L 89.0625 16.4062 L 53.9551 16.4062 Z"/>
  </g>
  <g id="Ultralight-L" transform="matrix(1 0 0 1 488.739 1556)">
   <path d="M 16.0645 -57.4219 L 18.6035 -57.4219 L 18.6035 -73.9258 C 18.6035 -82.8125 23.1934 -87.4512 32.1289 -87.4512 L 48.6816 -87.4512 L 48.6816 -89.9902 L 31.9824 -89.9902 C 21.582 -89.9902 16.0645 -84.4727 16.0645 -74.0723 Z M 53.125 -87.4512 L 88.7695 -87.4512 L 88.7695 -89.9902 L 53.125 -89.9902 Z M 123.291 -57.4219 L 125.879 -57.4219 L 125.879 -74.0723 C 125.879 -84.2773 120.312 -89.9902 109.961 -89.9902 L 93.2129 -89.9902 L 93.2129 -87.4512 L 109.766 -87.4512 C 118.359 -87.4512 123.291 -82.8125 123.291 -73.9258 Z M 69.9707 -22.8516 C 70.7031 -22.8516 71.2402 -23.4375 71.2402 -24.3652 L 71.2402 -26.8555 C 71.2402 -31.0059 72.9004 -33.4473 78.125 -37.0605 C 84.8145 -41.6992 86.9629 -45.3613 86.9629 -50.8301 C 86.9629 -57.9102 80.5664 -63.5742 71.0938 -63.5742 C 61.6211 -63.5742 55.6152 -57.6172 54.9805 -50.8301 C 54.9316 -50.1465 54.8828 -49.4629 54.8828 -48.6816 C 54.8828 -47.8027 55.4688 -47.2656 56.2988 -47.2656 C 57.1289 -47.2656 57.7637 -47.7539 57.666 -48.6816 C 57.959 -55.3223 62.8906 -60.9375 70.9473 -60.9375 C 79.1016 -60.9375 84.2285 -56.5918 84.2285 -50.5859 C 84.2285 -46.2402 82.1777 -43.2617 75.8301 -38.916 C 70.3613 -35.0586 68.6035 -31.8359 68.6035 -27.0508 L 68.6035 -24.3164 C 68.6035 -23.4863 69.1895 -22.8516 69.9707 -22.8516 Z M 123.291 -17.2852 L 125.879 -17.2852 L 125.879 -52.9297 L 123.291 -52.9297 Z M 16.0645 -17.2852 L 18.6035 -17.2852 L 18.6035 -52.9297 L 16.0645 -52.9297 Z M 69.873 -6.68945 C 72.0215 -6.68945 73.6328 -8.54492 73.6328 -10.4492 C 73.6328 -12.5 71.9727 -14.2578 69.873 -14.2578 C 67.7734 -14.2578 66.1133 -12.5 66.1133 -10.4492 C 66.1133 -8.49609 67.7734 -6.68945 69.873 -6.68945 Z M 93.2129 19.7754 L 109.961 19.7754 C 120.312 19.7754 125.879 14.0625 125.879 3.85742 L 125.879 -12.793 L 123.291 -12.793 L 123.291 3.75977 C 123.291 12.6465 118.359 17.2363 109.766 17.2363 L 93.2129 17.2363 Z M 31.9824 19.7754 L 48.6816 19.7754 L 48.6816 17.2363 L 32.1289 17.2363 C 23.1934 17.2363 18.6035 12.6465 18.6035 3.75977 L 18.6035 -12.793 L 16.0645 -12.793 L 16.0645 3.85742 C 16.0645 14.2578 21.582 19.7754 31.9824 19.7754 Z M 53.125 19.7754 L 88.7695 19.7754 L 88.7695 17.2363 L 53.125 17.2363 Z"/>
  </g>
  <g id="Black-M" transform="matrix(1 0 0 1 2872.19 1126)">
   <path d="M 12.4512 -56.9824 L 30.7617 -56.9824 L 30.7617 -61.4746 C 30.7617 -64.5508 32.0801 -65.6738 34.9121 -65.6738 L 39.4043 -65.6738 L 39.4043 -83.9355 L 31.9824 -83.9355 C 19.7266 -83.9355 12.4512 -76.6602 12.4512 -64.4043 Z M 48.7793 -65.6738 L 73.584 -65.6738 L 73.584 -83.9355 L 48.7793 -83.9355 Z M 91.6504 -56.9824 L 109.961 -56.9824 L 109.961 -64.4043 C 109.961 -76.6602 102.686 -83.9355 90.4297 -83.9355 L 83.0078 -83.9355 L 83.0078 -65.6738 L 87.5 -65.6738 C 90.332 -65.6738 91.6504 -64.5508 91.6504 -61.4746 Z M 59.7168 -27.3926 C 63.4766 -27.3926 66.3574 -29.0039 67.1387 -31.3477 C 67.1875 -31.4941 67.2363 -31.7871 67.334 -31.8848 C 68.1641 -33.4473 70.5566 -34.8633 72.5586 -36.084 C 77.8809 -39.3066 79.5898 -41.9434 79.5898 -46.6797 C 79.5898 -54.7852 71.8262 -60.791 61.3281 -60.791 C 53.125 -60.791 46.6797 -57.7637 44.2871 -52.7832 C 43.7988 -51.709 43.5547 -50.6836 43.5547 -49.5117 C 43.5547 -46.3867 45.8984 -43.457 51.0254 -43.457 C 54.2969 -43.457 55.9082 -44.9219 56.9824 -45.8008 C 58.4473 -47.1191 59.2285 -47.6074 60.3027 -47.6074 C 61.4746 -47.6074 62.2559 -46.875 62.2559 -45.7031 C 62.2559 -44.1895 60.2539 -42.6758 56.7871 -40.332 C 53.418 -38.0371 51.416 -35.8887 51.416 -33.3496 L 51.416 -33.252 C 51.416 -29.3945 54.3457 -27.3926 59.7168 -27.3926 Z M 91.6504 -22.8027 L 109.961 -22.8027 L 109.961 -47.6074 L 91.6504 -47.6074 Z M 12.4512 -22.8027 L 30.7617 -22.8027 L 30.7617 -47.6074 L 12.4512 -47.6074 Z M 59.7656 -10.4492 C 64.4043 -10.4492 67.6758 -12.8906 67.6758 -17.2363 C 67.6758 -21.4844 64.4043 -23.9746 59.7656 -23.9746 C 55.127 -23.9746 51.7578 -21.5332 51.7578 -17.2363 C 51.7578 -12.8906 55.127 -10.4492 59.7656 -10.4492 Z M 83.0078 13.5742 L 90.4297 13.5742 C 102.686 13.5742 109.961 6.29883 109.961 -5.95703 L 109.961 -13.3789 L 91.6504 -13.3789 L 91.6504 -8.88672 C 91.6504 -5.81055 90.332 -4.73633 87.5 -4.73633 L 83.0078 -4.73633 Z M 31.9824 13.5742 L 39.4043 13.5742 L 39.4043 -4.73633 L 34.9121 -4.73633 C 32.0801 -4.73633 30.7617 -5.81055 30.7617 -8.88672 L 30.7617 -13.3789 L 12.4512 -13.3789 L 12.4512 -5.95703 C 12.4512 6.29883 19.7266 13.5742 31.9824 13.5742 Z M 48.7793 13.5742 L 73.584 13.5742 L 73.584 -4.73633 L 48.7793 -4.73633 Z"/>
  </g>
  <g id="Heavy-M" transform="matrix(1 0 0 1 2576.39 1126)">
   <path d="M 12.4512 -56.3965 L 28.2715 -56.3965 L 28.2715 -62.207 C 28.2715 -65.7715 29.9316 -67.2363 33.252 -67.2363 L 39.0625 -67.2363 L 39.0625 -83.0566 L 31.0059 -83.0566 C 19.2383 -83.0566 12.4512 -76.3184 12.4512 -64.5508 Z M 47.8027 -67.2363 L 72.8027 -67.2363 L 72.8027 -83.0566 L 47.8027 -83.0566 Z M 92.334 -56.3965 L 108.154 -56.3965 L 108.154 -64.5508 C 108.154 -76.2695 101.367 -83.0566 89.6484 -83.0566 L 81.543 -83.0566 L 81.543 -67.2363 L 87.3535 -67.2363 C 90.6738 -67.2363 92.334 -65.7715 92.334 -62.207 Z M 58.9355 -26.8555 C 62.4023 -26.8555 64.9414 -28.4668 65.5273 -30.7129 C 65.5762 -30.8594 65.625 -31.1035 65.6738 -31.25 C 66.3086 -33.0566 68.5059 -34.5703 70.8496 -36.0352 C 76.0254 -39.2578 78.125 -41.9434 78.125 -46.9238 C 78.125 -55.0293 70.5078 -60.6934 60.5469 -60.6934 C 52.2949 -60.6934 46.0449 -57.4219 43.8965 -52.5391 C 43.457 -51.5137 43.2617 -50.5859 43.2617 -49.4629 C 43.2617 -46.582 45.459 -44.0918 49.7559 -44.0918 C 52.8809 -44.0918 54.248 -45.5078 55.4199 -46.6309 C 56.9336 -48.2422 58.1055 -49.0234 59.668 -49.0234 C 61.6211 -49.0234 62.8906 -47.8516 62.8906 -46.0938 C 62.8906 -44.1406 60.8887 -42.627 57.2266 -40.1367 C 53.8574 -37.793 51.6602 -35.5469 51.6602 -32.4707 L 51.6602 -32.2266 C 51.6602 -28.7109 54.248 -26.8555 58.9355 -26.8555 Z M 92.334 -22.7539 L 108.154 -22.7539 L 108.154 -47.6562 L 92.334 -47.6562 Z M 12.4512 -22.7539 L 28.2715 -22.7539 L 28.2715 -47.6562 L 12.4512 -47.6562 Z M 58.9844 -10.498 C 63.1836 -10.498 66.2598 -12.8906 66.2598 -16.8457 C 66.2598 -20.8008 63.1836 -23.1934 58.9844 -23.1934 C 54.7363 -23.1934 51.6113 -20.8496 51.6113 -16.8457 C 51.6113 -12.8906 54.7363 -10.498 58.9844 -10.498 Z M 81.543 12.6465 L 89.6484 12.6465 C 101.367 12.6465 108.154 5.9082 108.154 -5.81055 L 108.154 -14.0137 L 92.334 -14.0137 L 92.334 -8.1543 C 92.334 -4.63867 90.6738 -3.17383 87.3535 -3.17383 L 81.543 -3.17383 Z M 31.0059 12.6465 L 39.0625 12.6465 L 39.0625 -3.17383 L 33.252 -3.17383 C 29.9316 -3.17383 28.2715 -4.63867 28.2715 -8.1543 L 28.2715 -14.0137 L 12.4512 -14.0137 L 12.4512 -5.81055 C 12.4512 5.9082 19.2383 12.6465 31.0059 12.6465 Z M 47.8027 12.6465 L 72.8027 12.6465 L 72.8027 -3.17383 L 47.8027 -3.17383 Z"/>
  </g>
  <g id="Bold-M" transform="matrix(1 0 0 1 2280.68 1126)">
   <path d="M 12.4512 -55.7129 L 25.5371 -55.7129 L 25.5371 -63.0371 C 25.5371 -67.1387 27.5391 -68.9453 31.3965 -68.9453 L 38.7207 -68.9453 L 38.7207 -82.0312 L 29.8828 -82.0312 C 18.6523 -82.0312 12.4512 -75.8789 12.4512 -64.6973 Z M 46.7285 -68.9453 L 71.875 -68.9453 L 71.875 -82.0312 L 46.7285 -82.0312 Z M 93.0664 -55.7129 L 106.152 -55.7129 L 106.152 -64.6973 C 106.152 -75.8789 99.9512 -82.0312 88.7207 -82.0312 L 79.8828 -82.0312 L 79.8828 -68.9453 L 87.207 -68.9453 C 91.0156 -68.9453 93.0664 -67.1387 93.0664 -63.0371 Z M 58.1055 -26.2695 C 61.1816 -26.2695 63.3789 -27.8809 63.7695 -29.9805 C 63.7695 -30.1758 63.8184 -30.4199 63.8672 -30.5664 C 64.2578 -32.7148 66.2598 -34.2773 68.9941 -35.9863 C 74.0234 -39.209 76.5137 -41.9434 76.5137 -47.2168 C 76.5137 -55.3223 69.043 -60.498 59.668 -60.498 C 51.3672 -60.498 45.3613 -57.0312 43.5059 -52.2949 C 43.1152 -51.3184 42.9199 -50.4395 42.9199 -49.4141 C 42.9199 -46.7773 44.9707 -44.7266 48.3398 -44.7266 C 51.3672 -44.7266 52.3926 -46.1914 53.7109 -47.5586 C 55.2246 -49.5605 56.8359 -50.5859 58.9844 -50.5859 C 61.8164 -50.5859 63.623 -48.9746 63.623 -46.5332 C 63.623 -44.0918 61.6211 -42.5781 57.7148 -39.8926 C 54.2969 -37.5 52.002 -35.1562 52.002 -31.4941 L 52.002 -31.1035 C 52.002 -27.9297 54.1504 -26.2695 58.1055 -26.2695 Z M 93.0664 -22.7051 L 106.152 -22.7051 L 106.152 -47.6562 L 93.0664 -47.6562 Z M 12.4512 -22.7051 L 25.5371 -22.7051 L 25.5371 -47.6562 L 12.4512 -47.6562 Z M 58.0566 -10.5469 C 61.8164 -10.5469 64.6484 -12.8418 64.6484 -16.4551 C 64.6484 -20.0195 61.8164 -22.3633 58.0566 -22.3633 C 54.2969 -22.3633 51.416 -20.0195 51.416 -16.4551 C 51.416 -12.8906 54.3457 -10.5469 58.0566 -10.5469 Z M 79.8828 11.6699 L 88.7207 11.6699 C 99.9512 11.6699 106.152 5.46875 106.152 -5.66406 L 106.152 -14.6973 L 93.0664 -14.6973 L 93.0664 -7.32422 C 93.0664 -3.27148 91.0156 -1.41602 87.207 -1.41602 L 79.8828 -1.41602 Z M 29.8828 11.6699 L 38.7207 11.6699 L 38.7207 -1.41602 L 31.3965 -1.41602 C 27.5391 -1.41602 25.5371 -3.27148 25.5371 -7.32422 L 25.5371 -14.6973 L 12.4512 -14.6973 L 12.4512 -5.66406 C 12.4512 5.51758 18.6523 11.6699 29.8828 11.6699 Z M 46.7285 11.6699 L 71.875 11.6699 L 71.875 -1.41602 L 46.7285 -1.41602 Z"/>
  </g>
  <g id="Semibold-M" transform="matrix(1 0 0 1 1984.65 1126)">
   <path d="M 12.4512 -55.2246 L 23.6328 -55.2246 L 23.6328 -63.623 C 23.6328 -68.0664 25.8789 -70.166 30.127 -70.166 L 38.4277 -70.166 L 38.4277 -81.3477 L 29.1016 -81.3477 C 18.2617 -81.3477 12.4512 -75.5859 12.4512 -64.8438 Z M 45.9961 -70.166 L 71.2402 -70.166 L 71.2402 -81.3477 L 45.9961 -81.3477 Z M 93.6035 -55.2246 L 104.785 -55.2246 L 104.785 -64.8438 C 104.785 -75.5859 98.9258 -81.3477 88.0859 -81.3477 L 78.7598 -81.3477 L 78.7598 -70.166 L 87.1094 -70.166 C 91.2598 -70.166 93.6035 -68.0664 93.6035 -63.623 Z M 57.4707 -25.8789 C 60.3516 -25.8789 62.3047 -27.4414 62.5488 -29.4922 C 62.5488 -29.6875 62.5488 -29.8828 62.5977 -30.0781 C 62.8418 -32.4219 64.6973 -34.0332 67.6758 -35.9863 C 72.6074 -39.1602 75.4395 -41.9434 75.4395 -47.4121 C 75.4395 -55.5176 68.0664 -60.4004 59.0332 -60.4004 C 50.6836 -60.4004 44.9219 -56.7383 43.2129 -52.0996 C 42.8711 -51.2207 42.6758 -50.3418 42.6758 -49.4141 C 42.6758 -46.9238 44.6289 -45.2148 47.3633 -45.2148 C 50.293 -45.2148 51.123 -46.6309 52.5391 -48.1934 C 54.1016 -50.4395 55.957 -51.709 58.4961 -51.709 C 61.9141 -51.709 64.1113 -49.7559 64.1113 -46.8262 C 64.1113 -44.0918 62.1094 -42.5293 58.0566 -39.7461 C 54.6387 -37.3535 52.1973 -34.9121 52.1973 -30.8105 L 52.1973 -30.3711 C 52.1973 -27.3926 54.1016 -25.8789 57.4707 -25.8789 Z M 93.6035 -22.7051 L 104.785 -22.7051 L 104.785 -47.7051 L 93.6035 -47.7051 Z M 12.4512 -22.7051 L 23.6328 -22.7051 L 23.6328 -47.7051 L 12.4512 -47.7051 Z M 57.4219 -10.5469 C 60.8398 -10.5469 63.5254 -12.8418 63.5254 -16.1621 C 63.5254 -19.4824 60.8887 -21.7773 57.4219 -21.7773 C 54.0039 -21.7773 51.3184 -19.4336 51.3184 -16.1621 C 51.3184 -12.8906 54.0527 -10.5469 57.4219 -10.5469 Z M 78.7598 10.9863 L 88.0859 10.9863 C 98.9258 10.9863 104.785 5.17578 104.785 -5.56641 L 104.785 -15.1367 L 93.6035 -15.1367 L 93.6035 -6.78711 C 93.6035 -2.34375 91.2598 -0.195312 87.1094 -0.195312 L 78.7598 -0.195312 Z M 29.1016 10.9863 L 38.4277 10.9863 L 38.4277 -0.195312 L 30.127 -0.195312 C 25.8789 -0.195312 23.6328 -2.34375 23.6328 -6.78711 L 23.6328 -15.1367 L 12.4512 -15.1367 L 12.4512 -5.56641 C 12.4512 5.22461 18.2617 10.9863 29.1016 10.9863 Z M 45.9961 10.9863 L 71.2402 10.9863 L 71.2402 -0.195312 L 45.9961 -0.195312 Z"/>
  </g>
  <g id="Medium-M" transform="matrix(1 0 0 1 1688.47 1126)">
   <path d="M 12.4512 -54.8828 L 22.168 -54.8828 L 22.168 -64.0137 C 22.168 -68.75 24.6582 -71.0938 29.1504 -71.0938 L 38.2324 -71.0938 L 38.2324 -80.8105 L 28.5156 -80.8105 C 17.9688 -80.8105 12.4512 -75.3906 12.4512 -64.8926 Z M 45.4102 -71.0938 L 70.752 -71.0938 L 70.752 -80.8105 L 45.4102 -80.8105 Z M 93.9941 -54.8828 L 103.711 -54.8828 L 103.711 -64.8926 C 103.711 -75.3418 98.1934 -80.8105 87.6465 -80.8105 L 77.9297 -80.8105 L 77.9297 -71.0938 L 87.0117 -71.0938 C 91.4551 -71.0938 93.9941 -68.75 93.9941 -64.0137 Z M 57.0312 -25.5859 C 59.7168 -25.5859 61.4746 -27.0996 61.6211 -29.1016 C 61.6211 -29.2969 61.6211 -29.541 61.6211 -29.6875 C 61.7676 -32.2266 63.5254 -33.8867 66.6992 -35.9375 C 71.5332 -39.1113 74.6094 -41.9434 74.6094 -47.5586 C 74.6094 -55.6641 67.2852 -60.3516 58.5938 -60.3516 C 50.2441 -60.3516 44.5312 -56.543 43.0176 -51.9531 C 42.7246 -51.123 42.5293 -50.2441 42.5293 -49.3652 C 42.5293 -47.0215 44.3848 -45.5566 46.6309 -45.5566 C 49.4629 -45.5566 50.1465 -47.0215 51.6113 -48.6816 C 53.2227 -51.123 55.2734 -52.5391 58.1543 -52.5391 C 62.0117 -52.5391 64.502 -50.3418 64.502 -47.0703 C 64.502 -44.043 62.4512 -42.4805 58.3496 -39.5996 C 54.8828 -37.207 52.3438 -34.7168 52.3438 -30.3223 L 52.3438 -29.7852 C 52.3438 -27.002 54.0039 -25.5859 57.0312 -25.5859 Z M 93.9941 -22.6562 L 103.711 -22.6562 L 103.711 -47.7051 L 93.9941 -47.7051 Z M 12.4512 -22.6562 L 22.168 -22.6562 L 22.168 -47.7051 L 12.4512 -47.7051 Z M 56.9824 -10.5469 C 60.1074 -10.5469 62.6953 -12.8418 62.6953 -15.9668 C 62.6953 -19.043 60.1562 -21.3379 56.9824 -21.3379 C 53.7598 -21.3379 51.2207 -19.043 51.2207 -15.9668 C 51.2207 -12.8906 53.8086 -10.5469 56.9824 -10.5469 Z M 77.9297 10.4492 L 87.6465 10.4492 C 98.1934 10.4492 103.711 4.98047 103.711 -5.46875 L 103.711 -15.5273 L 93.9941 -15.5273 L 93.9941 -6.34766 C 93.9941 -1.61133 91.4551 0.732422 87.0117 0.732422 L 77.9297 0.732422 Z M 28.5156 10.4492 L 38.2324 10.4492 L 38.2324 0.732422 L 29.1504 0.732422 C 24.6582 0.732422 22.168 -1.61133 22.168 -6.34766 L 22.168 -15.5273 L 12.4512 -15.5273 L 12.4512 -5.46875 C 12.4512 4.98047 17.9688 10.4492 28.5156 10.4492 Z M 45.4102 10.4492 L 70.752 10.4492 L 70.752 0.732422 L 45.4102 0.732422 Z"/>
  </g>
  <g id="Regular-M" transform="matrix(1 0 0 1 1392.45 1126)">
   <path d="M 12.4512 -54.3945 L 20.3125 -54.3945 L 20.3125 -64.5996 C 20.3125 -69.6777 22.998 -72.2656 27.8809 -72.2656 L 37.9883 -72.2656 L 37.9883 -80.127 L 27.7832 -80.127 C 17.5781 -80.127 12.4512 -75.0977 12.4512 -64.9902 Z M 44.6777 -72.2656 L 70.1172 -72.2656 L 70.1172 -80.127 L 44.6777 -80.127 Z M 94.4824 -54.3945 L 102.344 -54.3945 L 102.344 -64.9902 C 102.344 -75.0488 97.2168 -80.127 87.0117 -80.127 L 76.8066 -80.127 L 76.8066 -72.2656 L 86.9141 -72.2656 C 91.748 -72.2656 94.4824 -69.6777 94.4824 -64.5996 Z M 56.4453 -25.1465 C 58.9355 -25.1465 60.4004 -26.709 60.4004 -28.6133 L 60.4004 -29.1992 C 60.4004 -31.9336 62.0117 -33.6914 65.3809 -35.9375 C 70.1172 -39.0625 73.4863 -41.8945 73.4863 -47.7539 C 73.4863 -55.8594 66.2598 -60.2539 57.959 -60.2539 C 49.6094 -60.2539 44.0918 -56.25 42.7246 -51.7578 C 42.4805 -50.9766 42.334 -50.1465 42.334 -49.3652 C 42.334 -47.168 44.043 -45.9961 45.6543 -45.9961 C 48.4375 -45.9961 48.877 -47.4609 50.4395 -49.3164 C 52.0508 -52.002 54.3945 -53.6133 57.666 -53.6133 C 62.1094 -53.6133 64.9902 -51.0742 64.9902 -47.3633 C 64.9902 -44.043 62.9395 -42.4316 58.6914 -39.4531 C 55.1758 -37.0117 52.5391 -34.4238 52.5391 -29.6387 L 52.5391 -29.0039 C 52.5391 -26.4648 53.9551 -25.1465 56.4453 -25.1465 Z M 94.4824 -22.6562 L 102.344 -22.6562 L 102.344 -47.7051 L 94.4824 -47.7051 Z M 12.4512 -22.6562 L 20.3125 -22.6562 L 20.3125 -47.7051 L 12.4512 -47.7051 Z M 56.3477 -10.5957 C 59.1797 -10.5957 61.6211 -12.8418 61.6211 -15.6738 C 61.6211 -18.5059 59.2285 -20.752 56.3477 -20.752 C 53.4668 -20.752 51.0742 -18.457 51.0742 -15.6738 C 51.0742 -12.8906 53.5156 -10.5957 56.3477 -10.5957 Z M 76.8066 9.76562 L 87.0117 9.76562 C 97.2168 9.76562 102.344 4.6875 102.344 -5.37109 L 102.344 -15.9668 L 94.4824 -15.9668 L 94.4824 -5.76172 C 94.4824 -0.683594 91.748 1.9043 86.9141 1.9043 L 76.8066 1.9043 Z M 27.7832 9.76562 L 37.9883 9.76562 L 37.9883 1.9043 L 27.8809 1.9043 C 22.998 1.9043 20.3125 -0.683594 20.3125 -5.76172 L 20.3125 -15.9668 L 12.4512 -15.9668 L 12.4512 -5.37109 C 12.4512 4.73633 17.5781 9.76562 27.7832 9.76562 Z M 44.6777 9.76562 L 70.1172 9.76562 L 70.1172 1.9043 L 44.6777 1.9043 Z"/>
  </g>
  <g id="Light-M" transform="matrix(1 0 0 1 1096.47 1126)">
   <path d="M 12.4512 -53.7598 L 18.5059 -53.7598 L 18.5059 -64.7949 C 18.5059 -70.4102 21.4844 -73.3398 26.9531 -73.3398 L 37.9395 -73.3398 L 37.9395 -79.3945 L 26.8555 -79.3945 C 17.334 -79.3945 12.4512 -74.5605 12.4512 -65.0879 Z M 43.6035 -73.3398 L 69.7266 -73.3398 L 69.7266 -79.3945 L 43.6035 -79.3945 Z M 94.8242 -53.7598 L 100.879 -53.7598 L 100.879 -65.0879 C 100.879 -74.5117 95.9961 -79.3945 86.4746 -79.3945 L 75.3906 -79.3945 L 75.3906 -73.3398 L 86.3281 -73.3398 C 91.748 -73.3398 94.8242 -70.4102 94.8242 -64.7949 Z M 55.7617 -25.293 C 57.6172 -25.293 58.7891 -26.5137 58.7891 -28.0762 L 58.7891 -29.0527 C 58.7891 -31.9336 60.3027 -33.7402 63.8672 -36.1328 C 68.75 -39.4043 71.6309 -42.2852 71.6309 -47.6074 C 71.6309 -54.9316 65.0879 -59.2773 57.0801 -59.2773 C 49.0234 -59.2773 43.75 -55.127 42.6758 -50.3906 C 42.4805 -49.6582 42.3828 -48.9746 42.3828 -48.1934 C 42.3828 -46.4844 43.7012 -45.5566 45.0195 -45.5566 C 47.1191 -45.5566 47.6074 -46.6797 48.6816 -48.1934 C 49.8535 -51.6113 52.6367 -54.1016 56.8359 -54.1016 C 61.8652 -54.1016 65.0879 -51.3184 65.0879 -47.3145 C 65.0879 -43.9453 63.1836 -42.1387 58.6914 -39.0137 C 54.9805 -36.4258 52.7344 -33.8867 52.7344 -29.3945 L 52.7344 -28.3203 C 52.7344 -26.3672 53.8574 -25.293 55.7617 -25.293 Z M 94.8242 -22.2168 L 100.879 -22.2168 L 100.879 -48.0957 L 94.8242 -48.0957 Z M 12.4512 -22.2168 L 18.5059 -22.2168 L 18.5059 -48.0957 L 12.4512 -48.0957 Z M 55.6641 -11.377 C 58.1055 -11.377 60.2051 -13.3301 60.2051 -15.7715 C 60.2051 -18.2129 58.1543 -20.166 55.6641 -20.166 C 53.1738 -20.166 51.123 -18.2129 51.123 -15.7715 C 51.123 -13.3789 53.2227 -11.377 55.6641 -11.377 Z M 75.3906 9.0332 L 86.4746 9.0332 C 95.9961 9.0332 100.879 4.15039 100.879 -5.22461 L 100.879 -16.5527 L 94.8242 -16.5527 L 94.8242 -5.56641 C 94.8242 0.0976562 91.748 2.97852 86.3281 2.97852 L 75.3906 2.97852 Z M 26.8555 9.0332 L 37.9395 9.0332 L 37.9395 2.97852 L 26.9531 2.97852 C 21.4844 2.97852 18.5059 0.0976562 18.5059 -5.56641 L 18.5059 -16.5527 L 12.4512 -16.5527 L 12.4512 -5.22461 C 12.4512 4.19922 17.334 9.0332 26.8555 9.0332 Z M 43.6035 9.0332 L 69.7266 9.0332 L 69.7266 2.97852 L 43.6035 2.97852 Z"/>
  </g>
  <g id="Thin-M" transform="matrix(1 0 0 1 800.758 1126)">
   <path d="M 12.4512 -52.9785 L 16.0645 -52.9785 L 16.0645 -65.0391 C 16.0645 -71.4355 19.3848 -74.7559 25.7324 -74.7559 L 37.793 -74.7559 L 37.793 -78.3691 L 25.6348 -78.3691 C 16.9922 -78.3691 12.4512 -73.877 12.4512 -65.2344 Z M 42.1875 -74.7559 L 69.1895 -74.7559 L 69.1895 -78.3691 L 42.1875 -78.3691 Z M 95.2637 -52.9785 L 98.877 -52.9785 L 98.877 -65.2344 C 98.877 -73.7305 94.3848 -78.3691 85.7422 -78.3691 L 73.5352 -78.3691 L 73.5352 -74.7559 L 85.5957 -74.7559 C 91.748 -74.7559 95.2637 -71.4355 95.2637 -65.0391 Z M 54.834 -25.4883 C 55.957 -25.4883 56.6406 -26.2695 56.6406 -27.3438 L 56.6406 -28.8574 C 56.6406 -31.9336 58.0078 -33.7891 61.9141 -36.4258 C 66.9922 -39.8926 69.0918 -42.7734 69.0918 -47.4121 C 69.0918 -53.6621 63.5254 -58.0566 55.9082 -58.0566 C 48.291 -58.0566 43.3594 -53.6133 42.627 -48.584 C 42.5293 -47.9492 42.4805 -47.3633 42.4805 -46.6797 C 42.4805 -45.6055 43.2617 -44.9707 44.1895 -44.9707 C 45.4102 -44.9707 45.8984 -45.6543 46.2891 -46.6797 C 46.9238 -51.123 50.3418 -54.7363 55.7129 -54.7363 C 61.5234 -54.7363 65.1855 -51.5625 65.1855 -47.2168 C 65.1855 -43.8477 63.4766 -41.748 58.7402 -38.4766 C 54.7363 -35.6445 52.9785 -33.1055 52.9785 -29.1016 L 52.9785 -27.3926 C 52.9785 -26.2207 53.7109 -25.4883 54.834 -25.4883 Z M 95.2637 -21.6797 L 98.877 -21.6797 L 98.877 -48.6328 L 95.2637 -48.6328 Z M 12.4512 -21.6797 L 16.0645 -21.6797 L 16.0645 -48.6328 L 12.4512 -48.6328 Z M 54.7852 -12.4023 C 56.7383 -12.4023 58.3496 -14.0625 58.3496 -15.918 C 58.3496 -17.8711 56.7383 -19.4824 54.7852 -19.4824 C 52.7832 -19.4824 51.2207 -17.8711 51.2207 -15.918 C 51.2207 -14.0625 52.7832 -12.4023 54.7852 -12.4023 Z M 73.5352 8.05664 L 85.7422 8.05664 C 94.3848 8.05664 98.877 3.4668 98.877 -5.0293 L 98.877 -17.334 L 95.2637 -17.334 L 95.2637 -5.22461 C 95.2637 1.12305 91.748 4.44336 85.5957 4.44336 L 73.5352 4.44336 Z M 25.6348 8.05664 L 37.793 8.05664 L 37.793 4.44336 L 25.7324 4.44336 C 19.3848 4.44336 16.0645 1.12305 16.0645 -5.22461 L 16.0645 -17.334 L 12.4512 -17.334 L 12.4512 -5.0293 C 12.4512 3.56445 16.9922 8.05664 25.6348 8.05664 Z M 42.1875 8.05664 L 69.1895 8.05664 L 69.1895 4.44336 L 42.1875 4.44336 Z"/>
  </g>
  <g id="Ultralight-M" transform="matrix(1 0 0 1 504.535 1126)">
   <path d="M 12.4512 -52.5391 L 14.8438 -52.5391 L 14.8438 -65.1855 C 14.8438 -71.9727 18.3594 -75.4395 25.0977 -75.4395 L 37.7441 -75.4395 L 37.7441 -77.832 L 25 -77.832 C 16.7969 -77.832 12.4512 -73.4863 12.4512 -65.2832 Z M 41.4551 -75.4395 L 68.8965 -75.4395 L 68.8965 -77.832 L 41.4551 -77.832 Z M 95.5078 -52.5391 L 97.9004 -52.5391 L 97.9004 -65.2832 C 97.9004 -73.3887 93.5059 -77.832 85.3516 -77.832 L 72.5586 -77.832 L 72.5586 -75.4395 L 85.2051 -75.4395 C 91.748 -75.4395 95.5078 -71.9727 95.5078 -65.1855 Z M 54.3945 -25.5859 C 55.0781 -25.5859 55.5664 -26.1719 55.5664 -26.9531 L 55.5664 -28.7598 C 55.5664 -31.9336 56.8848 -33.8379 60.8887 -36.5723 C 66.0645 -40.1367 67.8223 -43.0176 67.8223 -47.3633 C 67.8223 -53.0273 62.6953 -57.373 55.2734 -57.373 C 47.9004 -57.373 43.1641 -52.832 42.627 -47.6562 C 42.5781 -47.0703 42.5293 -46.5332 42.5293 -45.8984 C 42.5293 -45.1172 43.0664 -44.6289 43.7988 -44.6289 C 44.5312 -44.6289 45.0684 -45.1172 45.0684 -45.8984 C 45.459 -50.8789 49.1211 -55.0293 55.1758 -55.0293 C 61.377 -55.0293 65.2344 -51.709 65.2344 -47.168 C 65.2344 -43.7988 63.623 -41.5527 58.7891 -38.1836 C 54.5898 -35.2051 53.125 -32.7148 53.125 -28.9551 L 53.125 -26.9531 C 53.125 -26.1719 53.6621 -25.5859 54.3945 -25.5859 Z M 95.5078 -21.3867 L 97.9004 -21.3867 L 97.9004 -48.877 L 95.5078 -48.877 Z M 12.4512 -21.3867 L 14.8438 -21.3867 L 14.8438 -48.877 L 12.4512 -48.877 Z M 54.2969 -12.9395 C 56.0547 -12.9395 57.373 -14.4043 57.373 -16.0156 C 57.373 -17.6758 56.0547 -19.0918 54.2969 -19.0918 C 52.5879 -19.0918 51.2207 -17.6758 51.2207 -16.0156 C 51.2207 -14.4043 52.5879 -12.9395 54.2969 -12.9395 Z M 72.5586 7.56836 L 85.3516 7.56836 C 93.5059 7.56836 97.9004 3.125 97.9004 -4.98047 L 97.9004 -17.7246 L 95.5078 -17.7246 L 95.5078 -5.07812 C 95.5078 1.66016 91.748 5.17578 85.2051 5.17578 L 72.5586 5.17578 Z M 25 7.56836 L 37.7441 7.56836 L 37.7441 5.17578 L 25.0977 5.17578 C 18.3594 5.17578 14.8438 1.66016 14.8438 -5.07812 L 14.8438 -17.7246 L 12.4512 -17.7246 L 12.4512 -4.98047 C 12.4512 3.22266 16.7969 7.56836 25 7.56836 Z M 41.4551 7.56836 L 68.8965 7.56836 L 68.8965 5.17578 L 41.4551 5.17578 Z"/>
  </g>
  <g id="Black-S" transform="matrix(1 0 0 1 2885.5 696)">
   <path d="M 9.76562 -52.2461 L 23.9258 -52.2461 L 23.9258 -55.8594 C 23.9258 -58.3008 25 -59.1797 27.2461 -59.1797 L 30.8594 -59.1797 L 30.8594 -73.3398 L 25 -73.3398 C 15.4297 -73.3398 9.76562 -67.6758 9.76562 -58.1055 Z M 38.1836 -59.1797 L 57.6172 -59.1797 L 57.6172 -73.3398 L 38.1836 -73.3398 Z M 71.875 -52.2461 L 86.0352 -52.2461 L 86.0352 -58.1055 C 86.0352 -67.6758 80.3711 -73.3398 70.8008 -73.3398 L 64.9414 -73.3398 L 64.9414 -59.1797 L 68.5547 -59.1797 C 70.8008 -59.1797 71.875 -58.3008 71.875 -55.8594 Z M 46.7285 -29.0527 C 49.6582 -29.0527 51.9043 -30.3223 52.4902 -32.1289 C 52.5391 -32.2754 52.5879 -32.4707 52.6367 -32.5684 C 53.2715 -33.7891 55.127 -34.9121 56.7383 -35.8887 C 60.8887 -38.4277 62.2559 -40.4785 62.2559 -44.2383 C 62.2559 -50.5859 56.2012 -55.2734 47.998 -55.2734 C 41.5527 -55.2734 36.5234 -52.8809 34.668 -48.9746 C 34.2773 -48.1445 34.082 -47.3633 34.082 -46.4355 C 34.082 -43.9941 35.9375 -41.748 39.8926 -41.748 C 42.4316 -41.748 43.7012 -42.8711 44.5312 -43.6035 C 45.7031 -44.6289 46.3379 -45.0195 47.2168 -45.0195 C 48.1934 -45.0195 48.8281 -44.4336 48.8281 -43.457 C 48.8281 -42.2363 47.2656 -41.0645 44.5312 -39.209 C 41.8945 -37.4023 40.2832 -35.7422 40.2832 -33.6914 L 40.2832 -33.5938 C 40.2832 -30.6152 42.5781 -29.0527 46.7285 -29.0527 Z M 71.875 -25.4883 L 86.0352 -25.4883 L 86.0352 -44.9219 L 71.875 -44.9219 Z M 9.76562 -25.4883 L 23.9258 -25.4883 L 23.9258 -44.9219 L 9.76562 -44.9219 Z M 46.7773 -15.8203 C 50.3906 -15.8203 52.9297 -17.7246 52.9297 -21.0938 C 52.9297 -24.4141 50.3906 -26.3672 46.7773 -26.3672 C 43.1641 -26.3672 40.5273 -24.4629 40.5273 -21.0938 C 40.5273 -17.7246 43.1641 -15.8203 46.7773 -15.8203 Z M 64.9414 2.92969 L 70.8008 2.92969 C 80.3711 2.92969 86.0352 -2.73438 86.0352 -12.3047 L 86.0352 -18.1641 L 71.875 -18.1641 L 71.875 -14.5508 C 71.875 -12.1094 70.8008 -11.2305 68.5547 -11.2305 L 64.9414 -11.2305 Z M 25 2.92969 L 30.8594 2.92969 L 30.8594 -11.2305 L 27.2461 -11.2305 C 25 -11.2305 23.9258 -12.1094 23.9258 -14.5508 L 23.9258 -18.1641 L 9.76562 -18.1641 L 9.76562 -12.3047 C 9.76562 -2.73438 15.4297 2.92969 25 2.92969 Z M 38.1836 2.92969 L 57.6172 2.92969 L 57.6172 -11.2305 L 38.1836 -11.2305 Z"/>
  </g>
  <g id="Heavy-S" transform="matrix(1 0 0 1 2589.4 696)">
   <path d="M 9.76562 -51.8555 L 22.2656 -51.8555 L 22.2656 -56.3965 C 22.2656 -59.1309 23.5352 -60.2539 26.0742 -60.2539 L 30.6152 -60.2539 L 30.6152 -72.7539 L 24.3652 -72.7539 C 15.0879 -72.7539 9.76562 -67.4316 9.76562 -58.2031 Z M 37.5488 -60.2539 L 57.0312 -60.2539 L 57.0312 -72.7539 L 37.5488 -72.7539 Z M 72.3633 -51.8555 L 84.8145 -51.8555 L 84.8145 -58.2031 C 84.8145 -67.4316 79.541 -72.7539 70.2637 -72.7539 L 63.9648 -72.7539 L 63.9648 -60.2539 L 68.5059 -60.2539 C 71.0449 -60.2539 72.3633 -59.1309 72.3633 -56.3965 Z M 46.2402 -28.6133 C 48.9746 -28.6133 51.0254 -29.9316 51.4648 -31.6895 C 51.4648 -31.8359 51.5137 -32.0312 51.5625 -32.0801 C 52.0508 -33.5449 53.7598 -34.7168 55.6152 -35.8398 C 59.6191 -38.3301 61.377 -40.4297 61.377 -44.4336 C 61.377 -50.8789 55.3223 -55.2734 47.5098 -55.2734 C 40.9668 -55.2734 36.084 -52.7344 34.375 -48.9258 C 34.0332 -48.1445 33.8379 -47.4121 33.8379 -46.5332 C 33.8379 -44.1895 35.6445 -42.2363 39.0137 -42.2363 C 41.5039 -42.2363 42.5781 -43.4082 43.5547 -44.3359 C 44.7754 -45.5566 45.6543 -46.0449 46.8262 -46.0449 C 48.3398 -46.0449 49.3164 -45.166 49.3164 -43.75 C 49.3164 -42.2363 47.7051 -41.0645 44.873 -39.1113 C 42.2363 -37.3047 40.4785 -35.5469 40.4785 -33.0566 L 40.4785 -32.9102 C 40.4785 -30.0781 42.5293 -28.6133 46.2402 -28.6133 Z M 72.3633 -25.4883 L 84.8145 -25.4883 L 84.8145 -44.9219 L 72.3633 -44.9219 Z M 9.76562 -25.4883 L 22.2656 -25.4883 L 22.2656 -44.9219 L 9.76562 -44.9219 Z M 46.2402 -15.7715 C 49.5605 -15.7715 52.002 -17.6758 52.002 -20.8008 C 52.002 -23.9258 49.5605 -25.8301 46.2402 -25.8301 C 42.9199 -25.8301 40.3809 -23.9258 40.3809 -20.8008 C 40.3809 -17.6758 42.9199 -15.7715 46.2402 -15.7715 Z M 63.9648 2.34375 L 70.2637 2.34375 C 79.541 2.34375 84.8145 -2.97852 84.8145 -12.207 L 84.8145 -18.5547 L 72.3633 -18.5547 L 72.3633 -14.0137 C 72.3633 -11.2793 71.0449 -10.1562 68.5059 -10.1562 L 63.9648 -10.1562 Z M 24.3652 2.34375 L 30.6152 2.34375 L 30.6152 -10.1562 L 26.0742 -10.1562 C 23.5352 -10.1562 22.2656 -11.2793 22.2656 -14.0137 L 22.2656 -18.5547 L 9.76562 -18.5547 L 9.76562 -12.207 C 9.76562 -2.97852 15.0879 2.34375 24.3652 2.34375 Z M 37.5488 2.34375 L 57.0312 2.34375 L 57.0312 -10.1562 L 37.5488 -10.1562 Z"/>
  </g>
  <g id="Bold-S" transform="matrix(1 0 0 1 2293.35 696)">
   <path d="M 9.76562 -51.416 L 20.3613 -51.416 L 20.3613 -56.9824 C 20.3613 -60.0586 21.9238 -61.4746 24.8047 -61.4746 L 30.3223 -61.4746 L 30.3223 -72.0703 L 23.6328 -72.0703 C 14.6973 -72.0703 9.76562 -67.1875 9.76562 -58.3008 Z M 36.8652 -61.4746 L 56.3965 -61.4746 L 56.3965 -72.0703 L 36.8652 -72.0703 Z M 72.9004 -51.416 L 83.4961 -51.416 L 83.4961 -58.3008 C 83.4961 -67.1875 78.5645 -72.0703 69.6289 -72.0703 L 62.8906 -72.0703 L 62.8906 -61.4746 L 68.457 -61.4746 C 71.3379 -61.4746 72.9004 -60.0586 72.9004 -56.9824 Z M 45.6543 -28.1738 C 48.1934 -28.1738 50 -29.4922 50.293 -31.25 C 50.293 -31.3477 50.3418 -31.4941 50.3418 -31.5918 C 50.6836 -33.252 52.2461 -34.4727 54.3457 -35.791 C 58.252 -38.2324 60.4004 -40.3809 60.4004 -44.6777 C 60.4004 -51.2207 54.3457 -55.2734 46.9238 -55.2734 C 40.332 -55.2734 35.5957 -52.5879 34.082 -48.9258 C 33.7891 -48.1445 33.5938 -47.4609 33.5938 -46.6309 C 33.5938 -44.4336 35.3027 -42.8223 37.9883 -42.8223 C 40.4785 -42.8223 41.3086 -44.043 42.4805 -45.2148 C 43.7988 -46.582 44.9219 -47.2168 46.3867 -47.2168 C 48.4863 -47.2168 49.8535 -45.9961 49.8535 -44.0918 C 49.8535 -42.1875 48.2422 -41.0645 45.2637 -38.9648 C 42.627 -37.1582 40.6738 -35.3027 40.6738 -32.3242 L 40.6738 -32.1289 C 40.6738 -29.4922 42.4316 -28.1738 45.6543 -28.1738 Z M 72.9004 -25.5371 L 83.4961 -25.5371 L 83.4961 -44.873 L 72.9004 -44.873 Z M 9.76562 -25.5371 L 20.3613 -25.5371 L 20.3613 -44.873 L 9.76562 -44.873 Z M 45.6055 -15.6738 C 48.6328 -15.6738 50.9277 -17.5781 50.9277 -20.459 C 50.9277 -23.3398 48.6328 -25.2441 45.6055 -25.2441 C 42.627 -25.2441 40.2832 -23.3398 40.2832 -20.459 C 40.2832 -17.5781 42.627 -15.6738 45.6055 -15.6738 Z M 62.8906 1.66016 L 69.6289 1.66016 C 78.5645 1.66016 83.4961 -3.22266 83.4961 -12.1094 L 83.4961 -18.9941 L 72.9004 -18.9941 L 72.9004 -13.4277 C 72.9004 -10.3516 71.3379 -8.93555 68.457 -8.93555 L 62.8906 -8.93555 Z M 23.6328 1.66016 L 30.3223 1.66016 L 30.3223 -8.93555 L 24.8047 -8.93555 C 21.9238 -8.93555 20.3613 -10.3516 20.3613 -13.4277 L 20.3613 -18.9941 L 9.76562 -18.9941 L 9.76562 -12.1094 C 9.76562 -3.22266 14.6973 1.66016 23.6328 1.66016 Z M 36.8652 1.66016 L 56.3965 1.66016 L 56.3965 -8.93555 L 36.8652 -8.93555 Z"/>
  </g>
  <g id="Semibold-S" transform="matrix(1 0 0 1 1997.1 696)">
   <path d="M 9.76562 -51.0742 L 19.0918 -51.0742 L 19.0918 -57.4219 C 19.0918 -60.6934 20.752 -62.3047 23.877 -62.3047 L 30.127 -62.3047 L 30.127 -71.582 L 23.0957 -71.582 C 14.4043 -71.582 9.76562 -67.041 9.76562 -58.3984 Z M 36.377 -62.3047 L 55.957 -62.3047 L 55.957 -71.582 L 36.377 -71.582 Z M 73.2422 -51.0742 L 82.5684 -51.0742 L 82.5684 -58.3984 C 82.5684 -67.041 77.9297 -71.582 69.1895 -71.582 L 62.1582 -71.582 L 62.1582 -62.3047 L 68.4082 -62.3047 C 71.5332 -62.3047 73.2422 -60.6934 73.2422 -57.4219 Z M 45.2637 -27.832 C 47.7051 -27.832 49.3164 -29.1504 49.5117 -30.9082 C 49.5117 -31.0059 49.5117 -31.1523 49.5605 -31.2012 C 49.7559 -33.0078 51.2207 -34.2773 53.4668 -35.7422 C 57.2754 -38.1836 59.668 -40.332 59.668 -44.8242 C 59.668 -51.4648 53.6621 -55.2734 46.5332 -55.2734 C 39.8926 -55.2734 35.2539 -52.4414 33.8867 -48.877 C 33.5938 -48.1934 33.4473 -47.4609 33.4473 -46.7285 C 33.4473 -44.6289 35.0586 -43.2129 37.3047 -43.2129 C 39.7949 -43.2129 40.4297 -44.4336 41.6992 -45.8008 C 43.0664 -47.2656 44.3848 -47.998 46.0938 -47.998 C 48.584 -47.998 50.2441 -46.5332 50.2441 -44.3359 C 50.2441 -42.1875 48.584 -41.0156 45.5078 -38.916 C 42.8711 -37.0605 40.8203 -35.1562 40.8203 -31.8359 L 40.8203 -31.6406 C 40.8203 -29.1016 42.3828 -27.832 45.2637 -27.832 Z M 73.2422 -25.5371 L 82.5684 -25.5371 L 82.5684 -44.873 L 73.2422 -44.873 Z M 9.76562 -25.5371 L 19.0918 -25.5371 L 19.0918 -44.873 L 9.76562 -44.873 Z M 45.2148 -15.625 C 47.998 -15.625 50.1953 -17.5293 50.1953 -20.2637 C 50.1953 -22.9492 47.998 -24.8535 45.2148 -24.8535 C 42.3828 -24.8535 40.1855 -22.9492 40.1855 -20.2637 C 40.1855 -17.5293 42.4316 -15.625 45.2148 -15.625 Z M 62.1582 1.17188 L 69.1895 1.17188 C 77.9297 1.17188 82.5684 -3.36914 82.5684 -12.0117 L 82.5684 -19.3359 L 73.2422 -19.3359 L 73.2422 -12.9883 C 73.2422 -9.7168 71.5332 -8.10547 68.4082 -8.10547 L 62.1582 -8.10547 Z M 23.0957 1.17188 L 30.127 1.17188 L 30.127 -8.10547 L 23.877 -8.10547 C 20.752 -8.10547 19.0918 -9.7168 19.0918 -12.9883 L 19.0918 -19.3359 L 9.76562 -19.3359 L 9.76562 -12.0117 C 9.76562 -3.36914 14.4043 1.17188 23.0957 1.17188 Z M 36.377 1.17188 L 55.957 1.17188 L 55.957 -8.10547 L 36.377 -8.10547 Z"/>
  </g>
  <g id="Medium-S" transform="matrix(1 0 0 1 1700.75 696)">
   <path d="M 9.76562 -50.8301 L 18.0664 -50.8301 L 18.0664 -57.7148 C 18.0664 -61.1816 19.9219 -62.9395 23.1934 -62.9395 L 30.0293 -62.9395 L 30.0293 -71.2402 L 22.7051 -71.2402 C 14.209 -71.2402 9.76562 -66.8945 9.76562 -58.4473 Z M 35.9863 -62.9395 L 55.6152 -62.9395 L 55.6152 -71.2402 L 35.9863 -71.2402 Z M 73.5352 -50.8301 L 81.8359 -50.8301 L 81.8359 -58.4473 C 81.8359 -66.8945 77.3926 -71.2402 68.8965 -71.2402 L 61.6211 -71.2402 L 61.6211 -62.9395 L 68.4082 -62.9395 C 71.6797 -62.9395 73.5352 -61.1816 73.5352 -57.7148 Z M 44.9707 -27.5879 C 47.3145 -27.5879 48.7793 -28.9551 48.877 -30.6641 C 48.877 -30.7617 48.877 -30.8594 48.9258 -30.957 C 49.0234 -32.8613 50.4395 -34.1797 52.832 -35.6934 C 56.543 -38.1348 59.1797 -40.332 59.1797 -44.9219 C 59.1797 -51.6113 53.1738 -55.2734 46.2402 -55.2734 C 39.5508 -55.2734 35.0098 -52.3926 33.6914 -48.877 C 33.4473 -48.1934 33.3008 -47.5098 33.3008 -46.7773 C 33.3008 -44.7266 34.9121 -43.5059 36.7676 -43.5059 C 39.2578 -43.5059 39.7949 -44.7754 41.1621 -46.2402 C 42.5293 -47.8027 43.9941 -48.584 45.8496 -48.584 C 48.6816 -48.584 50.5371 -46.9727 50.5371 -44.5312 C 50.5371 -42.1875 48.877 -41.0156 45.7031 -38.8184 C 43.0664 -37.0117 40.9668 -35.0098 40.9668 -31.4453 L 40.9668 -31.2012 C 40.9668 -28.8086 42.3828 -27.5879 44.9707 -27.5879 Z M 73.5352 -25.5371 L 81.8359 -25.5371 L 81.8359 -44.873 L 73.5352 -44.873 Z M 9.76562 -25.5371 L 18.0664 -25.5371 L 18.0664 -44.873 L 9.76562 -44.873 Z M 44.873 -15.5762 C 47.5098 -15.5762 49.6582 -17.4805 49.6582 -20.0684 C 49.6582 -22.6562 47.5098 -24.5117 44.873 -24.5117 C 42.2363 -24.5117 40.0879 -22.6074 40.0879 -20.0684 C 40.0879 -17.5293 42.2852 -15.5762 44.873 -15.5762 Z M 61.6211 0.830078 L 68.8965 0.830078 C 77.3926 0.830078 81.8359 -3.51562 81.8359 -11.9629 L 81.8359 -19.5801 L 73.5352 -19.5801 L 73.5352 -12.6953 C 73.5352 -9.22852 71.6797 -7.4707 68.4082 -7.4707 L 61.6211 -7.4707 Z M 22.7051 0.830078 L 30.0293 0.830078 L 30.0293 -7.4707 L 23.1934 -7.4707 C 19.9219 -7.4707 18.0664 -9.22852 18.0664 -12.6953 L 18.0664 -19.5801 L 9.76562 -19.5801 L 9.76562 -11.9629 C 9.76562 -3.51562 14.209 0.830078 22.7051 0.830078 Z M 35.9863 0.830078 L 55.6152 0.830078 L 55.6152 -7.4707 L 35.9863 -7.4707 Z"/>
  </g>
  <g id="Regular-S" transform="matrix(1 0 0 1 1404.51 696)">
   <path d="M 9.76562 -50.5371 L 16.7969 -50.5371 L 16.7969 -58.1543 C 16.7969 -61.8164 18.7988 -63.7207 22.3145 -63.7207 L 29.834 -63.7207 L 29.834 -70.8008 L 22.2168 -70.8008 C 13.916 -70.8008 9.76562 -66.6992 9.76562 -58.4961 Z M 35.5469 -63.7207 L 55.1758 -63.7207 L 55.1758 -70.8008 L 35.5469 -70.8008 Z M 73.877 -50.5371 L 80.9082 -50.5371 L 80.9082 -58.4961 C 80.9082 -66.6992 76.7578 -70.8008 68.457 -70.8008 L 60.8887 -70.8008 L 60.8887 -63.7207 L 68.3594 -63.7207 C 71.875 -63.7207 73.877 -61.8164 73.877 -58.1543 Z M 44.5801 -27.2461 C 46.7773 -27.2461 48.0957 -28.6133 48.0957 -30.3223 L 48.0957 -30.6152 C 48.0957 -32.666 49.4141 -33.9844 51.9531 -35.6934 C 55.6152 -38.0371 58.4961 -40.2832 58.4961 -45.1172 C 58.4961 -51.8555 52.4902 -55.2734 45.8496 -55.2734 C 39.1113 -55.2734 34.668 -52.2461 33.4961 -48.877 C 33.252 -48.1934 33.1055 -47.5098 33.1055 -46.8262 C 33.1055 -44.9219 34.668 -43.8965 36.084 -43.8965 C 38.5742 -43.8965 38.916 -45.2148 40.3809 -46.7773 C 41.8457 -48.5352 43.457 -49.4141 45.5566 -49.4141 C 48.7793 -49.4141 50.8789 -47.5586 50.8789 -44.7754 C 50.8789 -42.1875 49.2188 -41.0156 45.9473 -38.7695 C 43.3105 -36.9141 41.1133 -34.8633 41.1133 -30.957 L 41.1133 -30.7129 C 41.1133 -28.418 42.334 -27.2461 44.5801 -27.2461 Z M 73.877 -25.5859 L 80.9082 -25.5859 L 80.9082 -44.8242 L 73.877 -44.8242 Z M 9.76562 -25.5859 L 16.7969 -25.5859 L 16.7969 -44.8242 L 9.76562 -44.8242 Z M 44.4824 -15.5273 C 46.875 -15.5273 48.9746 -17.4316 48.9746 -19.8242 C 48.9746 -22.2656 46.9238 -24.1211 44.4824 -24.1211 C 42.041 -24.1211 39.9902 -22.2168 39.9902 -19.8242 C 39.9902 -17.4805 42.0898 -15.5273 44.4824 -15.5273 Z M 60.8887 0.390625 L 68.457 0.390625 C 76.7578 0.390625 80.9082 -3.71094 80.9082 -11.9141 L 80.9082 -19.873 L 73.877 -19.873 L 73.877 -12.2559 C 73.877 -8.54492 71.875 -6.68945 68.3594 -6.68945 L 60.8887 -6.68945 Z M 22.2168 0.390625 L 29.834 0.390625 L 29.834 -6.68945 L 22.3145 -6.68945 C 18.7988 -6.68945 16.7969 -8.54492 16.7969 -12.2559 L 16.7969 -19.873 L 9.76562 -19.873 L 9.76562 -11.9141 C 9.76562 -3.71094 13.916 0.390625 22.2168 0.390625 Z M 35.5469 0.390625 L 55.1758 0.390625 L 55.1758 -6.68945 L 35.5469 -6.68945 Z"/>
  </g>
  <g id="Light-S" transform="matrix(1 0 0 1 1108.46 696)">
   <path d="M 9.76562 -50 L 15.1855 -50 L 15.1855 -58.3008 C 15.1855 -62.5 17.4316 -64.6973 21.4844 -64.6973 L 29.7363 -64.6973 L 29.7363 -70.1172 L 21.3867 -70.1172 C 13.6719 -70.1172 9.76562 -66.2598 9.76562 -58.5938 Z M 34.5703 -64.6973 L 54.7852 -64.6973 L 54.7852 -70.1172 L 34.5703 -70.1172 Z M 74.1699 -50 L 79.5898 -50 L 79.5898 -58.5938 C 79.5898 -66.2109 75.6836 -70.1172 67.9688 -70.1172 L 59.6191 -70.1172 L 59.6191 -64.6973 L 67.8711 -64.6973 C 71.875 -64.6973 74.1699 -62.5 74.1699 -58.3008 Z M 43.9453 -27.3926 C 45.6543 -27.3926 46.6797 -28.4668 46.6797 -29.834 L 46.6797 -30.4688 C 46.6797 -32.666 47.9004 -34.0332 50.6348 -35.8887 C 54.3945 -38.3789 56.8359 -40.625 56.8359 -44.9707 C 56.8359 -51.0254 51.4648 -54.4434 45.0684 -54.4434 C 38.623 -54.4434 34.4238 -51.2695 33.4473 -47.6562 C 33.3008 -47.0215 33.1543 -46.4355 33.1543 -45.8496 C 33.1543 -44.3359 34.375 -43.457 35.5469 -43.457 C 37.4023 -43.457 37.793 -44.4824 38.8184 -45.8008 C 39.8926 -48.1934 41.9434 -49.8047 44.8242 -49.8047 C 48.584 -49.8047 50.9766 -47.7539 50.9766 -44.7266 C 50.9766 -42.0898 49.4141 -40.7715 45.9961 -38.3789 C 43.1641 -36.377 41.2598 -34.375 41.2598 -30.7617 L 41.2598 -30.0781 C 41.2598 -28.3203 42.2363 -27.3926 43.9453 -27.3926 Z M 74.1699 -25.1953 L 79.5898 -25.1953 L 79.5898 -45.166 L 74.1699 -45.166 Z M 9.76562 -25.1953 L 15.1855 -25.1953 L 15.1855 -45.166 L 9.76562 -45.166 Z M 43.8965 -16.2598 C 45.9473 -16.2598 47.7051 -17.8711 47.7051 -19.9219 C 47.7051 -22.0215 45.9473 -23.6328 43.8965 -23.6328 C 41.7969 -23.6328 40.0391 -21.9727 40.0391 -19.9219 C 40.0391 -17.9199 41.7969 -16.2598 43.8965 -16.2598 Z M 59.6191 -0.292969 L 67.9688 -0.292969 C 75.6836 -0.292969 79.5898 -4.15039 79.5898 -11.7676 L 79.5898 -20.3613 L 74.1699 -20.3613 L 74.1699 -12.0605 C 74.1699 -7.86133 71.875 -5.71289 67.8711 -5.71289 L 59.6191 -5.71289 Z M 21.3867 -0.292969 L 29.7363 -0.292969 L 29.7363 -5.71289 L 21.4844 -5.71289 C 17.4316 -5.71289 15.1855 -7.86133 15.1855 -12.0605 L 15.1855 -20.3613 L 9.76562 -20.3613 L 9.76562 -11.7676 C 9.76562 -4.15039 13.6719 -0.292969 21.3867 -0.292969 Z M 34.5703 -0.292969 L 54.7852 -0.292969 L 54.7852 -5.71289 L 34.5703 -5.71289 Z"/>
  </g>
  <g id="Thin-S" transform="matrix(1 0 0 1 812.599 696)">
   <path d="M 9.76562 -49.2676 L 13.0859 -49.2676 L 13.0859 -58.5449 C 13.0859 -63.3789 15.625 -65.918 20.4102 -65.918 L 29.6387 -65.918 L 29.6387 -69.2383 L 20.3125 -69.2383 C 13.3789 -69.2383 9.76562 -65.625 9.76562 -58.6914 Z M 33.3008 -65.918 L 54.2969 -65.918 L 54.2969 -69.2383 L 33.3008 -69.2383 Z M 74.5605 -49.2676 L 77.8809 -49.2676 L 77.8809 -58.6914 C 77.8809 -65.5762 74.2676 -69.2383 67.334 -69.2383 L 57.959 -69.2383 L 57.959 -65.918 L 67.2363 -65.918 C 71.875 -65.918 74.5605 -63.3789 74.5605 -58.5449 Z M 43.1641 -27.5879 C 44.1406 -27.5879 44.7754 -28.2715 44.7754 -29.1992 L 44.7754 -30.2734 C 44.7754 -32.666 45.8984 -34.082 48.877 -36.1328 C 52.832 -38.7695 54.6387 -41.0156 54.6387 -44.8242 C 54.6387 -49.9023 50.0488 -53.3203 44.043 -53.3203 C 37.9883 -53.3203 34.082 -49.9023 33.4473 -46.0449 C 33.3008 -45.5566 33.252 -45.0195 33.252 -44.4824 C 33.252 -43.5059 33.9844 -42.9688 34.8145 -42.9688 C 35.9375 -42.9688 36.2793 -43.6035 36.7188 -44.4824 C 37.3047 -47.8027 39.8926 -50.3906 43.8965 -50.3906 C 48.291 -50.3906 51.0742 -47.998 51.0742 -44.6289 C 51.0742 -41.9922 49.6582 -40.4297 45.9961 -37.8906 C 42.9199 -35.6934 41.4551 -33.7402 41.4551 -30.5176 L 41.4551 -29.2969 C 41.4551 -28.2227 42.1387 -27.5879 43.1641 -27.5879 Z M 74.5605 -24.707 L 77.8809 -24.707 L 77.8809 -45.6055 L 74.5605 -45.6055 Z M 9.76562 -24.707 L 13.0859 -24.707 L 13.0859 -45.6055 L 9.76562 -45.6055 Z M 43.0664 -17.1387 C 44.7266 -17.1387 46.0449 -18.5059 46.0449 -20.0684 C 46.0449 -21.6797 44.7266 -22.998 43.0664 -22.998 C 41.4551 -22.998 40.0879 -21.6797 40.0879 -20.0684 C 40.0879 -18.5059 41.4551 -17.1387 43.0664 -17.1387 Z M 57.959 -1.12305 L 67.334 -1.12305 C 74.2676 -1.12305 77.8809 -4.78516 77.8809 -11.6211 L 77.8809 -21.0449 L 74.5605 -21.0449 L 74.5605 -11.8164 C 74.5605 -6.93359 71.875 -4.44336 67.2363 -4.44336 L 57.959 -4.44336 Z M 20.3125 -1.12305 L 29.6387 -1.12305 L 29.6387 -4.44336 L 20.4102 -4.44336 C 15.625 -4.44336 13.0859 -6.93359 13.0859 -11.8164 L 13.0859 -21.0449 L 9.76562 -21.0449 L 9.76562 -11.6211 C 9.76562 -4.6875 13.3789 -1.12305 20.3125 -1.12305 Z M 33.3008 -1.12305 L 54.2969 -1.12305 L 54.2969 -4.44336 L 33.3008 -4.44336 Z"/>
  </g>
  <g id="Ultralight-S" transform="matrix(1 0 0 1 516.352 696)">
   <path d="M 9.76562 -48.9258 L 11.9629 -48.9258 L 11.9629 -58.6426 C 11.9629 -63.8672 14.6484 -66.5527 19.873 -66.5527 L 29.5898 -66.5527 L 29.5898 -68.75 L 19.7754 -68.75 C 13.2324 -68.75 9.76562 -65.2832 9.76562 -58.7891 Z M 32.666 -66.5527 L 54.0527 -66.5527 L 54.0527 -68.75 L 32.666 -68.75 Z M 74.7559 -48.9258 L 76.9531 -48.9258 L 76.9531 -58.7891 C 76.9531 -65.2344 73.4863 -68.75 66.9922 -68.75 L 57.1289 -68.75 L 57.1289 -66.5527 L 66.8945 -66.5527 C 71.875 -66.5527 74.7559 -63.8672 74.7559 -58.6426 Z M 42.7246 -27.6855 C 43.4082 -27.6855 43.8477 -28.1738 43.8477 -28.8574 L 43.8477 -30.1758 C 43.8477 -32.666 44.873 -34.1309 47.9492 -36.2305 C 52.002 -39.0137 53.4668 -41.2598 53.4668 -44.7266 C 53.4668 -49.3652 49.3164 -52.7832 43.5059 -52.7832 C 37.6465 -52.7832 33.8867 -49.2188 33.3984 -45.2148 C 33.3496 -44.7754 33.3008 -44.2871 33.3008 -43.7988 C 33.3008 -43.1152 33.7891 -42.6758 34.4238 -42.6758 C 35.1562 -42.6758 35.5469 -43.1152 35.6445 -43.7988 C 35.9863 -47.5586 38.8184 -50.6836 43.3594 -50.6836 C 48.1445 -50.6836 51.123 -48.0957 51.123 -44.5801 C 51.123 -41.9434 49.8047 -40.2344 46.0449 -37.5977 C 42.8223 -35.3516 41.5527 -33.3984 41.5527 -30.3711 L 41.5527 -28.8574 C 41.5527 -28.125 42.041 -27.6855 42.7246 -27.6855 Z M 74.7559 -24.4629 L 76.9531 -24.4629 L 76.9531 -45.8496 L 74.7559 -45.8496 Z M 9.76562 -24.4629 L 11.9629 -24.4629 L 11.9629 -45.8496 L 9.76562 -45.8496 Z M 42.6758 -17.627 C 44.0918 -17.627 45.2148 -18.8477 45.2148 -20.166 C 45.2148 -21.5332 44.0918 -22.7051 42.6758 -22.7051 C 41.2598 -22.7051 40.1367 -21.5332 40.1367 -20.166 C 40.1367 -18.8477 41.2598 -17.627 42.6758 -17.627 Z M 57.1289 -1.5625 L 66.9922 -1.5625 C 73.4863 -1.5625 76.9531 -5.12695 76.9531 -11.5234 L 76.9531 -21.3867 L 74.7559 -21.3867 L 74.7559 -11.6699 C 74.7559 -6.44531 71.875 -3.75977 66.8945 -3.75977 L 57.1289 -3.75977 Z M 19.7754 -1.5625 L 29.5898 -1.5625 L 29.5898 -3.75977 L 19.873 -3.75977 C 14.6484 -3.75977 11.9629 -6.44531 11.9629 -11.6699 L 11.9629 -21.3867 L 9.76562 -21.3867 L 9.76562 -11.5234 C 9.76562 -5.0293 13.2324 -1.5625 19.7754 -1.5625 Z M 32.666 -1.5625 L 54.0527 -1.5625 L 54.0527 -3.75977 L 32.666 -3.75977 Z"/>
  </g>
 </g>
</svg>
