<?xml version="1.0" encoding="UTF-8"?>
<!--Generator: Apple Native CoreSVG 129-->
<!DOCTYPE svg
PUBLIC "-//W3C//DTD SVG 1.1//EN"
       "http://www.w3.org/Graphics/SVG/1.1/DTD/svg11.dtd">
<svg version="1.1" xmlns="http://www.w3.org/2000/svg" xmlns:xlink="http://www.w3.org/1999/xlink" width="3300" height="2200">
 <!--glyph: "uni100B44.medium", point size: 100.000000, font version: "Version 16.0d9e1", template writer version: "8"-->
 <g id="Notes">
  <rect height="2200" id="artboard" style="fill:white;opacity:1" width="3300" x="0" y="0"/>
  <line id="" style="fill:none;stroke:black;opacity:1;stroke-width:0.5;" x1="263" x2="3036" y1="292" y2="292"/>
  <text style="stroke:none;fill:black;font-family:-apple-system,&quot;SF Pro Display&quot;,&quot;SF Pro Text&quot;,Helvetica,sans-serif;font-weight:bold;" transform="matrix(1 0 0 1 263 322)">Weight/Scale Variations</text>
  <text style="stroke:none;fill:black;font-family:-apple-system,&quot;SF Pro Display&quot;,&quot;SF Pro Text&quot;,Helvetica,sans-serif;text-anchor:middle;" transform="matrix(1 0 0 1 559.711 322)">Ultralight</text>
  <text style="stroke:none;fill:black;font-family:-apple-system,&quot;SF Pro Display&quot;,&quot;SF Pro Text&quot;,Helvetica,sans-serif;text-anchor:middle;" transform="matrix(1 0 0 1 856.422 322)">Thin</text>
  <text style="stroke:none;fill:black;font-family:-apple-system,&quot;SF Pro Display&quot;,&quot;SF Pro Text&quot;,Helvetica,sans-serif;text-anchor:middle;" transform="matrix(1 0 0 1 1153.13 322)">Light</text>
  <text style="stroke:none;fill:black;font-family:-apple-system,&quot;SF Pro Display&quot;,&quot;SF Pro Text&quot;,Helvetica,sans-serif;text-anchor:middle;" transform="matrix(1 0 0 1 1449.84 322)">Regular</text>
  <text style="stroke:none;fill:black;font-family:-apple-system,&quot;SF Pro Display&quot;,&quot;SF Pro Text&quot;,Helvetica,sans-serif;text-anchor:middle;" transform="matrix(1 0 0 1 1746.56 322)">Medium</text>
  <text style="stroke:none;fill:black;font-family:-apple-system,&quot;SF Pro Display&quot;,&quot;SF Pro Text&quot;,Helvetica,sans-serif;text-anchor:middle;" transform="matrix(1 0 0 1 2043.27 322)">Semibold</text>
  <text style="stroke:none;fill:black;font-family:-apple-system,&quot;SF Pro Display&quot;,&quot;SF Pro Text&quot;,Helvetica,sans-serif;text-anchor:middle;" transform="matrix(1 0 0 1 2339.98 322)">Bold</text>
  <text style="stroke:none;fill:black;font-family:-apple-system,&quot;SF Pro Display&quot;,&quot;SF Pro Text&quot;,Helvetica,sans-serif;text-anchor:middle;" transform="matrix(1 0 0 1 2636.69 322)">Heavy</text>
  <text style="stroke:none;fill:black;font-family:-apple-system,&quot;SF Pro Display&quot;,&quot;SF Pro Text&quot;,Helvetica,sans-serif;text-anchor:middle;" transform="matrix(1 0 0 1 2933.4 322)">Black</text>
  <line id="" style="fill:none;stroke:black;opacity:1;stroke-width:0.5;" x1="263" x2="3036" y1="1903" y2="1903"/>
  <g id="" transform="matrix(1 0 0 1 263 1933)">
   <path d="M 9.24805 0.830078 C 13.5547 0.830078 17.1387 -2.74414 17.1387 -7.05078 C 17.1387 -11.3574 13.5449 -14.9316 9.23828 -14.9316 C 4.94141 -14.9316 1.36719 -11.3574 1.36719 -7.05078 C 1.36719 -2.74414 4.95117 0.830078 9.24805 0.830078 Z M 9.24805 -0.654297 C 5.70312 -0.654297 2.87109 -3.49609 2.87109 -7.05078 C 2.87109 -10.6055 5.69336 -13.4473 9.23828 -13.4473 C 12.793 -13.4473 15.6348 -10.6055 15.6445 -7.05078 C 15.6543 -3.49609 12.8027 -0.654297 9.24805 -0.654297 Z M 9.22852 -3.62305 C 9.69727 -3.62305 9.9707 -3.93555 9.9707 -4.45312 L 9.9707 -6.31836 L 12.002 -6.31836 C 12.5 -6.31836 12.832 -6.57227 12.832 -7.04102 C 12.832 -7.51953 12.5195 -7.7832 12.002 -7.7832 L 9.9707 -7.7832 L 9.9707 -9.81445 C 9.9707 -10.332 9.69727 -10.6543 9.22852 -10.6543 C 8.75977 -10.6543 8.50586 -10.3125 8.50586 -9.81445 L 8.50586 -7.7832 L 6.49414 -7.7832 C 5.97656 -7.7832 5.64453 -7.51953 5.64453 -7.04102 C 5.64453 -6.57227 5.99609 -6.31836 6.49414 -6.31836 L 8.50586 -6.31836 L 8.50586 -4.45312 C 8.50586 -3.95508 8.75977 -3.62305 9.22852 -3.62305 Z"/>
  </g>
  <g id="" transform="matrix(1 0 0 1 281.506 1933)">
   <path d="M 11.709 2.91016 C 17.1582 2.91016 21.6699 -1.61133 21.6699 -7.05078 C 21.6699 -12.5 17.1484 -17.0117 11.6992 -17.0117 C 6.25977 -17.0117 1.74805 -12.5 1.74805 -7.05078 C 1.74805 -1.61133 6.26953 2.91016 11.709 2.91016 Z M 11.709 1.25 C 7.09961 1.25 3.41797 -2.44141 3.41797 -7.05078 C 3.41797 -11.6602 7.08984 -15.3516 11.6992 -15.3516 C 16.3086 -15.3516 20 -11.6602 20.0098 -7.05078 C 20.0195 -2.44141 16.3184 1.25 11.709 1.25 Z M 11.6797 -2.66602 C 12.207 -2.66602 12.5098 -3.01758 12.5098 -3.59375 L 12.5098 -6.23047 L 15.3223 -6.23047 C 15.8691 -6.23047 16.25 -6.51367 16.25 -7.03125 C 16.25 -7.55859 15.8887 -7.86133 15.3223 -7.86133 L 12.5098 -7.86133 L 12.5098 -10.6836 C 12.5098 -11.25 12.207 -11.6113 11.6797 -11.6113 C 11.1621 -11.6113 10.8789 -11.2305 10.8789 -10.6836 L 10.8789 -7.86133 L 8.07617 -7.86133 C 7.50977 -7.86133 7.13867 -7.55859 7.13867 -7.03125 C 7.13867 -6.51367 7.5293 -6.23047 8.07617 -6.23047 L 10.8789 -6.23047 L 10.8789 -3.59375 C 10.8789 -3.03711 11.1621 -2.66602 11.6797 -2.66602 Z"/>
  </g>
  <g id="" transform="matrix(1 0 0 1 304.924 1933)">
   <path d="M 14.9707 5.66406 C 21.9336 5.66406 27.6953 -0.0976562 27.6953 -7.05078 C 27.6953 -14.0137 21.9238 -19.7754 14.9609 -19.7754 C 8.00781 -19.7754 2.25586 -14.0137 2.25586 -7.05078 C 2.25586 -0.0976562 8.01758 5.66406 14.9707 5.66406 Z M 14.9707 3.84766 C 8.93555 3.84766 4.08203 -1.01562 4.08203 -7.05078 C 4.08203 -13.0957 8.92578 -17.9492 14.9609 -17.9492 C 21.0059 -17.9492 25.8594 -13.0957 25.8691 -7.05078 C 25.8789 -1.01562 21.0156 3.84766 14.9707 3.84766 Z M 14.9414 -1.38672 C 15.5176 -1.38672 15.8594 -1.77734 15.8594 -2.38281 L 15.8594 -6.13281 L 19.7754 -6.13281 C 20.3711 -6.13281 20.7812 -6.46484 20.7812 -7.02148 C 20.7812 -7.59766 20.3906 -7.93945 19.7754 -7.93945 L 15.8594 -7.93945 L 15.8594 -11.8652 C 15.8594 -12.4805 15.5176 -12.8711 14.9414 -12.8711 C 14.375 -12.8711 14.0527 -12.4609 14.0527 -11.8652 L 14.0527 -7.93945 L 10.1465 -7.93945 C 9.53125 -7.93945 9.13086 -7.59766 9.13086 -7.02148 C 9.13086 -6.46484 9.55078 -6.13281 10.1465 -6.13281 L 14.0527 -6.13281 L 14.0527 -2.38281 C 14.0527 -1.79688 14.375 -1.38672 14.9414 -1.38672 Z"/>
  </g>
  <text style="stroke:none;fill:black;font-family:-apple-system,&quot;SF Pro Display&quot;,&quot;SF Pro Text&quot;,Helvetica,sans-serif;font-weight:bold;" transform="matrix(1 0 0 1 263 1953)">Design Variations</text>
  <text style="stroke:none;fill:black;font-family:-apple-system,&quot;SF Pro Display&quot;,&quot;SF Pro Text&quot;,Helvetica,sans-serif;" transform="matrix(1 0 0 1 263 1971)">Symbols are supported in up to nine weights and three scales.</text>
  <text style="stroke:none;fill:black;font-family:-apple-system,&quot;SF Pro Display&quot;,&quot;SF Pro Text&quot;,Helvetica,sans-serif;" transform="matrix(1 0 0 1 263 1989)">For optimal layout with text and other symbols, vertically align</text>
  <text style="stroke:none;fill:black;font-family:-apple-system,&quot;SF Pro Display&quot;,&quot;SF Pro Text&quot;,Helvetica,sans-serif;" transform="matrix(1 0 0 1 263 2007)">symbols with the adjacent text.</text>
  <line id="" style="fill:none;stroke:#00AEEF;stroke-width:0.5;opacity:1.0;" x1="776" x2="776" y1="1919" y2="1933"/>
  <g id="" transform="matrix(1 0 0 1 776 1933)">
   <path d="M 3.31055 0.126953 C 3.82812 0.126953 4.08203 -0.0683594 4.26758 -0.605469 L 5.52734 -4.0625 L 11.2891 -4.0625 L 12.5488 -0.605469 C 12.7344 -0.0683594 12.9883 0.126953 13.4961 0.126953 C 14.0137 0.126953 14.3457 -0.185547 14.3457 -0.673828 C 14.3457 -0.839844 14.3164 -0.986328 14.2383 -1.20117 L 9.6582 -13.3887 C 9.43359 -13.9941 9.0332 -14.2871 8.4082 -14.2871 C 7.80273 -14.2871 7.39258 -13.9941 7.17773 -13.3984 L 2.59766 -1.19141 C 2.51953 -0.976562 2.49023 -0.830078 2.49023 -0.664062 C 2.49023 -0.175781 2.80273 0.126953 3.31055 0.126953 Z M 6.00586 -5.53711 L 8.37891 -12.1094 L 8.42773 -12.1094 L 10.8008 -5.53711 Z"/>
  </g>
  <line id="" style="fill:none;stroke:#00AEEF;stroke-width:0.5;opacity:1.0;" x1="792.836" x2="792.836" y1="1919" y2="1933"/>
  <text style="stroke:none;fill:black;font-family:-apple-system,&quot;SF Pro Display&quot;,&quot;SF Pro Text&quot;,Helvetica,sans-serif;font-weight:bold;" transform="matrix(1 0 0 1 776 1953)">Margins</text>
  <text style="stroke:none;fill:black;font-family:-apple-system,&quot;SF Pro Display&quot;,&quot;SF Pro Text&quot;,Helvetica,sans-serif;" transform="matrix(1 0 0 1 776 1971)">Leading and trailing margins on the left and right side of each symbol</text>
  <text style="stroke:none;fill:black;font-family:-apple-system,&quot;SF Pro Display&quot;,&quot;SF Pro Text&quot;,Helvetica,sans-serif;" transform="matrix(1 0 0 1 776 1989)">can be adjusted by modifying the x-location of the margin guidelines.</text>
  <text style="stroke:none;fill:black;font-family:-apple-system,&quot;SF Pro Display&quot;,&quot;SF Pro Text&quot;,Helvetica,sans-serif;" transform="matrix(1 0 0 1 776 2007)">Modifications are automatically applied proportionally to all</text>
  <text style="stroke:none;fill:black;font-family:-apple-system,&quot;SF Pro Display&quot;,&quot;SF Pro Text&quot;,Helvetica,sans-serif;" transform="matrix(1 0 0 1 776 2025)">scales and weights.</text>
  <g id="" transform="matrix(1 0 0 1 1289 1933)">
   <path d="M 2.8418 1.86523 L 4.54102 3.57422 C 5.40039 4.44336 6.38672 4.38477 7.31445 3.35938 L 17.4902 -7.85156 C 17.7539 -7.76367 18.0273 -7.7832 18.3398 -7.8418 L 19.4043 -8.03711 L 20.0684 -7.36328 L 20.0293 -6.80664 C 19.9902 -6.30859 20.1172 -5.92773 20.6055 -5.44922 L 21.3672 -4.70703 C 21.8457 -4.22852 22.4609 -4.19922 22.9297 -4.66797 L 25.8398 -7.58789 C 26.3086 -8.05664 26.2891 -8.65234 25.8105 -9.13086 L 25.0391 -9.89258 C 24.5605 -10.3711 24.1895 -10.5273 23.7109 -10.4883 L 23.1348 -10.4395 L 22.4902 -11.0742 L 22.7344 -12.1973 C 22.8613 -12.7637 22.7051 -13.2031 22.1191 -13.7891 L 19.9219 -15.9766 C 16.582 -19.2969 12.1484 -19.2188 9.25781 -16.3281 C 8.83789 -15.918 8.80859 -15.3418 9.04297 -14.9512 C 9.27734 -14.5898 9.73633 -14.3555 10.3809 -14.5215 C 11.8457 -14.8633 13.3691 -14.9219 14.7949 -13.9844 L 14.209 -12.5293 C 14.0137 -12.0508 13.9844 -11.6504 14.1113 -11.2891 L 3.04688 -0.898438 C 2.06055 0.0195312 1.98242 0.996094 2.8418 1.86523 Z M 10.752 -15.957 C 13.1836 -17.7344 16.4746 -17.4316 18.7012 -15.2051 L 21.1328 -12.793 C 21.3672 -12.5586 21.4062 -12.373 21.3379 -12.0312 L 21.0156 -10.5469 L 22.5195 -9.0625 L 23.5059 -9.12109 C 23.7598 -9.13086 23.8379 -9.11133 24.0332 -8.91602 L 24.6094 -8.33984 L 22.168 -5.89844 L 21.5918 -6.47461 C 21.3965 -6.66992 21.3672 -6.74805 21.377 -7.01172 L 21.4453 -7.98828 L 19.9512 -9.47266 L 18.4277 -9.21875 C 18.1055 -9.15039 17.959 -9.17969 17.7148 -9.41406 L 15.7129 -11.416 C 15.459 -11.6504 15.4297 -11.8164 15.5859 -12.1875 L 16.4648 -14.2773 C 14.9023 -15.7324 12.8711 -16.3574 10.8398 -15.7617 C 10.6836 -15.7227 10.625 -15.8496 10.752 -15.957 Z M 5.27344 2.30469 L 4.10156 1.14258 C 3.63281 0.683594 3.74023 0.341797 4.14062 -0.0195312 L 14.9512 -10.1953 L 16.416 -8.71094 L 6.42578 2.27539 C 6.07422 2.67578 5.74219 2.77344 5.27344 2.30469 Z"/>
  </g>
  <text style="stroke:none;fill:black;font-family:-apple-system,&quot;SF Pro Display&quot;,&quot;SF Pro Text&quot;,Helvetica,sans-serif;font-weight:bold;" transform="matrix(1 0 0 1 1289 1953)">Exporting</text>
  <text style="stroke:none;fill:black;font-family:-apple-system,&quot;SF Pro Display&quot;,&quot;SF Pro Text&quot;,Helvetica,sans-serif;" transform="matrix(1 0 0 1 1289 1971)">Symbols should be outlined when exporting to ensure the</text>
  <text style="stroke:none;fill:black;font-family:-apple-system,&quot;SF Pro Display&quot;,&quot;SF Pro Text&quot;,Helvetica,sans-serif;" transform="matrix(1 0 0 1 1289 1989)">design is preserved when submitting to Xcode.</text>
  <text id="template-version" style="stroke:none;fill:black;font-family:-apple-system,&quot;SF Pro Display&quot;,&quot;SF Pro Text&quot;,Helvetica,sans-serif;text-anchor:end;" transform="matrix(1 0 0 1 3036 1933)">Template v.2.0</text>
  <text style="stroke:none;fill:black;font-family:-apple-system,&quot;SF Pro Display&quot;,&quot;SF Pro Text&quot;,Helvetica,sans-serif;text-anchor:end;" transform="matrix(1 0 0 1 3036 1951)">Requires Xcode 12 or greater</text>
  <text style="stroke:none;fill:black;font-family:-apple-system,&quot;SF Pro Display&quot;,&quot;SF Pro Text&quot;,Helvetica,sans-serif;text-anchor:end;" transform="matrix(1 0 0 1 3036 1969)">Generated from timer.square</text>
  <text style="stroke:none;fill:black;font-family:-apple-system,&quot;SF Pro Display&quot;,&quot;SF Pro Text&quot;,Helvetica,sans-serif;text-anchor:end;" transform="matrix(1 0 0 1 3036 1987)">Typeset at 100 points</text>
  <text style="stroke:none;fill:black;font-family:-apple-system,&quot;SF Pro Display&quot;,&quot;SF Pro Text&quot;,Helvetica,sans-serif;" transform="matrix(1 0 0 1 263 726)">Small</text>
  <text style="stroke:none;fill:black;font-family:-apple-system,&quot;SF Pro Display&quot;,&quot;SF Pro Text&quot;,Helvetica,sans-serif;" transform="matrix(1 0 0 1 263 1156)">Medium</text>
  <text style="stroke:none;fill:black;font-family:-apple-system,&quot;SF Pro Display&quot;,&quot;SF Pro Text&quot;,Helvetica,sans-serif;" transform="matrix(1 0 0 1 263 1586)">Large</text>
 </g>
 <g id="Guides">
  <g id="H-reference" style="fill:#27AAE1;stroke:none;" transform="matrix(1 0 0 1 339 696)">
   <path d="M 0.976562 0 L 3.66211 0 L 12.9883 -24.4629 L 45.7031 -24.4629 L 55.0781 0 L 57.7148 0 L 30.6152 -70.459 L 28.125 -70.459 Z M 29.2969 -67.1387 L 29.3945 -67.1387 L 44.873 -26.709 L 13.8672 -26.709 Z"/>
  </g>
  <line id="Baseline-S" style="fill:none;stroke:#27AAE1;opacity:1;stroke-width:0.5;" x1="263" x2="3036" y1="696" y2="696"/>
  <line id="Capline-S" style="fill:none;stroke:#27AAE1;opacity:1;stroke-width:0.5;" x1="263" x2="3036" y1="625.541" y2="625.541"/>
  <g id="H-reference" style="fill:#27AAE1;stroke:none;" transform="matrix(1 0 0 1 339 1126)">
   <path d="M 0.976562 0 L 3.66211 0 L 12.9883 -24.4629 L 45.7031 -24.4629 L 55.0781 0 L 57.7148 0 L 30.6152 -70.459 L 28.125 -70.459 Z M 29.2969 -67.1387 L 29.3945 -67.1387 L 44.873 -26.709 L 13.8672 -26.709 Z"/>
  </g>
  <line id="Baseline-M" style="fill:none;stroke:#27AAE1;opacity:1;stroke-width:0.5;" x1="263" x2="3036" y1="1126" y2="1126"/>
  <line id="Capline-M" style="fill:none;stroke:#27AAE1;opacity:1;stroke-width:0.5;" x1="263" x2="3036" y1="1055.54" y2="1055.54"/>
  <g id="H-reference" style="fill:#27AAE1;stroke:none;" transform="matrix(1 0 0 1 339 1556)">
   <path d="M 0.976562 0 L 3.66211 0 L 12.9883 -24.4629 L 45.7031 -24.4629 L 55.0781 0 L 57.7148 0 L 30.6152 -70.459 L 28.125 -70.459 Z M 29.2969 -67.1387 L 29.3945 -67.1387 L 44.873 -26.709 L 13.8672 -26.709 Z"/>
  </g>
  <line id="Baseline-L" style="fill:none;stroke:#27AAE1;opacity:1;stroke-width:0.5;" x1="263" x2="3036" y1="1556" y2="1556"/>
  <line id="Capline-L" style="fill:none;stroke:#27AAE1;opacity:1;stroke-width:0.5;" x1="263" x2="3036" y1="1485.54" y2="1485.54"/>
  <line id="left-margin" style="fill:none;stroke:#00AEEF;stroke-width:0.5;opacity:1.0;" x1="1392.45" x2="1392.45" y1="1030.79" y2="1150.12"/>
  <line id="right-margin" style="fill:none;stroke:#00AEEF;stroke-width:0.5;opacity:1.0;" x1="1507.24" x2="1507.24" y1="1030.79" y2="1150.12"/>
 </g>
 <g id="Symbols">
  <g id="Black-L" transform="matrix(1 0 0 1 2855.62 1556)">
   <path d="M 39.9902 26.5137 L 115.576 26.5137 C 130.811 26.5137 139.502 17.8711 139.502 2.68555 L 139.502 -73.0957 C 139.502 -88.2812 130.811 -96.875 115.576 -96.875 L 39.9902 -96.875 C 24.7559 -96.875 16.0645 -88.2812 16.0645 -73.0957 L 16.0645 2.68555 C 16.0645 17.8711 24.7559 26.5137 39.9902 26.5137 Z M 42.6758 6.29883 C 38.4766 6.29883 36.3281 4.39453 36.3281 -0.146484 L 36.3281 -70.2148 C 36.3281 -74.7559 38.4766 -76.6602 42.6758 -76.6602 L 112.842 -76.6602 C 117.09 -76.6602 119.238 -74.7559 119.238 -70.2148 L 119.238 -0.146484 C 119.238 4.39453 117.09 6.29883 112.842 6.29883 Z M 44.2383 -35.2539 C 44.2383 -16.5527 59.082 -1.75781 77.7832 -1.75781 C 96.4844 -1.75781 111.279 -16.5527 111.279 -35.2539 C 111.279 -53.9551 96.4844 -68.7988 77.7832 -68.7988 C 74.1699 -68.7988 71.582 -66.4062 71.582 -62.9883 L 71.582 -53.6133 C 71.582 -50.4883 74.0234 -47.998 77.1973 -47.998 C 80.2734 -47.998 82.666 -50.4883 82.666 -53.6133 L 82.666 -55.8105 C 91.7969 -53.6133 98.3398 -45.0195 98.3398 -35.2539 C 98.3398 -23.877 89.1602 -14.6973 77.7832 -14.6973 C 66.3574 -14.6973 57.1777 -23.877 57.1777 -35.2539 C 57.1777 -39.4531 58.5449 -43.6035 60.9863 -47.1191 C 63.4277 -50.9277 63.4277 -53.9551 60.8398 -56.4941 C 57.8125 -59.2773 53.3691 -58.5449 50.7324 -54.8828 C 46.5332 -49.2188 44.2383 -42.2363 44.2383 -35.2539 Z M 83.6426 -28.7109 C 87.0605 -32.2266 86.5723 -37.8418 82.4219 -40.0391 L 69.6289 -47.0703 C 66.3574 -48.8281 63.1836 -46.2891 65.2344 -42.627 L 72.4121 -30.0781 C 74.7559 -25.9277 80.2246 -25.3418 83.6426 -28.7109 Z"/>
  </g>
  <g id="Heavy-L" transform="matrix(1 0 0 1 2559.93 1556)">
   <path d="M 38.8184 25.4883 L 114.697 25.4883 C 129.346 25.4883 137.451 17.4316 137.451 2.88086 L 137.451 -73.2422 C 137.451 -87.793 129.346 -95.8496 114.697 -95.8496 L 38.8184 -95.8496 C 24.2188 -95.8496 16.0645 -87.793 16.0645 -73.2422 L 16.0645 2.88086 C 16.0645 17.4316 24.2188 25.4883 38.8184 25.4883 Z M 40.918 8.00781 C 36.084 8.00781 33.5938 5.71289 33.5938 0.585938 L 33.5938 -70.9473 C 33.5938 -76.0742 36.084 -78.3691 40.918 -78.3691 L 112.549 -78.3691 C 117.383 -78.3691 119.922 -76.0742 119.922 -70.9473 L 119.922 0.585938 C 119.922 5.71289 117.383 8.00781 112.549 8.00781 Z M 42.3828 -35.2539 C 42.3828 -16.1621 57.666 -0.878906 76.7578 -0.878906 C 95.8496 -0.878906 111.133 -16.1621 111.133 -35.2539 C 111.133 -54.3457 95.8496 -69.6289 76.7578 -69.6289 C 73.4375 -69.6289 71.0938 -67.4316 71.0938 -64.2578 L 71.0938 -54.0527 C 71.0938 -51.123 73.3398 -48.877 76.2695 -48.877 C 79.1016 -48.877 81.25 -51.1719 81.25 -54.0527 L 81.25 -57.8125 C 91.6992 -55.7617 99.4141 -46.2891 99.4141 -35.2539 C 99.4141 -22.7051 89.3066 -12.5977 76.7578 -12.5977 C 64.209 -12.5977 54.1016 -22.7051 54.1016 -35.2539 C 54.1016 -40.1855 55.7617 -44.9219 58.7891 -48.877 C 60.9863 -52.2461 60.9375 -55.0293 58.6426 -57.3242 C 55.957 -59.8633 51.9531 -59.2773 49.5117 -56.0059 C 44.9219 -50.0977 42.3828 -42.6758 42.3828 -35.2539 Z M 82.5684 -29.0527 C 85.8398 -32.4219 85.3027 -37.6953 81.3477 -39.8926 L 67.4805 -48.0957 C 64.4043 -49.8047 61.5234 -47.3633 63.4277 -44.043 L 71.7773 -30.3223 C 74.1211 -26.3672 79.2969 -25.7812 82.5684 -29.0527 Z"/>
  </g>
  <g id="Bold-L" transform="matrix(1 0 0 1 2264.37 1556)">
   <path d="M 37.5 24.3652 L 113.721 24.3652 C 127.637 24.3652 135.156 16.8945 135.156 3.07617 L 135.156 -73.3887 C 135.156 -87.207 127.637 -94.7266 113.721 -94.7266 L 37.5 -94.7266 C 23.6328 -94.7266 16.0645 -87.2559 16.0645 -73.3887 L 16.0645 3.07617 C 16.0645 16.8945 23.6328 24.3652 37.5 24.3652 Z M 38.9648 9.91211 C 33.4473 9.91211 30.5176 7.17773 30.5176 1.41602 L 30.5176 -71.7285 C 30.5176 -77.5391 33.4473 -80.2734 38.9648 -80.2734 L 112.256 -80.2734 C 117.725 -80.2734 120.703 -77.5391 120.703 -71.7285 L 120.703 1.41602 C 120.703 7.17773 117.725 9.91211 112.256 9.91211 Z M 40.2832 -35.2539 C 40.2832 -15.6738 56.0547 0.0976562 75.6348 0.0976562 C 95.166 0.0976562 110.938 -15.6738 110.938 -35.2539 C 110.938 -54.7363 95.166 -70.6055 75.6348 -70.6055 C 72.6074 -70.6055 70.5566 -68.6035 70.5566 -65.6738 L 70.5566 -54.4922 C 70.5566 -51.8555 72.5586 -49.8535 75.1953 -49.8535 C 77.7344 -49.8535 79.6875 -51.9043 79.6875 -54.4922 L 79.6875 -60.0098 C 91.6016 -58.1543 100.537 -47.7051 100.537 -35.2539 C 100.537 -21.4355 89.4531 -10.3027 75.6348 -10.3027 C 61.8164 -10.3027 50.6348 -21.4355 50.6836 -35.2539 C 50.6836 -40.9668 52.6367 -46.4355 56.25 -50.8789 C 58.2031 -53.6621 58.2031 -56.25 56.2012 -58.3008 C 53.8574 -60.5469 50.3418 -60.1074 48.1934 -57.2754 C 43.1152 -51.0742 40.2832 -43.1641 40.2832 -35.2539 Z M 81.3477 -29.3457 C 84.4727 -32.5684 83.9355 -37.5 80.1758 -39.6973 L 65.0391 -49.2188 C 62.2559 -50.8789 59.668 -48.6328 61.4258 -45.6055 L 71.0938 -30.6152 C 73.4375 -26.8555 78.2227 -26.2695 81.3477 -29.3457 Z"/>
  </g>
  <g id="Semibold-L" transform="matrix(1 0 0 1 1968.44 1556)">
   <path d="M 36.6211 23.584 L 113.037 23.584 C 126.514 23.584 133.594 16.5039 133.594 3.17383 L 133.594 -73.5352 C 133.594 -86.8164 126.514 -93.9453 113.037 -93.9453 L 36.6211 -93.9453 C 23.1934 -93.9453 16.0645 -86.8652 16.0645 -73.5352 L 16.0645 3.17383 C 16.0645 16.5527 23.1934 23.584 36.6211 23.584 Z M 37.5977 11.2793 C 31.6406 11.2793 28.418 8.20312 28.418 1.95312 L 28.418 -72.3145 C 28.418 -78.5156 31.6406 -81.5918 37.5977 -81.5918 L 112.061 -81.5918 C 117.969 -81.5918 121.24 -78.5156 121.24 -72.3145 L 121.24 1.95312 C 121.24 8.20312 117.969 11.2793 112.061 11.2793 Z M 38.8184 -35.2051 C 38.8184 -15.3809 54.9805 0.78125 74.8047 0.78125 C 94.6777 0.78125 110.84 -15.3809 110.84 -35.2051 C 110.84 -55.0293 94.6777 -71.2402 74.8535 -71.2402 C 72.0215 -71.2402 70.166 -69.4336 70.166 -66.6504 L 70.166 -54.834 C 70.166 -52.3926 71.9727 -50.5371 74.4141 -50.5371 C 76.8066 -50.5371 78.6133 -52.4414 78.6133 -54.834 L 78.6133 -61.5723 C 91.5527 -59.8145 101.367 -48.6816 101.367 -35.2051 C 101.367 -20.5078 89.5508 -8.69141 74.8047 -8.69141 C 60.1074 -8.69141 48.291 -20.5078 48.291 -35.2051 C 48.291 -41.5039 50.4883 -47.4609 54.541 -52.2461 C 56.2988 -54.6387 56.2988 -57.0801 54.4922 -58.9844 C 52.4414 -61.0352 49.2676 -60.6934 47.2656 -58.1543 C 41.8457 -51.7578 38.8184 -43.5059 38.8184 -35.2051 Z M 80.5176 -29.5898 C 83.5449 -32.7148 82.959 -37.3535 79.3457 -39.5996 L 63.3789 -50 C 60.7422 -51.6113 58.3496 -49.4629 60.0586 -46.7285 L 70.6055 -30.8594 C 72.9492 -27.1973 77.4414 -26.6113 80.5176 -29.5898 Z"/>
  </g>
  <g id="Medium-L" transform="matrix(1 0 0 1 1672.31 1556)">
   <path d="M 35.9375 22.998 L 112.5 22.998 C 125.635 22.998 132.422 16.2109 132.422 3.27148 L 132.422 -73.6328 C 132.422 -86.5234 125.635 -93.3105 112.5 -93.3105 L 35.9375 -93.3105 C 22.9004 -93.3105 16.0645 -86.5723 16.0645 -73.6328 L 16.0645 3.27148 C 16.0645 16.2598 22.9004 22.998 35.9375 22.998 Z M 36.5723 12.2559 C 30.2246 12.2559 26.8066 8.98438 26.8066 2.39258 L 26.8066 -72.7051 C 26.8066 -79.2969 30.2246 -82.6172 36.5723 -82.6172 L 111.865 -82.6172 C 118.115 -82.6172 121.68 -79.2969 121.68 -72.7051 L 121.68 2.39258 C 121.68 8.98438 118.115 12.2559 111.865 12.2559 Z M 37.7441 -35.2051 C 37.7441 -15.1367 54.1504 1.26953 74.2188 1.26953 C 94.3359 1.26953 110.742 -15.1367 110.742 -35.2051 C 110.742 -55.2734 94.3359 -71.7285 74.2676 -71.7285 C 71.582 -71.7285 69.873 -70.0195 69.873 -67.3828 L 69.873 -55.0781 C 69.873 -52.7832 71.582 -51.0254 73.877 -51.0254 C 76.123 -51.0254 77.7832 -52.832 77.7832 -55.0781 L 77.7832 -62.7441 C 91.5039 -61.084 101.953 -49.4141 101.953 -35.2051 C 101.953 -19.873 89.5996 -7.51953 74.2188 -7.51953 C 58.8867 -7.51953 46.4844 -19.873 46.5332 -35.2051 C 46.5332 -41.8945 48.877 -48.2422 53.2715 -53.2715 C 54.834 -55.4199 54.834 -57.7148 53.2227 -59.4727 C 51.3184 -61.377 48.4375 -61.084 46.582 -58.8379 C 40.918 -52.2461 37.7441 -43.7988 37.7441 -35.2051 Z M 79.8828 -29.7852 C 82.8125 -32.8125 82.2754 -37.2559 78.7109 -39.502 L 62.1094 -50.5859 C 59.6191 -52.1484 57.373 -50.0977 59.0332 -47.5586 L 70.2148 -31.0059 C 72.5586 -27.4414 76.9043 -26.8555 79.8828 -29.7852 Z"/>
  </g>
  <g id="Regular-L" transform="matrix(1 0 0 1 1376.38 1556)">
   <path d="M 35.0586 22.2168 L 111.816 22.2168 C 124.463 22.2168 130.859 15.8691 130.859 3.41797 L 130.859 -73.7305 C 130.859 -86.1816 124.463 -92.5293 111.816 -92.5293 L 35.0586 -92.5293 C 22.4609 -92.5293 16.0645 -86.2305 16.0645 -73.7305 L 16.0645 3.41797 C 16.0645 15.918 22.4609 22.2168 35.0586 22.2168 Z M 35.2539 13.5742 C 28.418 13.5742 24.707 9.96094 24.707 2.97852 L 24.707 -73.291 C 24.707 -80.2734 28.418 -83.8867 35.2539 -83.8867 L 111.67 -83.8867 C 118.359 -83.8867 122.217 -80.2734 122.217 -73.291 L 122.217 2.97852 C 122.217 9.96094 118.359 13.5742 111.67 13.5742 Z M 36.3281 -35.2051 C 36.3281 -14.7949 53.0762 1.95312 73.4375 1.95312 C 93.8477 1.95312 110.645 -14.7949 110.645 -35.2051 C 110.645 -55.5664 93.8477 -72.3633 73.4863 -72.3633 C 70.9961 -72.3633 69.4824 -70.8008 69.4824 -68.3105 L 69.4824 -55.4199 C 69.4824 -53.2715 71.0449 -51.709 73.1445 -51.709 C 75.1953 -51.709 76.709 -53.3691 76.709 -55.4199 L 76.709 -64.2578 C 91.4062 -62.6953 102.783 -50.3418 102.783 -35.2051 C 102.783 -18.9941 89.6973 -5.9082 73.4375 -5.9082 C 57.2266 -5.9082 44.1406 -18.9941 44.1895 -35.2051 C 44.1895 -42.4316 46.7773 -49.2676 51.5625 -54.6387 C 52.9785 -56.3965 52.9785 -58.5449 51.5625 -60.1562 C 49.9023 -61.8164 47.3633 -61.6699 45.7031 -59.668 C 39.6484 -52.9297 36.3281 -44.1406 36.3281 -35.2051 Z M 79.0527 -30.0293 C 81.8848 -32.959 81.2988 -37.1094 77.9297 -39.3555 L 60.4492 -51.3672 C 58.1543 -52.8809 56.1035 -50.9277 57.666 -48.6328 L 69.7266 -31.2012 C 72.1191 -27.7832 76.1719 -27.1973 79.0527 -30.0293 Z"/>
  </g>
  <g id="Light-L" transform="matrix(1 0 0 1 1080.5 1556)">
   <path d="M 34.0332 21.4355 L 111.23 21.4355 C 123.096 21.4355 129.199 15.2344 129.199 3.56445 L 129.199 -73.8281 C 129.199 -85.5469 123.096 -91.6992 111.23 -91.6992 L 34.0332 -91.6992 C 22.168 -91.6992 16.0645 -85.6445 16.0645 -73.8281 L 16.0645 3.56445 C 16.0645 15.3809 22.168 21.4355 34.0332 21.4355 Z M 34.1797 14.7949 C 26.709 14.7949 22.7051 10.8398 22.7051 3.22266 L 22.7051 -73.4863 C 22.7051 -81.1523 26.709 -85.0586 34.1797 -85.0586 L 111.035 -85.0586 C 118.359 -85.0586 122.559 -81.1523 122.559 -73.4863 L 122.559 3.22266 C 122.559 10.8398 118.359 14.7949 111.035 14.7949 Z M 34.9609 -35.1562 C 34.9609 -14.4531 51.9043 2.49023 72.6074 2.49023 C 93.3105 2.49023 110.352 -14.4531 110.352 -35.1562 C 110.352 -55.8594 93.3105 -72.8516 72.6562 -72.8516 C 70.4102 -72.8516 69.1895 -71.6309 69.1895 -69.4824 L 69.1895 -55.4688 C 69.1895 -53.8086 70.3613 -52.5391 72.0703 -52.5391 C 73.7305 -52.5391 74.9023 -53.8574 74.9023 -55.4688 L 74.9023 -66.5527 C 91.3086 -65.4297 104.199 -51.8555 104.199 -35.1562 C 104.199 -17.7246 90.0879 -3.66211 72.6074 -3.66211 C 55.1758 -3.66211 41.0645 -17.7246 41.1133 -35.1562 C 41.1133 -43.1641 44.043 -50.7324 49.5117 -56.6406 C 50.6348 -58.0078 50.7324 -59.7656 49.5605 -60.9863 C 48.3398 -62.2559 46.3867 -62.207 44.9707 -60.6445 C 38.5254 -53.6621 34.9609 -44.5312 34.9609 -35.1562 Z M 77.8809 -30.5664 C 80.4688 -33.3496 79.8828 -37.1582 76.7578 -39.3066 L 58.5449 -52.1484 C 56.6406 -53.418 54.9805 -51.7578 56.25 -49.9023 L 69.1895 -31.6895 C 71.4355 -28.5156 75.1465 -27.9785 77.8809 -30.5664 Z"/>
  </g>
  <g id="Thin-L" transform="matrix(1 0 0 1 784.889 1556)">
   <path d="M 32.666 20.3613 L 110.352 20.3613 C 121.24 20.3613 127.002 14.4531 127.002 3.75977 L 127.002 -73.9746 C 127.002 -84.7168 121.24 -90.5762 110.352 -90.5762 L 32.666 -90.5762 C 21.7773 -90.5762 16.0645 -84.8633 16.0645 -73.9746 L 16.0645 3.75977 C 16.0645 14.6484 21.7773 20.3613 32.666 20.3613 Z M 32.8125 16.4062 C 24.4141 16.4062 19.9707 12.0117 19.9707 3.56445 L 19.9707 -73.7793 C 19.9707 -82.2754 24.4141 -86.6699 32.8125 -86.6699 L 110.205 -86.6699 C 118.359 -86.6699 123.047 -82.2754 123.047 -73.7793 L 123.047 3.56445 C 123.047 12.0117 118.359 16.4062 110.205 16.4062 Z M 33.2031 -35.1074 C 33.2031 -14.0137 50.3906 3.22266 71.5332 3.22266 C 92.627 3.22266 109.961 -14.0137 109.961 -35.1074 C 109.961 -56.25 92.627 -73.5352 71.5332 -73.5352 C 69.6777 -73.5352 68.75 -72.7051 68.75 -70.9961 L 68.75 -55.5664 C 68.75 -54.4922 69.5312 -53.7109 70.6543 -53.7109 C 71.7285 -53.7109 72.5098 -54.541 72.5098 -55.5664 L 72.5098 -69.5801 C 91.2109 -68.9941 106.104 -53.8574 106.104 -35.1074 C 106.104 -16.0156 90.625 -0.585938 71.5332 -0.585938 C 52.3926 -0.585938 37.0117 -16.0156 37.0117 -35.1074 C 37.0117 -44.0918 40.4785 -52.6855 46.7773 -59.2773 C 47.6074 -60.1074 47.7539 -61.3281 46.9727 -62.0605 C 46.2402 -62.8418 45.0195 -62.8906 44.043 -61.8652 C 37.0605 -54.6387 33.2031 -45.0195 33.2031 -35.1074 Z M 76.2207 -31.2988 C 78.5645 -33.8379 78.0273 -37.207 75.2441 -39.1602 L 56.0059 -53.1738 C 54.6387 -54.1504 53.4668 -52.9297 54.4434 -51.5625 L 68.457 -32.373 C 70.5078 -29.541 73.7793 -28.9551 76.2207 -31.2988 Z"/>
  </g>
  <g id="Ultralight-L" transform="matrix(1 0 0 1 488.739 1556)">
   <path d="M 31.9824 19.7754 L 109.961 19.7754 C 120.312 19.7754 125.879 14.0625 125.879 3.85742 L 125.879 -74.0723 C 125.879 -84.2773 120.312 -89.9902 109.961 -89.9902 L 31.9824 -89.9902 C 21.582 -89.9902 16.0645 -84.4727 16.0645 -74.0723 L 16.0645 3.85742 C 16.0645 14.2578 21.582 19.7754 31.9824 19.7754 Z M 32.1289 17.2363 C 23.1934 17.2363 18.6035 12.6465 18.6035 3.75977 L 18.6035 -73.9258 C 18.6035 -82.8125 23.1934 -87.4512 32.1289 -87.4512 L 109.766 -87.4512 C 118.359 -87.4512 123.291 -82.8125 123.291 -73.9258 L 123.291 3.75977 C 123.291 12.6465 118.359 17.2363 109.766 17.2363 Z M 32.2754 -35.1074 C 32.2754 -13.7695 49.6094 3.61328 70.9473 3.61328 C 92.2852 3.61328 109.717 -13.7695 109.717 -35.1074 C 109.717 -56.4453 92.2852 -73.877 70.9473 -73.877 C 69.2871 -73.877 68.5547 -73.2422 68.5547 -71.7773 L 68.5547 -55.6641 C 68.5547 -54.834 69.0918 -54.2969 69.9219 -54.2969 C 70.752 -54.2969 71.2891 -54.8828 71.2891 -55.6641 L 71.2891 -71.1914 C 91.1621 -70.8008 107.08 -54.8828 107.08 -35.1074 C 107.08 -15.1367 90.918 0.927734 70.9473 0.927734 C 51.0254 0.927734 34.9121 -15.1367 34.9121 -35.1074 C 34.9121 -44.5801 38.6719 -53.7109 45.4102 -60.5957 C 46.0449 -61.2305 46.1914 -62.1094 45.6543 -62.6465 C 45.1172 -63.1836 44.3848 -63.2812 43.6035 -62.5 C 36.2793 -55.127 32.2754 -45.3125 32.2754 -35.1074 Z M 75.4395 -31.6895 C 77.5879 -34.1309 77.0508 -37.207 74.4629 -39.1113 L 54.6875 -53.7109 C 53.6133 -54.4922 52.6855 -53.4668 53.4668 -52.3926 L 68.0664 -32.7148 C 70.0195 -30.0293 73.0469 -29.4922 75.4395 -31.6895 Z"/>
  </g>
  <g id="Black-M" transform="matrix(1 0 0 1 2872.19 1126)">
   <path d="M 31.9824 13.5742 L 90.4297 13.5742 C 102.686 13.5742 109.961 6.29883 109.961 -5.95703 L 109.961 -64.4043 C 109.961 -76.6602 102.686 -83.9355 90.4297 -83.9355 L 31.9824 -83.9355 C 19.7266 -83.9355 12.4512 -76.6602 12.4512 -64.4043 L 12.4512 -5.95703 C 12.4512 6.29883 19.7266 13.5742 31.9824 13.5742 Z M 34.9121 -4.73633 C 32.0801 -4.73633 30.7617 -5.81055 30.7617 -8.88672 L 30.7617 -61.4746 C 30.7617 -64.5508 32.0801 -65.6738 34.9121 -65.6738 L 87.5 -65.6738 C 90.332 -65.6738 91.6504 -64.5508 91.6504 -61.4746 L 91.6504 -8.88672 C 91.6504 -5.81055 90.332 -4.73633 87.5 -4.73633 Z M 36.084 -35.2539 C 36.084 -21.1426 47.0703 -10.1562 61.1816 -10.1562 C 75.3418 -10.1562 86.3281 -21.1426 86.3281 -35.2539 C 86.3281 -49.3652 75.3418 -60.3516 61.1816 -60.3516 C 58.2031 -60.3516 56.0059 -58.4473 56.0059 -55.6641 L 56.0059 -48.9258 C 56.0059 -46.4355 58.0078 -44.4336 60.5469 -44.4336 C 63.0859 -44.4336 64.9902 -46.4355 64.9902 -48.9258 L 64.9902 -49.707 C 71.2402 -48.0469 75.5859 -41.8945 75.5859 -35.2539 C 75.5859 -27.2949 69.1895 -20.8496 61.1816 -20.8496 C 53.2227 -20.8496 46.8262 -27.2949 46.8262 -35.2539 C 46.8262 -37.9395 47.6562 -40.7227 49.1699 -43.1152 C 51.2695 -46.5332 51.2695 -48.9258 49.0723 -50.9766 C 46.4844 -53.2715 42.7246 -52.5879 40.5273 -49.4629 C 37.6465 -45.3125 36.084 -40.2832 36.084 -35.2539 Z M 65.625 -30.0781 C 68.3594 -32.9102 68.0176 -37.5488 64.6973 -39.1602 L 55.8594 -43.457 C 53.2227 -44.7754 50.5859 -42.7734 52.2461 -39.6973 L 56.6895 -31.1523 C 58.4473 -27.832 62.9395 -27.3926 65.625 -30.0781 Z"/>
  </g>
  <g id="Heavy-M" transform="matrix(1 0 0 1 2576.39 1126)">
   <path d="M 31.0059 12.6465 L 89.6484 12.6465 C 101.416 12.6465 108.154 5.9082 108.154 -5.81055 L 108.154 -64.5508 C 108.154 -76.2695 101.416 -83.0566 89.6484 -83.0566 L 31.0059 -83.0566 C 19.2383 -83.0566 12.4512 -76.3184 12.4512 -64.5508 L 12.4512 -5.81055 C 12.4512 5.9082 19.2383 12.6465 31.0059 12.6465 Z M 33.252 -3.17383 C 29.9316 -3.17383 28.2715 -4.63867 28.2715 -8.1543 L 28.2715 -62.207 C 28.2715 -65.7715 29.9316 -67.2363 33.252 -67.2363 L 87.3535 -67.2363 C 90.6738 -67.2363 92.334 -65.7715 92.334 -62.207 L 92.334 -8.1543 C 92.334 -4.63867 90.6738 -3.17383 87.3535 -3.17383 Z M 34.4238 -35.2539 C 34.4238 -20.8008 45.8496 -9.32617 60.3027 -9.32617 C 74.7559 -9.32617 86.2305 -20.8008 86.2305 -35.2539 C 86.2305 -49.707 74.7559 -61.1816 60.3027 -61.1816 C 57.5195 -61.1816 55.5176 -59.375 55.5176 -56.7383 L 55.5176 -49.3652 C 55.5176 -47.0215 57.373 -45.166 59.7656 -45.166 C 62.1094 -45.166 63.916 -47.0215 63.916 -49.3652 L 63.916 -51.3184 C 71.1426 -49.707 76.3672 -42.9199 76.3672 -35.2539 C 76.3672 -26.3672 69.1895 -19.1895 60.3027 -19.1895 C 51.416 -19.1895 44.2383 -26.3672 44.2383 -35.2539 C 44.2383 -38.5254 45.3125 -41.7969 47.2656 -44.5312 C 49.1699 -47.5098 49.1699 -49.8047 47.168 -51.709 C 44.873 -53.8086 41.4551 -53.2715 39.4043 -50.4395 C 36.1816 -46.0449 34.4238 -40.6738 34.4238 -35.2539 Z M 64.7461 -30.2734 C 67.3828 -32.959 66.9922 -37.3047 63.8184 -38.9648 L 54.0039 -44.3848 C 51.5137 -45.7031 49.0723 -43.75 50.6348 -40.918 L 56.1523 -31.2988 C 57.9102 -28.125 62.1582 -27.6855 64.7461 -30.2734 Z"/>
  </g>
  <g id="Bold-M" transform="matrix(1 0 0 1 2280.68 1126)">
   <path d="M 29.8828 11.6699 L 88.7207 11.6699 C 99.9512 11.6699 106.152 5.46875 106.152 -5.66406 L 106.152 -64.6973 C 106.152 -75.8789 99.9512 -82.0312 88.7207 -82.0312 L 29.8828 -82.0312 C 18.6523 -82.0312 12.4512 -75.8789 12.4512 -64.6973 L 12.4512 -5.66406 C 12.4512 5.51758 18.6523 11.6699 29.8828 11.6699 Z M 31.3965 -1.41602 C 27.5391 -1.41602 25.5371 -3.27148 25.5371 -7.32422 L 25.5371 -63.0371 C 25.5371 -67.1387 27.5391 -68.9453 31.3965 -68.9453 L 87.207 -68.9453 C 91.0156 -68.9453 93.0664 -67.1387 93.0664 -63.0371 L 93.0664 -7.32422 C 93.0664 -3.27148 91.0156 -1.41602 87.207 -1.41602 Z M 32.5195 -35.2539 C 32.5195 -20.3613 44.4336 -8.44727 59.3262 -8.44727 C 74.1699 -8.44727 86.084 -20.3613 86.084 -35.2539 C 86.084 -50.0977 74.1699 -62.0605 59.3262 -62.0605 C 56.7871 -62.0605 55.0293 -60.4004 55.0293 -57.959 L 55.0293 -49.9023 C 55.0293 -47.6562 56.6895 -45.9473 58.9355 -45.9473 C 61.084 -45.9473 62.7441 -47.7051 62.7441 -49.9023 L 62.7441 -53.0762 C 71.0449 -51.5137 77.1973 -43.9941 77.1973 -35.2539 C 77.1973 -25.3418 69.2383 -17.334 59.3262 -17.334 C 49.3652 -17.334 41.3574 -25.3418 41.4062 -35.2539 C 41.4062 -39.1602 42.7246 -42.9688 45.166 -46.1426 C 46.8262 -48.6328 46.7773 -50.7812 45.0684 -52.5391 C 43.0176 -54.4434 39.9902 -54.0039 38.1836 -51.5625 C 34.5215 -46.9238 32.5195 -41.1133 32.5195 -35.2539 Z M 63.8184 -30.4688 C 66.3086 -33.0566 65.918 -37.1094 62.8418 -38.8184 L 51.9043 -45.3613 C 49.5605 -46.6797 47.3633 -44.8242 48.8281 -42.2852 L 55.5176 -31.4941 C 57.3242 -28.418 61.2793 -27.9785 63.8184 -30.4688 Z"/>
  </g>
  <g id="Semibold-M" transform="matrix(1 0 0 1 1984.65 1126)">
   <path d="M 29.1016 10.9863 L 88.0859 10.9863 C 98.9746 10.9863 104.785 5.17578 104.785 -5.56641 L 104.785 -64.8438 C 104.785 -75.5859 98.9746 -81.3477 88.0859 -81.3477 L 29.1016 -81.3477 C 18.2617 -81.3477 12.4512 -75.5859 12.4512 -64.8438 L 12.4512 -5.56641 C 12.4512 5.22461 18.2617 10.9863 29.1016 10.9863 Z M 30.127 -0.195312 C 25.8789 -0.195312 23.6328 -2.34375 23.6328 -6.78711 L 23.6328 -63.623 C 23.6328 -68.0664 25.8789 -70.166 30.127 -70.166 L 87.1094 -70.166 C 91.2598 -70.166 93.6035 -68.0664 93.6035 -63.623 L 93.6035 -6.78711 C 93.6035 -2.34375 91.2598 -0.195312 87.1094 -0.195312 Z M 31.2012 -35.2539 C 31.2012 -20.1172 43.457 -7.8125 58.5938 -7.8125 C 73.7793 -7.8125 86.0352 -20.1172 86.0352 -35.2539 C 86.0352 -50.3418 73.7793 -62.6465 58.6426 -62.6465 C 56.25 -62.6465 54.6387 -61.084 54.6387 -58.7891 L 54.6387 -50.2441 C 54.6387 -48.1445 56.25 -46.5332 58.3496 -46.5332 C 60.3516 -46.5332 61.9141 -48.1445 61.9141 -50.2441 L 61.9141 -54.2969 C 70.9961 -52.7832 77.7832 -44.7754 77.7832 -35.2539 C 77.7832 -24.6094 69.2383 -16.0645 58.5938 -16.0645 C 47.998 -16.0645 39.4043 -24.6094 39.4531 -35.2539 C 39.4531 -39.5996 40.918 -43.7988 43.7012 -47.2168 C 45.2148 -49.3652 45.166 -51.4648 43.6035 -53.0762 C 41.7969 -54.8828 39.0137 -54.4922 37.3047 -52.2949 C 33.3496 -47.5098 31.2012 -41.4062 31.2012 -35.2539 Z M 63.1348 -30.6152 C 65.5762 -33.1055 65.1367 -36.9141 62.207 -38.7207 L 50.4395 -46.0938 C 48.2422 -47.4121 46.1914 -45.6055 47.6074 -43.2617 L 55.0781 -31.5918 C 56.9336 -28.6621 60.6934 -28.2227 63.1348 -30.6152 Z"/>
  </g>
  <g id="Medium-M" transform="matrix(1 0 0 1 1688.47 1126)">
   <path d="M 28.5156 10.4492 L 87.6465 10.4492 C 98.2422 10.4492 103.711 4.98047 103.711 -5.46875 L 103.711 -64.8926 C 103.711 -75.3418 98.2422 -80.8105 87.6465 -80.8105 L 28.5156 -80.8105 C 17.9688 -80.8105 12.4512 -75.3906 12.4512 -64.8926 L 12.4512 -5.46875 C 12.4512 4.98047 17.9688 10.4492 28.5156 10.4492 Z M 29.1504 0.732422 C 24.6582 0.732422 22.168 -1.61133 22.168 -6.34766 L 22.168 -64.0137 C 22.168 -68.75 24.6582 -71.0938 29.1504 -71.0938 L 87.0117 -71.0938 C 91.4551 -71.0938 93.9941 -68.75 93.9941 -64.0137 L 93.9941 -6.34766 C 93.9941 -1.61133 91.4551 0.732422 87.0117 0.732422 Z M 30.2246 -35.2539 C 30.2246 -19.873 42.7246 -7.37305 58.1055 -7.37305 C 73.4375 -7.37305 85.9863 -19.873 85.9863 -35.2539 C 85.9863 -50.5371 73.4375 -63.1348 58.1055 -63.1348 C 55.8594 -63.1348 54.3945 -61.6211 54.3945 -59.4238 L 54.3945 -50.4883 C 54.3945 -48.4863 55.8594 -46.9238 57.8613 -46.9238 C 59.8145 -46.9238 61.2793 -48.5352 61.2793 -50.4883 L 61.2793 -55.1758 C 70.9473 -53.7598 78.2227 -45.3613 78.2227 -35.2539 C 78.2227 -24.0723 69.2383 -15.0879 58.1055 -15.0879 C 46.9238 -15.0879 37.8906 -24.0723 37.9395 -35.2539 C 37.9395 -39.9414 39.5508 -44.4336 42.5781 -48.0469 C 43.9453 -49.9512 43.9453 -51.9531 42.4805 -53.5156 C 40.8203 -55.1758 38.2324 -54.8828 36.6699 -52.8809 C 32.5195 -47.9492 30.2246 -41.6016 30.2246 -35.2539 Z M 62.6465 -30.7129 C 64.9902 -33.1543 64.5508 -36.8164 61.6699 -38.623 L 49.3652 -46.6309 C 47.2656 -47.9492 45.3125 -46.1914 46.6797 -43.9941 L 54.7852 -31.6895 C 56.6406 -28.8086 60.2051 -28.3691 62.6465 -30.7129 Z"/>
  </g>
  <g id="Regular-M" transform="matrix(1 0 0 1 1392.45 1126)">
   <path d="M 27.7832 9.76562 L 87.0117 9.76562 C 97.2656 9.76562 102.344 4.6875 102.344 -5.37109 L 102.344 -64.9902 C 102.344 -75.0488 97.2656 -80.127 87.0117 -80.127 L 27.7832 -80.127 C 17.5781 -80.127 12.4512 -75.0977 12.4512 -64.9902 L 12.4512 -5.37109 C 12.4512 4.73633 17.5781 9.76562 27.7832 9.76562 Z M 27.8809 1.9043 C 22.998 1.9043 20.3125 -0.683594 20.3125 -5.76172 L 20.3125 -64.5996 C 20.3125 -69.6777 22.998 -72.2656 27.8809 -72.2656 L 86.9141 -72.2656 C 91.748 -72.2656 94.4824 -69.6777 94.4824 -64.5996 L 94.4824 -5.76172 C 94.4824 -0.683594 91.748 1.9043 86.9141 1.9043 Z M 28.9062 -35.2539 C 28.9062 -19.6289 41.7969 -6.73828 57.4219 -6.73828 C 73.0469 -6.73828 85.8887 -19.6289 85.8887 -35.2539 C 85.8887 -50.8301 73.0469 -63.7207 57.4707 -63.7207 C 55.3711 -63.7207 54.0527 -62.3535 54.0527 -60.2051 L 54.0527 -50.8301 C 54.0527 -48.9258 55.4199 -47.5098 57.2754 -47.5098 C 59.1309 -47.5098 60.498 -48.9746 60.498 -50.8301 L 60.498 -56.3965 C 70.8984 -54.9805 78.8086 -46.0938 78.8086 -35.2539 C 78.8086 -23.3398 69.2871 -13.8184 57.4219 -13.8184 C 45.5078 -13.8184 35.9375 -23.3398 35.9863 -35.2539 C 35.9863 -40.3809 37.793 -45.2637 41.1133 -49.1211 C 42.3828 -50.7324 42.334 -52.6367 41.0645 -54.0527 C 39.5996 -55.6152 37.2559 -55.4199 35.791 -53.6621 C 31.3965 -48.5352 28.9062 -41.8945 28.9062 -35.2539 Z M 61.9629 -30.8594 C 64.2578 -33.252 63.8184 -36.6699 61.0352 -38.4766 L 47.9492 -47.3145 C 45.9473 -48.6328 44.1406 -46.9238 45.459 -44.9219 L 54.3457 -31.8359 C 56.25 -29.0039 59.6191 -28.5645 61.9629 -30.8594 Z"/>
  </g>
  <g id="Light-M" transform="matrix(1 0 0 1 1096.47 1126)">
   <path d="M 26.8555 9.0332 L 86.4746 9.0332 C 95.9961 9.0332 100.879 4.15039 100.879 -5.22461 L 100.879 -65.0879 C 100.879 -74.5117 95.9961 -79.3945 86.4746 -79.3945 L 26.8555 -79.3945 C 17.334 -79.3945 12.4512 -74.5605 12.4512 -65.0879 L 12.4512 -5.22461 C 12.4512 4.19922 17.334 9.0332 26.8555 9.0332 Z M 26.9531 2.97852 C 21.4844 2.97852 18.5059 0.0976562 18.5059 -5.56641 L 18.5059 -64.7949 C 18.5059 -70.4102 21.4844 -73.3398 26.9531 -73.3398 L 86.3281 -73.3398 C 91.748 -73.3398 94.8242 -70.4102 94.8242 -64.7949 L 94.8242 -5.56641 C 94.8242 0.0976562 91.748 2.97852 86.3281 2.97852 Z M 27.6855 -35.2051 C 27.6855 -19.2871 40.7715 -6.25 56.6406 -6.25 C 72.5586 -6.25 85.6445 -19.2871 85.6445 -35.2051 C 85.6445 -51.0742 72.5586 -64.1602 56.6895 -64.1602 C 54.834 -64.1602 53.7598 -63.0859 53.7598 -61.2305 L 53.7598 -50.8789 C 53.7598 -49.3652 54.834 -48.291 56.3477 -48.291 C 57.7637 -48.291 58.8867 -49.4629 58.8867 -50.8789 L 58.8867 -58.4473 C 70.8008 -57.4219 80.127 -47.4609 80.127 -35.2051 C 80.127 -22.2168 69.6289 -11.7676 56.6406 -11.7676 C 43.6523 -11.7676 33.2031 -22.2168 33.2031 -35.2051 C 33.2031 -41.0645 35.3516 -46.582 39.2578 -50.9277 C 40.2832 -52.1484 40.332 -53.7109 39.3066 -54.834 C 38.1348 -56.0059 36.377 -55.9082 35.1562 -54.4922 C 30.3711 -49.1699 27.6855 -42.2363 27.6855 -35.2051 Z M 60.8887 -31.3477 C 62.9883 -33.5938 62.5488 -36.6699 60.0098 -38.4277 L 46.2402 -47.998 C 44.5801 -49.1211 43.1152 -47.6562 44.2383 -46.0449 L 53.8574 -32.2754 C 55.6641 -29.6875 58.6914 -29.248 60.8887 -31.3477 Z"/>
  </g>
  <g id="Thin-M" transform="matrix(1 0 0 1 800.758 1126)">
   <path d="M 25.6348 8.05664 L 85.7422 8.05664 C 94.3848 8.05664 98.877 3.4668 98.877 -5.0293 L 98.877 -65.2344 C 98.877 -73.7305 94.3848 -78.3691 85.7422 -78.3691 L 25.6348 -78.3691 C 16.9922 -78.3691 12.4512 -73.877 12.4512 -65.2344 L 12.4512 -5.0293 C 12.4512 3.56445 16.9922 8.05664 25.6348 8.05664 Z M 25.7324 4.44336 C 19.3848 4.44336 16.0645 1.12305 16.0645 -5.22461 L 16.0645 -65.0391 C 16.0645 -71.4355 19.3848 -74.7559 25.7324 -74.7559 L 85.5957 -74.7559 C 91.748 -74.7559 95.2637 -71.4355 95.2637 -65.0391 L 95.2637 -5.22461 C 95.2637 1.12305 91.748 4.44336 85.5957 4.44336 Z M 26.123 -35.1562 C 26.123 -18.8965 39.4043 -5.61523 55.6641 -5.61523 C 71.9238 -5.61523 85.3027 -18.8965 85.3027 -35.1562 C 85.3027 -51.416 71.9238 -64.7949 55.6641 -64.7949 C 54.1504 -64.7949 53.3691 -64.0137 53.3691 -62.5977 L 53.3691 -50.9766 C 53.3691 -50 54.0527 -49.3164 55.0781 -49.3164 C 56.0547 -49.3164 56.7383 -50.0488 56.7383 -50.9766 L 56.7383 -61.2305 C 70.7031 -60.5957 81.8359 -49.2676 81.8359 -35.1562 C 81.8359 -20.7031 70.1172 -9.0332 55.6641 -9.0332 C 41.2109 -9.0332 29.541 -20.7031 29.5898 -35.1562 C 29.5898 -41.8945 32.1777 -48.3398 36.8652 -53.2715 C 37.5488 -54.0527 37.6465 -55.127 36.9629 -55.8105 C 36.2793 -56.4941 35.2051 -56.543 34.3262 -55.6152 C 29.0527 -50.0488 26.123 -42.7246 26.123 -35.1562 Z M 59.4238 -32.0312 C 61.2793 -34.0332 60.8398 -36.7188 58.6426 -38.2812 L 43.9453 -48.9258 C 42.7734 -49.7559 41.748 -48.6816 42.5781 -47.5098 L 53.2227 -32.8613 C 54.834 -30.6152 57.4707 -30.1758 59.4238 -32.0312 Z"/>
  </g>
  <g id="Ultralight-M" transform="matrix(1 0 0 1 504.535 1126)">
   <path d="M 25 7.56836 L 85.3516 7.56836 C 93.5059 7.56836 97.9004 3.125 97.9004 -4.98047 L 97.9004 -65.2832 C 97.9004 -73.3887 93.5059 -77.832 85.3516 -77.832 L 25 -77.832 C 16.7969 -77.832 12.4512 -73.4863 12.4512 -65.2832 L 12.4512 -4.98047 C 12.4512 3.22266 16.7969 7.56836 25 7.56836 Z M 25.0977 5.17578 C 18.3594 5.17578 14.8438 1.66016 14.8438 -5.07812 L 14.8438 -65.1855 C 14.8438 -71.9727 18.3594 -75.4395 25.0977 -75.4395 L 85.2051 -75.4395 C 91.748 -75.4395 95.5078 -71.9727 95.5078 -65.1855 L 95.5078 -5.07812 C 95.5078 1.66016 91.748 5.17578 85.2051 5.17578 Z M 25.293 -35.1562 C 25.293 -18.6523 38.6719 -5.27344 55.1758 -5.27344 C 71.6309 -5.27344 85.1074 -18.6523 85.1074 -35.1562 C 85.1074 -51.6113 71.6309 -65.0879 55.1758 -65.0879 C 53.8086 -65.0879 53.1738 -64.5508 53.1738 -63.2812 L 53.1738 -51.0254 C 53.1738 -50.293 53.6621 -49.8047 54.3945 -49.8047 C 55.127 -49.8047 55.6152 -50.3906 55.6152 -51.0254 L 55.6152 -62.5977 C 70.6543 -62.2559 82.7148 -50.1465 82.7148 -35.1562 C 82.7148 -19.9219 70.3613 -7.66602 55.1758 -7.66602 C 39.9414 -7.66602 27.6855 -19.9219 27.6855 -35.1562 C 27.6855 -42.334 30.5176 -49.2188 35.5957 -54.4922 C 36.1328 -55.0293 36.2793 -55.8105 35.791 -56.2988 C 35.3027 -56.7871 34.5703 -56.8359 33.9355 -56.2012 C 28.3691 -50.4883 25.293 -42.9688 25.293 -35.1562 Z M 58.6914 -32.373 C 60.4492 -34.2773 60.0098 -36.7676 57.959 -38.2324 L 42.7734 -49.3652 C 41.8457 -50.0488 41.0645 -49.2188 41.748 -48.291 L 52.8809 -33.1543 C 54.4434 -31.0547 56.8359 -30.6152 58.6914 -32.373 Z"/>
  </g>
  <g id="Black-S" transform="matrix(1 0 0 1 2885.5 696)">
   <path d="M 25 2.92969 L 70.8008 2.92969 C 80.3711 2.92969 86.0352 -2.73438 86.0352 -12.3047 L 86.0352 -58.1055 C 86.0352 -67.6758 80.3711 -73.3398 70.8008 -73.3398 L 25 -73.3398 C 15.4297 -73.3398 9.76562 -67.6758 9.76562 -58.1055 L 9.76562 -12.3047 C 9.76562 -2.73438 15.4297 2.92969 25 2.92969 Z M 27.2461 -11.2305 C 25 -11.2305 23.9258 -12.1094 23.9258 -14.5508 L 23.9258 -55.8594 C 23.9258 -58.3008 25 -59.1797 27.2461 -59.1797 L 68.5547 -59.1797 C 70.8008 -59.1797 71.875 -58.3008 71.875 -55.8594 L 71.875 -14.5508 C 71.875 -12.1094 70.8008 -11.2305 68.5547 -11.2305 Z M 28.1738 -35.2539 C 28.1738 -24.1699 36.8164 -15.5273 47.9004 -15.5273 C 58.9844 -15.5273 67.627 -24.1699 67.627 -35.2539 C 67.627 -46.3379 58.9844 -54.9805 47.9004 -54.9805 C 45.5566 -54.9805 43.8477 -53.4668 43.8477 -51.3184 L 43.8477 -45.9961 C 43.8477 -44.043 45.4102 -42.4805 47.4121 -42.4805 C 49.3652 -42.4805 50.8789 -44.043 50.8789 -45.9961 L 50.8789 -46.6797 C 55.8105 -45.3613 59.2773 -40.5273 59.2773 -35.2539 C 59.2773 -28.9551 54.1992 -23.877 47.9004 -23.877 C 41.6016 -23.877 36.5234 -28.9551 36.5234 -35.2539 C 36.5234 -37.4023 37.207 -39.5996 38.4277 -41.5039 C 40.0391 -44.1406 40.0391 -45.9961 38.3301 -47.6074 C 36.3281 -49.4141 33.3984 -48.877 31.6895 -46.4355 C 29.3945 -43.1641 28.1738 -39.209 28.1738 -35.2539 Z M 51.3672 -31.2012 C 53.5156 -33.3984 53.2227 -37.0117 50.6348 -38.2812 L 43.6523 -41.748 C 41.6016 -42.7734 39.5508 -41.2109 40.8203 -38.8184 L 44.3848 -32.0312 C 45.752 -29.4434 49.2676 -29.1016 51.3672 -31.2012 Z"/>
  </g>
  <g id="Heavy-S" transform="matrix(1 0 0 1 2589.4 696)">
   <path d="M 24.3652 2.34375 L 70.2637 2.34375 C 79.541 2.34375 84.8145 -2.97852 84.8145 -12.207 L 84.8145 -58.2031 C 84.8145 -67.4316 79.541 -72.7539 70.2637 -72.7539 L 24.3652 -72.7539 C 15.0879 -72.7539 9.76562 -67.4316 9.76562 -58.2031 L 9.76562 -12.207 C 9.76562 -2.97852 15.0879 2.34375 24.3652 2.34375 Z M 26.0742 -10.1562 C 23.5352 -10.1562 22.2656 -11.2793 22.2656 -14.0137 L 22.2656 -56.3965 C 22.2656 -59.1309 23.5352 -60.2539 26.0742 -60.2539 L 68.5059 -60.2539 C 71.0449 -60.2539 72.3633 -59.1309 72.3633 -56.3965 L 72.3633 -14.0137 C 72.3633 -11.2793 71.0449 -10.1562 68.5059 -10.1562 Z M 27.002 -35.2539 C 27.002 -23.9258 35.9863 -14.9902 47.3145 -14.9902 C 58.6426 -14.9902 67.5781 -23.9258 67.5781 -35.2539 C 67.5781 -46.582 58.6426 -55.5176 47.3145 -55.5176 C 45.1172 -55.5176 43.5059 -54.1016 43.5059 -52.002 L 43.5059 -46.3379 C 43.5059 -44.4336 45.0195 -42.9688 46.9238 -42.9688 C 48.7793 -42.9688 50.2441 -44.4336 50.2441 -46.3379 L 50.2441 -47.6562 C 55.7617 -46.3379 59.7168 -41.1133 59.7168 -35.2539 C 59.7168 -28.3691 54.1992 -22.8516 47.3145 -22.8516 C 40.4297 -22.8516 34.8633 -28.3691 34.8633 -35.2539 C 34.8633 -37.793 35.6934 -40.2832 37.1582 -42.3828 C 38.6719 -44.7266 38.6719 -46.5332 37.0605 -48.0957 C 35.2539 -49.8047 32.5195 -49.3164 30.9082 -47.1191 C 28.3691 -43.6523 27.002 -39.4531 27.002 -35.2539 Z M 50.8301 -31.2988 C 52.9297 -33.3984 52.5879 -36.8652 50.0977 -38.1836 L 42.4316 -42.3828 C 40.4297 -43.4082 38.4766 -41.8945 39.7461 -39.6484 L 44.043 -32.1289 C 45.4102 -29.5898 48.7793 -29.248 50.8301 -31.2988 Z"/>
  </g>
  <g id="Bold-S" transform="matrix(1 0 0 1 2293.35 696)">
   <path d="M 23.6328 1.66016 L 69.6289 1.66016 C 78.6133 1.66016 83.4961 -3.22266 83.4961 -12.1094 L 83.4961 -58.3008 C 83.4961 -67.1875 78.6133 -72.0703 69.6289 -72.0703 L 23.6328 -72.0703 C 14.6973 -72.0703 9.76562 -67.1875 9.76562 -58.3008 L 9.76562 -12.1094 C 9.76562 -3.22266 14.6973 1.66016 23.6328 1.66016 Z M 24.8047 -8.93555 C 21.9238 -8.93555 20.3613 -10.3516 20.3613 -13.4277 L 20.3613 -56.9824 C 20.3613 -60.0586 21.9238 -61.4746 24.8047 -61.4746 L 68.457 -61.4746 C 71.3379 -61.4746 72.9004 -60.0586 72.9004 -56.9824 L 72.9004 -13.4277 C 72.9004 -10.3516 71.3379 -8.93555 68.457 -8.93555 Z M 25.7324 -35.2539 C 25.7324 -23.6816 35.0098 -14.3555 46.6309 -14.3555 C 58.2031 -14.3555 67.5293 -23.6816 67.5293 -35.2539 C 67.5293 -46.8262 58.2031 -56.1523 46.6309 -56.1523 C 44.5801 -56.1523 43.1641 -54.7852 43.1641 -52.832 L 43.1641 -46.7285 C 43.1641 -44.873 44.5801 -43.457 46.3867 -43.457 C 48.1445 -43.457 49.5117 -44.9219 49.5117 -46.7285 L 49.5117 -48.7305 C 55.7129 -47.4609 60.2051 -41.7969 60.2051 -35.2539 C 60.2051 -27.7344 54.1504 -21.6797 46.6309 -21.6797 C 39.1113 -21.6797 33.0078 -27.7344 33.0566 -35.2539 C 33.0566 -38.1836 33.9844 -41.0156 35.791 -43.3594 C 37.1094 -45.4102 37.1094 -47.168 35.6934 -48.6328 C 34.0332 -50.1953 31.543 -49.8535 30.0293 -47.8516 C 27.2461 -44.2383 25.7324 -39.7461 25.7324 -35.2539 Z M 50.2441 -31.3965 C 52.2461 -33.4473 51.9043 -36.6699 49.4629 -38.0371 L 41.0156 -43.0664 C 39.1113 -44.1406 37.3047 -42.627 38.5254 -40.5273 L 43.6035 -32.1777 C 45.0684 -29.7363 48.2422 -29.3945 50.2441 -31.3965 Z"/>
  </g>
  <g id="Semibold-S" transform="matrix(1 0 0 1 1997.1 696)">
   <path d="M 23.0957 1.17188 L 69.1895 1.17188 C 77.9297 1.17188 82.5684 -3.36914 82.5684 -12.0117 L 82.5684 -58.3984 C 82.5684 -67.041 77.9297 -71.582 69.1895 -71.582 L 23.0957 -71.582 C 14.4043 -71.582 9.76562 -67.041 9.76562 -58.3984 L 9.76562 -12.0117 C 9.76562 -3.36914 14.4043 1.17188 23.0957 1.17188 Z M 23.877 -8.10547 C 20.752 -8.10547 19.0918 -9.7168 19.0918 -12.9883 L 19.0918 -57.4219 C 19.0918 -60.6934 20.752 -62.3047 23.877 -62.3047 L 68.4082 -62.3047 C 71.5332 -62.3047 73.2422 -60.6934 73.2422 -57.4219 L 73.2422 -12.9883 C 73.2422 -9.7168 71.5332 -8.10547 68.4082 -8.10547 Z M 24.8047 -35.2539 C 24.8047 -23.4863 34.375 -13.916 46.1426 -13.916 C 57.959 -13.916 67.4805 -23.4863 67.4805 -35.2539 C 67.4805 -47.0215 57.959 -56.5918 46.1914 -56.5918 C 44.2383 -56.5918 42.9199 -55.2734 42.9199 -53.3691 L 42.9199 -46.9727 C 42.9199 -45.2148 44.2383 -43.8477 45.9961 -43.8477 C 47.7051 -43.8477 49.0234 -45.2148 49.0234 -46.9727 L 49.0234 -49.5117 C 55.6641 -48.1934 60.5469 -42.2852 60.5469 -35.2539 C 60.5469 -27.2461 54.1504 -20.8496 46.1426 -20.8496 C 38.1836 -20.8496 31.7383 -27.2461 31.7871 -35.2539 C 31.7871 -38.4766 32.8125 -41.5527 34.8145 -44.043 C 36.0352 -45.8496 36.0352 -47.6074 34.7168 -48.9746 C 33.2031 -50.4883 30.8594 -50.1953 29.4434 -48.3398 C 26.4648 -44.6289 24.8047 -39.9414 24.8047 -35.2539 Z M 49.8047 -31.4453 C 51.8066 -33.4473 51.4648 -36.5723 49.0723 -37.9883 L 40.0879 -43.5059 C 38.2324 -44.6289 36.5234 -43.1152 37.6953 -41.1621 L 43.3105 -32.2266 C 44.8242 -29.834 47.8516 -29.4922 49.8047 -31.4453 Z"/>
  </g>
  <g id="Medium-S" transform="matrix(1 0 0 1 1700.75 696)">
   <path d="M 22.7051 0.830078 L 68.8965 0.830078 C 77.4414 0.830078 81.8359 -3.51562 81.8359 -11.9629 L 81.8359 -58.4473 C 81.8359 -66.8945 77.4414 -71.2402 68.8965 -71.2402 L 22.7051 -71.2402 C 14.209 -71.2402 9.76562 -66.8945 9.76562 -58.4473 L 9.76562 -11.9629 C 9.76562 -3.51562 14.209 0.830078 22.7051 0.830078 Z M 23.1934 -7.4707 C 19.9219 -7.4707 18.0664 -9.22852 18.0664 -12.6953 L 18.0664 -57.7148 C 18.0664 -61.1816 19.9219 -62.9395 23.1934 -62.9395 L 68.4082 -62.9395 C 71.6797 -62.9395 73.5352 -61.1816 73.5352 -57.7148 L 73.5352 -12.6953 C 73.5352 -9.22852 71.6797 -7.4707 68.4082 -7.4707 Z M 24.1211 -35.2539 C 24.1211 -23.3398 33.8867 -13.5742 45.8008 -13.5742 C 57.7148 -13.5742 67.4805 -23.3398 67.4805 -35.2539 C 67.4805 -47.1191 57.7148 -56.9336 45.8496 -56.9336 C 43.9941 -56.9336 42.7246 -55.6641 42.7246 -53.7598 L 42.7246 -47.168 C 42.7246 -45.4102 43.9941 -44.0918 45.752 -44.0918 C 47.4121 -44.0918 48.6816 -45.459 48.6816 -47.168 L 48.6816 -50.0488 C 55.6641 -48.7793 60.791 -42.627 60.791 -35.2539 C 60.791 -26.9043 54.1016 -20.2637 45.8008 -20.2637 C 37.5 -20.2637 30.7617 -26.9043 30.8105 -35.2539 C 30.8105 -38.6719 31.9336 -41.9434 34.082 -44.5801 C 35.2539 -46.1914 35.2051 -47.9492 33.9844 -49.2676 C 32.5195 -50.6836 30.3223 -50.4395 28.9551 -48.7305 C 25.8789 -44.9219 24.1211 -40.0879 24.1211 -35.2539 Z M 49.5117 -31.4941 C 51.416 -33.4961 51.0742 -36.4746 48.7305 -37.8906 L 39.3555 -43.8965 C 37.5488 -45.0195 35.8887 -43.5059 37.0605 -41.6504 L 43.1152 -32.2754 C 44.6289 -29.9316 47.5586 -29.5898 49.5117 -31.4941 Z"/>
  </g>
  <g id="Regular-S" transform="matrix(1 0 0 1 1404.51 696)">
   <path d="M 22.2168 0.390625 L 68.457 0.390625 C 76.8066 0.390625 80.9082 -3.71094 80.9082 -11.9141 L 80.9082 -58.4961 C 80.9082 -66.6992 76.8066 -70.8008 68.457 -70.8008 L 22.2168 -70.8008 C 13.916 -70.8008 9.76562 -66.6992 9.76562 -58.4961 L 9.76562 -11.9141 C 9.76562 -3.71094 13.916 0.390625 22.2168 0.390625 Z M 22.3145 -6.68945 C 18.7988 -6.68945 16.7969 -8.54492 16.7969 -12.2559 L 16.7969 -58.1543 C 16.7969 -61.8164 18.7988 -63.7207 22.3145 -63.7207 L 68.3594 -63.7207 C 71.875 -63.7207 73.877 -61.8164 73.877 -58.1543 L 73.877 -12.2559 C 73.877 -8.54492 71.875 -6.68945 68.3594 -6.68945 Z M 23.2422 -35.2539 C 23.2422 -23.1445 33.252 -13.1348 45.3613 -13.1348 C 57.4707 -13.1348 67.4316 -23.1445 67.4316 -35.2539 C 67.4316 -47.3145 57.4707 -57.3242 45.4102 -57.3242 C 43.6035 -57.3242 42.4805 -56.1035 42.4805 -54.2969 L 42.4805 -47.4121 C 42.4805 -45.7031 43.7012 -44.4336 45.3613 -44.4336 C 46.9727 -44.4336 48.1934 -45.752 48.1934 -47.4121 L 48.1934 -50.8301 C 55.6152 -49.5605 61.1328 -43.0664 61.1328 -35.2539 C 61.1328 -26.4648 54.1016 -19.4336 45.3613 -19.4336 C 36.5723 -19.4336 29.4922 -26.4648 29.541 -35.2539 C 29.541 -38.9648 30.7617 -42.4316 33.1055 -45.2637 C 34.1797 -46.6797 34.1797 -48.3398 33.0078 -49.6094 C 31.6895 -50.9766 29.6387 -50.8301 28.3691 -49.2676 C 25.0977 -45.3125 23.2422 -40.2832 23.2422 -35.2539 Z M 49.1211 -31.5918 C 50.9766 -33.4961 50.6348 -36.3281 48.3398 -37.8418 L 38.4277 -44.3359 C 36.6699 -45.5078 35.1074 -43.9941 36.2305 -42.2852 L 42.8223 -32.3242 C 44.3848 -30.0293 47.168 -29.6875 49.1211 -31.5918 Z"/>
  </g>
  <g id="Light-S" transform="matrix(1 0 0 1 1108.46 696)">
   <path d="M 21.3867 -0.292969 L 67.9688 -0.292969 C 75.7324 -0.292969 79.5898 -4.15039 79.5898 -11.7676 L 79.5898 -58.5938 C 79.5898 -66.2109 75.7324 -70.1172 67.9688 -70.1172 L 21.3867 -70.1172 C 13.6719 -70.1172 9.76562 -66.2598 9.76562 -58.5938 L 9.76562 -11.7676 C 9.76562 -4.15039 13.6719 -0.292969 21.3867 -0.292969 Z M 21.4844 -5.71289 C 17.4316 -5.71289 15.1855 -7.86133 15.1855 -12.0605 L 15.1855 -58.3008 C 15.1855 -62.5 17.4316 -64.6973 21.4844 -64.6973 L 67.8711 -64.6973 C 71.875 -64.6973 74.1699 -62.5 74.1699 -58.3008 L 74.1699 -12.0605 C 74.1699 -7.86133 71.875 -5.71289 67.8711 -5.71289 Z M 22.168 -35.2051 C 22.168 -22.8516 32.3242 -12.6953 44.6777 -12.6953 C 57.0312 -12.6953 67.1875 -22.8516 67.1875 -35.2051 C 67.1875 -47.5586 57.0312 -57.7637 44.7266 -57.7637 C 43.1641 -57.7637 42.2363 -56.7871 42.2363 -55.2246 L 42.2363 -47.4609 C 42.2363 -46.1426 43.2129 -45.166 44.5312 -45.166 C 45.8008 -45.166 46.7285 -46.1914 46.7285 -47.4609 L 46.7285 -52.6367 C 55.5176 -51.709 62.3047 -44.2871 62.3047 -35.2051 C 62.3047 -25.4883 54.4434 -17.627 44.6777 -17.627 C 34.9121 -17.627 27.0508 -25.4883 27.0996 -35.2051 C 27.0996 -39.5508 28.6133 -43.6035 31.4941 -46.8262 C 32.373 -47.9492 32.373 -49.3164 31.4941 -50.293 C 30.4688 -51.3184 28.8574 -51.2207 27.832 -50 C 24.1699 -45.8984 22.168 -40.5762 22.168 -35.2051 Z M 48.1445 -32.0312 C 49.8535 -33.7891 49.5117 -36.377 47.4121 -37.7441 L 36.8652 -44.9707 C 35.4492 -45.8984 34.1797 -44.6777 35.1562 -43.2617 L 42.3828 -32.7637 C 43.8477 -30.6152 46.3379 -30.2734 48.1445 -32.0312 Z"/>
  </g>
  <g id="Thin-S" transform="matrix(1 0 0 1 812.599 696)">
   <path d="M 20.3125 -1.12305 L 67.334 -1.12305 C 74.2676 -1.12305 77.8809 -4.78516 77.8809 -11.6211 L 77.8809 -58.6914 C 77.8809 -65.5762 74.2676 -69.2383 67.334 -69.2383 L 20.3125 -69.2383 C 13.3789 -69.2383 9.76562 -65.625 9.76562 -58.6914 L 9.76562 -11.6211 C 9.76562 -4.6875 13.3789 -1.12305 20.3125 -1.12305 Z M 20.4102 -4.44336 C 15.625 -4.44336 13.0859 -6.93359 13.0859 -11.8164 L 13.0859 -58.5449 C 13.0859 -63.3789 15.625 -65.918 20.4102 -65.918 L 67.2363 -65.918 C 71.875 -65.918 74.5605 -63.3789 74.5605 -58.5449 L 74.5605 -11.8164 C 74.5605 -6.93359 71.875 -4.44336 67.2363 -4.44336 Z M 20.752 -35.2051 C 20.752 -22.5098 31.1523 -12.1582 43.7988 -12.1582 C 56.4941 -12.1582 66.8945 -22.5098 66.8945 -35.2051 C 66.8945 -47.8516 56.4941 -58.252 43.8477 -58.252 C 42.5781 -58.252 41.8945 -57.6172 41.8945 -56.3965 L 41.8945 -47.5586 C 41.8945 -46.6797 42.5293 -46.0449 43.4082 -46.0449 C 44.2383 -46.0449 44.873 -46.7285 44.873 -47.5586 L 44.873 -55.0781 C 55.4199 -54.4922 63.7695 -45.8496 63.7695 -35.2051 C 63.7695 -24.1211 54.834 -15.2344 43.7988 -15.2344 C 32.7637 -15.2344 23.877 -24.1211 23.877 -35.2051 C 23.877 -40.2832 25.8301 -45.166 29.3457 -48.9258 C 29.9316 -49.6094 30.0293 -50.5371 29.4434 -51.1719 C 28.8086 -51.8066 27.832 -51.8066 27.0996 -50.9766 C 22.998 -46.6797 20.752 -41.0156 20.752 -35.2051 Z M 46.875 -32.5684 C 48.3398 -34.2285 47.998 -36.377 46.2402 -37.6465 L 34.8633 -45.752 C 33.8867 -46.4844 33.0078 -45.5566 33.6914 -44.5801 L 41.8457 -33.252 C 43.1152 -31.4453 45.2637 -31.1035 46.875 -32.5684 Z"/>
  </g>
  <g id="Ultralight-S" transform="matrix(1 0 0 1 516.352 696)">
   <path d="M 19.7754 -1.5625 L 66.9922 -1.5625 C 73.5352 -1.5625 76.9531 -5.12695 76.9531 -11.5234 L 76.9531 -58.7891 C 76.9531 -65.2344 73.5352 -68.75 66.9922 -68.75 L 19.7754 -68.75 C 13.2324 -68.75 9.76562 -65.2832 9.76562 -58.7891 L 9.76562 -11.5234 C 9.76562 -5.0293 13.2324 -1.5625 19.7754 -1.5625 Z M 19.873 -3.75977 C 14.6484 -3.75977 11.9629 -6.44531 11.9629 -11.6699 L 11.9629 -58.6426 C 11.9629 -63.8672 14.6484 -66.5527 19.873 -66.5527 L 66.8945 -66.5527 C 71.875 -66.5527 74.7559 -63.8672 74.7559 -58.6426 L 74.7559 -11.6699 C 74.7559 -6.44531 71.875 -3.75977 66.8945 -3.75977 Z M 20.0195 -35.1562 C 20.0195 -22.3145 30.5176 -11.8164 43.3594 -11.8164 C 56.2012 -11.8164 66.748 -22.3145 66.748 -35.1562 C 66.748 -47.998 56.2012 -58.5449 43.3594 -58.5449 C 42.2363 -58.5449 41.748 -58.0566 41.748 -57.0312 L 41.748 -47.6074 C 41.748 -46.9727 42.1875 -46.5332 42.8223 -46.5332 C 43.457 -46.5332 43.8965 -47.0215 43.8965 -47.6074 L 43.8965 -56.2988 C 55.3711 -55.957 64.5508 -46.6797 64.5508 -35.1562 C 64.5508 -23.4375 55.0781 -14.0137 43.3594 -14.0137 C 31.6406 -14.0137 22.2168 -23.4375 22.2168 -35.1562 C 22.2168 -40.6738 24.3652 -45.9473 28.2227 -50 C 28.7109 -50.4883 28.8086 -51.1719 28.3691 -51.6113 C 27.9297 -52.0508 27.2949 -52.0996 26.709 -51.5137 C 22.4121 -47.0703 20.0195 -41.2109 20.0195 -35.1562 Z M 46.1914 -32.9102 C 47.6074 -34.4238 47.2656 -36.4258 45.6055 -37.5977 L 33.8379 -46.1914 C 33.0566 -46.7773 32.373 -46.0449 32.959 -45.2637 L 41.5039 -33.5449 C 42.7734 -31.8359 44.7266 -31.4941 46.1914 -32.9102 Z"/>
  </g>
 </g>
</svg>
