<?xml version="1.0" encoding="UTF-8"?>
<!--Generator: Apple Native CoreSVG 129-->
<!DOCTYPE svg
PUBLIC "-//W3C//DTD SVG 1.1//EN"
       "http://www.w3.org/Graphics/SVG/1.1/DTD/svg11.dtd">
<svg version="1.1" xmlns="http://www.w3.org/2000/svg" xmlns:xlink="http://www.w3.org/1999/xlink" width="3300" height="2200">
 <!--glyph: "uni100390.medium", point size: 100.000000, font version: "Version 16.0d9e1", template writer version: "8"-->
 <g id="Notes">
  <rect height="2200" id="artboard" style="fill:white;opacity:1" width="3300" x="0" y="0"/>
  <line id="" style="fill:none;stroke:black;opacity:1;stroke-width:0.5;" x1="263" x2="3036" y1="292" y2="292"/>
  <text style="stroke:none;fill:black;font-family:-apple-system,&quot;SF Pro Display&quot;,&quot;SF Pro Text&quot;,Helvetica,sans-serif;font-weight:bold;" transform="matrix(1 0 0 1 263 322)">Weight/Scale Variations</text>
  <text style="stroke:none;fill:black;font-family:-apple-system,&quot;SF Pro Display&quot;,&quot;SF Pro Text&quot;,Helvetica,sans-serif;text-anchor:middle;" transform="matrix(1 0 0 1 559.711 322)">Ultralight</text>
  <text style="stroke:none;fill:black;font-family:-apple-system,&quot;SF Pro Display&quot;,&quot;SF Pro Text&quot;,Helvetica,sans-serif;text-anchor:middle;" transform="matrix(1 0 0 1 856.422 322)">Thin</text>
  <text style="stroke:none;fill:black;font-family:-apple-system,&quot;SF Pro Display&quot;,&quot;SF Pro Text&quot;,Helvetica,sans-serif;text-anchor:middle;" transform="matrix(1 0 0 1 1153.13 322)">Light</text>
  <text style="stroke:none;fill:black;font-family:-apple-system,&quot;SF Pro Display&quot;,&quot;SF Pro Text&quot;,Helvetica,sans-serif;text-anchor:middle;" transform="matrix(1 0 0 1 1449.84 322)">Regular</text>
  <text style="stroke:none;fill:black;font-family:-apple-system,&quot;SF Pro Display&quot;,&quot;SF Pro Text&quot;,Helvetica,sans-serif;text-anchor:middle;" transform="matrix(1 0 0 1 1746.56 322)">Medium</text>
  <text style="stroke:none;fill:black;font-family:-apple-system,&quot;SF Pro Display&quot;,&quot;SF Pro Text&quot;,Helvetica,sans-serif;text-anchor:middle;" transform="matrix(1 0 0 1 2043.27 322)">Semibold</text>
  <text style="stroke:none;fill:black;font-family:-apple-system,&quot;SF Pro Display&quot;,&quot;SF Pro Text&quot;,Helvetica,sans-serif;text-anchor:middle;" transform="matrix(1 0 0 1 2339.98 322)">Bold</text>
  <text style="stroke:none;fill:black;font-family:-apple-system,&quot;SF Pro Display&quot;,&quot;SF Pro Text&quot;,Helvetica,sans-serif;text-anchor:middle;" transform="matrix(1 0 0 1 2636.69 322)">Heavy</text>
  <text style="stroke:none;fill:black;font-family:-apple-system,&quot;SF Pro Display&quot;,&quot;SF Pro Text&quot;,Helvetica,sans-serif;text-anchor:middle;" transform="matrix(1 0 0 1 2933.4 322)">Black</text>
  <line id="" style="fill:none;stroke:black;opacity:1;stroke-width:0.5;" x1="263" x2="3036" y1="1903" y2="1903"/>
  <g id="" transform="matrix(1 0 0 1 263 1933)">
   <path d="M 9.24805 0.830078 C 13.5547 0.830078 17.1387 -2.74414 17.1387 -7.05078 C 17.1387 -11.3574 13.5449 -14.9316 9.23828 -14.9316 C 4.94141 -14.9316 1.36719 -11.3574 1.36719 -7.05078 C 1.36719 -2.74414 4.95117 0.830078 9.24805 0.830078 Z M 9.24805 -0.654297 C 5.70312 -0.654297 2.87109 -3.49609 2.87109 -7.05078 C 2.87109 -10.6055 5.69336 -13.4473 9.23828 -13.4473 C 12.793 -13.4473 15.6348 -10.6055 15.6445 -7.05078 C 15.6543 -3.49609 12.8027 -0.654297 9.24805 -0.654297 Z M 9.22852 -3.62305 C 9.69727 -3.62305 9.9707 -3.93555 9.9707 -4.45312 L 9.9707 -6.31836 L 12.002 -6.31836 C 12.5 -6.31836 12.832 -6.57227 12.832 -7.04102 C 12.832 -7.51953 12.5195 -7.7832 12.002 -7.7832 L 9.9707 -7.7832 L 9.9707 -9.81445 C 9.9707 -10.332 9.69727 -10.6543 9.22852 -10.6543 C 8.75977 -10.6543 8.50586 -10.3125 8.50586 -9.81445 L 8.50586 -7.7832 L 6.49414 -7.7832 C 5.97656 -7.7832 5.64453 -7.51953 5.64453 -7.04102 C 5.64453 -6.57227 5.99609 -6.31836 6.49414 -6.31836 L 8.50586 -6.31836 L 8.50586 -4.45312 C 8.50586 -3.95508 8.75977 -3.62305 9.22852 -3.62305 Z"/>
  </g>
  <g id="" transform="matrix(1 0 0 1 281.506 1933)">
   <path d="M 11.709 2.91016 C 17.1582 2.91016 21.6699 -1.61133 21.6699 -7.05078 C 21.6699 -12.5 17.1484 -17.0117 11.6992 -17.0117 C 6.25977 -17.0117 1.74805 -12.5 1.74805 -7.05078 C 1.74805 -1.61133 6.26953 2.91016 11.709 2.91016 Z M 11.709 1.25 C 7.09961 1.25 3.41797 -2.44141 3.41797 -7.05078 C 3.41797 -11.6602 7.08984 -15.3516 11.6992 -15.3516 C 16.3086 -15.3516 20 -11.6602 20.0098 -7.05078 C 20.0195 -2.44141 16.3184 1.25 11.709 1.25 Z M 11.6797 -2.66602 C 12.207 -2.66602 12.5098 -3.01758 12.5098 -3.59375 L 12.5098 -6.23047 L 15.3223 -6.23047 C 15.8691 -6.23047 16.25 -6.51367 16.25 -7.03125 C 16.25 -7.55859 15.8887 -7.86133 15.3223 -7.86133 L 12.5098 -7.86133 L 12.5098 -10.6836 C 12.5098 -11.25 12.207 -11.6113 11.6797 -11.6113 C 11.1621 -11.6113 10.8789 -11.2305 10.8789 -10.6836 L 10.8789 -7.86133 L 8.07617 -7.86133 C 7.50977 -7.86133 7.13867 -7.55859 7.13867 -7.03125 C 7.13867 -6.51367 7.5293 -6.23047 8.07617 -6.23047 L 10.8789 -6.23047 L 10.8789 -3.59375 C 10.8789 -3.03711 11.1621 -2.66602 11.6797 -2.66602 Z"/>
  </g>
  <g id="" transform="matrix(1 0 0 1 304.924 1933)">
   <path d="M 14.9707 5.66406 C 21.9336 5.66406 27.6953 -0.0976562 27.6953 -7.05078 C 27.6953 -14.0137 21.9238 -19.7754 14.9609 -19.7754 C 8.00781 -19.7754 2.25586 -14.0137 2.25586 -7.05078 C 2.25586 -0.0976562 8.01758 5.66406 14.9707 5.66406 Z M 14.9707 3.84766 C 8.93555 3.84766 4.08203 -1.01562 4.08203 -7.05078 C 4.08203 -13.0957 8.92578 -17.9492 14.9609 -17.9492 C 21.0059 -17.9492 25.8594 -13.0957 25.8691 -7.05078 C 25.8789 -1.01562 21.0156 3.84766 14.9707 3.84766 Z M 14.9414 -1.38672 C 15.5176 -1.38672 15.8594 -1.77734 15.8594 -2.38281 L 15.8594 -6.13281 L 19.7754 -6.13281 C 20.3711 -6.13281 20.7812 -6.46484 20.7812 -7.02148 C 20.7812 -7.59766 20.3906 -7.93945 19.7754 -7.93945 L 15.8594 -7.93945 L 15.8594 -11.8652 C 15.8594 -12.4805 15.5176 -12.8711 14.9414 -12.8711 C 14.375 -12.8711 14.0527 -12.4609 14.0527 -11.8652 L 14.0527 -7.93945 L 10.1465 -7.93945 C 9.53125 -7.93945 9.13086 -7.59766 9.13086 -7.02148 C 9.13086 -6.46484 9.55078 -6.13281 10.1465 -6.13281 L 14.0527 -6.13281 L 14.0527 -2.38281 C 14.0527 -1.79688 14.375 -1.38672 14.9414 -1.38672 Z"/>
  </g>
  <text style="stroke:none;fill:black;font-family:-apple-system,&quot;SF Pro Display&quot;,&quot;SF Pro Text&quot;,Helvetica,sans-serif;font-weight:bold;" transform="matrix(1 0 0 1 263 1953)">Design Variations</text>
  <text style="stroke:none;fill:black;font-family:-apple-system,&quot;SF Pro Display&quot;,&quot;SF Pro Text&quot;,Helvetica,sans-serif;" transform="matrix(1 0 0 1 263 1971)">Symbols are supported in up to nine weights and three scales.</text>
  <text style="stroke:none;fill:black;font-family:-apple-system,&quot;SF Pro Display&quot;,&quot;SF Pro Text&quot;,Helvetica,sans-serif;" transform="matrix(1 0 0 1 263 1989)">For optimal layout with text and other symbols, vertically align</text>
  <text style="stroke:none;fill:black;font-family:-apple-system,&quot;SF Pro Display&quot;,&quot;SF Pro Text&quot;,Helvetica,sans-serif;" transform="matrix(1 0 0 1 263 2007)">symbols with the adjacent text.</text>
  <line id="" style="fill:none;stroke:#00AEEF;stroke-width:0.5;opacity:1.0;" x1="776" x2="776" y1="1919" y2="1933"/>
  <g id="" transform="matrix(1 0 0 1 776 1933)">
   <path d="M 3.31055 0.126953 C 3.82812 0.126953 4.08203 -0.0683594 4.26758 -0.605469 L 5.52734 -4.0625 L 11.2891 -4.0625 L 12.5488 -0.605469 C 12.7344 -0.0683594 12.9883 0.126953 13.4961 0.126953 C 14.0137 0.126953 14.3457 -0.185547 14.3457 -0.673828 C 14.3457 -0.839844 14.3164 -0.986328 14.2383 -1.20117 L 9.6582 -13.3887 C 9.43359 -13.9941 9.0332 -14.2871 8.4082 -14.2871 C 7.80273 -14.2871 7.39258 -13.9941 7.17773 -13.3984 L 2.59766 -1.19141 C 2.51953 -0.976562 2.49023 -0.830078 2.49023 -0.664062 C 2.49023 -0.175781 2.80273 0.126953 3.31055 0.126953 Z M 6.00586 -5.53711 L 8.37891 -12.1094 L 8.42773 -12.1094 L 10.8008 -5.53711 Z"/>
  </g>
  <line id="" style="fill:none;stroke:#00AEEF;stroke-width:0.5;opacity:1.0;" x1="792.836" x2="792.836" y1="1919" y2="1933"/>
  <text style="stroke:none;fill:black;font-family:-apple-system,&quot;SF Pro Display&quot;,&quot;SF Pro Text&quot;,Helvetica,sans-serif;font-weight:bold;" transform="matrix(1 0 0 1 776 1953)">Margins</text>
  <text style="stroke:none;fill:black;font-family:-apple-system,&quot;SF Pro Display&quot;,&quot;SF Pro Text&quot;,Helvetica,sans-serif;" transform="matrix(1 0 0 1 776 1971)">Leading and trailing margins on the left and right side of each symbol</text>
  <text style="stroke:none;fill:black;font-family:-apple-system,&quot;SF Pro Display&quot;,&quot;SF Pro Text&quot;,Helvetica,sans-serif;" transform="matrix(1 0 0 1 776 1989)">can be adjusted by modifying the x-location of the margin guidelines.</text>
  <text style="stroke:none;fill:black;font-family:-apple-system,&quot;SF Pro Display&quot;,&quot;SF Pro Text&quot;,Helvetica,sans-serif;" transform="matrix(1 0 0 1 776 2007)">Modifications are automatically applied proportionally to all</text>
  <text style="stroke:none;fill:black;font-family:-apple-system,&quot;SF Pro Display&quot;,&quot;SF Pro Text&quot;,Helvetica,sans-serif;" transform="matrix(1 0 0 1 776 2025)">scales and weights.</text>
  <g id="" transform="matrix(1 0 0 1 1289 1933)">
   <path d="M 2.8418 1.86523 L 4.54102 3.57422 C 5.40039 4.44336 6.38672 4.38477 7.31445 3.35938 L 17.4902 -7.85156 C 17.7539 -7.76367 18.0273 -7.7832 18.3398 -7.8418 L 19.4043 -8.03711 L 20.0684 -7.36328 L 20.0293 -6.80664 C 19.9902 -6.30859 20.1172 -5.92773 20.6055 -5.44922 L 21.3672 -4.70703 C 21.8457 -4.22852 22.4609 -4.19922 22.9297 -4.66797 L 25.8398 -7.58789 C 26.3086 -8.05664 26.2891 -8.65234 25.8105 -9.13086 L 25.0391 -9.89258 C 24.5605 -10.3711 24.1895 -10.5273 23.7109 -10.4883 L 23.1348 -10.4395 L 22.4902 -11.0742 L 22.7344 -12.1973 C 22.8613 -12.7637 22.7051 -13.2031 22.1191 -13.7891 L 19.9219 -15.9766 C 16.582 -19.2969 12.1484 -19.2188 9.25781 -16.3281 C 8.83789 -15.918 8.80859 -15.3418 9.04297 -14.9512 C 9.27734 -14.5898 9.73633 -14.3555 10.3809 -14.5215 C 11.8457 -14.8633 13.3691 -14.9219 14.7949 -13.9844 L 14.209 -12.5293 C 14.0137 -12.0508 13.9844 -11.6504 14.1113 -11.2891 L 3.04688 -0.898438 C 2.06055 0.0195312 1.98242 0.996094 2.8418 1.86523 Z M 10.752 -15.957 C 13.1836 -17.7344 16.4746 -17.4316 18.7012 -15.2051 L 21.1328 -12.793 C 21.3672 -12.5586 21.4062 -12.373 21.3379 -12.0312 L 21.0156 -10.5469 L 22.5195 -9.0625 L 23.5059 -9.12109 C 23.7598 -9.13086 23.8379 -9.11133 24.0332 -8.91602 L 24.6094 -8.33984 L 22.168 -5.89844 L 21.5918 -6.47461 C 21.3965 -6.66992 21.3672 -6.74805 21.377 -7.01172 L 21.4453 -7.98828 L 19.9512 -9.47266 L 18.4277 -9.21875 C 18.1055 -9.15039 17.959 -9.17969 17.7148 -9.41406 L 15.7129 -11.416 C 15.459 -11.6504 15.4297 -11.8164 15.5859 -12.1875 L 16.4648 -14.2773 C 14.9023 -15.7324 12.8711 -16.3574 10.8398 -15.7617 C 10.6836 -15.7227 10.625 -15.8496 10.752 -15.957 Z M 5.27344 2.30469 L 4.10156 1.14258 C 3.63281 0.683594 3.74023 0.341797 4.14062 -0.0195312 L 14.9512 -10.1953 L 16.416 -8.71094 L 6.42578 2.27539 C 6.07422 2.67578 5.74219 2.77344 5.27344 2.30469 Z"/>
  </g>
  <text style="stroke:none;fill:black;font-family:-apple-system,&quot;SF Pro Display&quot;,&quot;SF Pro Text&quot;,Helvetica,sans-serif;font-weight:bold;" transform="matrix(1 0 0 1 1289 1953)">Exporting</text>
  <text style="stroke:none;fill:black;font-family:-apple-system,&quot;SF Pro Display&quot;,&quot;SF Pro Text&quot;,Helvetica,sans-serif;" transform="matrix(1 0 0 1 1289 1971)">Symbols should be outlined when exporting to ensure the</text>
  <text style="stroke:none;fill:black;font-family:-apple-system,&quot;SF Pro Display&quot;,&quot;SF Pro Text&quot;,Helvetica,sans-serif;" transform="matrix(1 0 0 1 1289 1989)">design is preserved when submitting to Xcode.</text>
  <text id="template-version" style="stroke:none;fill:black;font-family:-apple-system,&quot;SF Pro Display&quot;,&quot;SF Pro Text&quot;,Helvetica,sans-serif;text-anchor:end;" transform="matrix(1 0 0 1 3036 1933)">Template v.2.0</text>
  <text style="stroke:none;fill:black;font-family:-apple-system,&quot;SF Pro Display&quot;,&quot;SF Pro Text&quot;,Helvetica,sans-serif;text-anchor:end;" transform="matrix(1 0 0 1 3036 1951)">Requires Xcode 12 or greater</text>
  <text style="stroke:none;fill:black;font-family:-apple-system,&quot;SF Pro Display&quot;,&quot;SF Pro Text&quot;,Helvetica,sans-serif;text-anchor:end;" transform="matrix(1 0 0 1 3036 1969)">Generated from tuningfork</text>
  <text style="stroke:none;fill:black;font-family:-apple-system,&quot;SF Pro Display&quot;,&quot;SF Pro Text&quot;,Helvetica,sans-serif;text-anchor:end;" transform="matrix(1 0 0 1 3036 1987)">Typeset at 100 points</text>
  <text style="stroke:none;fill:black;font-family:-apple-system,&quot;SF Pro Display&quot;,&quot;SF Pro Text&quot;,Helvetica,sans-serif;" transform="matrix(1 0 0 1 263 726)">Small</text>
  <text style="stroke:none;fill:black;font-family:-apple-system,&quot;SF Pro Display&quot;,&quot;SF Pro Text&quot;,Helvetica,sans-serif;" transform="matrix(1 0 0 1 263 1156)">Medium</text>
  <text style="stroke:none;fill:black;font-family:-apple-system,&quot;SF Pro Display&quot;,&quot;SF Pro Text&quot;,Helvetica,sans-serif;" transform="matrix(1 0 0 1 263 1586)">Large</text>
 </g>
 <g id="Guides">
  <g id="H-reference" style="fill:#27AAE1;stroke:none;" transform="matrix(1 0 0 1 339 696)">
   <path d="M 0.976562 0 L 3.66211 0 L 12.9883 -24.4629 L 45.7031 -24.4629 L 55.0781 0 L 57.7148 0 L 30.6152 -70.459 L 28.125 -70.459 Z M 29.2969 -67.1387 L 29.3945 -67.1387 L 44.873 -26.709 L 13.8672 -26.709 Z"/>
  </g>
  <line id="Baseline-S" style="fill:none;stroke:#27AAE1;opacity:1;stroke-width:0.5;" x1="263" x2="3036" y1="696" y2="696"/>
  <line id="Capline-S" style="fill:none;stroke:#27AAE1;opacity:1;stroke-width:0.5;" x1="263" x2="3036" y1="625.541" y2="625.541"/>
  <g id="H-reference" style="fill:#27AAE1;stroke:none;" transform="matrix(1 0 0 1 339 1126)">
   <path d="M 0.976562 0 L 3.66211 0 L 12.9883 -24.4629 L 45.7031 -24.4629 L 55.0781 0 L 57.7148 0 L 30.6152 -70.459 L 28.125 -70.459 Z M 29.2969 -67.1387 L 29.3945 -67.1387 L 44.873 -26.709 L 13.8672 -26.709 Z"/>
  </g>
  <line id="Baseline-M" style="fill:none;stroke:#27AAE1;opacity:1;stroke-width:0.5;" x1="263" x2="3036" y1="1126" y2="1126"/>
  <line id="Capline-M" style="fill:none;stroke:#27AAE1;opacity:1;stroke-width:0.5;" x1="263" x2="3036" y1="1055.54" y2="1055.54"/>
  <g id="H-reference" style="fill:#27AAE1;stroke:none;" transform="matrix(1 0 0 1 339 1556)">
   <path d="M 0.976562 0 L 3.66211 0 L 12.9883 -24.4629 L 45.7031 -24.4629 L 55.0781 0 L 57.7148 0 L 30.6152 -70.459 L 28.125 -70.459 Z M 29.2969 -67.1387 L 29.3945 -67.1387 L 44.873 -26.709 L 13.8672 -26.709 Z"/>
  </g>
  <line id="Baseline-L" style="fill:none;stroke:#27AAE1;opacity:1;stroke-width:0.5;" x1="263" x2="3036" y1="1556" y2="1556"/>
  <line id="Capline-L" style="fill:none;stroke:#27AAE1;opacity:1;stroke-width:0.5;" x1="263" x2="3036" y1="1485.54" y2="1485.54"/>
  <line id="left-margin" style="fill:none;stroke:#00AEEF;stroke-width:0.5;opacity:1.0;" x1="1387.1" x2="1387.1" y1="1030.79" y2="1150.12"/>
  <line id="right-margin" style="fill:none;stroke:#00AEEF;stroke-width:0.5;opacity:1.0;" x1="1512.59" x2="1512.59" y1="1030.79" y2="1150.12"/>
 </g>
 <g id="Symbols">
  <g id="Black-L" transform="matrix(1 0 0 1 2846.78 1556)">
   <path d="M 32.7637 37.2559 C 42.9688 37.2559 51.1719 29.0527 51.1719 18.8965 C 51.1719 18.2617 51.123 17.5781 51.0254 16.9434 L 65.8203 2.24609 L 89.3066 2.24609 C 94.1895 2.24609 99.5605 0.292969 102.832 -2.97852 L 155.371 -54.5898 C 159.912 -59.082 159.814 -66.3574 155.42 -70.9473 C 151.074 -75.4395 143.652 -75.4395 139.111 -70.9473 L 89.0137 -20.8984 C 88.2324 -20.1172 87.207 -19.7266 86.084 -19.7266 L 74.0234 -19.7266 L 72.9492 -20.7031 L 72.9492 -34.8145 C 72.9492 -35.9375 73.3887 -36.9141 74.1211 -37.6953 L 123.193 -86.8164 C 127.637 -91.3086 127.588 -98.584 123.242 -103.076 C 118.848 -107.666 111.426 -107.715 106.885 -103.076 L 55.2246 -50.5859 C 51.6602 -46.9727 50 -41.8945 50 -37.0605 L 50 -14.6484 L 34.7656 0.634766 C 34.1309 0.585938 33.4473 0.537109 32.7637 0.537109 C 22.7051 0.537109 14.502 8.74023 14.502 18.8965 C 14.502 29.0527 22.7051 37.2559 32.7637 37.2559 Z"/>
  </g>
  <g id="Heavy-L" transform="matrix(1 0 0 1 2551.58 1556)">
   <path d="M 31.0059 35.6934 C 40.1855 35.6934 47.6074 28.2715 47.6074 19.1406 C 47.6074 18.3594 47.5586 17.627 47.4609 16.9434 L 63.5254 0.927734 L 87.3047 0.878906 C 91.9922 0.878906 97.1191 -0.927734 100.391 -4.15039 L 152.734 -55.7129 C 156.738 -59.668 156.641 -66.0156 152.783 -69.9707 C 148.975 -73.9258 142.48 -73.9258 138.525 -69.9707 L 88.3789 -19.873 C 87.3047 -18.7988 85.9863 -18.2129 84.4238 -18.2129 L 70.752 -18.2129 L 69.7754 -19.1895 L 69.7754 -34.668 C 69.7754 -36.1816 70.3613 -37.5488 71.3867 -38.5742 L 120.605 -87.8418 C 124.512 -91.7969 124.463 -98.1445 120.654 -102.1 C 116.846 -106.055 110.303 -106.152 106.348 -102.1 L 54.834 -49.707 C 51.3184 -46.1914 49.7559 -41.3086 49.7559 -36.6211 L 49.7559 -13.8672 L 33.2031 2.68555 C 32.5195 2.58789 31.7871 2.53906 31.0059 2.53906 C 21.9238 2.53906 14.502 9.96094 14.502 19.1406 C 14.502 28.2715 21.9238 35.6934 31.0059 35.6934 Z"/>
  </g>
  <g id="Bold-L" transform="matrix(1 0 0 1 2256.58 1556)">
   <path d="M 29.0527 33.9844 C 37.1094 33.9844 43.6523 27.4414 43.6523 19.3359 C 43.6523 18.5059 43.6035 17.7246 43.457 16.8945 L 60.9863 -0.537109 L 85.0098 -0.585938 C 89.5508 -0.634766 94.3848 -2.29492 97.6074 -5.46875 L 149.805 -56.9336 C 153.174 -60.2539 153.076 -65.5762 149.805 -68.9453 C 146.631 -72.2168 141.162 -72.2168 137.842 -68.9453 L 87.6953 -18.7012 C 86.3281 -17.334 84.5703 -16.5527 82.5684 -16.5527 L 67.1387 -16.5527 L 66.2109 -17.4805 L 66.2109 -34.4727 C 66.2109 -36.4746 66.9922 -38.2324 68.3105 -39.5996 L 117.773 -89.0137 C 121.045 -92.2852 120.996 -97.6562 117.773 -100.977 C 114.551 -104.297 109.131 -104.346 105.811 -100.928 L 54.3457 -48.7305 C 50.9277 -45.2637 49.4629 -40.6738 49.4629 -36.1816 L 49.4141 -13.0371 L 31.4941 4.93164 C 30.7129 4.78516 29.8828 4.73633 29.0527 4.73633 C 21.0449 4.73633 14.502 11.2793 14.502 19.3359 C 14.502 27.4414 21.0449 33.9844 29.0527 33.9844 Z"/>
  </g>
  <g id="Semibold-L" transform="matrix(1 0 0 1 1961.04 1556)">
   <path d="M 27.6855 32.7637 C 35.0098 32.7637 40.918 26.8066 40.918 19.5312 C 40.918 18.6035 40.8691 17.7734 40.6738 16.8945 L 59.1797 -1.5625 L 83.4473 -1.66016 C 87.8418 -1.66016 92.4805 -3.22266 95.7031 -6.39648 L 147.754 -57.8125 C 150.732 -60.6934 150.586 -65.2832 147.803 -68.2129 C 145.02 -71.0938 140.283 -71.0449 137.402 -68.2129 L 87.207 -17.9199 C 85.6445 -16.3086 83.5938 -15.3809 81.25 -15.3809 L 64.5996 -15.3809 L 63.7207 -16.3086 L 63.7207 -34.3262 C 63.7207 -36.6699 64.6484 -38.7207 66.2109 -40.332 L 115.771 -89.7949 C 118.652 -92.627 118.555 -97.3145 115.82 -100.195 C 113.037 -103.076 108.252 -103.125 105.42 -100.146 L 54.0039 -48.0957 C 50.6348 -44.6777 49.2676 -40.2344 49.2676 -35.8398 L 49.1699 -12.4023 L 30.3223 6.54297 C 29.4434 6.34766 28.5645 6.25 27.6855 6.25 C 20.4102 6.29883 14.502 12.1582 14.502 19.5312 C 14.502 26.8066 20.4102 32.7637 27.6855 32.7637 Z"/>
  </g>
  <g id="Medium-L" transform="matrix(1 0 0 1 1665.23 1556)">
   <path d="M 26.6602 31.8359 C 33.3984 31.8359 38.8672 26.3672 38.8672 19.6289 C 38.8672 18.7012 38.7695 17.7734 38.5742 16.8945 L 57.8613 -2.34375 L 82.2754 -2.44141 C 86.5723 -2.44141 91.0645 -3.90625 94.2383 -7.08008 L 146.24 -58.4473 C 148.828 -61.0352 148.73 -65.0879 146.24 -67.6758 C 143.799 -70.2148 139.6 -70.166 137.061 -67.627 L 86.8652 -17.2852 C 85.1074 -15.5273 82.9102 -14.502 80.2734 -14.502 L 62.6953 -14.502 L 61.8652 -15.4297 L 61.8652 -34.2773 C 61.8652 -36.8652 62.8906 -39.1113 64.5996 -40.8203 L 114.307 -90.4297 C 116.797 -92.9199 116.748 -97.0703 114.307 -99.6094 C 111.865 -102.148 107.617 -102.197 105.127 -99.5605 L 53.7598 -47.5586 C 50.4395 -44.1895 49.1211 -39.8926 49.1211 -35.5957 L 49.0234 -11.9629 L 29.3945 7.71484 C 28.5156 7.51953 27.5879 7.42188 26.6602 7.42188 C 19.9707 7.4707 14.502 12.8906 14.502 19.6289 C 14.502 26.3672 19.9707 31.8359 26.6602 31.8359 Z"/>
  </g>
  <g id="Regular-L" transform="matrix(1 0 0 1 1369.69 1556)">
   <path d="M 25.3418 30.6641 C 31.2988 30.6641 36.1816 25.7812 36.1816 19.8242 C 36.1816 18.7988 36.0352 17.8711 35.791 16.9434 L 56.1035 -3.32031 L 80.7129 -3.4668 C 84.9121 -3.4668 89.1602 -4.83398 92.3828 -8.00781 L 144.238 -59.3262 C 146.387 -61.4258 146.289 -64.7949 144.238 -66.9434 C 142.188 -69.043 138.672 -69.043 136.621 -66.8945 L 86.377 -16.5039 C 84.4238 -14.5508 81.9336 -13.3301 79.0039 -13.3301 L 60.2051 -13.3301 L 59.4238 -14.3066 L 59.4238 -34.1309 C 59.4238 -37.0605 60.5957 -39.5508 62.5488 -41.5527 L 112.354 -91.2109 C 114.453 -93.2617 114.355 -96.7285 112.354 -98.8281 C 110.303 -100.928 106.787 -100.977 104.736 -98.8281 L 53.4668 -46.9238 C 50.1953 -43.6035 48.9258 -39.4531 48.877 -35.2539 L 48.8281 -11.377 L 28.1738 9.32617 C 27.2461 9.0332 26.2695 8.93555 25.293 8.93555 C 19.3359 8.98438 14.502 13.7695 14.502 19.8242 C 14.502 25.7812 19.3359 30.6641 25.3418 30.6641 Z"/>
  </g>
  <g id="Light-L" transform="matrix(1 0 0 1 1074.11 1556)">
   <path d="M 24.0234 29.4922 C 29.1992 29.4922 33.4961 25.1953 33.4961 19.9707 C 33.4961 18.8477 33.3008 17.7734 32.959 16.748 L 54.3945 -4.63867 L 78.7109 -4.83398 C 83.1055 -4.88281 87.3535 -6.20117 90.8691 -9.66797 L 142.334 -60.791 C 143.994 -62.4023 143.896 -64.9414 142.334 -66.5527 C 140.82 -68.1641 138.135 -68.1152 136.621 -66.5039 L 86.3281 -15.8691 C 84.082 -13.623 81.25 -12.207 77.9297 -12.207 L 57.373 -12.207 L 56.7871 -12.8906 L 56.7871 -34.082 C 56.7871 -37.4512 58.1543 -40.2832 60.3516 -42.5293 L 110.596 -92.4805 C 112.207 -94.043 112.109 -96.6797 110.596 -98.291 C 109.131 -99.8535 106.445 -99.8535 104.883 -98.2422 L 53.8574 -46.7285 C 50.293 -43.1152 49.0723 -38.916 49.0234 -34.5215 L 48.877 -10.6934 L 27.1973 10.9863 C 26.1719 10.6445 25.0977 10.4492 23.9746 10.4492 C 18.7012 10.498 14.502 14.6973 14.502 19.9707 C 14.502 25.1953 18.7012 29.4922 24.0234 29.4922 Z"/>
  </g>
  <g id="Thin-L" transform="matrix(1 0 0 1 778.908 1556)">
   <path d="M 22.2656 27.9297 C 26.4648 27.9297 29.9316 24.4629 29.9316 20.2148 C 29.9316 18.8965 29.6387 17.6758 29.0527 16.6016 L 52.1484 -6.39648 L 76.0254 -6.68945 C 80.7129 -6.78711 84.9609 -7.95898 88.8672 -11.8652 L 139.844 -62.7441 C 140.82 -63.7207 140.771 -65.0879 139.844 -66.0645 C 139.014 -66.9434 137.451 -66.8945 136.621 -65.9668 L 86.2305 -14.9902 C 83.6426 -12.4023 80.4199 -10.7422 76.4648 -10.7422 L 53.6621 -10.7422 L 53.3203 -11.084 L 53.3203 -33.9844 C 53.3203 -37.9395 54.9316 -41.2598 57.5195 -43.8477 L 108.35 -94.2383 C 109.277 -95.0684 109.18 -96.6309 108.35 -97.5586 C 107.52 -98.4375 105.957 -98.3887 105.127 -97.4609 L 54.3945 -46.4355 C 50.4395 -42.5293 49.2188 -38.1836 49.1699 -33.5938 L 48.9258 -9.76562 L 25.8301 13.3301 C 24.7559 12.7441 23.4863 12.4512 22.168 12.4512 C 17.9199 12.5488 14.4531 15.8691 14.4531 20.2148 C 14.4531 24.4629 17.9199 27.9297 22.2656 27.9297 Z"/>
  </g>
  <g id="Ultralight-L" transform="matrix(1 0 0 1 482.978 1556)">
   <path d="M 21.3379 27.1484 C 25.0488 27.1484 28.125 24.0723 28.125 20.3613 C 28.125 18.9453 27.7344 17.627 27.002 16.5527 L 50.9766 -7.32422 L 74.6582 -7.66602 C 79.4922 -7.76367 83.7402 -8.83789 87.8906 -12.9883 L 138.574 -63.7207 C 139.209 -64.4043 139.16 -65.1367 138.574 -65.7715 C 138.086 -66.3574 137.109 -66.2598 136.621 -65.6738 L 86.1816 -14.5508 C 83.4473 -11.8164 79.9316 -9.96094 75.6836 -9.96094 L 51.7578 -9.96094 L 51.5625 -10.1074 L 51.5625 -33.9844 C 51.5625 -38.2324 53.3203 -41.7969 56.0547 -44.5312 L 107.178 -95.1172 C 107.764 -95.6055 107.666 -96.6309 107.178 -97.168 C 106.689 -97.7051 105.713 -97.6562 105.225 -97.0703 L 54.6387 -46.2891 C 50.5371 -42.1875 49.3164 -37.8418 49.2188 -33.1055 L 48.9746 -9.32617 L 25.0977 14.5996 C 23.9746 13.8672 22.6562 13.4277 21.2402 13.4766 C 17.4805 13.5742 14.4531 16.5039 14.4531 20.3613 C 14.4531 24.0723 17.4805 27.1484 21.3379 27.1484 Z"/>
  </g>
  <g id="Black-M" transform="matrix(1 0 0 1 2864.82 1126)">
   <path d="M 27.0508 22.4609 C 35.8887 22.4609 42.9688 15.332 42.9688 6.54297 C 42.9688 6.05469 42.9688 5.56641 42.9199 5.07812 L 53.1738 -5.12695 L 70.8984 -5.12695 C 74.9512 -5.12695 79.4922 -6.78711 82.2266 -9.52148 L 122.949 -49.5605 C 126.953 -53.5156 126.904 -59.9121 122.998 -63.9648 C 119.141 -67.9199 112.598 -67.9199 108.594 -63.9648 L 69.7754 -25.1953 C 69.3848 -24.8535 68.9453 -24.6582 68.4082 -24.6582 L 60.2539 -24.6582 L 59.4727 -25.293 L 59.4727 -35.1074 C 59.4727 -35.6445 59.6191 -36.084 60.0098 -36.4746 L 97.998 -74.5117 C 101.904 -78.5156 101.904 -84.9121 98.0957 -88.8672 C 94.1895 -92.9199 87.5977 -92.9688 83.5938 -88.8672 L 43.5547 -48.1934 C 40.5762 -45.166 39.209 -40.918 39.209 -36.8164 L 39.209 -19.9707 L 28.5156 -9.27734 C 28.0762 -9.32617 27.5879 -9.375 27.0508 -9.375 C 18.3105 -9.375 11.2305 -2.24609 11.2305 6.54297 C 11.2305 15.332 18.3105 22.4609 27.0508 22.4609 Z"/>
  </g>
  <g id="Heavy-M" transform="matrix(1 0 0 1 2569.48 1126)">
   <path d="M 25.4883 21.0449 C 33.3984 21.0449 39.7949 14.6484 39.7949 6.73828 C 39.7949 6.20117 39.7949 5.66406 39.6973 5.12695 L 51.123 -6.20117 L 69.1895 -6.25 C 73.0469 -6.25 77.2949 -7.76367 79.9316 -10.4004 L 120.557 -50.3418 C 124.121 -53.8574 124.023 -59.4727 120.605 -63.0371 C 117.236 -66.5039 111.475 -66.5039 107.959 -63.0371 L 69.0918 -24.2188 C 68.5059 -23.6328 67.7246 -23.291 66.8457 -23.291 L 57.4219 -23.291 L 56.6406 -23.9746 L 56.6406 -34.9121 C 56.6406 -35.791 56.9824 -36.5723 57.5684 -37.1582 L 95.6543 -75.293 C 99.0723 -78.8086 99.0723 -84.4238 95.7031 -87.9395 C 92.2852 -91.4551 86.5234 -91.5039 83.0078 -87.9395 L 43.0176 -47.3145 C 40.1367 -44.4336 38.8672 -40.4297 38.8672 -36.5723 L 38.8672 -19.2871 L 27.0996 -7.51953 C 26.5625 -7.56836 26.0254 -7.61719 25.4883 -7.61719 C 17.627 -7.56836 11.2305 -1.2207 11.2305 6.73828 C 11.2305 14.6484 17.627 21.0449 25.4883 21.0449 Z"/>
  </g>
  <g id="Bold-M" transform="matrix(1 0 0 1 2274.3 1126)">
   <path d="M 23.7305 19.4824 C 30.6641 19.4824 36.2793 13.8672 36.2793 6.93359 C 36.2793 6.34766 36.2305 5.76172 36.1328 5.17578 L 48.8281 -7.42188 L 67.2852 -7.4707 C 70.8984 -7.4707 74.8047 -8.83789 77.3438 -11.3281 L 117.871 -51.2695 C 120.898 -54.248 120.801 -58.9844 117.92 -62.0117 C 115.039 -64.9414 110.205 -64.9414 107.227 -61.9629 L 68.3594 -23.1445 C 67.4805 -22.2656 66.4062 -21.7773 65.1367 -21.7773 L 54.248 -21.7773 L 53.5156 -22.5098 L 53.5156 -34.7656 C 53.5156 -36.0352 53.9551 -37.1094 54.834 -37.9883 L 93.0176 -76.1719 C 95.9473 -79.1504 95.8984 -83.9355 93.0664 -86.8652 C 90.1367 -89.8438 85.3027 -89.8926 82.3242 -86.8652 L 42.3828 -46.2891 C 39.6973 -43.5547 38.5254 -39.8438 38.4766 -36.2305 L 38.4766 -18.5547 L 25.4395 -5.51758 C 24.9023 -5.56641 24.3164 -5.61523 23.7305 -5.61523 C 16.8457 -5.61523 11.2305 0 11.2305 6.93359 C 11.2305 13.8672 16.8457 19.4824 23.7305 19.4824 Z"/>
  </g>
  <g id="Semibold-M" transform="matrix(1 0 0 1 1978.67 1126)">
   <path d="M 22.5098 18.4082 C 28.7598 18.4082 33.7891 13.3301 33.7891 7.08008 C 33.7891 6.44531 33.7402 5.81055 33.6426 5.22461 L 47.2168 -8.30078 L 65.9668 -8.30078 C 69.4336 -8.34961 73.0957 -9.61914 75.5371 -12.0117 L 116.064 -51.9531 C 118.701 -54.4922 118.604 -58.6914 116.064 -61.2793 C 113.574 -63.8672 109.326 -63.8672 106.738 -61.2793 L 67.8711 -22.3633 C 66.7969 -21.3379 65.4785 -20.752 63.916 -20.752 L 52.0508 -20.752 L 51.3184 -21.5332 L 51.3184 -34.6191 C 51.3184 -36.1816 51.9043 -37.5 52.9785 -38.5742 L 91.2109 -76.8066 C 93.75 -79.3457 93.7012 -83.5449 91.2109 -86.1328 C 88.7207 -88.7207 84.4238 -88.7695 81.8359 -86.1328 L 41.9434 -45.6055 C 39.3555 -42.9688 38.2812 -39.4531 38.2324 -36.0352 L 38.2324 -18.0176 L 24.3164 -4.10156 C 23.7305 -4.19922 23.0957 -4.24805 22.5098 -4.24805 C 16.3086 -4.24805 11.2305 0.830078 11.2305 7.08008 C 11.2305 13.3301 16.3086 18.4082 22.5098 18.4082 Z"/>
  </g>
  <g id="Medium-M" transform="matrix(1 0 0 1 1682.76 1126)">
   <path d="M 21.582 17.5781 C 27.2949 17.5781 31.9336 12.8906 31.9336 7.17773 C 31.9336 6.54297 31.8848 5.9082 31.7871 5.27344 L 45.9961 -8.93555 L 64.9902 -8.98438 C 68.3105 -8.98438 71.8262 -10.2051 74.1699 -12.5 L 114.648 -52.3926 C 116.992 -54.7363 116.895 -58.3984 114.648 -60.7422 C 112.451 -63.0371 108.643 -63.0371 106.348 -60.7422 L 67.4805 -21.8262 C 66.2598 -20.6055 64.7461 -19.9707 63.0371 -19.9707 L 50.3906 -19.9707 L 49.6582 -20.752 L 49.6582 -34.5215 C 49.6582 -36.2793 50.3418 -37.793 51.5137 -38.9648 L 89.7949 -77.2461 C 92.0898 -79.541 92.041 -83.252 89.8438 -85.5469 C 87.5977 -87.8906 83.7891 -87.8906 81.4941 -85.5469 L 41.6016 -45.0684 C 39.1113 -42.5293 38.0859 -39.1602 38.0371 -35.8887 L 38.0371 -17.627 L 23.4863 -3.02734 C 22.8516 -3.17383 22.2168 -3.22266 21.582 -3.22266 C 15.8691 -3.22266 11.2305 1.41602 11.2305 7.17773 C 11.2305 12.8906 15.8691 17.5781 21.582 17.5781 Z"/>
  </g>
  <g id="Regular-M" transform="matrix(1 0 0 1 1387.1 1126)">
   <path d="M 20.3613 16.5039 C 25.4395 16.5039 29.541 12.3535 29.541 7.32422 C 29.541 6.64062 29.4434 5.95703 29.3457 5.32227 L 44.4336 -9.76562 L 63.6719 -9.81445 C 66.7969 -9.81445 70.1172 -10.9375 72.4121 -13.1836 L 112.842 -53.0273 C 114.795 -54.9805 114.697 -58.1055 112.842 -60.0098 C 110.938 -61.9629 107.764 -61.9629 105.859 -60.0098 L 66.9922 -21.0938 C 65.5762 -19.7266 63.8672 -18.8965 61.8652 -18.8965 L 48.2422 -18.8965 L 47.5098 -19.7754 L 47.5098 -34.4238 C 47.5098 -36.4258 48.291 -38.1836 49.6582 -39.5508 L 88.0371 -77.832 C 89.9414 -79.7852 89.8926 -82.9102 88.0371 -84.8633 C 86.1328 -86.7676 82.959 -86.8164 81.0547 -84.8145 L 41.2109 -44.3848 C 38.8184 -41.9434 37.8418 -38.8184 37.793 -35.6445 L 37.793 -17.1387 L 22.3633 -1.66016 C 21.6797 -1.80664 21.0449 -1.85547 20.3613 -1.85547 C 15.332 -1.85547 11.2305 2.24609 11.2305 7.32422 C 11.2305 12.3535 15.332 16.5039 20.3613 16.5039 Z"/>
  </g>
  <g id="Light-M" transform="matrix(1 0 0 1 1091.39 1126)">
   <path d="M 19.1895 15.4297 C 23.584 15.4297 27.1484 11.8652 27.1484 7.4707 C 27.1484 6.64062 27.0508 5.85938 26.8066 5.12695 L 42.9199 -10.9375 L 61.9141 -11.084 C 65.2344 -11.084 68.5059 -12.1094 71.0938 -14.6484 L 111.133 -54.3945 C 112.695 -55.8594 112.598 -58.2031 111.133 -59.668 C 109.766 -61.1328 107.324 -61.1328 105.859 -59.668 L 66.9434 -20.5078 C 65.332 -18.8965 63.2812 -17.9199 60.8887 -17.9199 L 45.752 -17.9199 L 45.2148 -18.5547 L 45.2148 -34.375 C 45.2148 -36.7676 46.1426 -38.8184 47.7539 -40.4297 L 86.4746 -79.0527 C 87.9395 -80.4688 87.8906 -82.8613 86.4746 -84.3262 C 85.1074 -85.791 82.666 -85.791 81.2012 -84.3262 L 41.5527 -44.2383 C 38.916 -41.5527 37.9395 -38.3301 37.9395 -35.0098 L 37.8418 -16.5039 L 21.5332 -0.146484 C 20.752 -0.390625 19.9707 -0.537109 19.1406 -0.488281 C 14.7949 -0.488281 11.2305 3.02734 11.2305 7.4707 C 11.2305 11.8652 14.7949 15.4297 19.1895 15.4297 Z"/>
  </g>
  <g id="Thin-M" transform="matrix(1 0 0 1 796.022 1126)">
   <path d="M 17.627 14.0625 C 21.0938 14.0625 23.9746 11.1816 23.9746 7.71484 C 23.9746 6.73828 23.7793 5.76172 23.3887 4.93164 L 40.918 -12.5 L 59.5215 -12.7441 C 63.0859 -12.793 66.4062 -13.7207 69.3359 -16.6504 L 108.936 -56.1035 C 109.863 -57.0312 109.766 -58.3008 108.936 -59.2285 C 108.154 -60.0586 106.689 -60.0098 105.908 -59.1797 L 66.8457 -19.7266 C 64.9414 -17.8223 62.5 -16.5527 59.5703 -16.5527 L 42.3828 -16.5527 L 42.0898 -16.8945 L 42.0898 -34.2773 C 42.0898 -37.207 43.3105 -39.6973 45.2148 -41.6016 L 84.4727 -80.5664 C 85.3027 -81.3965 85.2539 -82.8125 84.4727 -83.6914 C 83.6914 -84.5215 82.2266 -84.4727 81.4453 -83.6426 L 42.041 -43.9941 C 39.0625 -41.0156 38.1348 -37.6953 38.0859 -34.1797 L 37.9395 -15.7227 L 20.3613 1.9043 C 19.5312 1.51367 18.5547 1.26953 17.5781 1.26953 C 14.0625 1.31836 11.2305 4.10156 11.2305 7.71484 C 11.2305 11.1816 14.0625 14.0625 17.627 14.0625 Z"/>
  </g>
  <g id="Ultralight-M" transform="matrix(1 0 0 1 499.97 1126)">
   <path d="M 16.8457 13.3789 C 19.873 13.3789 22.3633 10.8398 22.3633 7.8125 C 22.3633 6.73828 22.0703 5.76172 21.582 4.93164 L 39.8926 -13.3301 L 58.3008 -13.5742 C 62.0117 -13.623 65.2832 -14.502 68.457 -17.627 L 107.812 -57.0312 C 108.398 -57.6172 108.35 -58.3984 107.812 -58.9844 C 107.324 -59.5215 106.396 -59.4727 105.908 -58.9355 L 66.7969 -19.3359 C 64.7461 -17.2852 62.1094 -15.8691 58.9355 -15.8691 L 40.6738 -15.8691 L 40.5273 -16.0645 L 40.5273 -34.2773 C 40.5273 -37.4512 41.8457 -40.1367 43.8965 -42.2363 L 83.4473 -81.3965 C 83.9844 -81.8359 83.9355 -82.8125 83.4473 -83.3496 C 82.959 -83.8867 82.0312 -83.8379 81.543 -83.3008 L 42.2852 -43.8477 C 39.1602 -40.7227 38.2324 -37.3535 38.1836 -33.7402 L 37.9883 -15.2832 L 19.6777 2.97852 C 18.8477 2.49023 17.8223 2.19727 16.7969 2.19727 C 13.6719 2.29492 11.2305 4.6875 11.2305 7.8125 C 11.2305 10.8398 13.6719 13.3789 16.8457 13.3789 Z"/>
  </g>
  <g id="Black-S" transform="matrix(1 0 0 1 2879.76 696)">
   <path d="M 21.0938 9.86328 C 27.9297 9.86328 33.4473 4.3457 33.4473 -2.49023 C 33.4473 -2.88086 33.4473 -3.27148 33.3984 -3.66211 L 41.5039 -11.7188 L 55.4199 -11.7188 C 58.5938 -11.7188 62.1094 -12.9883 64.2578 -15.1367 L 96.1426 -46.4844 C 99.2676 -49.5605 99.2188 -54.541 96.1914 -57.666 C 93.2129 -60.7422 88.1348 -60.7422 85.0098 -57.666 L 54.5898 -27.2949 C 54.2969 -27.002 53.9062 -26.8555 53.4668 -26.8555 L 47.0215 -26.8555 L 46.3867 -27.3438 L 46.3867 -35.1074 C 46.3867 -35.5469 46.5332 -35.9375 46.8262 -36.2305 L 76.6113 -66.0645 C 79.6387 -69.1406 79.6387 -74.1211 76.6602 -77.1973 C 73.6328 -80.3223 68.5547 -80.3711 65.4297 -77.1973 L 34.082 -45.3125 C 31.7383 -42.9688 30.6641 -39.6484 30.6641 -36.4746 L 30.6641 -23.2422 L 22.2656 -14.7949 C 21.875 -14.8438 21.4844 -14.8438 21.0938 -14.8438 C 14.3066 -14.8438 8.78906 -9.32617 8.78906 -2.49023 C 8.78906 4.3457 14.3066 9.86328 21.0938 9.86328 Z"/>
  </g>
  <g id="Heavy-S" transform="matrix(1 0 0 1 2584 696)">
   <path d="M 20.0195 8.88672 C 26.2695 8.88672 31.2988 3.85742 31.2988 -2.39258 C 31.2988 -2.7832 31.25 -3.17383 31.2012 -3.56445 L 40.0879 -12.4023 L 54.2969 -12.4023 C 57.3242 -12.4023 60.5957 -13.623 62.6465 -15.625 L 94.4824 -46.9727 C 97.3145 -49.707 97.2656 -54.1992 94.5312 -56.9824 C 91.8457 -59.7656 87.3047 -59.7656 84.5215 -56.9824 L 54.1016 -26.6113 C 53.6621 -26.1719 53.0762 -25.9277 52.3926 -25.9277 L 45.1172 -25.9277 L 44.4824 -26.5137 L 44.4824 -35.0098 C 44.4824 -35.6445 44.7266 -36.2305 45.166 -36.6699 L 75 -66.5527 C 77.6855 -69.2871 77.6855 -73.7793 75 -76.5137 C 72.3145 -79.2969 67.7246 -79.3457 64.9414 -76.5137 L 33.5938 -44.6289 C 31.3965 -42.4316 30.4199 -39.3066 30.4199 -36.3281 L 30.4199 -22.8027 L 21.2402 -13.5742 C 20.8008 -13.623 20.4102 -13.623 20.0195 -13.623 C 13.8184 -13.623 8.78906 -8.59375 8.78906 -2.39258 C 8.78906 3.85742 13.8184 8.88672 20.0195 8.88672 Z"/>
  </g>
  <g id="Bold-S" transform="matrix(1 0 0 1 2288.34 696)">
   <path d="M 18.7988 7.8125 C 24.3652 7.8125 28.8574 3.32031 28.8574 -2.24609 C 28.8574 -2.68555 28.8574 -3.07617 28.8086 -3.51562 L 38.5254 -13.1836 L 53.0762 -13.2324 C 55.8594 -13.2324 58.8867 -14.3066 60.791 -16.1621 L 92.6758 -47.5098 C 95.1172 -49.9023 95.0684 -53.8086 92.6758 -56.25 C 90.3809 -58.6426 86.377 -58.6426 83.9844 -56.25 L 53.5156 -25.8789 C 52.9297 -25.2441 52.0996 -24.9023 51.1719 -24.9023 L 43.0176 -24.9023 L 42.3828 -25.5371 L 42.3828 -34.8633 C 42.3828 -35.791 42.7246 -36.5723 43.3105 -37.207 L 73.1445 -67.041 C 75.5371 -69.4824 75.4883 -73.3398 73.1934 -75.7812 C 70.8008 -78.1738 66.8457 -78.2227 64.4043 -75.7812 L 33.1055 -43.8965 C 31.0547 -41.8457 30.127 -38.9648 30.127 -36.1816 L 30.127 -22.3145 L 20.0684 -12.207 C 19.6777 -12.2559 19.2383 -12.3047 18.7988 -12.3047 C 13.2812 -12.3047 8.78906 -7.8125 8.78906 -2.24609 C 8.78906 3.32031 13.2812 7.8125 18.7988 7.8125 Z"/>
  </g>
  <g id="Semibold-S" transform="matrix(1 0 0 1 1992.36 696)">
   <path d="M 17.9688 7.08008 C 23.0469 7.08008 27.1973 2.97852 27.1973 -2.14844 C 27.1973 -2.58789 27.1484 -3.02734 27.0996 -3.41797 L 37.4512 -13.7207 L 52.2461 -13.7695 C 54.8828 -13.7695 57.7637 -14.7949 59.5703 -16.5527 L 91.4062 -47.9004 C 93.6035 -50.0488 93.5547 -53.5645 91.4062 -55.7129 C 89.3066 -57.9102 85.7422 -57.9102 83.5938 -55.7129 L 53.1738 -25.3418 C 52.3926 -24.6094 51.4648 -24.1699 50.3906 -24.1699 L 41.5527 -24.1699 L 40.918 -24.9023 L 40.918 -34.7656 C 40.918 -35.8398 41.3086 -36.8164 42.041 -37.5488 L 71.875 -67.4316 C 74.0234 -69.5801 74.0234 -73.0957 71.9238 -75.2441 C 69.7754 -77.4414 66.2109 -77.4902 64.0625 -75.2441 L 32.7148 -43.4082 C 30.7617 -41.4062 29.9316 -38.7207 29.9316 -36.084 L 29.8828 -21.9238 L 19.2871 -11.2793 C 18.8477 -11.3281 18.4082 -11.377 17.9688 -11.377 C 12.9395 -11.377 8.78906 -7.22656 8.78906 -2.14844 C 8.78906 2.97852 12.9395 7.08008 17.9688 7.08008 Z"/>
  </g>
  <g id="Medium-S" transform="matrix(1 0 0 1 1696.19 696)">
   <path d="M 17.334 6.54297 C 22.0703 6.54297 25.9277 2.68555 25.9277 -2.05078 C 25.9277 -2.53906 25.8789 -2.97852 25.8301 -3.41797 L 36.6211 -14.1602 L 51.6113 -14.1602 C 54.1016 -14.1602 56.8359 -15.1367 58.5938 -16.8457 L 90.4297 -48.1934 C 92.4805 -50.1465 92.3828 -53.3691 90.4297 -55.3223 C 88.5254 -57.3242 85.2539 -57.3242 83.3008 -55.3223 L 52.8809 -24.9512 C 52.002 -24.0723 50.9277 -23.6328 49.7559 -23.6328 L 40.4785 -23.6328 L 39.7949 -24.3652 L 39.7949 -34.7168 C 39.7949 -35.8887 40.2344 -36.9629 41.1133 -37.8418 L 70.9473 -67.6758 C 72.9004 -69.6777 72.8516 -72.8516 70.9473 -74.8535 C 68.9941 -76.8555 65.7715 -76.9043 63.7695 -74.8535 L 32.4707 -43.0176 C 30.6152 -41.1133 29.7363 -38.5254 29.7363 -35.9863 L 29.7363 -21.6797 L 18.6523 -10.5469 C 18.2129 -10.6445 17.7734 -10.6445 17.334 -10.6445 C 12.6465 -10.6445 8.78906 -6.83594 8.78906 -2.05078 C 8.78906 2.68555 12.6465 6.54297 17.334 6.54297 Z"/>
  </g>
  <g id="Regular-S" transform="matrix(1 0 0 1 1400.21 696)">
   <path d="M 16.5039 5.81055 C 20.8008 5.81055 24.2676 2.29492 24.2676 -1.95312 C 24.2676 -2.44141 24.2676 -2.88086 24.1699 -3.32031 L 35.5469 -14.6973 L 50.7324 -14.6973 C 53.125 -14.6973 55.7129 -15.625 57.373 -17.2363 L 89.209 -48.5352 C 90.9668 -50.293 90.8691 -53.0762 89.209 -54.834 C 87.5 -56.543 84.668 -56.543 82.9102 -54.834 L 52.4902 -24.4141 C 51.5137 -23.4375 50.293 -22.9492 48.9258 -22.9492 L 39.0137 -22.9492 L 38.3789 -23.7305 L 38.3789 -34.6191 C 38.3789 -35.9863 38.8672 -37.207 39.8438 -38.1836 L 69.6777 -68.0664 C 71.4355 -69.7754 71.3867 -72.6074 69.6777 -74.3164 C 68.0176 -76.0742 65.1367 -76.123 63.4277 -74.3164 L 32.0801 -42.4805 C 30.3223 -40.7227 29.541 -38.2324 29.541 -35.8887 L 29.541 -21.3379 L 17.8711 -9.61914 C 17.4316 -9.7168 16.9922 -9.76562 16.5039 -9.76562 C 12.2559 -9.76562 8.78906 -6.25 8.78906 -1.95312 C 8.78906 2.29492 12.2559 5.81055 16.5039 5.81055 Z"/>
  </g>
  <g id="Light-S" transform="matrix(1 0 0 1 1104.38 696)">
   <path d="M 15.4785 4.88281 C 19.1406 4.88281 22.168 1.85547 22.168 -1.80664 C 22.168 -2.44141 22.1191 -2.97852 21.9727 -3.51562 L 34.2285 -15.7227 L 49.1699 -15.8203 C 51.709 -15.8203 54.2969 -16.6504 56.2012 -18.5547 L 87.6953 -49.707 C 89.0625 -51.0742 89.0137 -53.1738 87.6953 -54.541 C 86.4258 -55.8594 84.2285 -55.8105 82.9102 -54.4922 L 52.4414 -23.9258 C 51.2695 -22.7539 49.8047 -22.0215 48.0469 -22.0215 L 36.7676 -22.0215 L 36.2793 -22.6562 L 36.2793 -34.5703 C 36.2793 -36.2793 36.9629 -37.793 38.1348 -38.9648 L 68.3594 -69.0918 C 69.6777 -70.4102 69.6289 -72.5586 68.3594 -73.877 C 67.041 -75.2441 64.8438 -75.2441 63.5742 -73.877 L 32.4219 -42.334 C 30.4199 -40.332 29.6875 -37.8418 29.6387 -35.3027 L 29.5898 -20.8008 L 17.1875 -8.34961 C 16.6016 -8.49609 16.0645 -8.54492 15.4785 -8.54492 C 11.7676 -8.54492 8.78906 -5.56641 8.78906 -1.80664 C 8.78906 1.85547 11.7676 4.88281 15.4785 4.88281 Z"/>
  </g>
  <g id="Thin-S" transform="matrix(1 0 0 1 808.839 696)">
   <path d="M 14.1113 3.66211 C 16.9922 3.66211 19.3848 1.26953 19.3848 -1.66016 C 19.3848 -2.39258 19.2383 -3.07617 18.9453 -3.71094 L 32.4219 -17.1387 L 47.0703 -17.2852 C 49.8047 -17.334 52.3926 -18.0664 54.6387 -20.2637 L 85.7422 -51.2695 C 86.5723 -52.0996 86.5234 -53.2715 85.7422 -54.1016 C 85.0098 -54.8828 83.6914 -54.8828 82.959 -54.1016 L 52.3926 -23.2422 C 50.9277 -21.7773 49.1211 -20.8496 46.9238 -20.8496 L 33.8379 -20.8496 L 33.5449 -21.1914 L 33.5449 -34.5215 C 33.5449 -36.7188 34.4727 -38.5742 35.8887 -39.9902 L 66.5527 -70.459 C 67.334 -71.1914 67.2852 -72.5586 66.5527 -73.3398 C 65.8203 -74.1211 64.502 -74.0723 63.7207 -73.291 L 32.8125 -42.1387 C 30.5664 -39.8438 29.834 -37.2559 29.7852 -34.5703 L 29.6875 -20.0684 L 16.1621 -6.54297 C 15.5273 -6.83594 14.7949 -6.98242 14.0625 -6.98242 C 11.1328 -6.93359 8.78906 -4.58984 8.78906 -1.66016 C 8.78906 1.26953 11.1328 3.66211 14.1113 3.66211 Z"/>
  </g>
  <g id="Ultralight-S" transform="matrix(1 0 0 1 512.738 696)">
   <path d="M 13.3789 3.02734 C 15.8691 3.02734 17.9688 0.927734 17.9688 -1.51367 C 17.9688 -2.34375 17.7734 -3.125 17.3828 -3.75977 L 31.4941 -17.8711 L 45.9961 -18.0176 C 48.877 -18.0664 51.4648 -18.7988 53.8574 -21.1914 L 84.7656 -52.0508 C 85.3027 -52.6367 85.2539 -53.3691 84.7656 -53.9062 C 84.2773 -54.3945 83.3984 -54.3457 82.959 -53.8574 L 52.3438 -22.9004 C 50.7812 -21.2891 48.7793 -20.2637 46.3379 -20.2637 L 32.3242 -20.2637 L 32.1777 -20.459 L 32.1777 -34.4727 C 32.1777 -36.9141 33.1543 -38.9648 34.7168 -40.5273 L 65.625 -71.1914 C 66.1621 -71.6309 66.1133 -72.5098 65.625 -72.998 C 65.1855 -73.5352 64.3066 -73.4863 63.8672 -72.9492 L 33.0566 -42.041 C 30.6641 -39.5996 29.9316 -36.9629 29.8828 -34.1797 L 29.7363 -19.7266 L 15.5762 -5.56641 C 14.9414 -5.95703 14.1602 -6.15234 13.3301 -6.15234 C 10.8398 -6.10352 8.78906 -4.10156 8.78906 -1.51367 C 8.78906 0.927734 10.8398 3.02734 13.3789 3.02734 Z"/>
  </g>
 </g>
</svg>
