<?xml version="1.0" encoding="UTF-8"?>
<!--Generator: Apple Native CoreSVG 129-->
<!DOCTYPE svg
PUBLIC "-//W3C//DTD SVG 1.1//EN"
       "http://www.w3.org/Graphics/SVG/1.1/DTD/svg11.dtd">
<svg version="1.1" xmlns="http://www.w3.org/2000/svg" xmlns:xlink="http://www.w3.org/1999/xlink" width="3300" height="2200">
 <!--glyph: "uni100AD5.medium", point size: 100.000000, font version: "Version 16.0d9e1", template writer version: "8"-->
 <g id="Notes">
  <rect height="2200" id="artboard" style="fill:white;opacity:1" width="3300" x="0" y="0"/>
  <line id="" style="fill:none;stroke:black;opacity:1;stroke-width:0.5;" x1="263" x2="3036" y1="292" y2="292"/>
  <text style="stroke:none;fill:black;font-family:-apple-system,&quot;SF Pro Display&quot;,&quot;SF Pro Text&quot;,Helvetica,sans-serif;font-weight:bold;" transform="matrix(1 0 0 1 263 322)">Weight/Scale Variations</text>
  <text style="stroke:none;fill:black;font-family:-apple-system,&quot;SF Pro Display&quot;,&quot;SF Pro Text&quot;,Helvetica,sans-serif;text-anchor:middle;" transform="matrix(1 0 0 1 559.711 322)">Ultralight</text>
  <text style="stroke:none;fill:black;font-family:-apple-system,&quot;SF Pro Display&quot;,&quot;SF Pro Text&quot;,Helvetica,sans-serif;text-anchor:middle;" transform="matrix(1 0 0 1 856.422 322)">Thin</text>
  <text style="stroke:none;fill:black;font-family:-apple-system,&quot;SF Pro Display&quot;,&quot;SF Pro Text&quot;,Helvetica,sans-serif;text-anchor:middle;" transform="matrix(1 0 0 1 1153.13 322)">Light</text>
  <text style="stroke:none;fill:black;font-family:-apple-system,&quot;SF Pro Display&quot;,&quot;SF Pro Text&quot;,Helvetica,sans-serif;text-anchor:middle;" transform="matrix(1 0 0 1 1449.84 322)">Regular</text>
  <text style="stroke:none;fill:black;font-family:-apple-system,&quot;SF Pro Display&quot;,&quot;SF Pro Text&quot;,Helvetica,sans-serif;text-anchor:middle;" transform="matrix(1 0 0 1 1746.56 322)">Medium</text>
  <text style="stroke:none;fill:black;font-family:-apple-system,&quot;SF Pro Display&quot;,&quot;SF Pro Text&quot;,Helvetica,sans-serif;text-anchor:middle;" transform="matrix(1 0 0 1 2043.27 322)">Semibold</text>
  <text style="stroke:none;fill:black;font-family:-apple-system,&quot;SF Pro Display&quot;,&quot;SF Pro Text&quot;,Helvetica,sans-serif;text-anchor:middle;" transform="matrix(1 0 0 1 2339.98 322)">Bold</text>
  <text style="stroke:none;fill:black;font-family:-apple-system,&quot;SF Pro Display&quot;,&quot;SF Pro Text&quot;,Helvetica,sans-serif;text-anchor:middle;" transform="matrix(1 0 0 1 2636.69 322)">Heavy</text>
  <text style="stroke:none;fill:black;font-family:-apple-system,&quot;SF Pro Display&quot;,&quot;SF Pro Text&quot;,Helvetica,sans-serif;text-anchor:middle;" transform="matrix(1 0 0 1 2933.4 322)">Black</text>
  <line id="" style="fill:none;stroke:black;opacity:1;stroke-width:0.5;" x1="263" x2="3036" y1="1903" y2="1903"/>
  <g id="" transform="matrix(1 0 0 1 263 1933)">
   <path d="M 9.24805 0.830078 C 13.5547 0.830078 17.1387 -2.74414 17.1387 -7.05078 C 17.1387 -11.3574 13.5449 -14.9316 9.23828 -14.9316 C 4.94141 -14.9316 1.36719 -11.3574 1.36719 -7.05078 C 1.36719 -2.74414 4.95117 0.830078 9.24805 0.830078 Z M 9.24805 -0.654297 C 5.70312 -0.654297 2.87109 -3.49609 2.87109 -7.05078 C 2.87109 -10.6055 5.69336 -13.4473 9.23828 -13.4473 C 12.793 -13.4473 15.6348 -10.6055 15.6445 -7.05078 C 15.6543 -3.49609 12.8027 -0.654297 9.24805 -0.654297 Z M 9.22852 -3.62305 C 9.69727 -3.62305 9.9707 -3.93555 9.9707 -4.45312 L 9.9707 -6.31836 L 12.002 -6.31836 C 12.5 -6.31836 12.832 -6.57227 12.832 -7.04102 C 12.832 -7.51953 12.5195 -7.7832 12.002 -7.7832 L 9.9707 -7.7832 L 9.9707 -9.81445 C 9.9707 -10.332 9.69727 -10.6543 9.22852 -10.6543 C 8.75977 -10.6543 8.50586 -10.3125 8.50586 -9.81445 L 8.50586 -7.7832 L 6.49414 -7.7832 C 5.97656 -7.7832 5.64453 -7.51953 5.64453 -7.04102 C 5.64453 -6.57227 5.99609 -6.31836 6.49414 -6.31836 L 8.50586 -6.31836 L 8.50586 -4.45312 C 8.50586 -3.95508 8.75977 -3.62305 9.22852 -3.62305 Z"/>
  </g>
  <g id="" transform="matrix(1 0 0 1 281.506 1933)">
   <path d="M 11.709 2.91016 C 17.1582 2.91016 21.6699 -1.61133 21.6699 -7.05078 C 21.6699 -12.5 17.1484 -17.0117 11.6992 -17.0117 C 6.25977 -17.0117 1.74805 -12.5 1.74805 -7.05078 C 1.74805 -1.61133 6.26953 2.91016 11.709 2.91016 Z M 11.709 1.25 C 7.09961 1.25 3.41797 -2.44141 3.41797 -7.05078 C 3.41797 -11.6602 7.08984 -15.3516 11.6992 -15.3516 C 16.3086 -15.3516 20 -11.6602 20.0098 -7.05078 C 20.0195 -2.44141 16.3184 1.25 11.709 1.25 Z M 11.6797 -2.66602 C 12.207 -2.66602 12.5098 -3.01758 12.5098 -3.59375 L 12.5098 -6.23047 L 15.3223 -6.23047 C 15.8691 -6.23047 16.25 -6.51367 16.25 -7.03125 C 16.25 -7.55859 15.8887 -7.86133 15.3223 -7.86133 L 12.5098 -7.86133 L 12.5098 -10.6836 C 12.5098 -11.25 12.207 -11.6113 11.6797 -11.6113 C 11.1621 -11.6113 10.8789 -11.2305 10.8789 -10.6836 L 10.8789 -7.86133 L 8.07617 -7.86133 C 7.50977 -7.86133 7.13867 -7.55859 7.13867 -7.03125 C 7.13867 -6.51367 7.5293 -6.23047 8.07617 -6.23047 L 10.8789 -6.23047 L 10.8789 -3.59375 C 10.8789 -3.03711 11.1621 -2.66602 11.6797 -2.66602 Z"/>
  </g>
  <g id="" transform="matrix(1 0 0 1 304.924 1933)">
   <path d="M 14.9707 5.66406 C 21.9336 5.66406 27.6953 -0.0976562 27.6953 -7.05078 C 27.6953 -14.0137 21.9238 -19.7754 14.9609 -19.7754 C 8.00781 -19.7754 2.25586 -14.0137 2.25586 -7.05078 C 2.25586 -0.0976562 8.01758 5.66406 14.9707 5.66406 Z M 14.9707 3.84766 C 8.93555 3.84766 4.08203 -1.01562 4.08203 -7.05078 C 4.08203 -13.0957 8.92578 -17.9492 14.9609 -17.9492 C 21.0059 -17.9492 25.8594 -13.0957 25.8691 -7.05078 C 25.8789 -1.01562 21.0156 3.84766 14.9707 3.84766 Z M 14.9414 -1.38672 C 15.5176 -1.38672 15.8594 -1.77734 15.8594 -2.38281 L 15.8594 -6.13281 L 19.7754 -6.13281 C 20.3711 -6.13281 20.7812 -6.46484 20.7812 -7.02148 C 20.7812 -7.59766 20.3906 -7.93945 19.7754 -7.93945 L 15.8594 -7.93945 L 15.8594 -11.8652 C 15.8594 -12.4805 15.5176 -12.8711 14.9414 -12.8711 C 14.375 -12.8711 14.0527 -12.4609 14.0527 -11.8652 L 14.0527 -7.93945 L 10.1465 -7.93945 C 9.53125 -7.93945 9.13086 -7.59766 9.13086 -7.02148 C 9.13086 -6.46484 9.55078 -6.13281 10.1465 -6.13281 L 14.0527 -6.13281 L 14.0527 -2.38281 C 14.0527 -1.79688 14.375 -1.38672 14.9414 -1.38672 Z"/>
  </g>
  <text style="stroke:none;fill:black;font-family:-apple-system,&quot;SF Pro Display&quot;,&quot;SF Pro Text&quot;,Helvetica,sans-serif;font-weight:bold;" transform="matrix(1 0 0 1 263 1953)">Design Variations</text>
  <text style="stroke:none;fill:black;font-family:-apple-system,&quot;SF Pro Display&quot;,&quot;SF Pro Text&quot;,Helvetica,sans-serif;" transform="matrix(1 0 0 1 263 1971)">Symbols are supported in up to nine weights and three scales.</text>
  <text style="stroke:none;fill:black;font-family:-apple-system,&quot;SF Pro Display&quot;,&quot;SF Pro Text&quot;,Helvetica,sans-serif;" transform="matrix(1 0 0 1 263 1989)">For optimal layout with text and other symbols, vertically align</text>
  <text style="stroke:none;fill:black;font-family:-apple-system,&quot;SF Pro Display&quot;,&quot;SF Pro Text&quot;,Helvetica,sans-serif;" transform="matrix(1 0 0 1 263 2007)">symbols with the adjacent text.</text>
  <line id="" style="fill:none;stroke:#00AEEF;stroke-width:0.5;opacity:1.0;" x1="776" x2="776" y1="1919" y2="1933"/>
  <g id="" transform="matrix(1 0 0 1 776 1933)">
   <path d="M 3.31055 0.126953 C 3.82812 0.126953 4.08203 -0.0683594 4.26758 -0.605469 L 5.52734 -4.0625 L 11.2891 -4.0625 L 12.5488 -0.605469 C 12.7344 -0.0683594 12.9883 0.126953 13.4961 0.126953 C 14.0137 0.126953 14.3457 -0.185547 14.3457 -0.673828 C 14.3457 -0.839844 14.3164 -0.986328 14.2383 -1.20117 L 9.6582 -13.3887 C 9.43359 -13.9941 9.0332 -14.2871 8.4082 -14.2871 C 7.80273 -14.2871 7.39258 -13.9941 7.17773 -13.3984 L 2.59766 -1.19141 C 2.51953 -0.976562 2.49023 -0.830078 2.49023 -0.664062 C 2.49023 -0.175781 2.80273 0.126953 3.31055 0.126953 Z M 6.00586 -5.53711 L 8.37891 -12.1094 L 8.42773 -12.1094 L 10.8008 -5.53711 Z"/>
  </g>
  <line id="" style="fill:none;stroke:#00AEEF;stroke-width:0.5;opacity:1.0;" x1="792.836" x2="792.836" y1="1919" y2="1933"/>
  <text style="stroke:none;fill:black;font-family:-apple-system,&quot;SF Pro Display&quot;,&quot;SF Pro Text&quot;,Helvetica,sans-serif;font-weight:bold;" transform="matrix(1 0 0 1 776 1953)">Margins</text>
  <text style="stroke:none;fill:black;font-family:-apple-system,&quot;SF Pro Display&quot;,&quot;SF Pro Text&quot;,Helvetica,sans-serif;" transform="matrix(1 0 0 1 776 1971)">Leading and trailing margins on the left and right side of each symbol</text>
  <text style="stroke:none;fill:black;font-family:-apple-system,&quot;SF Pro Display&quot;,&quot;SF Pro Text&quot;,Helvetica,sans-serif;" transform="matrix(1 0 0 1 776 1989)">can be adjusted by modifying the x-location of the margin guidelines.</text>
  <text style="stroke:none;fill:black;font-family:-apple-system,&quot;SF Pro Display&quot;,&quot;SF Pro Text&quot;,Helvetica,sans-serif;" transform="matrix(1 0 0 1 776 2007)">Modifications are automatically applied proportionally to all</text>
  <text style="stroke:none;fill:black;font-family:-apple-system,&quot;SF Pro Display&quot;,&quot;SF Pro Text&quot;,Helvetica,sans-serif;" transform="matrix(1 0 0 1 776 2025)">scales and weights.</text>
  <g id="" transform="matrix(1 0 0 1 1289 1933)">
   <path d="M 2.8418 1.86523 L 4.54102 3.57422 C 5.40039 4.44336 6.38672 4.38477 7.31445 3.35938 L 17.4902 -7.85156 C 17.7539 -7.76367 18.0273 -7.7832 18.3398 -7.8418 L 19.4043 -8.03711 L 20.0684 -7.36328 L 20.0293 -6.80664 C 19.9902 -6.30859 20.1172 -5.92773 20.6055 -5.44922 L 21.3672 -4.70703 C 21.8457 -4.22852 22.4609 -4.19922 22.9297 -4.66797 L 25.8398 -7.58789 C 26.3086 -8.05664 26.2891 -8.65234 25.8105 -9.13086 L 25.0391 -9.89258 C 24.5605 -10.3711 24.1895 -10.5273 23.7109 -10.4883 L 23.1348 -10.4395 L 22.4902 -11.0742 L 22.7344 -12.1973 C 22.8613 -12.7637 22.7051 -13.2031 22.1191 -13.7891 L 19.9219 -15.9766 C 16.582 -19.2969 12.1484 -19.2188 9.25781 -16.3281 C 8.83789 -15.918 8.80859 -15.3418 9.04297 -14.9512 C 9.27734 -14.5898 9.73633 -14.3555 10.3809 -14.5215 C 11.8457 -14.8633 13.3691 -14.9219 14.7949 -13.9844 L 14.209 -12.5293 C 14.0137 -12.0508 13.9844 -11.6504 14.1113 -11.2891 L 3.04688 -0.898438 C 2.06055 0.0195312 1.98242 0.996094 2.8418 1.86523 Z M 10.752 -15.957 C 13.1836 -17.7344 16.4746 -17.4316 18.7012 -15.2051 L 21.1328 -12.793 C 21.3672 -12.5586 21.4062 -12.373 21.3379 -12.0312 L 21.0156 -10.5469 L 22.5195 -9.0625 L 23.5059 -9.12109 C 23.7598 -9.13086 23.8379 -9.11133 24.0332 -8.91602 L 24.6094 -8.33984 L 22.168 -5.89844 L 21.5918 -6.47461 C 21.3965 -6.66992 21.3672 -6.74805 21.377 -7.01172 L 21.4453 -7.98828 L 19.9512 -9.47266 L 18.4277 -9.21875 C 18.1055 -9.15039 17.959 -9.17969 17.7148 -9.41406 L 15.7129 -11.416 C 15.459 -11.6504 15.4297 -11.8164 15.5859 -12.1875 L 16.4648 -14.2773 C 14.9023 -15.7324 12.8711 -16.3574 10.8398 -15.7617 C 10.6836 -15.7227 10.625 -15.8496 10.752 -15.957 Z M 5.27344 2.30469 L 4.10156 1.14258 C 3.63281 0.683594 3.74023 0.341797 4.14062 -0.0195312 L 14.9512 -10.1953 L 16.416 -8.71094 L 6.42578 2.27539 C 6.07422 2.67578 5.74219 2.77344 5.27344 2.30469 Z"/>
  </g>
  <text style="stroke:none;fill:black;font-family:-apple-system,&quot;SF Pro Display&quot;,&quot;SF Pro Text&quot;,Helvetica,sans-serif;font-weight:bold;" transform="matrix(1 0 0 1 1289 1953)">Exporting</text>
  <text style="stroke:none;fill:black;font-family:-apple-system,&quot;SF Pro Display&quot;,&quot;SF Pro Text&quot;,Helvetica,sans-serif;" transform="matrix(1 0 0 1 1289 1971)">Symbols should be outlined when exporting to ensure the</text>
  <text style="stroke:none;fill:black;font-family:-apple-system,&quot;SF Pro Display&quot;,&quot;SF Pro Text&quot;,Helvetica,sans-serif;" transform="matrix(1 0 0 1 1289 1989)">design is preserved when submitting to Xcode.</text>
  <text id="template-version" style="stroke:none;fill:black;font-family:-apple-system,&quot;SF Pro Display&quot;,&quot;SF Pro Text&quot;,Helvetica,sans-serif;text-anchor:end;" transform="matrix(1 0 0 1 3036 1933)">Template v.2.0</text>
  <text style="stroke:none;fill:black;font-family:-apple-system,&quot;SF Pro Display&quot;,&quot;SF Pro Text&quot;,Helvetica,sans-serif;text-anchor:end;" transform="matrix(1 0 0 1 3036 1951)">Requires Xcode 12 or greater</text>
  <text style="stroke:none;fill:black;font-family:-apple-system,&quot;SF Pro Display&quot;,&quot;SF Pro Text&quot;,Helvetica,sans-serif;text-anchor:end;" transform="matrix(1 0 0 1 3036 1969)">Generated from a.book.closed</text>
  <text style="stroke:none;fill:black;font-family:-apple-system,&quot;SF Pro Display&quot;,&quot;SF Pro Text&quot;,Helvetica,sans-serif;text-anchor:end;" transform="matrix(1 0 0 1 3036 1987)">Typeset at 100 points</text>
  <text style="stroke:none;fill:black;font-family:-apple-system,&quot;SF Pro Display&quot;,&quot;SF Pro Text&quot;,Helvetica,sans-serif;" transform="matrix(1 0 0 1 263 726)">Small</text>
  <text style="stroke:none;fill:black;font-family:-apple-system,&quot;SF Pro Display&quot;,&quot;SF Pro Text&quot;,Helvetica,sans-serif;" transform="matrix(1 0 0 1 263 1156)">Medium</text>
  <text style="stroke:none;fill:black;font-family:-apple-system,&quot;SF Pro Display&quot;,&quot;SF Pro Text&quot;,Helvetica,sans-serif;" transform="matrix(1 0 0 1 263 1586)">Large</text>
 </g>
 <g id="Guides">
  <g id="H-reference" style="fill:#27AAE1;stroke:none;" transform="matrix(1 0 0 1 339 696)">
   <path d="M 0.976562 0 L 3.66211 0 L 12.9883 -24.4629 L 45.7031 -24.4629 L 55.0781 0 L 57.7148 0 L 30.6152 -70.459 L 28.125 -70.459 Z M 29.2969 -67.1387 L 29.3945 -67.1387 L 44.873 -26.709 L 13.8672 -26.709 Z"/>
  </g>
  <line id="Baseline-S" style="fill:none;stroke:#27AAE1;opacity:1;stroke-width:0.5;" x1="263" x2="3036" y1="696" y2="696"/>
  <line id="Capline-S" style="fill:none;stroke:#27AAE1;opacity:1;stroke-width:0.5;" x1="263" x2="3036" y1="625.541" y2="625.541"/>
  <g id="H-reference" style="fill:#27AAE1;stroke:none;" transform="matrix(1 0 0 1 339 1126)">
   <path d="M 0.976562 0 L 3.66211 0 L 12.9883 -24.4629 L 45.7031 -24.4629 L 55.0781 0 L 57.7148 0 L 30.6152 -70.459 L 28.125 -70.459 Z M 29.2969 -67.1387 L 29.3945 -67.1387 L 44.873 -26.709 L 13.8672 -26.709 Z"/>
  </g>
  <line id="Baseline-M" style="fill:none;stroke:#27AAE1;opacity:1;stroke-width:0.5;" x1="263" x2="3036" y1="1126" y2="1126"/>
  <line id="Capline-M" style="fill:none;stroke:#27AAE1;opacity:1;stroke-width:0.5;" x1="263" x2="3036" y1="1055.54" y2="1055.54"/>
  <g id="H-reference" style="fill:#27AAE1;stroke:none;" transform="matrix(1 0 0 1 339 1556)">
   <path d="M 0.976562 0 L 3.66211 0 L 12.9883 -24.4629 L 45.7031 -24.4629 L 55.0781 0 L 57.7148 0 L 30.6152 -70.459 L 28.125 -70.459 Z M 29.2969 -67.1387 L 29.3945 -67.1387 L 44.873 -26.709 L 13.8672 -26.709 Z"/>
  </g>
  <line id="Baseline-L" style="fill:none;stroke:#27AAE1;opacity:1;stroke-width:0.5;" x1="263" x2="3036" y1="1556" y2="1556"/>
  <line id="Capline-L" style="fill:none;stroke:#27AAE1;opacity:1;stroke-width:0.5;" x1="263" x2="3036" y1="1485.54" y2="1485.54"/>
  <line id="left-margin" style="fill:none;stroke:#00AEEF;stroke-width:0.5;opacity:1.0;" x1="1396.33" x2="1396.33" y1="1030.79" y2="1150.12"/>
  <line id="right-margin" style="fill:none;stroke:#00AEEF;stroke-width:0.5;opacity:1.0;" x1="1503.36" x2="1503.36" y1="1030.79" y2="1150.12"/>
 </g>
 <g id="Symbols">
  <g id="Black-L" transform="matrix(1 0 0 1 2859.55 1556)">
   <path d="M 39.8926 35.2539 L 122.949 35.2539 C 128.076 35.2539 131.641 31.6895 131.641 26.5625 C 131.641 21.6309 128.32 19.1895 124.609 16.7969 C 117.676 12.6465 116.455 0.683594 124.609 -5.71289 C 130.078 -9.81445 131.445 -12.9395 131.445 -19.6289 L 131.445 -81.7383 C 131.445 -96.9727 122.803 -105.615 107.617 -105.615 L 39.8926 -105.615 C 24.707 -105.615 16.0645 -96.9727 16.0645 -81.7383 L 16.0645 11.3281 C 16.0645 26.5625 24.707 35.2539 39.8926 35.2539 Z M 36.3281 -19.9219 L 36.3281 -79.0039 C 36.3281 -83.252 38.1836 -85.4004 42.7246 -85.4004 L 43.5547 -85.4004 L 43.5547 -20.8008 L 43.4082 -20.8008 C 40.918 -20.8008 38.4766 -20.459 36.3281 -19.9219 Z M 104.785 -85.4004 C 109.326 -85.4004 111.23 -83.252 111.23 -79.0039 L 111.23 -23.1445 C 111.23 -21.6797 110.352 -20.8008 108.691 -20.8008 L 54.9316 -20.8008 L 54.9316 -85.4004 Z M 67.2852 -29.4434 C 71.1426 -29.4434 73.584 -31.6406 74.5605 -36.1816 L 75.4883 -38.9648 L 88.7207 -38.9648 L 89.6484 -36.1816 C 90.625 -31.6406 93.0664 -29.4434 96.9238 -29.4434 C 101.514 -29.4434 104.15 -32.0312 104.15 -36.4258 C 104.15 -37.5977 103.809 -39.209 103.174 -41.4062 L 94.1895 -68.1152 C 92.1387 -74.6094 88.1348 -77.6855 81.9336 -77.6855 C 75.9277 -77.6855 72.168 -74.6582 70.0195 -68.1152 L 61.084 -41.4062 C 60.4004 -39.209 60.0586 -37.5977 60.0586 -36.4258 C 60.0586 -32.0312 62.7441 -29.4434 67.2852 -29.4434 Z M 78.0273 -49.6094 L 81.8359 -64.7461 L 82.373 -64.7461 L 86.1816 -49.6094 Z M 44.9707 17.9199 C 37.2559 17.9199 33.5449 12.9883 33.5449 7.17773 C 33.5449 1.51367 37.5 -3.51562 45.166 -3.51562 L 103.418 -3.51562 C 100.146 3.32031 100.049 11.377 103.076 17.9199 Z"/>
  </g>
  <g id="Heavy-L" transform="matrix(1 0 0 1 2564.11 1556)">
   <path d="M 38.623 34.4727 L 121.484 34.4727 C 125.928 34.4727 129.102 31.3477 129.102 26.8555 C 129.102 22.6562 126.27 20.4102 123.047 18.4082 C 115.771 14.3555 114.404 2.73438 122.559 -4.10156 C 127.295 -7.8125 128.955 -10.9863 128.955 -17.5293 L 128.955 -82.1289 C 128.955 -96.7285 120.898 -104.883 106.348 -104.883 L 38.7207 -104.883 C 24.1211 -104.883 16.0645 -96.7773 16.0645 -82.1289 L 16.0645 11.8652 C 16.0645 26.416 24.1699 34.4727 38.623 34.4727 Z M 104.053 -87.3535 C 109.18 -87.3535 111.475 -84.8633 111.475 -80.0293 L 111.475 -20.5078 C 111.475 -18.3105 110.205 -17.041 107.861 -17.041 L 51.2695 -17.041 L 51.2695 -87.3535 Z M 33.5938 -15.625 L 33.5938 -80.0293 C 33.5938 -84.8145 35.8398 -87.3535 40.8691 -87.3535 L 40.8691 -17.041 C 38.1348 -16.9922 35.7422 -16.4551 33.5938 -15.625 Z M 64.6973 -27.8809 C 68.0664 -27.8809 70.2148 -29.7852 71.1914 -33.8379 L 72.9004 -38.8184 L 87.793 -38.8184 L 89.502 -33.8379 C 90.4297 -29.7852 92.5781 -27.8809 95.9961 -27.8809 C 100 -27.8809 102.393 -30.2246 102.393 -34.0332 C 102.393 -35.1562 102.1 -36.5234 101.514 -38.4766 L 90.918 -68.9453 C 89.1113 -74.5605 85.5957 -77.2461 80.1758 -77.2461 C 74.9512 -77.2461 71.582 -74.6094 69.7266 -68.9453 L 59.1309 -38.4766 C 58.5449 -36.5234 58.252 -35.1562 58.252 -34.082 C 58.252 -30.2246 60.6445 -27.8809 64.6973 -27.8809 Z M 75.293 -48.3887 L 80.0293 -65.2832 L 80.6152 -65.2832 L 85.3516 -48.3887 Z M 42.627 19.2383 C 35.1562 19.2383 31.4941 14.5996 31.4941 8.69141 C 31.4941 2.92969 35.4492 -1.75781 42.8711 -1.75781 L 102.1 -1.75781 C 102.637 -1.75781 103.125 -1.80664 103.613 -1.85547 C 100.293 5.0293 100.391 12.8906 103.711 19.2383 Z"/>
  </g>
  <g id="Bold-L" transform="matrix(1 0 0 1 2268.81 1556)">
   <path d="M 37.207 33.6426 L 119.775 33.6426 C 123.535 33.6426 126.27 30.9082 126.27 27.1484 C 126.27 23.7793 123.975 21.7285 121.289 20.2148 C 113.672 16.2598 112.158 5.0293 120.215 -2.29492 C 124.17 -5.61523 126.172 -8.83789 126.172 -15.1855 L 126.172 -82.5684 C 126.172 -96.4844 118.701 -104.053 104.883 -104.053 L 37.4023 -104.053 C 23.5352 -104.053 16.0645 -96.5332 16.0645 -82.5684 L 16.0645 12.4512 C 16.0645 26.1719 23.5352 33.6426 37.207 33.6426 Z M 103.223 -89.5996 C 108.984 -89.5996 111.719 -86.6699 111.719 -81.1523 L 111.719 -17.5293 C 111.719 -14.502 110.01 -12.8418 106.885 -12.8418 L 47.168 -12.8418 L 47.168 -89.5996 Z M 30.5176 -10.8398 L 30.5176 -81.1523 C 30.5176 -86.2793 32.9102 -89.209 37.8906 -89.5508 L 37.8906 -12.793 C 35.0586 -12.5977 32.6172 -11.9141 30.5176 -10.8398 Z M 61.7188 -26.1719 C 64.5508 -26.1719 66.4062 -27.6855 67.2852 -31.1523 L 69.9219 -38.7207 L 86.7188 -38.7207 L 89.3066 -31.1523 C 90.1855 -27.6855 92.041 -26.1719 94.9219 -26.1719 C 98.3398 -26.1719 100.391 -28.1738 100.391 -31.3477 C 100.391 -32.3242 100.146 -33.4961 99.6094 -35.1562 L 87.1582 -69.9707 C 85.6445 -74.5117 82.666 -76.7578 78.2227 -76.7578 C 73.8281 -76.7578 70.9961 -74.5605 69.4336 -69.9707 L 56.9824 -35.1562 C 56.4453 -33.4961 56.2012 -32.3242 56.2012 -31.3965 C 56.2012 -28.125 58.252 -26.1719 61.7188 -26.1719 Z M 72.168 -47.0703 L 78.0273 -65.918 L 78.5645 -65.918 L 84.4238 -47.0703 Z M 39.9902 20.6543 C 32.8125 20.6543 29.1504 16.4062 29.1504 10.3516 C 29.1504 4.54102 33.1543 0.146484 40.332 0.146484 L 101.758 0.146484 C 102.49 0.146484 103.174 0.0976562 103.809 -0.0488281 C 100.439 6.88477 100.781 14.5996 104.443 20.6543 Z"/>
  </g>
  <g id="Semibold-L" transform="matrix(1 0 0 1 1973.08 1556)">
   <path d="M 36.2793 33.0566 L 118.604 33.0566 C 121.875 33.0566 124.316 30.6641 124.316 27.3926 C 124.316 24.5605 122.412 22.6562 120.068 21.4844 C 112.207 17.5293 110.596 6.64062 118.604 -1.02539 C 122.021 -4.05273 124.268 -7.32422 124.268 -13.5742 L 124.268 -82.9102 C 124.268 -96.3379 117.188 -103.467 103.857 -103.467 L 36.4746 -103.467 C 23.0957 -103.467 16.0645 -96.3867 16.0645 -82.9102 L 16.0645 12.8906 C 16.0645 26.0254 23.1445 33.0566 36.2793 33.0566 Z M 102.637 -91.1133 C 108.838 -91.1133 111.914 -87.8906 111.914 -81.9336 L 111.914 -15.4785 C 111.914 -11.9141 109.912 -9.91211 106.25 -9.91211 L 44.3848 -9.91211 L 44.3848 -91.1133 Z M 28.418 -7.51953 L 28.418 -81.9336 C 28.418 -87.3047 30.8594 -90.4297 35.8398 -91.0156 L 35.8398 -9.86328 C 32.9102 -9.57031 30.5176 -8.78906 28.418 -7.51953 Z M 59.6191 -24.9512 C 62.0605 -24.9512 63.6719 -26.2207 64.502 -29.248 L 67.8223 -38.623 L 85.9375 -38.623 L 89.209 -29.248 C 90.0879 -26.2207 91.6504 -24.9512 94.1895 -24.9512 C 97.1191 -24.9512 98.9746 -26.709 98.9746 -29.4922 C 98.9746 -30.3711 98.7305 -31.3965 98.291 -32.8125 L 84.4727 -70.7031 C 83.1543 -74.5117 80.6152 -76.416 76.8066 -76.416 C 73.0469 -76.416 70.6055 -74.5605 69.2383 -70.7031 L 55.4688 -32.8125 C 54.9805 -31.3965 54.7852 -30.3711 54.7852 -29.4922 C 54.7852 -26.709 56.5918 -24.9512 59.6191 -24.9512 Z M 69.9707 -46.1426 L 76.6113 -66.3574 L 77.1484 -66.3574 L 83.7402 -46.1426 Z M 38.1836 21.6797 C 31.2012 21.6797 27.5391 17.627 27.5391 11.5234 C 27.5391 5.66406 31.5918 1.46484 38.5742 1.46484 L 101.514 1.46484 C 102.393 1.46484 103.223 1.41602 104.004 1.2207 C 100.586 8.20312 101.074 15.8203 104.932 21.6797 Z"/>
  </g>
  <g id="Medium-L" transform="matrix(1 0 0 1 1677.1 1556)">
   <path d="M 35.5469 32.666 L 117.773 32.666 C 120.654 32.666 122.852 30.4688 122.852 27.5391 C 122.852 25.1465 121.191 23.3398 119.189 22.4121 C 111.084 18.5059 109.424 7.8125 117.383 -0.0976562 C 120.361 -2.92969 122.803 -6.15234 122.803 -12.3535 L 122.803 -83.1055 C 122.803 -96.1914 116.064 -103.027 103.076 -103.027 L 35.791 -103.027 C 22.8027 -103.027 16.0645 -96.2402 16.0645 -83.1055 L 16.0645 13.2324 C 16.0645 25.9277 22.8027 32.666 35.5469 32.666 Z M 102.197 -92.2852 C 108.74 -92.2852 112.061 -88.8672 112.061 -82.5195 L 112.061 -13.916 C 112.061 -9.91211 109.814 -7.71484 105.762 -7.71484 L 42.2363 -7.71484 L 42.2363 -92.2852 Z M 26.8066 -4.98047 L 26.8066 -82.5195 C 26.8066 -88.0371 29.2969 -91.3574 34.2773 -92.0898 L 34.2773 -7.61719 C 31.3477 -7.27539 28.9062 -6.39648 26.8066 -4.98047 Z M 58.0078 -24.0234 C 60.1562 -24.0234 61.6211 -25.0977 62.4023 -27.832 L 66.2109 -38.623 L 85.3516 -38.623 L 89.1602 -27.832 C 89.9902 -25.1465 91.4062 -24.0234 93.6035 -24.0234 C 96.1914 -24.0234 97.9004 -25.6348 97.9004 -28.0762 C 97.9004 -28.9062 97.7051 -29.7363 97.2656 -31.0059 L 82.4219 -71.2891 C 81.2988 -74.5117 79.0527 -76.1719 75.7324 -76.1719 C 72.4609 -76.1719 70.3125 -74.5605 69.1406 -71.2891 L 54.2969 -31.0059 C 53.9062 -29.7363 53.7109 -28.9062 53.7109 -28.0762 C 53.7109 -25.6348 55.3223 -24.0234 58.0078 -24.0234 Z M 68.3105 -45.459 L 75.5371 -66.748 L 76.0742 -66.748 L 83.252 -45.459 Z M 36.8164 22.4121 C 29.9805 22.4121 26.3184 18.6035 26.3184 12.4023 C 26.3184 6.49414 30.4199 2.49023 37.207 2.49023 L 101.318 2.49023 C 102.344 2.49023 103.223 2.39258 104.102 2.19727 C 100.635 9.17969 101.27 16.6992 105.322 22.4121 Z"/>
  </g>
  <g id="Regular-L" transform="matrix(1 0 0 1 1381.36 1556)">
   <path d="M 34.5703 32.0801 L 116.602 32.0801 C 118.994 32.0801 120.898 30.1758 120.898 27.7344 C 120.898 25.9277 119.629 24.2676 117.969 23.6328 C 109.668 19.8242 107.861 9.375 115.82 1.12305 C 118.262 -1.36719 120.898 -4.6875 120.898 -10.791 L 120.898 -83.4473 C 120.898 -96.0449 114.6 -102.441 102.1 -102.441 L 34.8633 -102.441 C 22.3633 -102.441 16.0645 -96.0938 16.0645 -83.4473 L 16.0645 13.623 C 16.0645 25.7812 22.4121 32.0801 34.5703 32.0801 Z M 101.611 -93.7988 C 108.643 -93.7988 112.256 -90.0879 112.256 -83.252 L 112.256 -11.9141 C 112.256 -7.32422 109.717 -4.83398 105.078 -4.83398 L 39.4531 -4.83398 L 39.4531 -93.7988 Z M 24.707 -1.70898 L 24.707 -83.252 C 24.707 -89.0137 27.2949 -92.5293 32.2754 -93.5059 L 32.2754 -4.63867 C 29.248 -4.24805 26.8066 -3.27148 24.707 -1.70898 Z M 55.8594 -22.8516 C 57.6172 -22.8516 58.8379 -23.6816 59.5703 -25.9277 L 64.0625 -38.623 L 84.6191 -38.623 L 89.1113 -25.9277 C 89.8438 -23.6816 91.0645 -22.8516 92.8711 -22.8516 C 94.9707 -22.8516 96.4355 -24.2188 96.4355 -26.1719 C 96.4355 -26.9043 96.2402 -27.5879 95.8984 -28.6621 L 79.6875 -72.0703 C 78.7598 -74.5605 76.9043 -75.8301 74.3164 -75.8301 C 71.7285 -75.8301 69.9219 -74.5605 68.9941 -72.0703 L 52.7832 -28.6621 C 52.4414 -27.5879 52.2461 -26.9043 52.2461 -26.1719 C 52.2461 -24.1699 53.6621 -22.8516 55.8594 -22.8516 Z M 66.0645 -44.5312 L 74.0723 -67.2852 L 74.6094 -67.2852 L 82.6172 -44.5312 Z M 35.0098 23.4375 C 28.3691 23.4375 24.707 19.8242 24.707 13.5254 C 24.707 7.56836 28.8574 3.80859 35.4492 3.80859 L 101.025 3.80859 C 102.246 3.80859 103.271 3.66211 104.248 3.41797 C 100.781 10.4492 101.514 17.8711 105.811 23.4375 Z"/>
  </g>
  <g id="Light-L" transform="matrix(1 0 0 1 1085.43 1556)">
   <path d="M 33.3984 31.7871 L 116.064 31.7871 C 117.969 31.7871 119.336 30.3711 119.336 28.4668 C 119.336 27.0996 118.457 25.8301 117.236 25.3418 C 108.398 20.6055 106.396 9.96094 114.551 1.17188 C 117.041 -1.51367 119.336 -5.07812 119.336 -10.8887 L 119.336 -84.082 C 119.336 -95.9473 113.281 -102.051 101.514 -102.051 L 33.9355 -102.051 C 22.1191 -102.051 16.0645 -95.9961 16.0645 -84.082 L 16.0645 14.7461 C 16.0645 25.7812 22.168 31.7871 33.3984 31.7871 Z M 101.172 -95.459 C 108.789 -95.459 112.744 -91.4551 112.744 -83.9355 L 112.744 -11.6699 C 112.744 -5.51758 109.473 -2.29492 103.32 -2.29492 L 36.084 -2.29492 L 36.084 -95.459 Z M 22.7051 1.5625 L 22.7051 -83.9355 C 22.7051 -90.0879 25.293 -93.8477 30.4199 -95.0684 L 30.4199 -2.05078 C 27.1973 -1.5625 24.7559 -0.341797 22.7051 1.5625 Z M 54.3457 -21.7285 C 55.8105 -21.7285 56.7383 -22.4121 57.373 -24.2676 L 62.5 -38.5254 L 84.6191 -38.5254 L 89.7949 -24.2676 C 90.4297 -22.4609 91.3574 -21.7285 92.9199 -21.7285 C 94.6289 -21.7285 95.8008 -22.8516 95.8008 -24.4141 C 95.8008 -25.0488 95.6543 -25.5371 95.3613 -26.416 L 77.832 -72.998 C 77.0996 -75.0488 75.6348 -76.0254 73.584 -76.0254 C 71.4844 -76.0254 70.0684 -75.0488 69.2871 -72.998 L 51.7578 -26.416 C 51.4648 -25.5371 51.3672 -25.0488 51.3672 -24.4629 C 51.3672 -22.8027 52.4902 -21.7285 54.3457 -21.7285 Z M 64.2578 -43.5059 L 73.3887 -68.6523 L 73.7793 -68.6523 L 82.9102 -43.5059 Z M 33.7891 25.1465 C 26.6602 25.1465 22.7051 21.2891 22.7051 14.5996 C 22.7051 8.25195 27.002 4.29688 34.0332 4.29688 L 100.83 4.29688 C 102.539 4.29688 104.004 4.10156 105.371 3.71094 C 101.221 11.4258 102.393 19.5312 107.861 25.1465 Z"/>
  </g>
  <g id="Thin-L" transform="matrix(1 0 0 1 789.747 1556)">
   <path d="M 31.8848 31.3477 L 115.381 31.3477 C 116.553 31.3477 117.285 30.6152 117.285 29.3945 C 117.285 28.6621 116.846 27.9297 116.211 27.5879 C 106.738 21.7285 104.492 10.7422 112.842 1.2207 C 115.43 -1.70898 117.285 -5.56641 117.285 -11.0352 L 117.285 -84.9609 C 117.285 -95.8496 111.572 -101.562 100.732 -101.562 L 32.666 -101.562 C 21.7773 -101.562 16.0645 -95.8496 16.0645 -84.9609 L 16.0645 16.2109 C 16.0645 25.7812 21.875 31.3477 31.8848 31.3477 Z M 32.8613 -97.6562 L 100.537 -97.6562 C 108.984 -97.6562 113.379 -93.2617 113.379 -84.8145 L 113.379 -11.3281 C 113.379 -3.17383 109.131 1.07422 100.977 1.07422 L 31.6895 1.07422 L 31.6895 -97.6074 C 32.0801 -97.6562 32.4707 -97.6562 32.8613 -97.6562 Z M 19.9707 5.95703 L 19.9707 -84.8145 C 19.9707 -91.4551 22.7051 -95.6055 27.9785 -97.0703 L 27.9785 1.41602 C 24.4629 2.05078 22.0215 3.56445 19.9707 5.95703 Z M 52.1484 -20.3613 C 53.1738 -20.3613 53.6621 -20.752 54.1504 -22.0215 L 60.3027 -38.4766 L 84.5703 -38.4766 L 90.7227 -22.0215 C 91.1621 -20.8008 91.6992 -20.3613 92.8711 -20.3613 C 93.8965 -20.3613 94.7266 -21.0938 94.7266 -22.0703 C 94.7266 -22.5098 94.6289 -22.7539 94.4824 -23.3398 L 75.0977 -74.3164 C 74.6094 -75.6348 73.7305 -76.2695 72.4609 -76.2695 C 71.0938 -76.2695 70.2148 -75.6348 69.7754 -74.3164 L 50.3906 -23.3398 C 50.1953 -22.7539 50.0977 -22.5098 50.0977 -22.168 C 50.0977 -21.0449 50.8789 -20.3613 52.1484 -20.3613 Z M 61.6211 -42.0898 L 72.2656 -70.5566 L 72.5586 -70.5566 L 83.252 -42.0898 Z M 32.1289 27.4414 C 24.4629 27.4414 19.9707 23.2422 19.9707 16.0645 C 19.9707 9.13086 24.5117 4.98047 32.1777 4.98047 L 100.586 4.98047 C 102.979 4.98047 104.98 4.6875 106.885 4.10156 C 101.807 12.6465 103.516 21.6797 110.547 27.4414 Z"/>
  </g>
  <g id="Ultralight-L" transform="matrix(1 0 0 1 493.549 1556)">
   <path d="M 31.1523 31.1523 L 115.039 31.1523 C 115.82 31.1523 116.26 30.7129 116.26 29.8828 C 116.26 29.4434 116.016 29.0039 115.674 28.7598 C 105.908 22.2656 103.467 11.1816 112.012 1.26953 C 114.6 -1.75781 116.26 -5.81055 116.26 -11.084 L 116.26 -85.4492 C 116.26 -95.8008 110.693 -101.318 100.293 -101.318 L 31.9824 -101.318 C 21.6309 -101.318 16.0645 -95.8008 16.0645 -85.4492 L 16.0645 16.9434 C 16.0645 25.7812 21.6797 31.1523 31.1523 31.1523 Z M 32.1289 -98.7793 L 100.195 -98.7793 C 109.082 -98.7793 113.672 -94.1895 113.672 -85.2539 L 113.672 -11.1328 C 113.672 -1.95312 108.936 2.7832 99.7559 2.7832 L 31.0059 2.7832 C 30.4688 2.7832 29.9805 2.83203 29.4434 2.83203 L 29.4434 -98.6328 C 30.2734 -98.7305 31.2012 -98.7793 32.1289 -98.7793 Z M 18.6035 8.20312 L 18.6035 -85.2539 C 18.6035 -92.1387 21.3867 -96.4844 26.709 -98.0469 L 26.709 3.17383 C 23.0957 3.90625 20.6543 5.56641 18.6035 8.20312 Z M 50.9766 -19.6777 C 51.7578 -19.6777 52.0508 -19.9219 52.3926 -20.8496 L 59.082 -38.4766 L 84.4727 -38.4766 L 91.1621 -20.8496 C 91.5039 -20.0195 91.7969 -19.6777 92.7734 -19.6777 C 93.457 -19.6777 94.0918 -20.2148 94.0918 -20.8496 C 94.0918 -21.1914 93.9941 -21.2891 93.8965 -21.6797 L 73.5352 -75 C 73.2422 -75.9277 72.6562 -76.3184 71.8262 -76.3184 C 70.8984 -76.3184 70.3125 -75.9277 70.0195 -75 L 49.6582 -21.6797 C 49.5117 -21.2891 49.4629 -21.1914 49.4629 -20.9473 C 49.4629 -20.1172 50 -19.6777 50.9766 -19.6777 Z M 60.1562 -41.3574 L 71.6797 -71.5332 L 71.875 -71.5332 L 83.3984 -41.3574 Z M 31.25 28.5645 C 23.291 28.5645 18.6035 24.2188 18.6035 16.7969 C 18.6035 9.57031 23.2422 5.37109 31.2012 5.37109 L 100.439 5.37109 C 103.174 5.37109 105.469 5.0293 107.617 4.29688 C 102.1 13.2812 104.102 22.7539 111.963 28.5645 Z"/>
  </g>
  <g id="Black-M" transform="matrix(1 0 0 1 2874.88 1126)">
   <path d="M 31.9824 20.2148 L 97.0215 20.2148 C 101.562 20.2148 104.59 17.1875 104.59 12.6465 C 104.59 8.10547 101.562 6.20117 98.291 3.85742 C 93.0664 0.0488281 92.1875 -9.86328 98.6816 -14.502 C 103.955 -18.2617 104.395 -20.8008 104.395 -26.0254 L 104.395 -71.0938 C 104.395 -83.3496 97.1191 -90.625 84.8633 -90.625 L 31.9824 -90.625 C 19.7266 -90.625 12.4512 -83.3496 12.4512 -71.0938 L 12.4512 0.683594 C 12.4512 12.9395 19.7266 20.2148 31.9824 20.2148 Z M 30.7617 -27.3438 L 30.7617 -68.1641 C 30.7617 -70.9961 31.8359 -72.3145 34.9121 -72.3145 L 36.3281 -72.3145 L 36.3281 -27.7832 L 35.4004 -27.7832 C 33.8379 -27.7832 32.2266 -27.5879 30.7617 -27.3438 Z M 81.9336 -72.3145 C 85.0098 -72.3145 86.1328 -70.9961 86.1328 -68.1641 L 86.1328 -29.2969 C 86.1328 -28.3203 85.5469 -27.7832 84.4727 -27.7832 L 45.752 -27.7832 L 45.752 -72.3145 Z M 55.0293 -32.2754 C 58.4961 -32.2754 60.6445 -34.2285 61.4258 -38.1836 L 70.1172 -38.1836 C 70.8496 -34.2773 72.998 -32.2754 76.5137 -32.2754 C 80.6641 -32.2754 82.959 -34.5215 82.959 -38.5254 C 82.959 -39.502 82.666 -40.9668 82.0801 -42.9199 L 76.7578 -60.0098 C 74.9023 -66.0645 71.2891 -68.8477 65.625 -68.8477 C 60.0586 -68.8477 56.6895 -66.1133 54.7852 -60.0098 L 49.4629 -42.9199 C 48.877 -40.9668 48.5352 -39.502 48.5352 -38.5254 C 48.5352 -34.5215 50.8789 -32.2754 55.0293 -32.2754 Z M 63.4277 -47.4609 L 65.5762 -57.959 L 65.9668 -57.959 L 68.1152 -47.4609 Z M 37.3535 5.12695 C 30.8105 5.12695 27.7344 0.78125 27.7344 -3.75977 C 27.7344 -8.34961 30.8105 -12.6953 37.3047 -12.6953 L 80.4688 -12.6953 C 77.6367 -7.12891 77.5391 -0.341797 80.0781 5.12695 Z"/>
  </g>
  <g id="Heavy-M" transform="matrix(1 0 0 1 2579.34 1126)">
   <path d="M 30.9082 19.4824 L 95.5566 19.4824 C 99.5117 19.4824 102.246 16.748 102.246 12.793 C 102.246 8.93555 99.6582 7.08008 96.7773 5.17578 C 91.3086 1.66016 90.3809 -7.76367 96.7773 -12.7441 C 101.221 -16.0645 102.1 -18.5547 102.1 -23.7305 L 102.1 -71.3379 C 102.1 -83.1055 95.3125 -89.8926 83.5938 -89.8926 L 30.957 -89.8926 C 19.1895 -89.8926 12.4512 -83.1055 12.4512 -71.3379 L 12.4512 0.976562 C 12.4512 12.7441 19.1895 19.4824 30.9082 19.4824 Z M 28.2715 -23.5352 L 28.2715 -69.0918 C 28.2715 -72.4121 29.7363 -74.0723 33.252 -74.0723 L 33.9355 -74.0723 L 33.9355 -24.3164 L 33.7402 -24.3164 C 31.7383 -24.3164 29.9316 -24.0234 28.2715 -23.5352 Z M 81.25 -74.0723 C 84.8145 -74.0723 86.2793 -72.4121 86.2793 -69.0918 L 86.2793 -26.4648 C 86.2793 -25.0977 85.4492 -24.3164 83.9844 -24.3164 L 42.627 -24.3164 L 42.627 -74.0723 Z M 52.4902 -30.8594 C 55.5664 -30.8594 57.4707 -32.5684 58.2031 -36.1816 L 58.8867 -38.0859 L 69.043 -38.0859 L 69.7266 -36.1816 C 70.459 -32.5684 72.3633 -30.8594 75.4395 -30.8594 C 79.0527 -30.8594 81.1523 -32.9102 81.1523 -36.3281 C 81.1523 -37.2559 80.8594 -38.5254 80.3223 -40.2344 L 73.5352 -60.6934 C 71.875 -65.8691 68.75 -68.3105 63.8184 -68.3105 C 59.0332 -68.3105 56.0547 -65.918 54.3945 -60.6934 L 47.5586 -40.2344 C 47.0703 -38.5254 46.7773 -37.2559 46.7773 -36.3281 C 46.7773 -32.8613 48.877 -30.8594 52.4902 -30.8594 Z M 60.791 -46.4355 L 63.7695 -58.252 L 64.1602 -58.252 L 67.1387 -46.4355 Z M 35.1074 6.10352 C 28.9551 6.10352 25.9766 2.14844 25.9766 -2.44141 C 25.9766 -6.93359 29.0527 -10.9375 35.2051 -10.9375 L 79.4434 -10.9375 C 79.7363 -10.9375 80.0781 -10.9375 80.4199 -10.9863 C 77.6855 -5.51758 77.6855 0.927734 80.2734 6.10352 Z"/>
  </g>
  <g id="Bold-M" transform="matrix(1 0 0 1 2283.95 1126)">
   <path d="M 29.7363 18.6523 L 93.8477 18.6523 C 97.2168 18.6523 99.6094 16.2598 99.6094 12.9395 C 99.6094 9.81445 97.4609 8.05664 95.0684 6.64062 C 89.4043 3.51562 88.3301 -5.41992 94.5801 -10.791 C 98.1445 -13.623 99.5117 -16.0645 99.5117 -21.0938 L 99.5117 -71.6309 C 99.5117 -82.8613 93.3105 -89.0625 82.1777 -89.0625 L 29.7852 -89.0625 C 18.6035 -89.0625 12.4512 -82.8613 12.4512 -71.6309 L 12.4512 1.36719 C 12.4512 12.5 18.6035 18.6523 29.7363 18.6523 Z M 80.4688 -75.9766 C 84.5703 -75.9766 86.4258 -73.9746 86.4258 -70.1172 L 86.4258 -23.291 C 86.4258 -21.4844 85.3516 -20.459 83.4473 -20.459 L 39.1113 -20.459 L 39.1113 -75.9766 Z M 25.5371 -19.2383 L 25.5371 -70.1172 C 25.5371 -73.877 27.2949 -75.9277 31.2012 -75.9766 L 31.2012 -20.459 C 29.0527 -20.3613 27.1973 -19.9707 25.5371 -19.2383 Z M 49.6582 -29.248 C 52.1973 -29.248 53.8086 -30.6641 54.541 -33.6914 L 56.0059 -37.9883 L 67.8711 -37.9883 L 69.3359 -33.6914 C 70.0195 -30.6641 71.6309 -29.248 74.2188 -29.248 C 77.2461 -29.248 79.0527 -31.0059 79.0527 -33.8867 C 79.0527 -34.7168 78.8086 -35.7422 78.3691 -37.207 L 69.873 -61.5234 C 68.5059 -65.6738 65.8691 -67.6758 61.8164 -67.6758 C 57.9102 -67.6758 55.3711 -65.7227 54.0039 -61.5234 L 45.5078 -37.207 C 45.0684 -35.7422 44.8242 -34.7168 44.8242 -33.8867 C 44.8242 -31.0059 46.6309 -29.248 49.6582 -29.248 Z M 57.8613 -45.2148 L 61.7188 -58.5938 L 62.1582 -58.5938 L 66.0156 -45.2148 Z M 32.6172 7.17773 C 26.8555 7.17773 24.0234 3.66211 24.0234 -0.927734 C 24.0234 -5.37109 27.0996 -8.98438 32.8125 -8.98438 L 79.1016 -8.98438 C 79.4922 -8.98438 79.9316 -8.98438 80.3223 -9.08203 C 77.7344 -3.71094 77.8809 2.34375 80.4688 7.17773 Z"/>
  </g>
  <g id="Semibold-M" transform="matrix(1 0 0 1 1988.16 1126)">
   <path d="M 28.9062 18.1152 L 92.6758 18.1152 C 95.6055 18.1152 97.7539 15.9668 97.7539 13.0371 C 97.7539 10.4004 95.9961 8.74023 93.8965 7.66602 C 88.0371 4.78516 86.9141 -3.80859 93.1152 -9.42383 C 96.0449 -11.9141 97.7051 -14.3555 97.7051 -19.3359 L 97.7051 -71.8262 C 97.7051 -82.666 91.9434 -88.5254 81.1523 -88.5254 L 29.0039 -88.5254 C 18.2129 -88.5254 12.4512 -82.7148 12.4512 -71.8262 L 12.4512 1.61133 C 12.4512 12.3047 18.2129 18.1152 28.9062 18.1152 Z M 79.9805 -77.3438 C 84.375 -77.3438 86.5234 -75.0488 86.5234 -70.8496 L 86.5234 -21.1426 C 86.5234 -18.9941 85.3027 -17.7734 83.1055 -17.7734 L 36.6699 -17.7734 L 36.6699 -77.3438 Z M 23.6328 -16.3086 L 23.6328 -70.8496 C 23.6328 -74.8047 25.4883 -77.0508 29.3457 -77.2949 L 29.3457 -17.7734 C 27.1484 -17.627 25.293 -17.1387 23.6328 -16.3086 Z M 47.6562 -28.1738 C 49.8535 -28.1738 51.2695 -29.3457 51.9531 -31.9824 L 54.0039 -37.9395 L 67.041 -37.9395 L 69.0918 -31.9824 C 69.7754 -29.3457 71.1914 -28.1738 73.3887 -28.1738 C 75.9766 -28.1738 77.5879 -29.7363 77.5879 -32.1777 C 77.5879 -32.959 77.3926 -33.8379 77.002 -35.1074 L 67.2852 -62.1094 C 66.1133 -65.5762 63.8672 -67.2852 60.4492 -67.2852 C 57.0801 -67.2852 54.9316 -65.625 53.7598 -62.1094 L 44.043 -35.1074 C 43.6523 -33.8379 43.457 -32.959 43.457 -32.1777 C 43.457 -29.7363 45.0195 -28.1738 47.6562 -28.1738 Z M 55.8105 -44.4336 L 60.3027 -58.8379 L 60.7422 -58.8379 L 65.2344 -44.4336 Z M 30.8594 7.95898 C 25.4395 7.95898 22.6562 4.73633 22.6562 0.0976562 C 22.6562 -4.29688 25.7812 -7.61719 31.1523 -7.61719 L 78.8574 -7.61719 C 79.3457 -7.61719 79.834 -7.66602 80.2734 -7.76367 C 77.7832 -2.49023 77.9785 3.32031 80.6152 7.95898 Z"/>
  </g>
  <g id="Medium-M" transform="matrix(1 0 0 1 1692.14 1126)">
   <path d="M 28.2715 17.6758 L 91.7969 17.6758 C 94.3848 17.6758 96.3867 15.6738 96.3867 13.0859 C 96.3867 10.8887 94.873 9.27734 93.0176 8.39844 C 87.0117 5.71289 85.8398 -2.58789 91.9434 -8.39844 C 94.4336 -10.5957 96.3379 -13.0371 96.3379 -17.9688 L 96.3379 -72.0215 C 96.3379 -82.5684 90.918 -88.0859 80.4199 -88.0859 L 28.3691 -88.0859 C 17.9199 -88.0859 12.4512 -82.6172 12.4512 -72.0215 L 12.4512 1.75781 C 12.4512 12.207 17.9199 17.6758 28.2715 17.6758 Z M 79.541 -78.3691 C 84.2773 -78.3691 86.6211 -75.8789 86.6211 -71.3867 L 86.6211 -19.4824 C 86.6211 -17.0898 85.2539 -15.7715 82.8125 -15.7715 L 34.8633 -15.7715 L 34.8633 -78.3691 Z M 22.168 -14.0625 L 22.168 -71.3867 C 22.168 -75.4395 24.0723 -77.832 27.9297 -78.2715 L 27.9297 -15.7227 C 25.7324 -15.5273 23.8281 -14.9414 22.168 -14.0625 Z M 46.1426 -27.3438 C 48.0469 -27.3438 49.3164 -28.3203 50 -30.6641 L 52.4902 -37.9395 L 66.4062 -37.9395 L 68.8965 -30.6641 C 69.5801 -28.3203 70.8496 -27.3438 72.7539 -27.3438 C 75.0488 -27.3438 76.4648 -28.7598 76.4648 -30.8594 C 76.4648 -31.5918 76.3184 -32.373 75.9277 -33.4961 L 65.332 -62.5977 C 64.3066 -65.5273 62.3047 -66.9434 59.375 -66.9434 C 56.4941 -66.9434 54.5898 -65.5273 53.5645 -62.5977 L 42.9199 -33.4961 C 42.5781 -32.373 42.3828 -31.5918 42.3828 -30.9082 C 42.3828 -28.7109 43.8477 -27.3438 46.1426 -27.3438 Z M 54.248 -43.7988 L 59.2285 -59.0332 L 59.668 -59.0332 L 64.6484 -43.7988 Z M 29.5898 8.49609 C 24.3652 8.49609 21.6309 5.51758 21.6309 0.927734 C 21.6309 -3.51562 24.7559 -6.5918 29.9316 -6.5918 L 78.6621 -6.5918 C 79.1992 -6.5918 79.7363 -6.64062 80.2246 -6.73828 C 77.7832 -1.5625 78.0762 4.05273 80.7129 8.49609 Z"/>
  </g>
  <g id="Regular-M" transform="matrix(1 0 0 1 1396.33 1126)">
   <path d="M 27.4414 17.0898 L 90.6738 17.0898 C 92.8223 17.0898 94.5801 15.3809 94.5801 13.1836 C 94.5801 11.4746 93.4082 9.96094 91.8457 9.42383 C 85.6934 6.98242 84.4238 -0.976562 90.4785 -7.08008 C 92.334 -8.93555 94.5801 -11.3281 94.5801 -16.2109 L 94.5801 -72.2168 C 94.5801 -82.373 89.5508 -87.5488 79.4434 -87.5488 L 27.5879 -87.5488 C 17.4805 -87.5488 12.4512 -82.4219 12.4512 -72.2168 L 12.4512 2.00195 C 12.4512 12.0605 17.5293 17.0898 27.4414 17.0898 Z M 79.0527 -79.6875 C 84.1309 -79.6875 86.7188 -76.9531 86.7188 -72.0703 L 86.7188 -17.2852 C 86.7188 -14.6484 85.2051 -13.1348 82.4707 -13.1348 L 32.4707 -13.1348 L 32.4707 -79.6875 Z M 20.3125 -11.1328 L 20.3125 -72.0703 C 20.3125 -76.3184 22.2656 -78.9062 26.0742 -79.541 L 26.0742 -13.0371 C 23.8281 -12.793 21.9727 -12.1582 20.3125 -11.1328 Z M 44.1406 -26.2695 C 45.7031 -26.2695 46.7285 -27.002 47.4121 -28.9551 L 50.4883 -37.9395 L 65.5762 -37.9395 L 68.6523 -28.9551 C 69.2871 -27.002 70.3613 -26.2695 71.9238 -26.2695 C 73.7793 -26.2695 75 -27.4414 75 -29.1504 C 75 -29.834 74.8535 -30.4199 74.5605 -31.3477 L 62.7441 -63.2324 C 61.9141 -65.4297 60.3027 -66.5527 58.0078 -66.5527 C 55.7129 -66.5527 54.1504 -65.4297 53.3203 -63.2324 L 41.5039 -31.3477 C 41.1621 -30.4199 41.0156 -29.834 41.0156 -29.1992 C 41.0156 -27.4414 42.2852 -26.2695 44.1406 -26.2695 Z M 52.1973 -43.0176 L 57.8125 -59.3262 L 58.252 -59.3262 L 63.8672 -43.0176 Z M 27.8809 9.22852 C 22.9492 9.22852 20.3125 6.5918 20.3125 1.95312 C 20.3125 -2.44141 23.4375 -5.27344 28.3203 -5.27344 L 78.418 -5.27344 C 79.0527 -5.27344 79.6387 -5.32227 80.127 -5.41992 C 77.832 -0.341797 78.2227 5.0293 80.8105 9.22852 Z"/>
  </g>
  <g id="Light-M" transform="matrix(1 0 0 1 1100.33 1126)">
   <path d="M 26.416 16.8457 L 90.1855 16.8457 C 91.8945 16.8457 93.1641 15.5273 93.1641 13.8184 C 93.1641 12.5488 92.334 11.377 91.1621 10.9375 C 84.5703 7.71484 83.1055 -0.439453 89.3555 -7.03125 C 91.2598 -9.0332 93.1641 -11.6699 93.1641 -16.3086 L 93.1641 -72.8027 C 93.1641 -82.3242 88.3789 -87.207 78.9062 -87.207 L 26.709 -87.207 C 17.2852 -87.207 12.4512 -82.373 12.4512 -72.8027 L 12.4512 3.02734 C 12.4512 12.0605 17.2852 16.8457 26.416 16.8457 Z M 78.6133 -81.1523 C 84.2285 -81.1523 87.1582 -78.1738 87.1582 -72.6562 L 87.1582 -17.0898 C 87.1582 -13.0371 84.9609 -10.8398 80.8594 -10.8398 L 29.4922 -10.8398 L 29.4922 -81.1523 Z M 18.5059 -8.20312 L 18.5059 -72.6562 C 18.5059 -77.2461 20.5078 -80.0781 24.4141 -80.9082 L 24.4141 -10.6934 C 22.0215 -10.3516 20.1172 -9.47266 18.5059 -8.20312 Z M 42.8223 -25.293 C 44.0918 -25.293 44.9219 -25.8301 45.459 -27.4902 L 49.1699 -37.8418 L 65.625 -37.8418 L 69.2871 -27.4902 C 69.8242 -25.8789 70.7031 -25.293 72.0215 -25.293 C 73.5352 -25.293 74.5605 -26.2695 74.5605 -27.6367 C 74.5605 -28.1738 74.4141 -28.6621 74.1699 -29.3945 L 61.1816 -64.0625 C 60.5469 -65.8691 59.2285 -66.748 57.373 -66.748 C 55.5176 -66.748 54.248 -65.8691 53.5645 -64.0625 L 40.5762 -29.3945 C 40.332 -28.6621 40.2344 -28.1738 40.2344 -27.6855 C 40.2344 -26.2207 41.2109 -25.293 42.8223 -25.293 Z M 50.6348 -42.0898 L 57.1777 -60.498 L 57.5684 -60.498 L 64.1602 -42.0898 Z M 26.7578 10.791 C 21.4355 10.791 18.5059 7.91016 18.5059 2.92969 C 18.5059 -1.80664 21.7285 -4.83398 27.002 -4.83398 L 78.2227 -4.83398 C 79.3457 -4.83398 80.2734 -4.93164 81.1523 -5.17578 C 78.2227 0.488281 78.9551 6.44531 82.666 10.791 Z"/>
  </g>
  <g id="Thin-M" transform="matrix(1 0 0 1 804.518 1126)">
   <path d="M 25.0488 16.4551 L 89.5996 16.4551 C 90.625 16.4551 91.3574 15.7227 91.3574 14.6484 C 91.3574 13.916 90.918 13.2812 90.2832 12.9883 C 83.0566 8.64258 81.3965 0.244141 87.8418 -6.98242 C 89.7949 -9.17969 91.3574 -12.1094 91.3574 -16.4551 L 91.3574 -73.584 C 91.3574 -82.2266 86.8164 -86.7676 78.2227 -86.7676 L 25.5859 -86.7676 C 16.9434 -86.7676 12.4512 -82.2266 12.4512 -73.584 L 12.4512 4.29688 C 12.4512 12.0605 16.9922 16.4551 25.0488 16.4551 Z M 25.7324 -83.1543 L 78.0273 -83.1543 C 84.4238 -83.1543 87.7441 -79.7852 87.7441 -73.4863 L 87.7441 -16.748 C 87.7441 -10.8887 84.6191 -7.8125 78.7598 -7.8125 L 25.5371 -7.8125 L 25.5371 -83.1543 C 25.7324 -83.1543 25.7324 -83.1543 25.7324 -83.1543 Z M 16.0645 -4.24805 L 16.0645 -73.4863 C 16.0645 -78.5156 18.1641 -81.6406 22.2168 -82.7148 L 22.2168 -7.56836 C 19.5801 -7.12891 17.6758 -6.00586 16.0645 -4.24805 Z M 40.918 -23.9746 C 41.7969 -23.9746 42.2852 -24.3652 42.6758 -25.4883 L 47.2168 -37.7441 L 65.5762 -37.7441 L 70.1172 -25.4883 C 70.5078 -24.4141 70.9961 -23.9746 71.9727 -23.9746 C 72.9492 -23.9746 73.6816 -24.6582 73.6816 -25.5371 C 73.6816 -25.9277 73.584 -26.1719 73.4375 -26.709 L 58.8379 -65.2344 C 58.3984 -66.4062 57.5684 -66.9922 56.3965 -66.9922 C 55.1758 -66.9922 54.3945 -66.4062 53.9551 -65.2344 L 39.3555 -26.709 C 39.209 -26.1719 39.1113 -25.9277 39.1113 -25.5859 C 39.1113 -24.6094 39.7949 -23.9746 40.918 -23.9746 Z M 48.3398 -40.8691 L 56.25 -62.1582 L 56.4941 -62.1582 L 64.4531 -40.8691 Z M 25.2441 12.8418 C 19.4336 12.8418 16.0645 9.66797 16.0645 4.19922 C 16.0645 -1.02539 19.5312 -4.19922 25.3418 -4.19922 L 78.0273 -4.19922 C 79.6875 -4.19922 81.1523 -4.39453 82.5195 -4.83398 C 78.7598 1.61133 79.9805 8.39844 85.1074 12.8418 Z"/>
  </g>
  <g id="Ultralight-M" transform="matrix(1 0 0 1 508.295 1126)">
   <path d="M 24.3652 16.2598 L 89.2578 16.2598 C 89.9902 16.2598 90.3809 15.8691 90.3809 15.0879 C 90.3809 14.6484 90.1855 14.2578 89.8438 14.0137 C 82.3242 9.13086 80.5176 0.585938 87.0605 -6.98242 C 89.0625 -9.27734 90.3809 -12.3535 90.3809 -16.5039 L 90.3809 -73.9746 C 90.3809 -82.1777 86.0352 -86.5234 77.8809 -86.5234 L 25 -86.5234 C 16.7969 -86.5234 12.4512 -82.1777 12.4512 -73.9746 L 12.4512 4.98047 C 12.4512 12.0605 16.8457 16.2598 24.3652 16.2598 Z M 25.0977 -84.1309 L 77.7344 -84.1309 C 84.5215 -84.1309 87.9883 -80.6152 87.9883 -73.877 L 87.9883 -16.6016 C 87.9883 -9.81445 84.4727 -6.29883 77.6855 -6.29883 L 24.3652 -6.29883 C 24.0723 -6.29883 23.7793 -6.25 23.4863 -6.25 L 23.4863 -84.082 C 24.0234 -84.1309 24.5605 -84.1309 25.0977 -84.1309 Z M 14.8438 -2.24609 L 14.8438 -73.877 C 14.8438 -79.1504 16.9434 -82.4219 21.0938 -83.6426 L 21.0938 -6.00586 C 18.3105 -5.46875 16.4062 -4.19922 14.8438 -2.24609 Z M 39.8438 -23.3887 C 40.5273 -23.3887 40.8203 -23.584 41.1133 -24.4629 L 46.1426 -37.7441 L 65.4785 -37.7441 L 70.5078 -24.4629 C 70.8008 -23.6816 71.0938 -23.3887 71.9238 -23.3887 C 72.5586 -23.3887 73.0957 -23.8281 73.0957 -24.4629 C 73.0957 -24.7559 73.0469 -24.8535 72.9492 -25.2441 L 57.4707 -65.8691 C 57.1777 -66.6992 56.6406 -67.041 55.8594 -67.041 C 54.9805 -67.041 54.4434 -66.6992 54.1504 -65.8691 L 38.7207 -25.2441 C 38.5742 -24.8535 38.5254 -24.7559 38.5254 -24.5117 C 38.5254 -23.7793 39.0137 -23.3887 39.8438 -23.3887 Z M 47.0703 -40.1855 L 55.7129 -63.0859 L 55.9082 -63.0859 L 64.5508 -40.1855 Z M 24.4629 13.8672 C 18.4082 13.8672 14.8438 10.5469 14.8438 4.88281 C 14.8438 -0.634766 18.4082 -3.90625 24.4629 -3.90625 L 77.8809 -3.90625 C 79.8828 -3.90625 81.5918 -4.15039 83.2031 -4.63867 C 79.0527 2.19727 80.4688 9.375 86.3281 13.8672 Z"/>
  </g>
  <g id="Black-S" transform="matrix(1 0 0 1 2887.62 696)">
   <path d="M 25 8.1543 L 75.9277 8.1543 C 79.4434 8.1543 81.7871 5.81055 81.7871 2.29492 C 81.7871 -1.2207 79.4434 -2.73438 76.9043 -4.54102 C 72.8027 -7.4707 72.1191 -15.1855 77.1973 -18.8477 C 81.25 -21.7773 81.6406 -23.7305 81.6406 -27.832 L 81.6406 -63.3301 C 81.6406 -72.9004 75.9766 -78.5645 66.4062 -78.5645 L 25 -78.5645 C 15.4297 -78.5645 9.76562 -72.9004 9.76562 -63.3301 L 9.76562 -7.08008 C 9.76562 2.49023 15.4297 8.1543 25 8.1543 Z M 23.9258 -28.8086 L 23.9258 -61.084 C 23.9258 -63.3301 24.8047 -64.4043 27.2461 -64.4043 L 28.3203 -64.4043 L 28.3203 -29.1504 L 27.6367 -29.1504 C 26.3672 -29.1504 25.0977 -29.0039 23.9258 -28.8086 Z M 64.1602 -64.4043 C 66.6016 -64.4043 67.4805 -63.3301 67.4805 -61.084 L 67.4805 -30.3711 C 67.4805 -29.5898 67.041 -29.1504 66.1621 -29.1504 L 35.6445 -29.1504 L 35.6445 -64.4043 Z M 42.9199 -32.8125 C 45.6543 -32.8125 47.3145 -34.375 47.9492 -37.5488 L 54.8828 -37.5488 C 55.4688 -34.375 57.1289 -32.8125 59.8633 -32.8125 C 63.0859 -32.8125 64.8926 -34.5703 64.8926 -37.6465 C 64.8926 -38.4277 64.6484 -39.5508 64.209 -41.0645 L 59.9121 -54.6875 C 58.4473 -59.375 55.6641 -61.5234 51.2695 -61.5234 C 47.0215 -61.5234 44.3848 -59.375 42.8711 -54.6875 L 38.623 -41.0645 C 38.1836 -39.5508 37.9395 -38.4277 37.9395 -37.6465 C 37.9395 -34.5703 39.7461 -32.8125 42.9199 -32.8125 Z M 49.5117 -44.7266 L 51.2207 -53.0762 L 51.5625 -53.0762 L 53.3203 -44.7266 Z M 29.1016 -3.56445 C 24.0234 -3.56445 21.6309 -6.93359 21.6309 -10.498 C 21.6309 -14.0625 24.0234 -17.4316 29.1016 -17.4316 L 63.0371 -17.4316 C 60.8398 -13.0859 60.7422 -7.8125 62.7441 -3.56445 Z"/>
  </g>
  <g id="Heavy-S" transform="matrix(1 0 0 1 2591.74 696)">
   <path d="M 24.3164 7.61719 L 74.8047 7.61719 C 77.9785 7.61719 80.127 5.46875 80.127 2.29492 C 80.127 -0.732422 78.0762 -2.19727 75.8301 -3.71094 C 71.582 -6.29883 70.8496 -13.623 75.8301 -17.5293 C 79.2969 -20.0684 80.0293 -21.9727 80.0293 -26.0254 L 80.0293 -63.4766 C 80.0293 -72.7539 74.7559 -78.0273 65.4785 -78.0273 L 24.3164 -78.0273 C 15.0391 -78.0273 9.76562 -72.7539 9.76562 -63.4766 L 9.76562 -6.93359 C 9.76562 2.34375 15.0391 7.61719 24.3164 7.61719 Z M 22.2656 -26.2207 L 22.2656 -61.7188 C 22.2656 -64.2578 23.3887 -65.5762 26.0742 -65.5762 L 26.6602 -65.5762 L 26.6602 -26.7578 L 26.5137 -26.7578 C 25 -26.7578 23.5352 -26.5625 22.2656 -26.2207 Z M 63.6719 -65.5762 C 66.4062 -65.5762 67.5293 -64.2578 67.5293 -61.7188 L 67.5293 -28.2227 C 67.5293 -27.2949 66.9922 -26.7578 65.9668 -26.7578 L 33.5938 -26.7578 L 33.5938 -65.5762 Z M 41.1133 -31.8359 C 43.5059 -31.8359 45.0195 -33.2031 45.6055 -35.9863 L 46.0938 -37.5 L 54.0039 -37.5 L 54.541 -35.9863 C 55.127 -33.2031 56.5918 -31.8359 59.0332 -31.8359 C 61.8164 -31.8359 63.4766 -33.4473 63.4766 -36.1328 C 63.4766 -36.8652 63.2812 -37.8418 62.8418 -39.209 L 57.5195 -55.1758 C 56.25 -59.1797 53.8086 -61.084 49.9512 -61.084 C 46.2402 -61.084 43.8965 -59.2285 42.5781 -55.1758 L 37.2559 -39.209 C 36.8652 -37.8418 36.6699 -36.8652 36.6699 -36.1328 C 36.6699 -33.4473 38.2812 -31.8359 41.1133 -31.8359 Z M 47.6562 -44.043 L 49.9023 -53.1738 L 50.2441 -53.1738 L 52.4902 -44.043 Z M 27.5391 -2.97852 C 22.7539 -2.97852 20.5078 -6.05469 20.5078 -9.57031 C 20.5078 -13.0371 22.9004 -16.1621 27.6367 -16.1621 L 62.2559 -16.1621 C 62.4512 -16.1621 62.6465 -16.1621 62.8906 -16.1621 C 60.8398 -11.9629 60.791 -7.03125 62.6953 -2.97852 Z"/>
  </g>
  <g id="Bold-S" transform="matrix(1 0 0 1 2295.96 696)">
   <path d="M 23.4863 7.03125 L 73.584 7.03125 C 76.3184 7.03125 78.2715 5.07812 78.2715 2.34375 C 78.2715 -0.195312 76.5625 -1.61133 74.6094 -2.7832 C 70.2637 -4.98047 69.4336 -11.9141 74.3164 -16.0156 C 77.0508 -18.1641 78.2227 -20.0684 78.2227 -24.0723 L 78.2227 -63.623 C 78.2227 -72.5586 73.3398 -77.4414 64.4531 -77.4414 L 23.5352 -77.4414 C 14.6484 -77.4414 9.76562 -72.5586 9.76562 -63.623 L 9.76562 -6.78711 C 9.76562 2.14844 14.6484 7.03125 23.4863 7.03125 Z M 63.1348 -66.8457 C 66.2109 -66.8457 67.627 -65.332 67.627 -62.4512 L 67.627 -25.8301 C 67.627 -24.707 66.9434 -24.0723 65.7715 -24.0723 L 31.25 -24.0723 L 31.25 -66.8457 Z M 20.3613 -23.291 L 20.3613 -62.4512 C 20.3613 -65.332 21.7285 -66.8457 24.7559 -66.8457 L 24.7559 -24.0723 C 23.1934 -24.0234 21.6797 -23.7793 20.3613 -23.291 Z M 39.0625 -30.7617 C 41.1133 -30.7617 42.3828 -31.8359 42.9688 -34.2773 L 44.043 -37.4512 L 53.0762 -37.4512 L 54.1504 -34.2773 C 54.7363 -31.8359 56.0059 -30.7617 58.0566 -30.7617 C 60.4492 -30.7617 61.9141 -32.1777 61.9141 -34.4238 C 61.9141 -35.1074 61.7188 -35.9375 61.377 -37.1094 L 54.8828 -55.7129 C 53.8086 -58.9844 51.709 -60.5957 48.4863 -60.5957 C 45.3613 -60.5957 43.3594 -59.0332 42.2363 -55.7129 L 35.7422 -37.1094 C 35.4004 -35.9375 35.2051 -35.1074 35.2051 -34.4238 C 35.2051 -32.1777 36.6699 -30.7617 39.0625 -30.7617 Z M 45.5566 -43.2129 L 48.3887 -53.3203 L 48.7305 -53.3203 L 51.5625 -43.2129 Z M 25.7324 -2.34375 C 21.3867 -2.34375 19.2383 -5.0293 19.2383 -8.54492 C 19.2383 -11.9629 21.582 -14.6973 25.9277 -14.6973 L 62.0117 -14.6973 C 62.207 -14.6973 62.4512 -14.6973 62.6953 -14.7461 C 60.8398 -10.6934 60.8398 -6.10352 62.5977 -2.34375 Z"/>
  </g>
  <g id="Semibold-S" transform="matrix(1 0 0 1 1999.88 696)">
   <path d="M 22.9492 6.64062 L 72.7539 6.64062 C 75.1953 6.64062 77.002 4.78516 77.002 2.34375 C 77.002 0.195312 75.5371 -1.2207 73.7793 -2.09961 C 69.3359 -4.10156 68.5059 -10.7422 73.291 -14.9902 C 75.5371 -16.8457 76.9531 -18.7012 76.9531 -22.7051 L 76.9531 -63.7207 C 76.9531 -72.4121 72.4121 -77.0508 63.7695 -77.0508 L 22.998 -77.0508 C 14.3555 -77.0508 9.76562 -72.4609 9.76562 -63.7207 L 9.76562 -6.68945 C 9.76562 2.00195 14.3555 6.64062 22.9492 6.64062 Z M 62.793 -67.7734 C 66.0645 -67.7734 67.6758 -66.0645 67.6758 -62.9395 L 67.6758 -24.1699 C 67.6758 -22.9492 66.8945 -22.2656 65.625 -22.2656 L 29.6875 -22.2656 L 29.6875 -67.7734 Z M 19.0918 -21.2891 L 19.0918 -62.9395 C 19.0918 -65.918 20.5078 -67.5781 23.4863 -67.7246 L 23.4863 -22.2168 C 21.875 -22.1191 20.3613 -21.8262 19.0918 -21.2891 Z M 37.6465 -30.0293 C 39.4043 -30.0293 40.5762 -30.957 41.1621 -33.1055 L 42.627 -37.4512 L 52.4414 -37.4512 L 53.9062 -33.1055 C 54.4434 -30.957 55.6152 -30.0293 57.373 -30.0293 C 59.5215 -30.0293 60.791 -31.25 60.791 -33.252 C 60.791 -33.8867 60.6445 -34.6191 60.3027 -35.6445 L 53.0273 -56.1035 C 52.0996 -58.8379 50.2441 -60.2051 47.4609 -60.2051 C 44.7754 -60.2051 42.9688 -58.8867 42.041 -56.1035 L 34.7168 -35.6445 C 34.375 -34.6191 34.2285 -33.8867 34.2285 -33.252 C 34.2285 -31.25 35.5469 -30.0293 37.6465 -30.0293 Z M 44.0918 -42.6758 L 47.3633 -53.418 L 47.7051 -53.418 L 50.9766 -42.6758 Z M 24.5117 -1.9043 C 20.4102 -1.9043 18.3594 -4.3457 18.3594 -7.8125 C 18.3594 -11.1816 20.7031 -13.7207 24.8047 -13.7207 L 61.8164 -13.7207 C 62.0605 -13.7207 62.3047 -13.7207 62.5488 -13.7207 C 60.791 -9.81445 60.8398 -5.51758 62.5488 -1.9043 Z"/>
  </g>
  <g id="Medium-S" transform="matrix(1 0 0 1 1703.66 696)">
   <path d="M 22.5586 6.29883 L 72.1191 6.29883 C 74.3164 6.29883 76.0254 4.58984 76.0254 2.39258 C 76.0254 0.488281 74.7559 -0.927734 73.1445 -1.61133 C 68.6035 -3.41797 67.7246 -9.81445 72.5098 -14.209 C 74.3652 -15.8691 76.0254 -17.6758 76.0254 -21.6309 L 76.0254 -63.8184 C 76.0254 -72.3145 71.6797 -76.7578 63.2324 -76.7578 L 22.5586 -76.7578 C 14.1113 -76.7578 9.76562 -72.3633 9.76562 -63.8184 L 9.76562 -6.64062 C 9.76562 1.95312 14.1113 6.29883 22.5586 6.29883 Z M 62.5 -68.457 C 65.9668 -68.457 67.6758 -66.6016 67.6758 -63.3301 L 67.6758 -22.9492 C 67.6758 -21.6309 66.8945 -20.8496 65.5273 -20.8496 L 28.4668 -20.8496 L 28.4668 -68.457 Z M 18.0664 -19.7754 L 18.0664 -63.3301 C 18.0664 -66.3574 19.5801 -68.1641 22.5098 -68.4082 L 22.5098 -20.8008 C 20.8984 -20.7031 19.3848 -20.3613 18.0664 -19.7754 Z M 36.5723 -29.4434 C 38.1348 -29.4434 39.209 -30.2246 39.7949 -32.1777 L 41.5527 -37.4512 L 51.9531 -37.4512 L 53.7109 -32.1777 C 54.248 -30.2246 55.3223 -29.4434 56.8848 -29.4434 C 58.7891 -29.4434 60.0098 -30.6152 60.0098 -32.373 C 60.0098 -32.959 59.8633 -33.6426 59.5215 -34.5215 L 51.6113 -56.3477 C 50.7812 -58.7891 49.1211 -59.9609 46.6797 -59.9609 C 44.2871 -59.9609 42.7246 -58.7891 41.8457 -56.3477 L 33.9355 -34.5215 C 33.6426 -33.6426 33.4961 -32.959 33.4961 -32.373 C 33.4961 -30.6152 34.668 -29.4434 36.5723 -29.4434 Z M 42.9688 -42.2852 L 46.5332 -53.4668 L 46.9238 -53.4668 L 50.4883 -42.2852 Z M 23.584 -1.5625 C 19.6777 -1.5625 17.6758 -3.80859 17.6758 -7.27539 C 17.6758 -10.5957 20.0684 -12.9883 23.9258 -12.9883 L 61.7188 -12.9883 C 61.9629 -12.9883 62.207 -12.9883 62.4512 -12.9883 C 60.791 -9.17969 60.8887 -5.0293 62.5 -1.5625 Z"/>
  </g>
  <g id="Regular-S" transform="matrix(1 0 0 1 1407.56 696)">
   <path d="M 22.0215 5.9082 L 71.2891 5.9082 C 73.1934 5.9082 74.8047 4.3457 74.8047 2.39258 C 74.8047 0.830078 73.7305 -0.488281 72.3145 -0.976562 C 67.6758 -2.53906 66.7969 -8.64258 71.4355 -13.1836 C 72.9004 -14.5508 74.8047 -16.3574 74.8047 -20.2637 L 74.8047 -63.916 C 74.8047 -72.2168 70.7031 -76.3672 62.5 -76.3672 L 22.0215 -76.3672 C 13.8184 -76.3672 9.76562 -72.2656 9.76562 -63.916 L 9.76562 -6.54297 C 9.76562 1.80664 13.8184 5.9082 22.0215 5.9082 Z M 62.1582 -69.3359 C 65.8203 -69.3359 67.7246 -67.334 67.7246 -63.8184 L 67.7246 -21.2891 C 67.7246 -19.873 66.8457 -19.043 65.3809 -19.043 L 26.9043 -19.043 L 26.9043 -69.3359 Z M 16.7969 -17.8223 L 16.7969 -63.8184 C 16.7969 -66.9434 18.3105 -68.8477 21.2402 -69.2383 L 21.2402 -18.9453 C 19.5801 -18.7988 18.1152 -18.4082 16.7969 -17.8223 Z M 35.2051 -28.7109 C 36.4746 -28.7109 37.4512 -29.3457 37.9883 -31.0059 L 40.1367 -37.4512 L 51.3184 -37.4512 L 53.418 -31.0059 C 54.0039 -29.3457 54.9316 -28.7109 56.25 -28.7109 C 57.8613 -28.7109 58.8867 -29.7363 58.8867 -31.2012 C 58.8867 -31.7871 58.7891 -32.3242 58.4961 -33.1055 L 49.8047 -56.7383 C 49.0723 -58.6426 47.6562 -59.6191 45.6543 -59.6191 C 43.7012 -59.6191 42.334 -58.6426 41.6504 -56.7383 L 32.9102 -33.1055 C 32.6172 -32.3242 32.5195 -31.7871 32.5195 -31.2012 C 32.5195 -29.7363 33.5938 -28.7109 35.2051 -28.7109 Z M 41.5527 -41.748 L 45.5078 -53.5645 L 45.8984 -53.5645 L 49.8535 -41.748 Z M 22.3633 -1.12305 C 18.7012 -1.12305 16.7969 -3.125 16.7969 -6.5918 C 16.7969 -9.81445 19.1895 -12.0117 22.8027 -12.0117 L 61.5234 -12.0117 C 61.8164 -12.0117 62.0605 -12.0117 62.3047 -12.0117 C 60.791 -8.30078 60.8887 -4.39453 62.4512 -1.12305 Z"/>
  </g>
  <g id="Light-S" transform="matrix(1 0 0 1 1111.48 696)">
   <path d="M 21.0938 5.66406 L 70.8496 5.66406 C 72.3633 5.66406 73.5352 4.49219 73.5352 2.92969 C 73.5352 1.80664 72.7539 0.732422 71.7285 0.341797 C 66.6992 -1.85547 65.625 -8.20312 70.459 -13.1348 C 71.9238 -14.6484 73.5352 -16.6504 73.5352 -20.3613 L 73.5352 -64.4531 C 73.5352 -72.168 69.6777 -76.0742 62.0605 -76.0742 L 21.2891 -76.0742 C 13.623 -76.0742 9.76562 -72.168 9.76562 -64.4531 L 9.76562 -5.66406 C 9.76562 1.80664 13.623 5.66406 21.0938 5.66406 Z M 61.7676 -70.6543 C 65.9668 -70.6543 68.1152 -68.4082 68.1152 -64.3555 L 68.1152 -21.0938 C 68.1152 -18.457 66.6504 -16.9922 63.9648 -16.9922 L 24.2188 -16.9922 L 24.2188 -70.6543 Z M 15.1855 -15.1855 L 15.1855 -64.3555 C 15.1855 -67.7734 16.748 -69.9219 19.7754 -70.5078 L 19.7754 -16.8945 C 17.9688 -16.6504 16.4551 -16.0645 15.1855 -15.1855 Z M 34.082 -27.7832 C 35.1562 -27.7832 35.8887 -28.3203 36.377 -29.7363 L 39.0137 -37.3047 L 51.3672 -37.3047 L 54.0527 -29.7363 C 54.4922 -28.3203 55.2734 -27.7832 56.3965 -27.7832 C 57.7148 -27.7832 58.5938 -28.6621 58.5938 -29.8828 C 58.5938 -30.3223 58.4961 -30.7617 58.252 -31.3965 L 48.5352 -57.5195 C 47.9492 -59.082 46.8262 -59.8633 45.166 -59.8633 C 43.5547 -59.8633 42.4316 -59.082 41.8457 -57.5195 L 32.1289 -31.3965 C 31.9336 -30.7617 31.8359 -30.3223 31.8359 -29.8828 C 31.8359 -28.6621 32.7148 -27.7832 34.082 -27.7832 Z M 40.2832 -40.9668 L 45.0195 -54.5898 L 45.3613 -54.5898 L 50.1465 -40.9668 Z M 21.3867 0.244141 C 17.3828 0.244141 15.1855 -1.95312 15.1855 -5.71289 C 15.1855 -9.27734 17.6758 -11.5723 21.6797 -11.5723 L 61.377 -11.5723 C 62.0605 -11.5723 62.6465 -11.6699 63.2324 -11.7676 C 61.1328 -7.56836 61.5723 -3.125 64.0625 0.244141 Z"/>
  </g>
  <g id="Thin-S" transform="matrix(1 0 0 1 815.578 696)">
   <path d="M 19.9219 5.32227 L 70.3125 5.32227 C 71.2402 5.32227 71.9238 4.63867 71.9238 3.66211 C 71.9238 3.02734 71.4844 2.39258 70.8984 2.14844 C 65.3809 -1.02539 64.1113 -7.56836 69.0918 -13.1348 C 70.6543 -14.7949 71.9238 -17.041 71.9238 -20.459 L 71.9238 -65.1367 C 71.9238 -72.0703 68.3594 -75.6836 61.4258 -75.6836 L 20.2637 -75.6836 C 13.3789 -75.6836 9.76562 -72.0703 9.76562 -65.1367 L 9.76562 -4.49219 C 9.76562 1.80664 13.3789 5.32227 19.9219 5.32227 Z M 61.2793 -72.3633 C 66.1133 -72.3633 68.6035 -69.8242 68.6035 -65.0391 L 68.6035 -20.8496 C 68.6035 -16.5527 66.4062 -14.3555 62.1094 -14.3555 L 20.752 -14.3555 L 20.752 -72.3633 Z M 13.0859 -11.7188 L 13.0859 -65.0391 C 13.0859 -68.8965 14.6973 -71.2891 17.8223 -72.0703 L 17.8223 -14.1602 C 15.8203 -13.8184 14.3066 -12.9883 13.0859 -11.7188 Z M 32.4219 -26.6602 C 33.2031 -26.6602 33.6426 -27.002 33.9844 -27.9785 L 37.4023 -37.207 L 51.3672 -37.207 L 54.7852 -27.9785 C 55.127 -27.0508 55.5664 -26.6602 56.4453 -26.6602 C 57.2754 -26.6602 57.9102 -27.2461 57.9102 -28.0273 C 57.9102 -28.3691 57.8613 -28.6133 57.7148 -29.0527 L 46.582 -58.5449 C 46.1914 -59.5703 45.459 -60.0586 44.3848 -60.0586 C 43.3105 -60.0586 42.5781 -59.5703 42.1875 -58.5449 L 31.1035 -29.0527 C 30.9082 -28.6133 30.8594 -28.3691 30.8594 -28.0762 C 30.8594 -27.1973 31.4453 -26.6602 32.4219 -26.6602 Z M 38.3301 -39.8926 L 44.2871 -56.0059 L 44.4824 -56.0059 L 50.4395 -39.8926 Z M 20.0684 2.05078 C 15.625 2.05078 13.0859 -0.390625 13.0859 -4.58984 C 13.0859 -8.59375 15.7227 -11.0352 20.166 -11.0352 L 61.1816 -11.0352 C 62.4023 -11.0352 63.4277 -11.1816 64.4043 -11.4746 C 61.6211 -6.5918 62.4512 -1.41602 66.2109 2.05078 Z"/>
  </g>
  <g id="Ultralight-S" transform="matrix(1 0 0 1 519.281 696)">
   <path d="M 19.2871 5.17578 L 70.0195 5.17578 C 70.7031 5.17578 71.0938 4.78516 71.0938 4.05273 C 71.0938 3.66211 70.8496 3.27148 70.5078 3.07617 C 64.6973 -0.585938 63.3301 -7.22656 68.4082 -13.0859 C 69.9707 -14.8926 71.0938 -17.2363 71.0938 -20.5566 L 71.0938 -65.4785 C 71.0938 -72.0215 67.627 -75.4883 61.084 -75.4883 L 19.7266 -75.4883 C 13.2324 -75.4883 9.76562 -72.0215 9.76562 -65.4785 L 9.76562 -3.90625 C 9.76562 1.80664 13.2812 5.17578 19.2871 5.17578 Z M 19.873 -73.291 L 60.9863 -73.291 C 66.2109 -73.291 68.8965 -70.6055 68.8965 -65.3809 L 68.8965 -20.7031 C 68.8965 -15.625 66.2598 -12.9395 61.1328 -12.9395 L 19.3359 -12.9395 C 19.1895 -12.9395 19.0918 -12.9395 18.9453 -12.9395 L 18.9453 -73.2422 C 19.2383 -73.291 19.5312 -73.291 19.873 -73.291 Z M 11.9629 -9.91211 L 11.9629 -65.3809 C 11.9629 -69.4336 13.623 -71.9727 16.8457 -72.9004 L 16.8457 -12.7441 C 14.6973 -12.3535 13.1836 -11.4258 11.9629 -9.91211 Z M 31.543 -26.123 C 32.1289 -26.123 32.373 -26.3184 32.666 -27.0508 L 36.4746 -37.207 L 51.3672 -37.207 L 55.1758 -27.0508 C 55.4199 -26.3672 55.7129 -26.123 56.3965 -26.123 C 56.9824 -26.123 57.4707 -26.5137 57.4707 -27.0996 C 57.4707 -27.3438 57.4219 -27.4902 57.2754 -27.7832 L 45.4102 -59.0332 C 45.1172 -59.8145 44.6289 -60.1562 43.9453 -60.1562 C 43.1641 -60.1562 42.6758 -59.8145 42.3828 -59.0332 L 30.5176 -27.7832 C 30.4199 -27.4902 30.3711 -27.3438 30.3711 -27.1484 C 30.3711 -26.4648 30.8105 -26.123 31.543 -26.123 Z M 37.2559 -39.3066 L 43.8477 -56.7871 L 43.9941 -56.7871 L 50.5859 -39.3066 Z M 19.3848 2.97852 C 14.6973 2.97852 11.9629 0.390625 11.9629 -4.00391 C 11.9629 -8.25195 14.7461 -10.7422 19.4336 -10.7422 L 61.084 -10.7422 C 62.5488 -10.7422 63.8184 -10.9375 64.9902 -11.3281 C 61.8652 -6.05469 62.9395 -0.537109 67.334 2.97852 Z"/>
  </g>
 </g>
</svg>
