<?xml version="1.0" encoding="UTF-8"?>
<!--Generator: Apple Native CoreSVG 129-->
<!DOCTYPE svg
PUBLIC "-//W3C//DTD SVG 1.1//EN"
       "http://www.w3.org/Graphics/SVG/1.1/DTD/svg11.dtd">
<svg version="1.1" xmlns="http://www.w3.org/2000/svg" xmlns:xlink="http://www.w3.org/1999/xlink" width="3300" height="2200">
 <!--glyph: "uni10090E.medium", point size: 100.000000, font version: "Version 16.0d9e1", template writer version: "8"-->
 <g id="Notes">
  <rect height="2200" id="artboard" style="fill:white;opacity:1" width="3300" x="0" y="0"/>
  <line id="" style="fill:none;stroke:black;opacity:1;stroke-width:0.5;" x1="263" x2="3036" y1="292" y2="292"/>
  <text style="stroke:none;fill:black;font-family:-apple-system,&quot;SF Pro Display&quot;,&quot;SF Pro Text&quot;,Helvetica,sans-serif;font-weight:bold;" transform="matrix(1 0 0 1 263 322)">Weight/Scale Variations</text>
  <text style="stroke:none;fill:black;font-family:-apple-system,&quot;SF Pro Display&quot;,&quot;SF Pro Text&quot;,Helvetica,sans-serif;text-anchor:middle;" transform="matrix(1 0 0 1 559.711 322)">Ultralight</text>
  <text style="stroke:none;fill:black;font-family:-apple-system,&quot;SF Pro Display&quot;,&quot;SF Pro Text&quot;,Helvetica,sans-serif;text-anchor:middle;" transform="matrix(1 0 0 1 856.422 322)">Thin</text>
  <text style="stroke:none;fill:black;font-family:-apple-system,&quot;SF Pro Display&quot;,&quot;SF Pro Text&quot;,Helvetica,sans-serif;text-anchor:middle;" transform="matrix(1 0 0 1 1153.13 322)">Light</text>
  <text style="stroke:none;fill:black;font-family:-apple-system,&quot;SF Pro Display&quot;,&quot;SF Pro Text&quot;,Helvetica,sans-serif;text-anchor:middle;" transform="matrix(1 0 0 1 1449.84 322)">Regular</text>
  <text style="stroke:none;fill:black;font-family:-apple-system,&quot;SF Pro Display&quot;,&quot;SF Pro Text&quot;,Helvetica,sans-serif;text-anchor:middle;" transform="matrix(1 0 0 1 1746.56 322)">Medium</text>
  <text style="stroke:none;fill:black;font-family:-apple-system,&quot;SF Pro Display&quot;,&quot;SF Pro Text&quot;,Helvetica,sans-serif;text-anchor:middle;" transform="matrix(1 0 0 1 2043.27 322)">Semibold</text>
  <text style="stroke:none;fill:black;font-family:-apple-system,&quot;SF Pro Display&quot;,&quot;SF Pro Text&quot;,Helvetica,sans-serif;text-anchor:middle;" transform="matrix(1 0 0 1 2339.98 322)">Bold</text>
  <text style="stroke:none;fill:black;font-family:-apple-system,&quot;SF Pro Display&quot;,&quot;SF Pro Text&quot;,Helvetica,sans-serif;text-anchor:middle;" transform="matrix(1 0 0 1 2636.69 322)">Heavy</text>
  <text style="stroke:none;fill:black;font-family:-apple-system,&quot;SF Pro Display&quot;,&quot;SF Pro Text&quot;,Helvetica,sans-serif;text-anchor:middle;" transform="matrix(1 0 0 1 2933.4 322)">Black</text>
  <line id="" style="fill:none;stroke:black;opacity:1;stroke-width:0.5;" x1="263" x2="3036" y1="1903" y2="1903"/>
  <g id="" transform="matrix(1 0 0 1 263 1933)">
   <path d="M 9.24805 0.830078 C 13.5547 0.830078 17.1387 -2.74414 17.1387 -7.05078 C 17.1387 -11.3574 13.5449 -14.9316 9.23828 -14.9316 C 4.94141 -14.9316 1.36719 -11.3574 1.36719 -7.05078 C 1.36719 -2.74414 4.95117 0.830078 9.24805 0.830078 Z M 9.24805 -0.654297 C 5.70312 -0.654297 2.87109 -3.49609 2.87109 -7.05078 C 2.87109 -10.6055 5.69336 -13.4473 9.23828 -13.4473 C 12.793 -13.4473 15.6348 -10.6055 15.6445 -7.05078 C 15.6543 -3.49609 12.8027 -0.654297 9.24805 -0.654297 Z M 9.22852 -3.62305 C 9.69727 -3.62305 9.9707 -3.93555 9.9707 -4.45312 L 9.9707 -6.31836 L 12.002 -6.31836 C 12.5 -6.31836 12.832 -6.57227 12.832 -7.04102 C 12.832 -7.51953 12.5195 -7.7832 12.002 -7.7832 L 9.9707 -7.7832 L 9.9707 -9.81445 C 9.9707 -10.332 9.69727 -10.6543 9.22852 -10.6543 C 8.75977 -10.6543 8.50586 -10.3125 8.50586 -9.81445 L 8.50586 -7.7832 L 6.49414 -7.7832 C 5.97656 -7.7832 5.64453 -7.51953 5.64453 -7.04102 C 5.64453 -6.57227 5.99609 -6.31836 6.49414 -6.31836 L 8.50586 -6.31836 L 8.50586 -4.45312 C 8.50586 -3.95508 8.75977 -3.62305 9.22852 -3.62305 Z"/>
  </g>
  <g id="" transform="matrix(1 0 0 1 281.506 1933)">
   <path d="M 11.709 2.91016 C 17.1582 2.91016 21.6699 -1.61133 21.6699 -7.05078 C 21.6699 -12.5 17.1484 -17.0117 11.6992 -17.0117 C 6.25977 -17.0117 1.74805 -12.5 1.74805 -7.05078 C 1.74805 -1.61133 6.26953 2.91016 11.709 2.91016 Z M 11.709 1.25 C 7.09961 1.25 3.41797 -2.44141 3.41797 -7.05078 C 3.41797 -11.6602 7.08984 -15.3516 11.6992 -15.3516 C 16.3086 -15.3516 20 -11.6602 20.0098 -7.05078 C 20.0195 -2.44141 16.3184 1.25 11.709 1.25 Z M 11.6797 -2.66602 C 12.207 -2.66602 12.5098 -3.01758 12.5098 -3.59375 L 12.5098 -6.23047 L 15.3223 -6.23047 C 15.8691 -6.23047 16.25 -6.51367 16.25 -7.03125 C 16.25 -7.55859 15.8887 -7.86133 15.3223 -7.86133 L 12.5098 -7.86133 L 12.5098 -10.6836 C 12.5098 -11.25 12.207 -11.6113 11.6797 -11.6113 C 11.1621 -11.6113 10.8789 -11.2305 10.8789 -10.6836 L 10.8789 -7.86133 L 8.07617 -7.86133 C 7.50977 -7.86133 7.13867 -7.55859 7.13867 -7.03125 C 7.13867 -6.51367 7.5293 -6.23047 8.07617 -6.23047 L 10.8789 -6.23047 L 10.8789 -3.59375 C 10.8789 -3.03711 11.1621 -2.66602 11.6797 -2.66602 Z"/>
  </g>
  <g id="" transform="matrix(1 0 0 1 304.924 1933)">
   <path d="M 14.9707 5.66406 C 21.9336 5.66406 27.6953 -0.0976562 27.6953 -7.05078 C 27.6953 -14.0137 21.9238 -19.7754 14.9609 -19.7754 C 8.00781 -19.7754 2.25586 -14.0137 2.25586 -7.05078 C 2.25586 -0.0976562 8.01758 5.66406 14.9707 5.66406 Z M 14.9707 3.84766 C 8.93555 3.84766 4.08203 -1.01562 4.08203 -7.05078 C 4.08203 -13.0957 8.92578 -17.9492 14.9609 -17.9492 C 21.0059 -17.9492 25.8594 -13.0957 25.8691 -7.05078 C 25.8789 -1.01562 21.0156 3.84766 14.9707 3.84766 Z M 14.9414 -1.38672 C 15.5176 -1.38672 15.8594 -1.77734 15.8594 -2.38281 L 15.8594 -6.13281 L 19.7754 -6.13281 C 20.3711 -6.13281 20.7812 -6.46484 20.7812 -7.02148 C 20.7812 -7.59766 20.3906 -7.93945 19.7754 -7.93945 L 15.8594 -7.93945 L 15.8594 -11.8652 C 15.8594 -12.4805 15.5176 -12.8711 14.9414 -12.8711 C 14.375 -12.8711 14.0527 -12.4609 14.0527 -11.8652 L 14.0527 -7.93945 L 10.1465 -7.93945 C 9.53125 -7.93945 9.13086 -7.59766 9.13086 -7.02148 C 9.13086 -6.46484 9.55078 -6.13281 10.1465 -6.13281 L 14.0527 -6.13281 L 14.0527 -2.38281 C 14.0527 -1.79688 14.375 -1.38672 14.9414 -1.38672 Z"/>
  </g>
  <text style="stroke:none;fill:black;font-family:-apple-system,&quot;SF Pro Display&quot;,&quot;SF Pro Text&quot;,Helvetica,sans-serif;font-weight:bold;" transform="matrix(1 0 0 1 263 1953)">Design Variations</text>
  <text style="stroke:none;fill:black;font-family:-apple-system,&quot;SF Pro Display&quot;,&quot;SF Pro Text&quot;,Helvetica,sans-serif;" transform="matrix(1 0 0 1 263 1971)">Symbols are supported in up to nine weights and three scales.</text>
  <text style="stroke:none;fill:black;font-family:-apple-system,&quot;SF Pro Display&quot;,&quot;SF Pro Text&quot;,Helvetica,sans-serif;" transform="matrix(1 0 0 1 263 1989)">For optimal layout with text and other symbols, vertically align</text>
  <text style="stroke:none;fill:black;font-family:-apple-system,&quot;SF Pro Display&quot;,&quot;SF Pro Text&quot;,Helvetica,sans-serif;" transform="matrix(1 0 0 1 263 2007)">symbols with the adjacent text.</text>
  <line id="" style="fill:none;stroke:#00AEEF;stroke-width:0.5;opacity:1.0;" x1="776" x2="776" y1="1919" y2="1933"/>
  <g id="" transform="matrix(1 0 0 1 776 1933)">
   <path d="M 3.31055 0.126953 C 3.82812 0.126953 4.08203 -0.0683594 4.26758 -0.605469 L 5.52734 -4.0625 L 11.2891 -4.0625 L 12.5488 -0.605469 C 12.7344 -0.0683594 12.9883 0.126953 13.4961 0.126953 C 14.0137 0.126953 14.3457 -0.185547 14.3457 -0.673828 C 14.3457 -0.839844 14.3164 -0.986328 14.2383 -1.20117 L 9.6582 -13.3887 C 9.43359 -13.9941 9.0332 -14.2871 8.4082 -14.2871 C 7.80273 -14.2871 7.39258 -13.9941 7.17773 -13.3984 L 2.59766 -1.19141 C 2.51953 -0.976562 2.49023 -0.830078 2.49023 -0.664062 C 2.49023 -0.175781 2.80273 0.126953 3.31055 0.126953 Z M 6.00586 -5.53711 L 8.37891 -12.1094 L 8.42773 -12.1094 L 10.8008 -5.53711 Z"/>
  </g>
  <line id="" style="fill:none;stroke:#00AEEF;stroke-width:0.5;opacity:1.0;" x1="792.836" x2="792.836" y1="1919" y2="1933"/>
  <text style="stroke:none;fill:black;font-family:-apple-system,&quot;SF Pro Display&quot;,&quot;SF Pro Text&quot;,Helvetica,sans-serif;font-weight:bold;" transform="matrix(1 0 0 1 776 1953)">Margins</text>
  <text style="stroke:none;fill:black;font-family:-apple-system,&quot;SF Pro Display&quot;,&quot;SF Pro Text&quot;,Helvetica,sans-serif;" transform="matrix(1 0 0 1 776 1971)">Leading and trailing margins on the left and right side of each symbol</text>
  <text style="stroke:none;fill:black;font-family:-apple-system,&quot;SF Pro Display&quot;,&quot;SF Pro Text&quot;,Helvetica,sans-serif;" transform="matrix(1 0 0 1 776 1989)">can be adjusted by modifying the x-location of the margin guidelines.</text>
  <text style="stroke:none;fill:black;font-family:-apple-system,&quot;SF Pro Display&quot;,&quot;SF Pro Text&quot;,Helvetica,sans-serif;" transform="matrix(1 0 0 1 776 2007)">Modifications are automatically applied proportionally to all</text>
  <text style="stroke:none;fill:black;font-family:-apple-system,&quot;SF Pro Display&quot;,&quot;SF Pro Text&quot;,Helvetica,sans-serif;" transform="matrix(1 0 0 1 776 2025)">scales and weights.</text>
  <g id="" transform="matrix(1 0 0 1 1289 1933)">
   <path d="M 2.8418 1.86523 L 4.54102 3.57422 C 5.40039 4.44336 6.38672 4.38477 7.31445 3.35938 L 17.4902 -7.85156 C 17.7539 -7.76367 18.0273 -7.7832 18.3398 -7.8418 L 19.4043 -8.03711 L 20.0684 -7.36328 L 20.0293 -6.80664 C 19.9902 -6.30859 20.1172 -5.92773 20.6055 -5.44922 L 21.3672 -4.70703 C 21.8457 -4.22852 22.4609 -4.19922 22.9297 -4.66797 L 25.8398 -7.58789 C 26.3086 -8.05664 26.2891 -8.65234 25.8105 -9.13086 L 25.0391 -9.89258 C 24.5605 -10.3711 24.1895 -10.5273 23.7109 -10.4883 L 23.1348 -10.4395 L 22.4902 -11.0742 L 22.7344 -12.1973 C 22.8613 -12.7637 22.7051 -13.2031 22.1191 -13.7891 L 19.9219 -15.9766 C 16.582 -19.2969 12.1484 -19.2188 9.25781 -16.3281 C 8.83789 -15.918 8.80859 -15.3418 9.04297 -14.9512 C 9.27734 -14.5898 9.73633 -14.3555 10.3809 -14.5215 C 11.8457 -14.8633 13.3691 -14.9219 14.7949 -13.9844 L 14.209 -12.5293 C 14.0137 -12.0508 13.9844 -11.6504 14.1113 -11.2891 L 3.04688 -0.898438 C 2.06055 0.0195312 1.98242 0.996094 2.8418 1.86523 Z M 10.752 -15.957 C 13.1836 -17.7344 16.4746 -17.4316 18.7012 -15.2051 L 21.1328 -12.793 C 21.3672 -12.5586 21.4062 -12.373 21.3379 -12.0312 L 21.0156 -10.5469 L 22.5195 -9.0625 L 23.5059 -9.12109 C 23.7598 -9.13086 23.8379 -9.11133 24.0332 -8.91602 L 24.6094 -8.33984 L 22.168 -5.89844 L 21.5918 -6.47461 C 21.3965 -6.66992 21.3672 -6.74805 21.377 -7.01172 L 21.4453 -7.98828 L 19.9512 -9.47266 L 18.4277 -9.21875 C 18.1055 -9.15039 17.959 -9.17969 17.7148 -9.41406 L 15.7129 -11.416 C 15.459 -11.6504 15.4297 -11.8164 15.5859 -12.1875 L 16.4648 -14.2773 C 14.9023 -15.7324 12.8711 -16.3574 10.8398 -15.7617 C 10.6836 -15.7227 10.625 -15.8496 10.752 -15.957 Z M 5.27344 2.30469 L 4.10156 1.14258 C 3.63281 0.683594 3.74023 0.341797 4.14062 -0.0195312 L 14.9512 -10.1953 L 16.416 -8.71094 L 6.42578 2.27539 C 6.07422 2.67578 5.74219 2.77344 5.27344 2.30469 Z"/>
  </g>
  <text style="stroke:none;fill:black;font-family:-apple-system,&quot;SF Pro Display&quot;,&quot;SF Pro Text&quot;,Helvetica,sans-serif;font-weight:bold;" transform="matrix(1 0 0 1 1289 1953)">Exporting</text>
  <text style="stroke:none;fill:black;font-family:-apple-system,&quot;SF Pro Display&quot;,&quot;SF Pro Text&quot;,Helvetica,sans-serif;" transform="matrix(1 0 0 1 1289 1971)">Symbols should be outlined when exporting to ensure the</text>
  <text style="stroke:none;fill:black;font-family:-apple-system,&quot;SF Pro Display&quot;,&quot;SF Pro Text&quot;,Helvetica,sans-serif;" transform="matrix(1 0 0 1 1289 1989)">design is preserved when submitting to Xcode.</text>
  <text id="template-version" style="stroke:none;fill:black;font-family:-apple-system,&quot;SF Pro Display&quot;,&quot;SF Pro Text&quot;,Helvetica,sans-serif;text-anchor:end;" transform="matrix(1 0 0 1 3036 1933)">Template v.2.0</text>
  <text style="stroke:none;fill:black;font-family:-apple-system,&quot;SF Pro Display&quot;,&quot;SF Pro Text&quot;,Helvetica,sans-serif;text-anchor:end;" transform="matrix(1 0 0 1 3036 1951)">Requires Xcode 12 or greater</text>
  <text style="stroke:none;fill:black;font-family:-apple-system,&quot;SF Pro Display&quot;,&quot;SF Pro Text&quot;,Helvetica,sans-serif;text-anchor:end;" transform="matrix(1 0 0 1 3036 1969)">Generated from loupe</text>
  <text style="stroke:none;fill:black;font-family:-apple-system,&quot;SF Pro Display&quot;,&quot;SF Pro Text&quot;,Helvetica,sans-serif;text-anchor:end;" transform="matrix(1 0 0 1 3036 1987)">Typeset at 100 points</text>
  <text style="stroke:none;fill:black;font-family:-apple-system,&quot;SF Pro Display&quot;,&quot;SF Pro Text&quot;,Helvetica,sans-serif;" transform="matrix(1 0 0 1 263 726)">Small</text>
  <text style="stroke:none;fill:black;font-family:-apple-system,&quot;SF Pro Display&quot;,&quot;SF Pro Text&quot;,Helvetica,sans-serif;" transform="matrix(1 0 0 1 263 1156)">Medium</text>
  <text style="stroke:none;fill:black;font-family:-apple-system,&quot;SF Pro Display&quot;,&quot;SF Pro Text&quot;,Helvetica,sans-serif;" transform="matrix(1 0 0 1 263 1586)">Large</text>
 </g>
 <g id="Guides">
  <g id="H-reference" style="fill:#27AAE1;stroke:none;" transform="matrix(1 0 0 1 339 696)">
   <path d="M 0.976562 0 L 3.66211 0 L 12.9883 -24.4629 L 45.7031 -24.4629 L 55.0781 0 L 57.7148 0 L 30.6152 -70.459 L 28.125 -70.459 Z M 29.2969 -67.1387 L 29.3945 -67.1387 L 44.873 -26.709 L 13.8672 -26.709 Z"/>
  </g>
  <line id="Baseline-S" style="fill:none;stroke:#27AAE1;opacity:1;stroke-width:0.5;" x1="263" x2="3036" y1="696" y2="696"/>
  <line id="Capline-S" style="fill:none;stroke:#27AAE1;opacity:1;stroke-width:0.5;" x1="263" x2="3036" y1="625.541" y2="625.541"/>
  <g id="H-reference" style="fill:#27AAE1;stroke:none;" transform="matrix(1 0 0 1 339 1126)">
   <path d="M 0.976562 0 L 3.66211 0 L 12.9883 -24.4629 L 45.7031 -24.4629 L 55.0781 0 L 57.7148 0 L 30.6152 -70.459 L 28.125 -70.459 Z M 29.2969 -67.1387 L 29.3945 -67.1387 L 44.873 -26.709 L 13.8672 -26.709 Z"/>
  </g>
  <line id="Baseline-M" style="fill:none;stroke:#27AAE1;opacity:1;stroke-width:0.5;" x1="263" x2="3036" y1="1126" y2="1126"/>
  <line id="Capline-M" style="fill:none;stroke:#27AAE1;opacity:1;stroke-width:0.5;" x1="263" x2="3036" y1="1055.54" y2="1055.54"/>
  <g id="H-reference" style="fill:#27AAE1;stroke:none;" transform="matrix(1 0 0 1 339 1556)">
   <path d="M 0.976562 0 L 3.66211 0 L 12.9883 -24.4629 L 45.7031 -24.4629 L 55.0781 0 L 57.7148 0 L 30.6152 -70.459 L 28.125 -70.459 Z M 29.2969 -67.1387 L 29.3945 -67.1387 L 44.873 -26.709 L 13.8672 -26.709 Z"/>
  </g>
  <line id="Baseline-L" style="fill:none;stroke:#27AAE1;opacity:1;stroke-width:0.5;" x1="263" x2="3036" y1="1556" y2="1556"/>
  <line id="Capline-L" style="fill:none;stroke:#27AAE1;opacity:1;stroke-width:0.5;" x1="263" x2="3036" y1="1485.54" y2="1485.54"/>
  <line id="left-margin" style="fill:none;stroke:#00AEEF;stroke-width:0.5;opacity:1.0;" x1="1392.13" x2="1392.13" y1="1030.79" y2="1150.12"/>
  <line id="right-margin" style="fill:none;stroke:#00AEEF;stroke-width:0.5;opacity:1.0;" x1="1507.56" x2="1507.56" y1="1030.79" y2="1150.12"/>
 </g>
 <g id="Symbols">
  <g id="Black-L" transform="matrix(1 0 0 1 2851.39 1556)">
   <path d="M 82.0801 31.1523 C 131.592 31.1523 156.25 10.7422 145.312 -17.1387 L 129.59 -57.373 L 129.59 -76.6113 C 129.59 -90.1367 110.156 -99.8535 82.0801 -99.8535 C 54.0527 -99.8535 34.6191 -90.1367 34.6191 -76.6113 L 34.6191 -57.5684 L 18.75 -17.0898 C 7.56836 11.377 32.4707 31.1523 82.0801 31.1523 Z M 82.0801 -70.459 C 65.4785 -70.459 54.4434 -73.6328 54.4434 -76.6113 C 54.4434 -79.5898 65.4785 -82.7637 82.0801 -82.7637 C 98.6816 -82.7637 109.668 -79.5898 109.668 -76.6113 C 109.668 -73.6328 98.6816 -70.459 82.0801 -70.459 Z M 82.0801 -31.9336 C 95.5566 -31.9336 106.836 -34.2285 115.039 -38.0859 L 126.172 -10.6445 C 130.957 1.2207 114.014 10.9375 82.0801 10.9375 C 50.0488 10.9375 32.959 1.80664 37.9395 -10.6445 L 49.1211 -38.0859 C 57.2754 -34.2773 68.6035 -31.9336 82.0801 -31.9336 Z"/>
  </g>
  <g id="Heavy-L" transform="matrix(1 0 0 1 2556.68 1556)">
   <path d="M 80.0293 29.3457 C 127.832 29.3457 151.758 10.1074 141.553 -16.4551 L 126.221 -56.6895 L 126.221 -76.6113 C 126.221 -89.1113 107.471 -98.291 80.0293 -98.291 C 52.6855 -98.291 33.9355 -89.1113 33.9355 -76.6113 L 33.9355 -56.8848 L 18.5059 -16.4062 C 8.1543 10.6445 32.2266 29.3457 80.0293 29.3457 Z M 80.0293 -69.873 C 62.6953 -69.873 51.123 -73.3398 51.123 -76.6113 C 51.123 -79.8828 62.6953 -83.3008 80.0293 -83.3008 C 97.4121 -83.3008 108.984 -79.8828 108.984 -76.6113 C 108.984 -73.3398 97.4121 -69.873 80.0293 -69.873 Z M 80.0293 -32.5195 C 94.1406 -32.5195 105.811 -35.0586 113.867 -39.209 L 125 -10.8398 C 129.883 1.9043 112.646 11.8652 80.0293 11.8652 C 47.3633 11.8652 30.0293 2.34375 35.1074 -10.8398 L 46.2402 -39.209 C 54.248 -35.0586 65.918 -32.5195 80.0293 -32.5195 Z"/>
  </g>
  <g id="Bold-L" transform="matrix(1 0 0 1 2262.22 1556)">
   <path d="M 77.7832 27.3438 C 123.584 27.3438 146.68 9.47266 137.354 -15.6738 L 122.461 -55.957 L 122.461 -76.6113 C 122.461 -88.0371 104.443 -96.582 77.7832 -96.582 C 51.2207 -96.582 33.1543 -88.0371 33.1543 -76.6113 L 33.1543 -56.2012 L 18.2129 -15.625 C 8.74023 9.81445 31.9824 27.3438 77.7832 27.3438 Z M 77.7832 -69.2383 C 59.5703 -69.2383 47.4121 -72.998 47.4121 -76.6113 C 47.4121 -80.2246 59.5703 -83.9844 77.7832 -83.9844 C 96.0449 -83.9844 108.203 -80.2246 108.203 -76.6113 C 108.203 -72.998 96.0449 -69.2383 77.7832 -69.2383 Z M 77.7832 -33.1543 C 92.627 -33.1543 104.736 -35.9863 112.549 -40.5762 L 123.633 -11.084 C 128.711 2.68555 111.133 12.8906 77.7832 12.8906 C 44.3848 12.8906 26.709 2.97852 31.9336 -11.084 L 43.0176 -40.5762 C 50.7812 -35.9863 62.8418 -33.1543 77.7832 -33.1543 Z"/>
  </g>
  <g id="Semibold-L" transform="matrix(1 0 0 1 1967.05 1556)">
   <path d="M 76.2207 25.9766 C 120.654 25.9766 143.213 9.0332 134.424 -15.1367 L 119.922 -55.5176 L 119.922 -76.6113 C 119.922 -87.2559 102.344 -95.4102 76.2207 -95.4102 C 50.1953 -95.4102 32.666 -87.2559 32.666 -76.6113 L 32.666 -55.7617 L 18.0176 -15.1367 C 9.17969 9.22852 31.8359 25.9766 76.2207 25.9766 Z M 76.2207 -68.7988 C 57.4219 -68.7988 44.873 -72.7539 44.873 -76.6113 C 44.873 -80.4688 57.4219 -84.375 76.2207 -84.375 C 95.1172 -84.375 107.666 -80.4688 107.666 -76.6113 C 107.666 -72.7539 95.1172 -68.7988 76.2207 -68.7988 Z M 76.2207 -33.5938 C 91.6504 -33.5938 104.053 -36.6699 111.67 -41.5527 L 122.754 -11.2305 C 127.93 3.22266 110.107 13.623 76.2207 13.623 C 42.334 13.623 24.4629 3.36914 29.7363 -11.2305 L 40.7715 -41.5527 C 48.291 -36.6699 60.6445 -33.5938 76.2207 -33.5938 Z"/>
  </g>
  <g id="Medium-L" transform="matrix(1 0 0 1 1671.51 1556)">
   <path d="M 75.0488 24.9023 C 118.408 24.9023 140.576 8.69141 132.227 -14.7461 L 117.92 -55.2246 L 117.92 -76.6113 C 117.92 -86.6699 100.781 -94.4824 75.0488 -94.4824 C 49.4141 -94.4824 32.2266 -86.6699 32.2266 -76.6113 L 32.2266 -55.4688 L 17.8711 -14.6973 C 9.47266 8.78906 31.6895 24.9023 75.0488 24.9023 Z M 75.0488 -68.457 C 55.8105 -68.457 42.9199 -72.5586 42.9199 -76.6113 C 42.9199 -80.6641 55.8105 -84.7168 75.0488 -84.7168 C 94.3848 -84.7168 107.275 -80.6641 107.275 -76.6113 C 107.275 -72.5586 94.3848 -68.457 75.0488 -68.457 Z M 75.0488 -33.8867 C 90.9668 -33.8867 103.662 -37.207 110.986 -42.3828 L 122.021 -11.3281 C 127.295 3.61328 109.326 14.1602 75.0488 14.1602 C 40.7715 14.1602 22.7539 3.71094 28.0762 -11.3281 L 39.1113 -42.3828 C 46.3379 -37.207 58.8867 -33.8867 75.0488 -33.8867 Z"/>
  </g>
  <g id="Regular-L" transform="matrix(1 0 0 1 1376.33 1556)">
   <path d="M 73.5352 23.5352 C 115.527 23.5352 137.109 8.20312 129.346 -14.209 L 115.381 -54.8828 L 115.381 -76.6113 C 115.381 -85.9375 98.7305 -93.3105 73.5352 -93.3105 C 48.3887 -93.3105 31.7383 -85.9375 31.7383 -76.6113 L 31.7383 -55.127 L 17.6758 -14.209 C 9.91211 8.20312 31.4941 23.5352 73.5352 23.5352 Z M 73.5352 -68.0664 C 53.6621 -68.0664 40.3809 -72.3145 40.3809 -76.6113 C 40.3809 -80.8594 53.6621 -85.1562 73.5352 -85.1562 C 93.457 -85.1562 106.738 -80.8594 106.738 -76.6113 C 106.738 -72.3145 93.457 -68.0664 73.5352 -68.0664 Z M 73.5352 -34.3262 C 90.1855 -34.3262 103.174 -37.9395 110.059 -43.5547 L 121.143 -11.4746 C 126.514 4.15039 108.301 14.8438 73.5352 14.8438 C 38.7695 14.8438 20.5078 4.15039 25.8789 -11.4746 L 36.9629 -43.5059 C 43.7012 -37.9395 56.543 -34.3262 73.5352 -34.3262 Z"/>
  </g>
  <g id="Light-L" transform="matrix(1 0 0 1 1080.92 1556)">
   <path d="M 72.2168 23.1934 C 112.891 23.1934 134.277 8.39844 126.855 -13.3789 L 113.184 -54.1016 L 113.184 -76.6113 C 113.184 -85.2051 96.9238 -92.2363 72.2168 -92.2363 C 47.6074 -92.2363 31.3477 -85.2051 31.3477 -76.6113 L 31.3477 -54.3457 L 17.5781 -13.3789 C 10.1562 8.39844 31.543 23.1934 72.2168 23.1934 Z M 72.2168 -67.2852 C 51.709 -67.2852 37.9883 -72.0215 37.9883 -76.6113 C 37.9883 -81.2012 51.709 -85.8887 72.2168 -85.8887 C 92.8223 -85.8887 106.543 -81.2012 106.543 -76.6113 C 106.543 -72.0215 92.8223 -67.2852 72.2168 -67.2852 Z M 72.2168 -35.0586 C 89.3555 -35.0586 102.832 -38.8672 109.229 -44.9707 L 120.605 -11.2793 C 126.172 5.27344 107.324 16.5039 72.2168 16.5039 C 37.1094 16.5039 18.2617 5.27344 23.8281 -11.2793 L 35.2051 -44.873 C 41.3574 -38.8672 54.541 -35.0586 72.2168 -35.0586 Z"/>
  </g>
  <g id="Thin-L" transform="matrix(1 0 0 1 785.914 1556)">
   <path d="M 70.5078 22.7051 C 109.424 22.7051 130.566 8.64258 123.584 -12.3047 L 110.254 -53.0762 C 110.254 -53.125 110.254 -53.2227 110.254 -53.2715 L 110.254 -76.6113 C 110.254 -84.2773 94.5801 -90.7227 70.5078 -90.7227 C 46.5332 -90.7227 30.8594 -84.2773 30.8594 -76.6113 L 30.8594 -53.3203 L 17.4316 -12.3047 C 10.4492 8.64258 31.5918 22.7051 70.5078 22.7051 Z M 70.5078 -66.3086 C 49.1211 -66.3086 34.8145 -71.6309 34.8145 -76.6113 C 34.8145 -81.5918 49.1211 -86.8652 70.5078 -86.8652 C 91.9922 -86.8652 106.299 -81.5918 106.299 -76.6113 C 106.299 -71.6309 91.9922 -66.3086 70.5078 -66.3086 Z M 70.5078 -36.0352 C 88.3301 -36.0352 102.734 -40.1367 108.057 -47.0703 L 119.922 -10.9863 C 125.732 6.78711 106.104 18.7012 70.5078 18.7012 C 34.9121 18.7012 15.2832 6.78711 21.0938 -10.9863 L 32.959 -47.0215 C 37.9883 -40.1367 51.6602 -36.0352 70.5078 -36.0352 Z"/>
  </g>
  <g id="Ultralight-L" transform="matrix(1 0 0 1 490.058 1556)">
   <path d="M 69.6289 22.4121 C 107.666 22.4121 128.662 8.78906 121.924 -11.7676 L 108.74 -52.5879 C 108.74 -52.832 108.74 -53.0273 108.74 -53.2715 L 108.74 -76.6113 C 108.74 -83.7891 93.3594 -89.9902 69.6289 -89.9902 C 45.9961 -89.9902 30.6152 -83.7891 30.6152 -76.6113 L 30.6152 -53.2715 C 30.6152 -53.125 30.6152 -52.9297 30.6152 -52.7832 L 17.334 -11.7676 C 10.6445 8.78906 31.6406 22.4121 69.6289 22.4121 Z M 69.6289 -65.8203 C 47.8027 -65.8203 33.1543 -71.4355 33.1543 -76.6113 C 33.1543 -81.7871 47.8027 -87.4023 69.6289 -87.4023 C 91.5527 -87.4023 106.201 -81.7871 106.201 -76.6113 C 106.201 -71.4355 91.5527 -65.8203 69.6289 -65.8203 Z M 69.6289 -36.5723 C 87.9395 -36.5723 102.881 -40.8203 107.373 -48.3398 L 119.58 -10.8398 C 125.537 7.56836 105.469 19.7754 69.6289 19.7754 C 33.8379 19.7754 13.7695 7.56836 19.6777 -10.8398 L 31.8848 -48.3398 C 36.0352 -40.8203 50 -36.5723 69.6289 -36.5723 Z"/>
  </g>
  <g id="Black-M" transform="matrix(1 0 0 1 2867.87 1126)">
   <path d="M 65.625 18.457 C 105.713 18.457 125.635 1.26953 116.357 -21.7285 L 103.711 -52.9785 L 103.711 -67.2852 C 103.711 -78.7109 88.0371 -86.8164 65.625 -86.8164 C 43.2617 -86.8164 27.5391 -78.7109 27.5391 -67.2852 L 27.5391 -53.1738 L 14.7949 -21.6309 C 5.22461 1.95312 25.4395 18.457 65.625 18.457 Z M 65.625 -62.8906 C 53.4668 -62.8906 45.3613 -65.2832 45.3613 -67.2852 C 45.3613 -69.3359 53.4668 -71.6797 65.625 -71.6797 C 77.7832 -71.6797 85.8398 -69.3359 85.8398 -67.2852 C 85.8398 -65.2832 77.7832 -62.8906 65.625 -62.8906 Z M 65.625 -32.3242 C 75.4395 -32.3242 83.8867 -33.8867 90.2832 -36.5723 L 99.0723 -15.7715 C 102.686 -7.32422 89.6484 0.195312 65.625 0.195312 C 41.4551 0.195312 28.2715 -6.64062 32.1289 -15.7715 L 40.918 -36.5723 C 47.3145 -33.8867 55.7617 -32.3242 65.625 -32.3242 Z"/>
  </g>
  <g id="Heavy-M" transform="matrix(1 0 0 1 2572.99 1126)">
   <path d="M 63.7207 16.6016 C 102.246 16.6016 121.436 0.585938 112.891 -21.1914 L 100.635 -52.3438 L 100.635 -67.2852 C 100.635 -77.832 85.5469 -85.4004 63.7207 -85.4004 C 41.9922 -85.4004 26.9043 -77.832 26.9043 -67.2852 L 26.9043 -52.5391 L 14.5508 -21.1426 C 5.81055 1.12305 25.1953 16.6016 63.7207 16.6016 Z M 63.7207 -62.4512 C 50.9277 -62.4512 42.3828 -64.9902 42.3828 -67.2852 C 42.3828 -69.5801 50.9277 -72.1191 63.7207 -72.1191 C 76.6113 -72.1191 85.1074 -69.5801 85.1074 -67.2852 C 85.1074 -64.9902 76.6113 -62.4512 63.7207 -62.4512 Z M 63.7207 -32.7148 C 74.1211 -32.7148 82.8613 -34.5215 89.209 -37.4512 L 97.9004 -16.0645 C 101.66 -6.83594 88.4277 0.732422 63.7207 0.732422 C 39.0137 0.732422 25.6348 -6.34766 29.541 -16.0645 L 38.2812 -37.4512 C 44.6289 -34.5215 53.3691 -32.7148 63.7207 -32.7148 Z"/>
  </g>
  <g id="Bold-M" transform="matrix(1 0 0 1 2278.36 1126)">
   <path d="M 61.6699 14.502 C 98.3398 14.502 116.748 -0.195312 109.033 -20.5566 L 97.2168 -51.7578 L 97.2168 -67.2852 C 97.2168 -76.8066 82.8125 -83.8379 61.6699 -83.8379 C 40.5762 -83.8379 26.1719 -76.8066 26.1719 -67.2852 L 26.1719 -51.9043 L 14.3066 -20.5078 C 6.39648 0.146484 24.9512 14.502 61.6699 14.502 Z M 61.6699 -62.0117 C 48.0957 -62.0117 39.0137 -64.6973 39.0137 -67.2852 C 39.0137 -69.873 48.0957 -72.6074 61.6699 -72.6074 C 75.293 -72.6074 84.3262 -69.873 84.3262 -67.2852 C 84.3262 -64.6973 75.293 -62.0117 61.6699 -62.0117 Z M 61.6699 -33.2031 C 72.7051 -33.2031 81.7871 -35.2539 88.0371 -38.5254 L 96.6309 -16.3574 C 100.488 -6.34766 87.0605 1.41602 61.6699 1.41602 C 36.2305 1.41602 22.7539 -6.00586 26.709 -16.3574 L 35.3027 -38.5254 C 41.5039 -35.2539 50.5859 -33.2031 61.6699 -33.2031 Z"/>
  </g>
  <g id="Semibold-M" transform="matrix(1 0 0 1 1983.06 1126)">
   <path d="M 60.2051 13.0371 C 95.7031 13.0371 113.525 -0.732422 106.348 -20.1172 L 94.8242 -51.3672 L 94.8242 -67.2852 C 94.8242 -76.123 80.8594 -82.7637 60.2051 -82.7637 C 39.6484 -82.7637 25.6836 -76.123 25.6836 -67.2852 L 25.6836 -51.5625 L 14.1113 -20.1172 C 6.83594 -0.488281 24.7559 13.0371 60.2051 13.0371 Z M 60.2051 -61.6699 C 46.1426 -61.6699 36.7188 -64.502 36.7188 -67.2852 C 36.7188 -70.0684 46.1426 -72.9492 60.2051 -72.9492 C 74.3652 -72.9492 83.7891 -70.0684 83.7891 -67.2852 C 83.7891 -64.502 74.3652 -61.6699 60.2051 -61.6699 Z M 60.2051 -33.5449 C 71.7773 -33.5449 81.1523 -35.791 87.207 -39.3066 L 95.752 -16.6016 C 99.6582 -6.00586 86.1328 1.85547 60.2051 1.85547 C 34.3262 1.85547 20.7031 -5.81055 24.707 -16.6016 L 33.252 -39.3066 C 39.2578 -35.791 48.6328 -33.5449 60.2051 -33.5449 Z"/>
  </g>
  <g id="Medium-M" transform="matrix(1 0 0 1 1687.42 1126)">
   <path d="M 59.1309 11.9629 C 93.6523 11.9629 111.084 -1.12305 104.297 -19.8242 L 93.0664 -51.123 L 93.0664 -67.2852 C 93.0664 -75.6348 79.4434 -81.9336 59.1309 -81.9336 C 38.916 -81.9336 25.293 -75.6348 25.293 -67.2852 L 25.293 -51.3184 L 13.9648 -19.8242 C 7.12891 -1.02539 24.6094 11.9629 59.1309 11.9629 Z M 59.1309 -61.4258 C 44.6289 -61.4258 34.9609 -64.3555 34.9609 -67.2852 C 34.9609 -70.2637 44.6289 -73.1934 59.1309 -73.1934 C 73.6816 -73.1934 83.3984 -70.2637 83.3984 -67.2852 C 83.3984 -64.3555 73.6816 -61.4258 59.1309 -61.4258 Z M 59.1309 -33.7891 C 71.1426 -33.7891 80.7129 -36.1816 86.5723 -39.9902 L 95.0684 -16.748 C 99.0234 -5.71289 85.4004 2.19727 59.1309 2.19727 C 32.8613 2.19727 19.1895 -5.61523 23.1934 -16.748 L 31.6895 -39.9902 C 37.5488 -36.2305 47.0703 -33.7891 59.1309 -33.7891 Z"/>
  </g>
  <g id="Regular-M" transform="matrix(1 0 0 1 1392.13 1126)">
   <path d="M 57.7148 10.5469 C 91.0156 10.5469 107.91 -1.66016 101.66 -19.3848 L 90.7227 -50.8789 L 90.7227 -67.2852 C 90.7227 -74.9512 77.5391 -80.8594 57.7148 -80.8594 C 37.9395 -80.8594 24.8047 -74.9512 24.8047 -67.2852 L 24.8047 -51.0254 L 13.7695 -19.3848 C 7.56836 -1.66016 24.4141 10.5469 57.7148 10.5469 Z M 57.7148 -61.084 C 42.7246 -61.084 32.666 -64.1602 32.666 -67.2852 C 32.666 -70.459 42.7246 -73.4863 57.7148 -73.4863 C 72.8027 -73.4863 82.8613 -70.459 82.8613 -67.2852 C 82.8613 -64.1602 72.8027 -61.084 57.7148 -61.084 Z M 57.7148 -34.1309 C 70.3613 -34.1309 80.2246 -36.8164 85.7422 -40.918 L 94.1895 -16.9434 C 98.2422 -5.37109 84.4727 2.63672 57.7148 2.63672 C 30.957 2.63672 17.1875 -5.37109 21.2402 -16.9434 L 29.6875 -40.918 C 35.1562 -36.8164 44.9707 -34.1309 57.7148 -34.1309 Z"/>
  </g>
  <g id="Light-M" transform="matrix(1 0 0 1 1096.59 1126)">
   <path d="M 56.543 10.2051 C 88.6719 10.2051 105.322 -1.51367 99.4141 -18.6523 L 88.7207 -50.1953 L 88.7207 -67.2852 C 88.7207 -74.2676 75.9277 -79.8828 56.543 -79.8828 C 37.207 -79.8828 24.4629 -74.2676 24.4629 -67.2852 L 24.4629 -50.3906 L 13.6719 -18.6523 C 7.76367 -1.51367 24.4141 10.2051 56.543 10.2051 Z M 56.543 -60.4004 C 40.9668 -60.4004 30.5176 -63.8672 30.5176 -67.2852 C 30.5176 -70.7031 40.9668 -74.1699 56.543 -74.1699 C 72.2168 -74.1699 82.666 -70.7031 82.666 -67.2852 C 82.666 -63.8672 72.2168 -60.4004 56.543 -60.4004 Z M 56.543 -34.7656 C 69.5801 -34.7656 79.834 -37.6465 85.0098 -42.1387 L 93.7012 -16.748 C 97.9492 -4.3457 83.5938 4.15039 56.543 4.15039 C 29.4922 4.15039 15.1367 -4.3457 19.3848 -16.748 L 28.0762 -42.0898 C 33.1055 -37.6465 43.1641 -34.7656 56.543 -34.7656 Z"/>
  </g>
  <g id="Thin-M" transform="matrix(1 0 0 1 801.417 1126)">
   <path d="M 54.9805 9.76562 C 85.5469 9.76562 101.953 -1.26953 96.4844 -17.7246 L 86.0352 -49.2676 L 86.0352 -67.2852 C 86.0352 -73.4375 73.7793 -78.5645 54.9805 -78.5645 C 36.2793 -78.5645 24.0234 -73.4375 24.0234 -67.2852 L 24.0234 -49.4629 L 13.5254 -17.7246 C 8.00781 -1.26953 24.4629 9.76562 54.9805 9.76562 Z M 54.9805 -59.5215 C 38.623 -59.5215 27.6367 -63.5254 27.6367 -67.2852 C 27.6367 -71.0449 38.623 -75.0488 54.9805 -75.0488 C 71.4355 -75.0488 82.4219 -71.0449 82.4219 -67.2852 C 82.4219 -63.5254 71.4355 -59.5215 54.9805 -59.5215 Z M 54.9805 -35.6445 C 68.6523 -35.6445 79.5898 -38.7695 83.9844 -43.8965 L 93.0664 -16.5039 C 97.5098 -2.97852 82.4707 6.05469 54.9805 6.05469 C 27.5391 6.05469 12.4512 -2.97852 16.8945 -16.5039 L 25.9766 -43.8477 C 30.1758 -38.7207 40.6738 -35.6445 54.9805 -35.6445 Z"/>
  </g>
  <g id="Ultralight-M" transform="matrix(1 0 0 1 505.512 1126)">
   <path d="M 54.1992 9.52148 C 83.9355 9.52148 100.244 -1.17188 94.9707 -17.1875 L 84.668 -48.8281 C 84.7168 -48.9746 84.7168 -49.0723 84.7168 -49.2188 L 84.7168 -67.2852 C 84.7168 -72.998 72.7051 -77.8809 54.1992 -77.8809 C 35.791 -77.8809 23.7793 -72.998 23.7793 -67.2852 L 23.7793 -49.2188 C 23.7793 -49.1211 23.7793 -49.0723 23.7793 -48.9746 L 13.4277 -17.1875 C 8.1543 -1.17188 24.4629 9.52148 54.1992 9.52148 Z M 54.1992 -59.082 C 37.4023 -59.082 26.1719 -63.3301 26.1719 -67.2852 C 26.1719 -71.2402 37.4023 -75.4883 54.1992 -75.4883 C 71.0449 -75.4883 82.3242 -71.2402 82.3242 -67.2852 C 82.3242 -63.3301 71.0449 -59.082 54.1992 -59.082 Z M 54.1992 -36.084 C 68.2129 -36.084 79.6387 -39.3555 83.3984 -45.0195 L 92.7734 -16.3574 C 97.3145 -2.29492 81.8848 7.08008 54.1992 7.08008 C 26.5137 7.08008 11.084 -2.29492 15.625 -16.3574 L 25 -44.9707 C 28.4668 -39.3555 39.209 -36.084 54.1992 -36.084 Z"/>
  </g>
  <g id="Black-S" transform="matrix(1 0 0 1 2882.18 696)">
   <path d="M 51.2695 6.68945 C 82.5684 6.68945 98.1445 -6.68945 90.918 -24.6094 L 81.0547 -49.1211 L 81.0547 -60.3516 C 81.0547 -69.2383 68.7988 -75.5371 51.2695 -75.5371 C 33.7891 -75.5371 21.5332 -69.2383 21.5332 -60.3516 L 21.5332 -49.2188 L 11.5723 -24.5605 C 4.15039 -6.15234 19.9219 6.68945 51.2695 6.68945 Z M 51.2695 -56.8848 C 41.6992 -56.8848 35.3516 -58.7402 35.3516 -60.3516 C 35.3516 -61.9629 41.6992 -63.8184 51.2695 -63.8184 C 60.8398 -63.8184 67.1875 -61.9629 67.1875 -60.3516 C 67.1875 -58.7402 60.8398 -56.8848 51.2695 -56.8848 Z M 51.2695 -32.959 C 59.0332 -32.959 65.6738 -34.2285 70.7031 -36.3281 L 77.5391 -20.0195 C 80.3711 -13.3301 70.166 -7.4707 51.2695 -7.4707 C 32.3242 -7.4707 21.9727 -12.8418 25 -20.0195 L 31.8848 -36.3281 C 36.9141 -34.2285 43.5059 -32.959 51.2695 -32.959 Z"/>
  </g>
  <g id="Heavy-S" transform="matrix(1 0 0 1 2586.76 696)">
   <path d="M 49.9512 5.27344 C 80.1758 5.27344 95.2148 -7.22656 88.5254 -24.2676 L 78.9062 -48.6816 L 78.9062 -60.3516 C 78.9062 -68.6035 67.0898 -74.5605 49.9512 -74.5605 C 32.9102 -74.5605 21.0938 -68.6035 21.0938 -60.3516 L 21.0938 -48.8281 L 11.377 -24.2188 C 4.54102 -6.83594 19.7266 5.27344 49.9512 5.27344 Z M 49.9512 -56.6406 C 39.9414 -56.6406 33.3008 -58.5449 33.3008 -60.3516 C 33.3008 -62.1582 39.9414 -64.0625 49.9512 -64.0625 C 60.0098 -64.0625 66.6504 -62.1582 66.6504 -60.3516 C 66.6504 -58.5449 60.0098 -56.6406 49.9512 -56.6406 Z M 49.9512 -33.2031 C 58.1055 -33.2031 64.9414 -34.6191 69.9219 -36.9141 L 76.709 -20.2637 C 79.5898 -13.0859 69.3359 -7.17773 49.9512 -7.17773 C 30.5664 -7.17773 20.2148 -12.7441 23.2422 -20.2637 L 30.0293 -36.9141 C 35.0098 -34.6191 41.8457 -33.2031 49.9512 -33.2031 Z"/>
  </g>
  <g id="Bold-S" transform="matrix(1 0 0 1 2291.49 696)">
   <path d="M 48.5352 3.71094 C 77.4902 3.71094 91.9434 -7.86133 85.791 -23.877 L 76.5137 -48.291 L 76.5137 -60.3516 C 76.5137 -67.9199 65.1367 -73.4863 48.5352 -73.4863 C 31.9336 -73.4863 20.5566 -67.9199 20.5566 -60.3516 L 20.5566 -48.4375 L 11.1816 -23.877 C 4.98047 -7.56836 19.5312 3.71094 48.5352 3.71094 Z M 48.5352 -56.3477 C 37.9883 -56.3477 31.0059 -58.3984 31.0059 -60.3516 C 31.0059 -62.3047 37.9883 -64.3555 48.5352 -64.3555 C 59.082 -64.3555 66.0645 -62.3047 66.0645 -60.3516 C 66.0645 -58.3984 59.082 -56.3477 48.5352 -56.3477 Z M 48.5352 -33.4961 C 57.1289 -33.4961 64.209 -35.0586 69.0918 -37.5977 L 75.7812 -20.5078 C 78.7109 -12.8418 68.3594 -6.88477 48.5352 -6.88477 C 28.6621 -6.88477 18.2129 -12.5977 21.2891 -20.5078 L 27.9297 -37.5977 C 32.8125 -35.0586 39.8926 -33.4961 48.5352 -33.4961 Z"/>
  </g>
  <g id="Semibold-S" transform="matrix(1 0 0 1 1995.78 696)">
   <path d="M 47.5098 2.63672 C 75.6348 2.63672 89.6973 -8.25195 83.9355 -23.6328 L 74.9023 -48.0957 L 74.9023 -60.3516 C 74.9023 -67.4805 63.8184 -72.7539 47.5098 -72.7539 C 31.25 -72.7539 20.2148 -67.4805 20.2148 -60.3516 L 20.2148 -48.1934 L 11.0352 -23.6328 C 5.27344 -8.10547 19.3359 2.63672 47.5098 2.63672 Z M 47.5098 -56.1523 C 36.6699 -56.1523 29.3945 -58.252 29.3945 -60.3516 C 29.3945 -62.4512 36.6699 -64.5508 47.5098 -64.5508 C 58.3984 -64.5508 65.6738 -62.4512 65.6738 -60.3516 C 65.6738 -58.252 58.3984 -56.1523 47.5098 -56.1523 Z M 47.5098 -33.6914 C 56.4941 -33.6914 63.7207 -35.4004 68.5059 -38.1348 L 75.0977 -20.7031 C 78.125 -12.6465 67.7246 -6.64062 47.5098 -6.64062 C 27.2949 -6.64062 16.8457 -12.5 19.9219 -20.7031 L 26.5137 -38.1348 C 31.2988 -35.4004 38.5254 -33.6914 47.5098 -33.6914 Z"/>
  </g>
  <g id="Medium-S" transform="matrix(1 0 0 1 1699.83 696)">
   <path d="M 46.7285 1.85547 C 74.2676 1.85547 87.9883 -8.59375 82.5195 -23.4375 L 73.6328 -47.9492 L 73.6328 -60.3516 C 73.6328 -67.0898 62.8418 -72.2168 46.7285 -72.2168 C 30.7129 -72.2168 19.9219 -67.0898 19.9219 -60.3516 L 19.9219 -48.0469 L 10.9375 -23.4375 C 5.46875 -8.49609 19.2383 1.85547 46.7285 1.85547 Z M 46.7285 -56.0059 C 35.6445 -56.0059 28.1738 -58.1543 28.1738 -60.3516 C 28.1738 -62.5488 35.6445 -64.6973 46.7285 -64.6973 C 57.9102 -64.6973 65.3809 -62.5488 65.3809 -60.3516 C 65.3809 -58.1543 57.9102 -56.0059 46.7285 -56.0059 Z M 46.7285 -33.8379 C 56.0547 -33.8379 63.4277 -35.6934 68.0664 -38.5254 L 74.6094 -20.8496 C 77.6855 -12.5 67.1875 -6.49414 46.7285 -6.49414 C 26.2695 -6.49414 15.7715 -12.4512 18.8477 -20.8496 L 25.4395 -38.5742 C 30.0781 -35.6934 37.4512 -33.8379 46.7285 -33.8379 Z"/>
  </g>
  <g id="Regular-S" transform="matrix(1 0 0 1 1404.09 696)">
   <path d="M 45.752 0.78125 C 72.4121 0.78125 85.7422 -8.98438 80.7129 -23.1934 L 71.9727 -47.7539 L 71.9727 -60.3516 C 71.9727 -66.6504 61.5234 -71.4844 45.752 -71.4844 C 30.0781 -71.4844 19.5801 -66.6504 19.5801 -60.3516 L 19.5801 -47.9004 L 10.791 -23.1934 C 5.76172 -8.98438 19.0918 0.78125 45.752 0.78125 Z M 45.752 -55.8105 C 34.2773 -55.8105 26.6113 -58.0078 26.6113 -60.3516 C 26.6113 -62.6953 34.2773 -64.8926 45.752 -64.8926 C 57.2754 -64.8926 64.9414 -62.6953 64.9414 -60.3516 C 64.9414 -58.0078 57.2754 -55.8105 45.752 -55.8105 Z M 45.752 -34.0332 C 55.5176 -34.0332 63.0371 -36.084 67.4805 -39.1113 L 73.9746 -20.9961 C 77.0996 -12.3535 66.5527 -6.25 45.752 -6.25 C 24.9512 -6.25 14.4043 -12.3535 17.5293 -20.9961 L 24.0234 -39.1602 C 28.4668 -36.084 36.0352 -34.0332 45.752 -34.0332 Z"/>
  </g>
  <g id="Light-S" transform="matrix(1 0 0 1 1108.41 696)">
   <path d="M 44.7266 0.488281 C 70.3613 0.488281 83.4961 -8.83789 78.7598 -22.5098 L 70.2148 -47.2168 L 70.2148 -60.3516 C 70.2148 -66.0645 60.1074 -70.6055 44.7266 -70.6055 C 29.4434 -70.6055 19.2871 -66.0645 19.2871 -60.3516 L 19.2871 -47.3633 L 10.7422 -22.5098 C 5.95703 -8.83789 19.1406 0.488281 44.7266 0.488281 Z M 44.7266 -55.2246 C 32.7148 -55.2246 24.707 -57.7637 24.707 -60.3516 C 24.707 -62.9395 32.7148 -65.4785 44.7266 -65.4785 C 56.7871 -65.4785 64.7949 -62.9395 64.7949 -60.3516 C 64.7949 -57.7637 56.7871 -55.2246 44.7266 -55.2246 Z M 44.7266 -34.6191 C 54.7852 -34.6191 62.6465 -36.8164 66.8457 -40.1367 L 73.584 -20.8496 C 76.8066 -11.4258 65.8203 -4.98047 44.7266 -4.98047 C 23.6328 -4.98047 12.6465 -11.4258 15.8691 -20.8496 L 22.6074 -40.1367 C 26.709 -36.8164 34.5215 -34.6191 44.7266 -34.6191 Z"/>
  </g>
  <g id="Thin-S" transform="matrix(1 0 0 1 813.038 696)">
   <path d="M 43.3594 0.0976562 C 67.5781 0.0976562 80.5176 -8.69141 76.123 -21.6797 L 67.9199 -46.4355 L 67.9199 -60.3516 C 67.9199 -65.332 58.2031 -69.4336 43.3594 -69.4336 C 28.6133 -69.4336 18.8965 -65.332 18.8965 -60.3516 L 18.8965 -46.582 L 10.5957 -21.6797 C 6.25 -8.69141 19.1406 0.0976562 43.3594 0.0976562 Z M 43.3594 -54.4434 C 30.6641 -54.4434 22.168 -57.4707 22.168 -60.3516 C 22.168 -63.2324 30.6641 -66.2598 43.3594 -66.2598 C 56.1035 -66.2598 64.5996 -63.2324 64.5996 -60.3516 C 64.5996 -57.4707 56.1035 -54.4434 43.3594 -54.4434 Z M 43.3594 -35.4004 C 53.9551 -35.4004 62.3535 -37.793 65.9668 -41.6504 L 73.0469 -20.6055 C 76.4648 -10.2539 64.8438 -3.22266 43.3594 -3.22266 C 21.9238 -3.22266 10.2539 -10.2539 13.7207 -20.6055 L 20.752 -41.6504 C 24.2188 -37.7441 32.3242 -35.4004 43.3594 -35.4004 Z"/>
  </g>
  <g id="Ultralight-S" transform="matrix(1 0 0 1 517.035 696)">
   <path d="M 42.6758 -0.0976562 C 66.2109 -0.0976562 79.0039 -8.54492 74.8047 -21.2402 L 66.6992 -45.9961 C 66.6992 -46.0449 66.6992 -46.1426 66.6992 -46.1914 L 66.6992 -60.3516 C 66.6992 -64.9414 57.2266 -68.8477 42.6758 -68.8477 C 28.1738 -68.8477 18.7012 -64.9414 18.7012 -60.3516 L 18.7012 -46.1426 L 10.5469 -21.2402 C 6.34766 -8.54492 19.1895 -0.0976562 42.6758 -0.0976562 Z M 42.6758 -54.0527 C 29.6387 -54.0527 20.8984 -57.3242 20.8984 -60.3516 C 20.8984 -63.3789 29.6387 -66.6504 42.6758 -66.6504 C 55.7617 -66.6504 64.502 -63.3789 64.502 -60.3516 C 64.502 -57.3242 55.7617 -54.0527 42.6758 -54.0527 Z M 42.6758 -35.791 C 53.5645 -35.791 62.3535 -38.2812 65.4785 -42.5781 L 72.7539 -20.5078 C 76.3184 -9.61914 64.3066 -2.34375 42.6758 -2.34375 C 21.0449 -2.34375 9.08203 -9.61914 12.5977 -20.5078 L 19.873 -42.5293 C 22.8027 -38.2812 31.1523 -35.791 42.6758 -35.791 Z"/>
  </g>
 </g>
</svg>
